<svg id="Group_14245" data-name="Group 14245" xmlns="http://www.w3.org/2000/svg" width="1920.381" height="536.27" viewBox="0 0 1920.381 536.27">
  <g id="Group_14244" data-name="Group 14244" transform="translate(0 197.262)">
    <g id="Group_14231" data-name="Group 14231" transform="translate(657.881 277.687)">
      <path id="Path_15040" data-name="Path 15040" d="M-1308.978,833.588s111.994,4.836,126.443,7.463,32.679,23.13,39.246,27.07,33,15.621,51.388,26.786h-194.4S-1342.473,846.067-1308.978,833.588Z" transform="translate(1319.634 -833.588)" fill="#b2b2b2"/>
      <path id="Path_15041" data-name="Path 15041" d="M-1215.533,894.907h127.655c-18.09-9.732-54.241-25.319-64.335-34.19-4.286.988-9.306,9.889-18.5,9.232C-1177.01,869.5-1196.437,881.187-1215.533,894.907Z" transform="translate(1319.634 -833.588)" fill="#a5a5a5"/>
    </g>
    <g id="Group_14243" data-name="Group 14243">
      <g id="Group_14240" data-name="Group 14240" transform="translate(101.509)">
        <g id="Group_14234" data-name="Group 14234" transform="translate(187.701 174.196)">
          <g id="Group_14233" data-name="Group 14233">
            <path id="Path_15042" data-name="Path 15042" d="M-1379.221,808.383c15-3.008,40.228-34.436,34.91-40.147s-22.854,15.068-22.195,13.484,16.227-24.038,14.046-35.785-20.115,26.453-19.977,24.79,10.494-37.037,3.689-28.263-10.829,33.275-11.86,25.19-3.269-48.017-9.642-32.219-1.676,32.1-2.6,31.2-5.205-48.7-13.316-33.578S-1417.636,816.088-1379.221,808.383Z" transform="translate(1411.352 -730.097)" fill="#7bc1e8"/>
            <g id="Group_14232" data-name="Group 14232" transform="translate(2.902 0)">
              <path id="Path_15043" data-name="Path 15043" d="M-1383.064,774.064c-.979-7.668-3.042-43.981-8.689-34.227a43.624,43.624,0,0,1,1.5-4.4c6.373-15.8,8.61,24.134,9.642,32.219.194,1.521.494,1.888.9,1.423C-1381.459,774.541-1382.585,777.82-1383.064,774.064Z" transform="translate(1408.45 -730.097)" fill="#fff"/>
              <path id="Path_15044" data-name="Path 15044" d="M-1395.307,773.043c-.919-.892-5.144-48.024-13.143-33.891a30.494,30.494,0,0,1,2.283-6.1c5.044-9.407,8.606,5.524,10.8,18.377C-1389.846,774.792-1394.57,773.758-1395.307,773.043Z" transform="translate(1408.45 -730.097)" fill="#fff"/>
              <path id="Path_15045" data-name="Path 15045" d="M-1346.767,774.648c-5.318-5.711-22.853,15.069-22.2,13.484.253-.607-.339-1.449,2.456-6.412,5.138-5.113,17.363-19.355,22.195-13.484,1.386,1.684.585,5.2-1.812,9.636A3.792,3.792,0,0,0-1346.767,774.648Z" transform="translate(1408.45 -730.097)" fill="#fff"/>
              <path id="Path_15046" data-name="Path 15046" d="M-1354.916,752.348c-2.181-11.747-20.115,26.453-19.977,24.79s10.494-37.038,3.689-28.264a32.255,32.255,0,0,0-3.748,6.768c1.709-4.933,3.78-10.055,6.2-13.18,6.805-8.774-3.55,26.6-3.689,28.263s17.8-36.536,19.977-24.79c.863,4.65-1.055,10.978-3.729,17.025C-1354.966,759.074-1354.357,755.359-1354.916,752.348Z" transform="translate(1408.45 -730.097)" fill="#fff"/>
            </g>
          </g>
        </g>
        <g id="Group_14239" data-name="Group 14239">
          <path id="Path_15047" data-name="Path 15047" d="M-1599.053,646.815c-.042,6.023,15.545,11.013,37.643,11.165,12.234.084,15.585-5.512,23.231-5.46,15.9.109,19.117-.346,19.15-5.156.041-6.024-17.839-11.03-39.937-11.181S-1599.012,640.792-1599.053,646.815Z" transform="translate(1599.053 -555.901)" fill="#dce6f7"/>
          <g id="Group_14237" data-name="Group 14237" transform="translate(3.407)">
            <g id="Group_14235" data-name="Group 14235">
              <path id="Path_15048" data-name="Path 15048" d="M-1544.136,636.344a.064.064,0,0,0,.029-.007Z" transform="translate(1595.646 -555.901)" fill="#fff"/>
              <path id="Path_15049" data-name="Path 15049" d="M-1593.255,577.227c4.65-3.17,20.489,22.555,27.062,33.345-1.047-14.153-1.872-28.827-2.832-31.4-1.916-5.141-4.029-19.7.778-22.556s11.748,2.892,12.894,16.754c.883,10.678-5.591,32.24-7.215,43.214.759,1.462,1.61,3.357,2.414,5.346.512-3.207,1.518-9.383,4.113-20.377,6.225-26.38,6.447-46.1,18.994-45.411s12.8,12.634-.086,27.5-11.116,47.882-11.116,47.882a68.078,68.078,0,0,1,12.72-35.636c12.427-16.839,37.789-9.023,21.108.711-16.543,9.653-30.741,39.8-29.715,39.748-.683.173-14.339,3.592-17.918,2.5-1.161-.353-2.093-5.937-2.885-13.569-6.884-8.179-16.584-20.349-21.406-25.233C-1593.946,592.345-1598.8,581.011-1593.255,577.227Z" transform="translate(1595.646 -555.901)" fill="#fff"/>
            </g>
            <g id="Group_14236" data-name="Group 14236" transform="translate(2.425 2.694)">
              <path id="Path_15050" data-name="Path 15050" d="M-1541.71,639.039l.029-.007A.131.131,0,0,1-1541.71,639.039Z" transform="translate(1593.221 -558.595)" fill="#5f85b2"/>
              <path id="Path_15051" data-name="Path 15051" d="M-1590.829,579.922c4.649-3.17,20.488,22.554,27.061,33.345-1.046-14.154-1.872-28.827-2.832-31.4-1.916-5.142-4.029-19.7.778-22.557s11.748,2.892,12.9,16.754c.883,10.678-5.592,32.241-7.216,43.215.759,1.461,1.61,3.357,2.414,5.346.512-3.207,1.519-9.383,4.113-20.377,6.225-26.38,6.447-46.1,18.994-45.412s12.8,12.634-.086,27.5-11.116,47.883-11.116,47.883a68.074,68.074,0,0,1,12.72-35.636c12.427-16.839,37.79-9.024,21.108.711-16.543,9.653-30.741,39.8-29.714,39.748-.684.172-14.34,3.592-17.919,2.5-1.16-.353-2.093-5.936-2.885-13.569-6.884-8.178-16.584-20.348-21.406-25.233C-1591.521,595.04-1596.379,583.705-1590.829,579.922Z" transform="translate(1593.221 -558.595)" fill="#7bc1e8"/>
            </g>
          </g>
          <g id="Group_14238" data-name="Group 14238" transform="translate(5.451 32.699)">
            <path id="Path_15052" data-name="Path 15052" d="M-1593.447,620.4c.907-4.444,9.386,12.641,9.386,12.641s3.922-3.358,0-10.084-1.523-18.68,0-29.535,6.644,0,6.644,0a61.164,61.164,0,0,0-3.025,17.37c0,3.664,1.58,7.451,3.4,10.6a59.53,59.53,0,0,0,.533-7.625c0-6.162,2.628-6.969,5.444-.6a54.366,54.366,0,0,1,2.039,5.1,93.03,93.03,0,0,0,2.056-10.6c.465-5.378-6.212-8.233-1.978-9.27s8.167,5.574,7.96,8.979-5.54,19.582-3.364,23.067,3.268-4.09,3.364-12.022,6.256-2.352,5.233,5.823-6.539,29.1-16.52,30.55-16.937-13.319-17.844-18.007S-1594.355,624.845-1593.447,620.4Z" transform="translate(1593.602 -588.6)" fill="#fff"/>
            <path id="Path_15053" data-name="Path 15053" d="M-1591.831,621.48c.908-4.444,9.387,12.64,9.387,12.64s3.921-3.357,0-10.083-1.523-18.681,0-29.535,6.643,0,6.643,0a61.184,61.184,0,0,0-3.024,17.37c0,3.664,1.58,7.451,3.4,10.6a59.529,59.529,0,0,0,.533-7.625c0-6.162,2.627-6.969,5.444-.6a54.251,54.251,0,0,1,2.039,5.1,93,93,0,0,0,2.056-10.6c.465-5.378-6.212-8.233-1.978-9.27s8.166,5.574,7.96,8.979-5.54,19.581-3.364,23.066,3.268-4.089,3.364-12.022,6.255-2.351,5.233,5.824-6.539,29.1-16.52,30.55-16.937-13.319-17.845-18.007S-1592.738,625.923-1591.831,621.48Z" transform="translate(1593.602 -588.6)" fill="#97cbeb"/>
          </g>
        </g>
      </g>
      <g id="Group_14242" data-name="Group 14242" transform="translate(0 219.277)">
        <path id="Path_15054" data-name="Path 15054" d="M-1310.173,832.683c-9.853-6.4-135.966-53.7-145.326-53.2-7.846.413-188.694,11.489-245.063,14.891V894.907H-1251C-1276.342,872.511-1302.6,837.608-1310.173,832.683Z" transform="translate(1700.562 -775.178)" fill="#c6c6c6"/>
        <path id="Path_15055" data-name="Path 15055" d="M-1308.978,833.588c-23.363,3.712-72.755,25.158-85.435,24.219-13.3-.985-44.336,6.4-68.475,4.433s-39.41-7.389-45.322-14.778-11.331-14.779-17.242-15.272-17.735,2.956-24.631,8.375,1.97,3.941-3.942,9.852c-3.2,3.2-105.5,8.537-146.537,12.415v32.075h457.372C-1269.006,872.284-1302.309,839.3-1308.978,833.588Z" transform="translate(1700.562 -775.178)" fill="#b2b2b2"/>
        <g id="Group_14241" data-name="Group 14241" transform="translate(1576.514 58.41)">
          <path id="Path_15056" data-name="Path 15056" d="M-617.685,833.588s-111.993,4.836-126.442,7.463-29.555,3.941-36.122,7.882-36.123,34.809-54.512,45.974h194.4S-584.189,846.067-617.685,833.588Z" transform="translate(834.761 -833.588)" fill="#b2b2b2"/>
          <path id="Path_15057" data-name="Path 15057" d="M-774.338,860.1c-1.8-3.953-6.938-5.94-11.224-6.929-10.506,9.234-33.5,31.45-48.843,41.738h140.291c-22.988-16.612-53.839-25.529-61.835-24.958C-765.143,870.606-771.054,867.322-774.338,860.1Z" transform="translate(834.761 -833.588)" fill="#a5a5a5"/>
        </g>
        <path id="Path_15058" data-name="Path 15058" d="M-491.275,894.907V775.178C-542.1,797.2-610.2,828.593-616.489,832.683c-7.483,4.864-23.98,38.393-46.591,62.224Z" transform="translate(2411.275 -775.178)" fill="#c6c6c6"/>
        <path id="Path_15059" data-name="Path 15059" d="M-491.275,861.016c-15.325-1.735-35.006-3.651-40.974-3.209-12.68.939-62.072-20.507-85.436-24.219-9.162,7.852-34.8,42.421-64.958,61.319h191.368Z" transform="translate(2411.275 -775.178)" fill="#b2b2b2"/>
      </g>
    </g>
  </g>
  <g id="Group_14230" data-name="Group 14230" transform="translate(957)">
    <g id="Group_14227" data-name="Group 14227" transform="translate(0 0.449)">
      <path id="Path_15031" data-name="Path 15031" d="M529.921,1400.511V864.7c-48.423,5.064-136.841,22.031-214.9,83.184-57.818,45.3-199.98,56.722-305.258,109.973-35.253,17.832-51.742,96.218-76.011,118.06s-29.33,8.824-56.025,28.239-41.257,67.952-41.257,67.952-124.267,26.711-163.1,50.979c-25.422,15.889-86.639,53.334-106.839,77.427Z" transform="translate(433.46 -864.697)" fill="#eaebf4"/>
      <g id="Group_14226" data-name="Group 14226" transform="translate(647.899 282.915)">
        <path id="Path_15032" data-name="Path 15032" d="M216.789,1178.239a6.452,6.452,0,0,1,2.631-11.256c23.663-5.575,81.192-18.735,99.649-19.371,40.545,2.16,151.052,3.1,185.176,6.469-15.172,15.533-76.415,27.594-89.759,54.985-7.708,43.873-131.286,67.932-158.159,96.3-4.513,4.764-17.911,10.547-21.792,11.654-8.932,2.547-16.1-7.537-10.959-15.272,5.243-7.889,10.34-19.132,5.735-28.8-8.086-16.981,16.173-61.455,29.92-72.776C271.192,1190.322,236.624,1194.553,216.789,1178.239Z" transform="translate(-214.439 -1147.612)" fill="#dee7f7"/>
      </g>
    </g>
    <g id="Group_14229" data-name="Group 14229" transform="translate(405.651)">
      <path id="Path_15033" data-name="Path 15033" d="M529.921,864.248c-54.588,7.767-145.23,29.052-214.9,83.633-57.818,45.3-199.98,56.722-305.258,109.973-15.354,7.767-27.148,27.021-37.577,48.086,12.709,14.143,70.159,69,187.578,57.036,0,0,37.677,10.807,64.646,4.678s89.488-20.84,123.812-18.388c30.041,2.145,129.2,9.005,181.694,4.887Z" transform="translate(27.809 -864.248)" fill="#eaebf4"/>
      <path id="Path_15034" data-name="Path 15034" d="M394.57,1039.405c-14.2-4.286-71.12-19.853-119.4-10.1,0,0,61.366-5.044,112.815,12.638-18.247,7.665-36.95,20.838-53.549,42.7,0,0,55.646-59.979,141.826-46.643C476.264,1038,437.578,1024.238,394.57,1039.405Z" transform="translate(27.809 -864.248)" fill="#f1f2f8"/>
      <g id="Group_14228" data-name="Group 14228" transform="translate(464.22 159.567)">
        <g id="tree2">
          <path id="Path_15035" data-name="Path 15035" d="M529.921,1023.815c-6.371,1.7-12.913,3.668-13.883,4.665-10.15,10.409-1.486,32.352-5.983,33.917-3.7,1.281-6.872-9.8-16.566-10.779-8.656-.865-22.841,14.428-22.849,24.672-.016,9.377,5.907,19.562,8.936,26.558-6.151-.764-13.812.971-22.63,8.734-24.466,21.55,12.99,60.933,13.816,61.7-.495-.244-17.263-11.813-30.471,2.418-9.647,10.4-.986,40.186,22.443,56.075,13.421,9.1,37.3,10.408,58.288,15.156.4.09,4.408,1.333,8.9,2.7Z" transform="translate(-436.411 -1023.815)" fill="#fdfdff"/>
          <path id="Path_15036" data-name="Path 15036" d="M495.934,1111.265c.079-.014.119-.019.11-.013A.144.144,0,0,1,495.934,1111.265Z" transform="translate(-436.411 -1023.815)" fill="#fdfdff"/>
          <path id="Path_15037" data-name="Path 15037" d="M529.921,1031.376c-4.139,2.2-9.22,5.428-10.6,6.847-10.15,10.41-1.486,32.353-5.983,33.917-3.7,1.281-8.263-13.994-17.957-14.969-8.656-.865-20.937,9.709-20.945,19.953-.023,14.058,23.036,38.352,24.868,43.25.063.165.2.495.024.621-1.054.723-16.165-19.86-39.1.33-24.467,21.55,10.826,54.068,11.651,54.83-.495-.243-16.038-7.579-29.246,6.652-9.647,10.4,12.146,41.488,35.575,57.377,13.421,9.1,25.112,11.738,46.1,16.487.563.128,3.178.551,5.617.924Z" transform="translate(-436.411 -1023.815)" fill="#7bc1e8"/>
          <path id="Path_15038" data-name="Path 15038" d="M515.718,1161.506c-.059-1.68-11.075-35.863-11.615-24.215s-1.287,12.917-9.38,6.537-19.191.277-12.433,5.114S515.718,1161.506,515.718,1161.506Z" transform="translate(-436.411 -1023.815)" fill="#6db7e0"/>
          <path id="Path_15039" data-name="Path 15039" d="M498.794,1229.969c.633-1.375,5.625-33.322.472-24.175s-6.268,9.863-10.191,1.455-15.541-7.552-12.067-.925S498.794,1229.969,498.794,1229.969Z" transform="translate(-436.411 -1023.815)" fill="#6db7e0"/>
        </g>
      </g>
    </g>
  </g>
</svg>
