<svg xmlns="http://www.w3.org/2000/svg" xmlns:xlink="http://www.w3.org/1999/xlink" width="577.105" height="454.864" viewBox="0 0 577.105 454.864">
  <defs>
    <linearGradient id="linear-gradient" x1="0.495" y1="1.05" x2="0.527" y2="0.183" gradientUnits="objectBoundingBox">
      <stop offset="0" stop-color="#1dc5ce"/>
      <stop offset="1" stop-color="#1dc5ce" stop-opacity="0.82"/>
    </linearGradient>
    <linearGradient id="linear-gradient-2" x1="0.509" y1="1.066" x2="0.5" y2="0.689" gradientUnits="objectBoundingBox">
      <stop offset="0" stop-color="#f9e6d9"/>
      <stop offset="0.121" stop-color="#fbf1ea"/>
      <stop offset="0.27" stop-color="#fdf9f6"/>
      <stop offset="0.475" stop-color="#fefdfd"/>
      <stop offset="1" stop-color="#fff"/>
    </linearGradient>
    <linearGradient id="linear-gradient-3" x1="0.506" y1="1.034" x2="0.496" y2="0.634" xlink:href="#linear-gradient-2"/>
    <linearGradient id="linear-gradient-4" x1="1" y1="0.5" x2="0" y2="0.5" gradientUnits="objectBoundingBox">
      <stop offset="0" stop-color="#8aebd6"/>
      <stop offset="0.461" stop-color="#88e9d6"/>
      <stop offset="0.628" stop-color="#84e2d9"/>
      <stop offset="0.746" stop-color="#7cd6de"/>
      <stop offset="0.842" stop-color="#71c5e5"/>
      <stop offset="0.923" stop-color="#63afee"/>
      <stop offset="0.994" stop-color="#5295f9"/>
      <stop offset="1" stop-color="#5193fa"/>
    </linearGradient>
    <linearGradient id="linear-gradient-5" x1="1" y1="0.5" x2="0" y2="0.5" gradientUnits="objectBoundingBox">
      <stop offset="0" stop-color="#31d1d6"/>
      <stop offset="0.373" stop-color="#32ced8"/>
      <stop offset="0.617" stop-color="#35c5de"/>
      <stop offset="0.824" stop-color="#3cb6ea"/>
      <stop offset="1" stop-color="#45a3fa"/>
    </linearGradient>
    <linearGradient id="linear-gradient-6" x1="1" y1="0.5" x2="0" y2="0.5" xlink:href="#linear-gradient-4"/>
    <linearGradient id="linear-gradient-7" x1="0" y1="0.5" x2="1" y2="0.5" xlink:href="#linear-gradient-5"/>
    <linearGradient id="linear-gradient-8" y1="0.5" x2="1" y2="0.5" gradientUnits="objectBoundingBox">
      <stop offset="0" stop-color="#f7be86"/>
      <stop offset="0.329" stop-color="#f7bc83"/>
      <stop offset="0.545" stop-color="#f7b67a"/>
      <stop offset="0.728" stop-color="#f7ac6b"/>
      <stop offset="0.891" stop-color="#f79e56"/>
      <stop offset="1" stop-color="#f79244"/>
    </linearGradient>
    <linearGradient id="linear-gradient-9" x1="0.51" y1="0.112" x2="0.432" y2="3.099" gradientUnits="objectBoundingBox">
      <stop offset="0" stop-color="#7b6ed6"/>
      <stop offset="0.48" stop-color="#796cd4"/>
      <stop offset="0.653" stop-color="#7268d0"/>
      <stop offset="0.777" stop-color="#6660c8"/>
      <stop offset="0.877" stop-color="#5555be"/>
      <stop offset="0.961" stop-color="#3f46b0"/>
      <stop offset="1" stop-color="#333ea8"/>
    </linearGradient>
    <linearGradient id="linear-gradient-10" y1="0.5" x2="1" y2="0.5" gradientUnits="objectBoundingBox">
      <stop offset="0" stop-color="#1dc5ce"/>
      <stop offset="1" stop-color="#09a4ac"/>
    </linearGradient>
    <linearGradient id="linear-gradient-12" y1="0.5" x2="1" y2="0.5" gradientUnits="objectBoundingBox">
      <stop offset="0" stop-color="#3c0887"/>
      <stop offset="0.323" stop-color="#3e0987"/>
      <stop offset="0.534" stop-color="#470d87"/>
      <stop offset="0.713" stop-color="#561488"/>
      <stop offset="0.873" stop-color="#6b1f89"/>
      <stop offset="1" stop-color="#822a8a"/>
    </linearGradient>
    <linearGradient id="linear-gradient-14" x1="0.507" y1="1.067" x2="0.497" y2="0.553" xlink:href="#linear-gradient-2"/>
  </defs>
  <g id="Group_25135" data-name="Group 25135" transform="translate(-725 -169)">
    <path id="Path_37918" data-name="Path 37918" d="M211.934,407.143H154.3c-15.422-16.021-19.547-41.55-10.335-61.791,8.781-19.294,27.634-32.039,39.057-49.9,24.379-38.108,12.6-94.881,45.724-125.688,16.559-15.4,40.372-19.853,62.913-21.653s45.838-1.751,66.684-10.513c25.707-10.8,45.085-34.011,71.564-42.755,29.731-9.819,65.3,2.434,82.673,28.482,10.871,16.3,14.974,36.776,27.831,51.56,20.79,23.905,57.416,25.76,83.344,43.964a77.5,77.5,0,0,1,32.083,54.484c2.767,26.089-7.138,55.723,8.506,76.786,7.628,10.27,20,16.06,28.215,25.864,8.19,9.769,10.5,18.671,7.919,31.156Z" transform="translate(585.896 131.953)" fill="#1dc5ce" opacity="0.37" style="mix-blend-mode: darken;isolation: isolate"/>
    <path id="Path_37919" data-name="Path 37919" d="M225.091,407.143H167.457c-15.423-16.021-19.548-41.55-10.336-61.791,8.781-19.294,27.635-32.039,39.059-49.9,24.378-38.108,12.6-94.881,45.723-125.688,16.559-15.4,40.372-19.853,62.913-21.653s45.838-1.751,66.685-10.513c25.707-10.8,45.085-34.011,71.563-42.755,29.732-9.819,65.3,2.434,82.673,28.482,10.872,16.3,14.974,36.776,27.831,51.56,20.79,23.905,57.416,25.76,83.345,43.964a77.494,77.494,0,0,1,32.082,54.484c2.767,26.089-7.137,55.723,8.506,76.786,7.628,10.27,20,16.06,28.215,25.864,8.19,9.769,10.5,18.671,7.919,31.156Z" transform="translate(587.468 131.953)" opacity="0.37" fill="url(#linear-gradient)" style="mix-blend-mode: darken;isolation: isolate"/>
    <path id="Path_37920" data-name="Path 37920" d="M359.018,206.5l-2.373.078H142.31l-.515.067c-2.127-14.217,9-28.659,23.005-32.487,12.247-3.347,26.576-.369,36.831-7.859,9.191-6.706,11.475-19.244,17.486-28.9a40.928,40.928,0,0,1,15.3-14.374c7.814-4.2,17.565-5.665,25.58-1.87,14.195,6.739,16.915,25.546,26.408,38.073,2.116,2.8,4.78,5.407,8.172,6.336,3.123.862,6.437.19,9.639-.381,10.489-1.847,23.072-1.679,29.6,6.739,3.067,3.963,4.164,9.045,5.866,13.747s4.489,9.549,9.2,11.24c2.261.795,4.825.817,6.818,2.149C358.1,200.661,358.873,203.516,359.018,206.5Z" transform="translate(586.187 135.238)" fill="#eaf6f6"/>
    <path id="Path_37921" data-name="Path 37921" d="M670.631,230.826H420.686a9.975,9.975,0,0,1-.817-9.784c1.847-4.086,5.7-6.862,9.538-9.168s7.926-4.444,10.8-7.881c5.519-6.594,5.194-16.053,6.415-24.561,1.433-10.1,5.665-20.095,13.3-26.867a41.6,41.6,0,0,1,10.2-6.515c10.467-4.87,23.431-6.09,33.215.045,9.359,5.866,13.949,17.027,22.11,24.472a15.325,15.325,0,0,0,6.683,3.941c7.31,1.679,13.523-4.948,19.009-10.064,7.792-7.265,18.2-12.695,28.771-11.34,12.426,1.612,22.031,12.269,26.744,23.878,1.97,4.836,3.47,10.187,7.389,13.624,10.053,8.81,27.024-1.064,38.745,5.34,4.4,2.407,7.344,6.784,9.695,11.217A80.955,80.955,0,0,1,670.631,230.826Z" transform="translate(619.333 137.982)" fill="#d0eeef"/>
    <g id="Group_25124" data-name="Group 25124" transform="translate(801.717 375.803)">
      <path id="Path_37922" data-name="Path 37922" d="M344.91,359.264H326.928V390.87H283.371V359.264H218.258V326.876l67.905-99.289h40.765v98.73H344.91Zm-61.539-32.947V307.331q0-5.362.391-14.464a93.122,93.122,0,0,1,.615-9.549h-1.228a117.968,117.968,0,0,1-8.6,16.082l-18.093,26.917Z" transform="translate(-206.364 -227.587)" fill="#31d1d6"/>
      <path id="Path_37923" data-name="Path 37923" d="M334.284,359.272H316.3v31.607H272.745V359.272H207.633V326.883l67.9-99.287H316.3v98.73h17.981Zm-61.539-32.946V307.34q0-5.362.391-14.464a93.494,93.494,0,0,1,.615-9.549h-1.228a118.036,118.036,0,0,1-8.6,16.082L245.83,326.326Z" transform="translate(-207.633 -227.586)" fill="url(#linear-gradient-2)"/>
    </g>
    <g id="Group_25125" data-name="Group 25125" transform="translate(1082.326 382.701)">
      <path id="Path_37924" data-name="Path 37924" d="M599.221,359.623l-6.258-32.353-11.676,2.261-5.978,1.153-18.74-96.935L516.537,241.5,468.724,351.865l6.146,31.8L538.8,371.3l3.638,18.841h44.365l-5.239-27.1,5.978-1.153Zm-78.352-18.4-14.744,2.844,10.523-24.83,2.127-5.026a118.445,118.445,0,0,0,5.385-17.43l1.209-.224a94.391,94.391,0,0,0,1.209,9.493q1.343,9,2.362,14.273l3.6,18.639Z" transform="translate(-457.048 -233.749)" fill="#31d1d6"/>
      <path id="Path_37925" data-name="Path 37925" d="M588.791,361.642,582.533,329.3l-17.654,3.414-18.751-96.935-28.345,5.474-11.676,2.261-47.813,110.38,6.146,31.793,11.676-2.261,52.257-10.1,3.2,16.568H575.94l-4.8-24.841,11.676-2.261Zm-70.9-42.652c.213,1.22.425,2.328.616,3.347l3.6,18.639-26.431,5.116,12.661-29.868a117.874,117.874,0,0,0,5.385-17.419l1.209-.235a93.516,93.516,0,0,0,1.209,9.493C516.787,312.34,517.369,315.989,517.895,318.99Z" transform="translate(-458.294 -233.506)" fill="url(#linear-gradient-3)"/>
    </g>
    <g id="Group_25130" data-name="Group 25130" transform="translate(761.301 169)">
      <g id="Group_25126" data-name="Group 25126" transform="translate(61.805 129.046)">
        <path id="Path_37926" data-name="Path 37926" d="M347.061,316.356H320.468L303.574,192.664S279.164,166,251.144,161.006l26.688-2.877,60.149,1.634Z" transform="translate(-223.823 -158.129)" fill="#011"/>
        <path id="Path_37927" data-name="Path 37927" d="M244.151,239.251s-15.111,22.115-8.4,41.1l28.112-41.1-3.651-4.9Z" transform="translate(-225.867 -149.023)" fill="#111023"/>
        <path id="Path_37928" data-name="Path 37928" d="M314.068,299.468l-.906,5.71s-8.011,1.121-8.458,12.561H325.54l11.321-11.051,1.057-7.219Z" transform="translate(-217.423 -141.242)" fill="#111023"/>
        <path id="Path_37929" data-name="Path 37929" d="M291.215,192.268l-33.327-1.243,5.416,51.036-22.589,8.095L227.7,187.13a19.475,19.475,0,0,1,16.423-25.356l9.93-1.075h.011c28.021,4.993,52.43,31.658,52.43,31.658Z" transform="translate(-226.738 -157.822)" fill="#10221b"/>
      </g>
      <g id="Group_25127" data-name="Group 25127" transform="translate(0 5.673)">
        <path id="Path_37930" data-name="Path 37930" d="M235.772,63.245v1.483l-1.807.232a7.038,7.038,0,0,0-1.453-2.23c-2.412-2.08-4.088-3.714-5.815-2.716-1.3.758-1.2,4.32-1.079,6.006l-4.916.626-43.543,5.521-.02-.081c2.826-.666,5.016-5.733,5.016-11.89,0-6.077-2.13-11.083-4.9-11.87l58.512,6.6v8.318Z" transform="translate(-170.86 -47.874)" fill="#10221b"/>
        <path id="Path_37931" data-name="Path 37931" d="M181.064,51.527a6.071,6.071,0,0,0-.334.555,30.958,30.958,0,0,1-1.695,3.7,5.018,5.018,0,0,1-2.312,1.826,13.223,13.223,0,0,1-3.1.585,7.185,7.185,0,0,0-2.05.525c.334-5.813,2.625-10.335,5.441-10.487l.909.1A5.651,5.651,0,0,1,181.064,51.527Z" transform="translate(-171.525 -47.885)" fill="url(#linear-gradient-4)"/>
        <path id="Path_37932" data-name="Path 37932" d="M182.805,58.877c-.02.02-.03.04-.051.06-.716.959-1.059,2.161-1.725,3.149a5.642,5.642,0,0,1-3.382,2.322c-1.262.282-2.624.131-3.775.706a3.7,3.7,0,0,0-1.413,1.322,22.506,22.506,0,0,1-.929-6.58c0-.5.01-1,.05-1.484a7.185,7.185,0,0,1,2.05-.525,13.223,13.223,0,0,0,3.1-.585,5.018,5.018,0,0,0,2.312-1.826,30.958,30.958,0,0,0,1.695-3.7,6.071,6.071,0,0,1,.334-.555A19.385,19.385,0,0,1,182.805,58.877Z" transform="translate(-171.53 -47.534)" fill="url(#linear-gradient-5)"/>
        <path id="Path_37933" data-name="Path 37933" d="M182.726,59.035c0,6.157-2.191,11.224-5.016,11.89a2.69,2.69,0,0,1-.636.081c-1.969,0-3.7-2.14-4.714-5.39a3.7,3.7,0,0,1,1.413-1.322c1.151-.575,2.513-.424,3.775-.706a5.642,5.642,0,0,0,3.382-2.322c.666-.988,1.009-2.19,1.725-3.149.021-.02.031-.04.051-.06C182.716,58.379,182.726,58.7,182.726,59.035Z" transform="translate(-171.431 -46.712)" fill="url(#linear-gradient-6)"/>
        <path id="Path_37934" data-name="Path 37934" d="M260.313,56.315h17.6a14.877,14.877,0,0,0-4.108,2.241c-.555.514-.312,1.453.374,2.654H260.313Z" transform="translate(-160.923 -46.92)" fill="#111023"/>
        <path id="Path_37935" data-name="Path 37935" d="M296.375,59.263V61.21h-9.538a35.82,35.82,0,0,1-1.837-4.9h11.375Z" transform="translate(-157.973 -46.92)" fill="#111023"/>
        <path id="Path_37936" data-name="Path 37936" d="M263.993,61.334v1.08H229.514V55.278h34.479v6.056Z" transform="translate(-164.602 -47.044)" fill="url(#linear-gradient-7)"/>
        <path id="Path_37937" data-name="Path 37937" d="M232.486,74.222,224.9,80s-9.216-9.659-8.842-14.564l4.916-.626c-.122-1.686-.223-5.248,1.079-6.006,1.726-1,3.4.636,5.815,2.716a7.038,7.038,0,0,1,1.453,2.23A61.419,61.419,0,0,1,232.486,74.222Z" transform="translate(-166.212 -46.659)" fill="url(#linear-gradient-8)"/>
        <path id="Path_37938" data-name="Path 37938" d="M185.406,48.419c-.507-1.111-2.147-.162-1.645.938a22.418,22.418,0,0,1-1.02,20.842.947.947,0,0,0,1.64.946A24.426,24.426,0,0,0,185.406,48.419Z" transform="translate(-170.206 -47.923)" fill="#5b2b89"/>
      </g>
      <g id="Group_25128" data-name="Group 25128" transform="translate(55.384 13.382)">
        <path id="Path_37939" data-name="Path 37939" d="M306.611,79.433v5.854l-7-6.621Z" transform="translate(-211.612 -51.959)" fill="url(#linear-gradient-9)"/>
        <path id="Path_37940" data-name="Path 37940" d="M308.536,85.825l7.056,6.662,6.733,6.359s15.422-10.8,21.408-10.891a6.914,6.914,0,0,1,1.221.081c5.279.748,8.509,6.853,7.58,12.708-1,6.308-.817,13.293-6.894,14.423S312.8,122.8,312.8,122.8l-29.3-39.748,3.452-2.412,7.691-5.379,1.555-1.09,3.381,3.189,1.958,1.847Z" transform="translate(-213.537 -52.496)" fill="#1dc5ce"/>
        <path id="Path_37941" data-name="Path 37941" d="M324.026,80.442l17.5,6.843a6.914,6.914,0,0,0-1.221-.081C334.32,87.3,318.9,98.1,318.9,98.1l-6.733-6.359Z" transform="translate(-210.111 -51.746)" fill="#1dc5ce"/>
        <path id="Path_37942" data-name="Path 37942" d="M353.106,115.361l-10.164,27.677-1.362,26.949s-1.191.212-3.261.5c-9.689,1.383-38.728,4.693-56.886-2.14l7.075-33.48-3.27-26.4-39.466,4.36L221,80.83l3.3-2.513,7.59-5.773L255.3,95.406,291.93,79.4a13.609,13.609,0,0,0,2.483,1.433l-3.452,2.412,29.3,39.748S347.029,116.5,353.106,115.361Z" transform="translate(-221.003 -52.69)" fill="url(#linear-gradient-10)"/>
        <path id="Path_37943" data-name="Path 37943" d="M296,77.57l-7.691,5.379a13.61,13.61,0,0,1-2.483-1.433c-1.736-1.242-3.785-3.29-4.038-6.177-.332-3.876-6.874-10.184-9.013-13.949-.686-1.2-.929-2.14-.374-2.655a14.91,14.91,0,0,1,4.108-2.24c4.067-1.615,9.488-2.715,9.982-.2a1.961,1.961,0,0,0,.05.2,35.82,35.82,0,0,0,1.837,4.9C291.164,67.89,296,77.57,296,77.57Z" transform="translate(-214.899 -54.809)" fill="url(#linear-gradient-8)"/>
        <path id="Path_37944" data-name="Path 37944" d="M335.476,141.9c-44.833-9.51-51.982-59.795-51.982-59.795l29.3,39.777,32.843-7.659Z" transform="translate(-213.537 -51.548)" opacity="0.38" fill="url(#linear-gradient-12)" style="mix-blend-mode: overlay;isolation: isolate"/>
      </g>
      <g id="Group_25129" data-name="Group 25129" transform="translate(130.475 0)">
        <path id="Path_37945" data-name="Path 37945" d="M325.629,59.245c.948-.262,1.908-.071,2.29,1.443.889,3.463-3,7.621-3,7.621l.959,15.372-11.86,11.3,4.642-13.284-11.7.767-7-.767L298,79.846S296.64,67.1,296.64,59.619a24.2,24.2,0,0,1,.252-4.108l.06-.364c8.2,1.384,19.572-1.816,19.572-1.816s1.594,15.524,3.775,15.8,2.857-8.439,2.857-8.439A7.44,7.44,0,0,1,325.629,59.245Z" transform="translate(-287.057 -41.604)" fill="url(#linear-gradient-8)"/>
        <path id="Path_37946" data-name="Path 37946" d="M326.742,49.212,326.652,60.5a7.44,7.44,0,0,0-2.473,1.443s-.677,8.7-2.857,8.439-3.775-15.8-3.775-15.8-11.375,3.2-19.572,1.816v-.01a11.007,11.007,0,0,1-6.318-2.886c-6.268-6.6-4.087-10.346,4.9-8.308S324.158,36.424,326.742,49.212Z" transform="translate(-288.08 -42.855)" fill="#111023"/>
        <path id="Path_37947" data-name="Path 37947" d="M317.562,78.666l-4.643,13.283-7.055-6.662V79.433Z" transform="translate(-285.955 -38.577)" fill="#f79244"/>
        <path id="Path_37948" data-name="Path 37948" d="M296.27,56.865a6.837,6.837,0,0,1,5.577-.33c1.159.418.285,2.123-.86,1.709a4.7,4.7,0,0,0-3.675.225C296.224,59.016,295.169,57.417,296.27,56.865Z" transform="translate(-287.157 -41.274)" fill="#111023"/>
        <ellipse id="Ellipse_1259" data-name="Ellipse 1259" cx="1.376" cy="2.042" rx="1.376" ry="2.042" transform="translate(25.044 18.162) rotate(-2.993)" fill="#111023"/>
        <path id="Path_37949" data-name="Path 37949" d="M314.564,56.425a6.835,6.835,0,0,0-5.581.253c-1.109.536-.063,2.14,1.033,1.611a4.709,4.709,0,0,1,3.679-.16C314.835,58.559,315.716,56.859,314.564,56.425Z" transform="translate(-285.639 -41.291)" fill="#111023"/>
        <path id="Path_37950" data-name="Path 37950" d="M302.06,67.428c.611-2.893,2.107-5.837,3.117-8.618.21-.579,1.063-.142.855.43L304.121,64.5a11.945,11.945,0,0,0-.819,2.254c-.208,2.184.79,2.013,1.921,2.539.56.261.128,1.114-.43.855C303.4,69.5,301.64,69.413,302.06,67.428Z" transform="translate(-286.417 -40.982)" fill="#f79244"/>
        <path id="Path_37951" data-name="Path 37951" d="M301.525,61.2a6.042,6.042,0,0,0-3.056-1.341c-.7-.091-1,.992-.282,1.084a5.282,5.282,0,0,1,1.637.486l-1.791.582c-.684.222-.4,1.3.289,1.081l2.95-.958C301.63,62.013,301.876,61.478,301.525,61.2Z" transform="translate(-286.938 -40.825)" fill="#111023"/>
        <ellipse id="Ellipse_1260" data-name="Ellipse 1260" cx="2.491" cy="3.597" rx="2.491" ry="3.597" transform="translate(16.724 31.386)" fill="#fff"/>
      </g>
    </g>
    <path id="Path_37952" data-name="Path 37952" d="M660.542,373.453h-449.2s-24.169,16.047,11.765,18.762,91.981,5.284,90.6,17.51-33.835,9.811-33.835,31.4,149.675,16.6,149.675,16.6,84.553,1.107,96.594-13.182-34.086-27.37-25.714-33.006,69.15,11.27,78.207-2.415-1.811-22.339,14.894-24.15S657.725,389.708,660.542,373.453Z" transform="translate(593.577 165.643)" fill="#1dc5ce" opacity="0.7" style="mix-blend-mode: multiply;isolation: isolate"/>
    <ellipse id="Ellipse_1261" data-name="Ellipse 1261" cx="33.962" cy="9.66" rx="33.962" ry="9.66" transform="translate(1186.196 557.859)" fill="#1dc5ce"/>
    <ellipse id="Ellipse_1262" data-name="Ellipse 1262" cx="29.685" cy="7.346" rx="29.685" ry="7.346" transform="translate(828.87 568.526)" fill="#1dc5ce"/>
    <ellipse id="Ellipse_1263" data-name="Ellipse 1263" cx="33.716" cy="6.49" rx="33.716" ry="6.49" transform="translate(994.994 598.009)" fill="#e9fdff"/>
    <g id="Group_25134" data-name="Group 25134" transform="translate(944.374 340.117)">
      <g id="Group_25132" data-name="Group 25132" transform="translate(0 79.106)">
        <path id="Path_37953" data-name="Path 37953" d="M462.75,299.61q-10.378-23.727-38.924-29.554-3.107-.638-6.079-1.008-25.188-3.191-41.544,12.023-18.3,16.994-27.024,59.679-5.34,26.145-2.978,45.238h41.6q-.789-11.15,4.388-36.45,5.592-27.354,11.083-36.954,3.19-5.575,7.221-7.355a10.06,10.06,0,0,1,6.258-.6q7.993,1.646,9.2,13,1.209,11.368-4.22,37.95-4.081,19.932-8.183,30.416h45.607a200.587,200.587,0,0,0,5.575-21.628q1.6-7.808,2.508-14.979Q471.152,318.82,462.75,299.61Z" transform="translate(-333.821 -266.12)" fill="#31d1d6"/>
        <path id="Path_37954" data-name="Path 37954" d="M452.34,297.49q-9.32-21.309-33.349-28.188-2.7-.772-5.586-1.366-29.319-5.995-47.623,11.016-18.287,17.01-27.013,59.679-1.78,8.681-2.7,16.6-2.032,17.38.045,31.009H377.66c-.056-.269-.09-.537-.123-.817q-1.31-10.864,4.232-38.006,5.592-27.354,11.094-36.943,5.491-9.605,13.479-7.96a9.793,9.793,0,0,1,5.4,2.967c2.071,2.217,3.325,5.553,3.806,10.019q1.209,11.368-4.22,37.95-4.567,22.3-9.169,32.789h45.82a202.818,202.818,0,0,0,6.347-23.99Q462.7,321.212,452.34,297.49Z" transform="translate(-335.065 -266.374)" fill="url(#linear-gradient-14)"/>
      </g>
      <g id="Group_25133" data-name="Group 25133" transform="translate(81.817 0)">
        <path id="Path_37955" data-name="Path 37955" d="M475.363,199.248l-.28.213-29.252,22.77-18.259,14.206-15.2,42.07-4.22-1.522,15.661-43.29,48.809-37.984Z" transform="translate(-408.15 -195.71)" fill="#2a2a2a"/>
      </g>
      <path id="Path_37956" data-name="Path 37956" d="M485.358,293.264c-3.325,3.952-7.859,6.661-12.3,9.292l-.3-.526c1.758-2.25,3.616-4.892,3.09-7.7a9.018,9.018,0,0,0-3.224-4.724c-2.452-2.161-5.183-3.985-7.523-6.258s-4.321-5.127-4.7-8.362c-.493-4.254,1.8-8.273,2.7-12.46a8.43,8.43,0,0,0-.19-5.049c-1.5-3.56-6.034-4.377-9.628-5.81-3.213-1.3-6.235-3.705-7.131-7.053-1.3-4.859,2.161-9.829,1.69-14.833a9.867,9.867,0,0,0-6.023-7.948l29.252-22.77c4.959,4.3,9.236,10,9.292,16.5.022,4.12-1.646,8.038-2.832,11.978a10.694,10.694,0,0,0-.582,4.87c.459,2.485,2.44,4.366,4.265,6.124,3.773,3.616,7.568,8.015,7.5,13.243-.067,5.866-5.071,11.094-4.2,16.893.56,3.705,3.414,6.661,4.556,10.221C490.63,283.815,488.682,289.312,485.358,293.264Z" transform="translate(-322.312 -195.31)" fill="#10221b"/>
    </g>
  </g>
</svg>
