<svg xmlns="http://www.w3.org/2000/svg" width="194.274" height="78.327" viewBox="0 0 194.274 78.327">
  <path id="Path_37957" data-name="Path 37957" d="M335.807,197.162l-2.12.07H142.227l-.46.06c-1.9-12.7,8.04-25.6,20.55-29.02,10.94-2.99,23.74-.33,32.9-7.02,8.21-5.99,10.25-17.19,15.62-25.82a36.56,36.56,0,0,1,13.67-12.84c6.98-3.75,15.69-5.06,22.85-1.67,12.68,6.02,15.11,22.82,23.59,34.01,1.89,2.5,4.27,4.83,7.3,5.66,2.79.77,5.75.17,8.61-.34,9.37-1.65,20.61-1.5,26.44,6.02,2.74,3.54,3.72,8.08,5.24,12.28s4.01,8.53,8.22,10.04c2.02.71,4.31.73,6.09,1.92C334.987,191.942,335.677,194.492,335.807,197.162Z" transform="translate(-141.533 -118.965)" fill="#eaf6f6"/>
</svg>
