<svg xmlns="http://www.w3.org/2000/svg" width="224.807" height="79.407" viewBox="0 0 224.807 79.407">
  <path id="Path_37958" data-name="Path 37958" d="M643.772,221.339H420.5a8.91,8.91,0,0,1-.73-8.74c1.65-3.65,5.09-6.13,8.52-8.19s7.08-3.97,9.65-7.04c4.93-5.89,4.64-14.34,5.73-21.94,1.28-9.02,5.06-17.95,11.88-24a37.163,37.163,0,0,1,9.11-5.82c9.35-4.35,20.93-5.44,29.67.04,8.36,5.24,12.46,15.21,19.75,21.86a13.689,13.689,0,0,0,5.97,3.52c6.53,1.5,12.08-4.42,16.98-8.99,6.96-6.49,16.26-11.34,25.7-10.13,11.1,1.44,19.68,10.96,23.89,21.33,1.76,4.32,3.1,9.1,6.6,12.17,8.98,7.87,24.14-.95,34.61,4.77,3.93,2.15,6.56,6.06,8.66,10.02A72.317,72.317,0,0,1,643.772,221.339Z" transform="translate(-418.965 -141.932)" fill="#d0eeef"/>
</svg>
