<svg xmlns="http://www.w3.org/2000/svg" xmlns:xlink="http://www.w3.org/1999/xlink" width="641" height="682" viewBox="0 0 641 682">
  <defs>
    <linearGradient id="linear-gradient" x1="0.5" x2="0.5" y2="0.452" gradientUnits="objectBoundingBox">
      <stop offset="0" stop-color="#d0eeef"/>
      <stop offset="1" stop-color="#fff"/>
    </linearGradient>
    <clipPath id="clip-path">
      <rect id="Rectangle_6515" data-name="Rectangle 6515" width="641" height="682" rx="10" transform="translate(245 652)" fill="#eaf6f6"/>
    </clipPath>
  </defs>
  <g id="Group_25138" data-name="Group 25138" transform="translate(-289 -631)">
    <path id="Path_26557" data-name="Path 26557" d="M-14585,710s23,48,154,22,266,60,304,64,152-7,183-38c-2,2,0,302,0,302h-641Z" transform="translate(14874 253)" fill="url(#linear-gradient)"/>
    <g id="Mask_Group_67" data-name="Mask Group 67" transform="translate(44 -21)" clip-path="url(#clip-path)">
      <g id="Group_17574" data-name="Group 17574" transform="translate(-320.501 493.27)">
        <path id="Path_26473" data-name="Path 26473" d="M1184.584,295.7a15.256,15.256,0,0,1,4.888.793,12.324,12.324,0,0,1-.245-2.444c0-7.178,6.236-13,13.928-13a14.834,14.834,0,0,1,3.925.524c1.947-9.187,10.439-16.1,20.626-16.1,11.625,0,21.046,9.006,21.046,20.116a19.293,19.293,0,0,1-.8,5.507c7.607.514,13.59,5.858,13.59,12.753s-6.592,12.38-10.646,13.515a5.87,5.87,0,0,1-2.414,0h-63.9c-7.178,0-13-4.851-13-10.833S1177.406,295.7,1184.584,295.7Z" transform="translate(-85.49 -28.92)" fill="#d0eeef" fill-rule="evenodd"/>
        <path id="Path_26474" data-name="Path 26474" d="M663.059,381.011a15.293,15.293,0,0,1,4.891.793,12.061,12.061,0,0,1-.249-2.444c0-7.178,6.236-13,13.925-13a14.81,14.81,0,0,1,3.928.526c1.947-9.187,10.443-16.1,20.627-16.1,11.62,0,21.045,9.007,21.045,20.118a19.279,19.279,0,0,1-.8,5.507c7.6.514,13.591,5.856,13.591,12.752s-6.592,12.379-10.647,13.514a5.875,5.875,0,0,1-2.413,0h-63.9c-7.179,0-13-4.85-13-10.832S655.88,381.011,663.059,381.011Z" transform="translate(-30.163 -80.782)" fill="#d0eeef" fill-rule="evenodd"/>
        <path id="Path_26475" data-name="Path 26475" d="M894.01,1346.781c-128.586,0-232.825,11.26-232.825,25.147s104.239,25.153,232.825,25.153,232.827-11.259,232.827-25.153S1022.594,1346.781,894.01,1346.781Z" transform="translate(-33.579 -561.85)" fill="#707070" fill-rule="evenodd" opacity="0.18"/>
        <path id="Path_26489" data-name="Path 26489" d="M1077.785,763.682s3.369-.868,3.73-5.814a3.86,3.86,0,0,0-.742-3.007c-.79-.78-2-.574-3.043-.422,1.215-.031,2.018-1.418,2.532-2.67a10.9,10.9,0,0,0,.9-3.191,4.506,4.506,0,0,0-.786-3.148,2,2,0,0,0-2.627-.562,5.168,5.168,0,0,0,1.818-3.623,3.807,3.807,0,0,0-1.076-3.116,2.092,2.092,0,0,0-2.955.338,14.969,14.969,0,0,0-.116-3.887,4.493,4.493,0,0,0-1.94-3.066c-1.579-.878-3.6.109-4.551,1.783a9.1,9.1,0,0,0-.728,5.778c-.392-.989-2.379-1.113-3.145-.458a3.356,3.356,0,0,0-.865,2.941,9.8,9.8,0,0,0,1.1,2.986,2.912,2.912,0,0,0-2.845,2.061,7.055,7.055,0,0,0,0,4.4,16.31,16.31,0,0,0,2.26,3.826,2.915,2.915,0,0,0-2.672,2.66,5.31,5.31,0,0,0,1.239,4.243,7.805,7.805,0,0,0,3.764,2.345c.225.058,1.219,3.475,4.251,3.972a5.973,5.973,0,0,0,5.712-2.172A13.606,13.606,0,0,0,1077.785,763.682Z" transform="translate(-202.544 -254.344)" fill="#aab9de" fill-rule="evenodd"/>
        <path id="Path_26490" data-name="Path 26490" d="M1079.8,749.737l-1.265,31.893,2.09.179Z" transform="translate(-210.564 -263.324)" fill="#8d9fca" fill-rule="evenodd"/>
        <path id="Path_26491" data-name="Path 26491" d="M1080.936,788.48l6.991-5.543-6.6,7.146Z" transform="translate(-211.726 -279.394)" fill="#8d9fca" fill-rule="evenodd"/>
        <path id="Path_26492" data-name="Path 26492" d="M1074.14,785.355l-6.287-3.669,6.188,5.162Z" transform="translate(-205.394 -278.788)" fill="#8d9fca" fill-rule="evenodd"/>
        <path id="Path_26493" data-name="Path 26493" d="M1080.744,766.29l5.862-5.153-5.684,6.078Z" transform="translate(-211.633 -268.842)" fill="#8d9fca" fill-rule="evenodd"/>
        <path id="Path_26494" data-name="Path 26494" d="M1076.535,763.867l-4.7-4.455,4.326,5.036Z" transform="translate(-207.319 -268.007)" fill="#8d9fca" fill-rule="evenodd"/>
        <path id="Path_26495" data-name="Path 26495" d="M1130.816,772.232a4.814,4.814,0,0,0,3.427-4.571,2.7,2.7,0,0,0-.677-2.36c-.729-.614-1.845-.451-2.805-.332,1.12-.024,1.858-1.116,2.335-2.1a7.746,7.746,0,0,0,.827-2.509,3.127,3.127,0,0,0-.725-2.472,2.047,2.047,0,0,0-2.417-.444,3.889,3.889,0,0,0,1.675-2.848,2.753,2.753,0,0,0-.99-2.45,2.156,2.156,0,0,0-2.72.268,10.222,10.222,0,0,0-.109-3.056,3.186,3.186,0,0,0-5.974-1.009,6.237,6.237,0,0,0-.671,4.542c-.36-.776-2.192-.875-2.893-.359a2.382,2.382,0,0,0-.8,2.309,7.016,7.016,0,0,0,1.007,2.349,2.684,2.684,0,0,0-2.621,1.62,4.8,4.8,0,0,0,0,3.462,12.723,12.723,0,0,0,2.083,3.005,2.533,2.533,0,0,0-2.458,2.092,3.762,3.762,0,0,0,1.137,3.334,7.51,7.51,0,0,0,3.468,1.845c.2.044,1.12,2.729,3.911,3.12a6,6,0,0,0,5.256-1.707A9.948,9.948,0,0,0,1130.816,772.232Z" transform="translate(-228.821 -261.85)" fill="#aab9de" fill-rule="evenodd"/>
        <path id="Path_26496" data-name="Path 26496" d="M1132.666,761.272l-1.157,25.065,1.916.139Z" transform="translate(-236.206 -268.907)" fill="#8d9fca" fill-rule="evenodd"/>
        <path id="Path_26497" data-name="Path 26497" d="M1133.711,791.725l6.437-4.355-6.073,5.613Z" transform="translate(-237.272 -281.539)" fill="#8d9fca" fill-rule="evenodd"/>
        <path id="Path_26498" data-name="Path 26498" d="M1127.459,789.266l-5.786-2.883,5.7,4.057Z" transform="translate(-231.445 -281.062)" fill="#8d9fca" fill-rule="evenodd"/>
        <path id="Path_26499" data-name="Path 26499" d="M1133.541,774.281l5.395-4.047-5.235,4.777Z" transform="translate(-237.189 -273.245)" fill="#8d9fca" fill-rule="evenodd"/>
        <path id="Path_26500" data-name="Path 26500" d="M1129.663,772.379l-4.329-3.5,3.982,3.96Z" transform="translate(-233.217 -272.587)" fill="#8d9fca" fill-rule="evenodd"/>
        <path id="Path_26505" data-name="Path 26505" d="M989.163,842.685a4.969,4.969,0,0,0-5.225-7.19c.582-2.905-1.644-6.689-4.422-7.72a6.5,6.5,0,0,0-7.664,2.815c-2.427-1.938-4.67-4.985-7.751-5.394s-6.688,1.5-6.927,4.6c-.892-1.161-2.247-2.32-3.536-1.636a3.229,3.229,0,0,0-1.494,3.748c-2.665-1.262-6.672-.683-8.509,1.625a6.8,6.8,0,0,0-.014,8.2Z" transform="translate(-144.597 -299.822)" fill="#d0d9ee" fill-rule="evenodd"/>
        <path id="Path_26506" data-name="Path 26506" d="M1394.106,724.485c.276-.085-2.239,8.121-2.9,9.042-5.449,7.654-15.963,11.227-25.215,10.6-13.884-.955-19.4-14.246-20.426-14.385a36.661,36.661,0,0,1-17.771-8.087c-4.633-4.112-7.618-10.342-6.873-16.486.766-6.159,5.14-10.967,11.3-11.522-3.853-4.6-9.024-8.954-11.369-14.475-2.341-5.537-3.227-11.886-1.317-17.56,1.905-5.693,6.3-8.642,12.267-9.2-2.41-3.611-4.86-7.325-5.847-11.542s-.208-9.144,3.036-12.008c3.264-2.88,12.3-3.054,14.388.764-1.58-6.317-2.084-13.154-.141-19.279a21.884,21.884,0,0,1,1.7-4.026c3.815-6.993,12.669-11.609,20.058-8.642,4.844,1.926,8.138,6.61,9.719,11.574,1.565,4.965,1.634,10.257,1.684,15.461,2.448-3.957,9.353-4.894,13.275-2.358,3.925,2.515,5.817,7.409,5.8,12.062a19.831,19.831,0,0,1-7.152,15.061,9.9,9.9,0,0,1,12.08,1.355c3.248,3.089,4.6,7.791,4.5,12.267a22.556,22.556,0,0,1-.279,3.038,46.909,46.909,0,0,1-2.845,10c-1.752,4.634-4.531,9.771-9.044,11.176,4.255-.851,8.9-1.528,12.274.989,3.486,2.585,4.265,7.393,4.248,11.731C1409.117,719.887,1394.106,724.485,1394.106,724.485Z" transform="translate(-353.717 -189.281)" fill="#1dc5ce" fill-rule="evenodd"/>
        <path id="Path_26507" data-name="Path 26507" d="M1423.616,650.838c3.248,3.089,4.6,7.791,4.5,12.267a22.556,22.556,0,0,1-.279,3.038,16.128,16.128,0,0,0-1.351-1.476c-5.242-5.067-14.269-8.885-21.243-6.8a25.971,25.971,0,0,0,4.34-12.667c.154-4.514-1.511-9.233-5.017-12.078-3.485-2.864-8.227-5.883-11.872-3.228-.518-6.75-1.385-14.212-6.505-18.62-4.323-3.713-10.742-4.182-16.14-2.413a25.187,25.187,0,0,0-3.592,1.494,21.868,21.868,0,0,1,1.7-4.026c3.816-6.993,12.669-11.609,20.058-8.642,4.844,1.926,8.138,6.61,9.719,11.574,1.565,4.965,1.633,10.257,1.684,15.461,2.448-3.957,9.353-4.894,13.275-2.358,3.925,2.515,5.817,7.409,5.8,12.062a19.83,19.83,0,0,1-7.152,15.061A9.9,9.9,0,0,1,1423.616,650.838Z" transform="translate(-376.929 -189.281)" fill="#84d6db" fill-rule="evenodd"/>
        <path id="Path_26508" data-name="Path 26508" d="M1399.05,671.1l3.815,127.588s1.781.614,4.313,1.364,5.469,1.375,5.469,1.375Z" transform="translate(-392.708 -225.26)" fill="#10221b" fill-rule="evenodd"/>
        <path id="Path_26509" data-name="Path 26509" d="M1411.947,823.363l30.007-24.468-27.734,30.731Z" transform="translate(-398.951 -287.118)" fill="#10221b" fill-rule="evenodd"/>
        <path id="Path_26510" data-name="Path 26510" d="M1378.708,815.434l-29.565-12.5,29.565,18.484Z" transform="translate(-368.551 -289.072)" fill="#10221b" fill-rule="evenodd"/>
        <path id="Path_26511" data-name="Path 26511" d="M1404.359,735.31l25-22.533-23.928,26.165Z" transform="translate(-395.278 -245.433)" fill="#10221b" fill-rule="evenodd"/>
        <path id="Path_26512" data-name="Path 26512" d="M1383.125,728.949l-22.635-16.172,21.093,18.61Z" transform="translate(-374.043 -245.433)" fill="#10221b" fill-rule="evenodd"/>
        <path id="Path_26513" data-name="Path 26513" d="M1578.915,694.5c.293-.089-2.307,8.312-2.969,9.249-5.588,7.826-16.347,11.488-25.82,10.846-14.2-.972-19.854-14.578-20.912-14.735a37.67,37.67,0,0,1-18.187-8.258c-4.739-4.217-7.791-10.6-7.029-16.886.783-6.3,5.259-11.21,11.576-11.8-3.958-4.7-9.248-9.161-11.644-14.82-2.414-5.657-3.316-12.147-1.355-17.977,1.961-5.813,6.454-8.851,12.563-9.406-2.46-3.7-4.98-7.5-5.987-11.818s-.225-9.353,3.108-12.286c3.332-2.951,12.6-3.124,14.714.782-1.944-7.774-2.274-16.366,1.423-23.446l.194-.4c3.9-7.167,12.961-11.889,20.528-8.867,4.945,1.976,8.346,6.767,9.947,11.852s1.663,10.5,1.715,15.824c2.515-4.044,9.6-5,13.6-2.412,4.006,2.568,5.953,7.583,5.937,12.339A20.386,20.386,0,0,1,1573,617.708a10.11,10.11,0,0,1,12.356,1.389c3.332,3.159,4.72,7.964,4.6,12.565a28.854,28.854,0,0,1-.848,6.072,59.967,59.967,0,0,1-2.345,7.27c-1.821,4.808-4.7,10.134-9.422,11.471,4.408-.9,9.214-1.649,12.737.974,3.557,2.653,4.374,7.565,4.337,12.008C1594.272,689.777,1578.915,694.5,1578.915,694.5Z" transform="translate(-442.301 -173.297)" fill="#1dc5ce" fill-rule="evenodd"/>
        <path id="Path_26514" data-name="Path 26514" d="M1615.177,631.662a28.854,28.854,0,0,1-.848,6.072,21.263,21.263,0,0,0-5.4-5.657,22.943,22.943,0,0,0-19.091-3.262c1.6-4.044,3.214-8.138,3.7-12.442.469-4.321-.31-8.955-3.088-12.287-2.777-3.348-7.549-5.969-11.433-4.042a22.524,22.524,0,0,0-9.687-23.184,22.212,22.212,0,0,0-15.705-2.916l.194-.4c3.9-7.167,12.961-11.889,20.528-8.867,4.945,1.976,8.346,6.767,9.947,11.852s1.663,10.5,1.715,15.824c2.515-4.044,9.6-5,13.6-2.412,4.006,2.568,5.953,7.583,5.937,12.339a20.386,20.386,0,0,1-7.326,15.427,10.11,10.11,0,0,1,12.356,1.389C1613.911,622.256,1615.3,627.062,1615.177,631.662Z" transform="translate(-467.528 -173.297)" fill="#84d6db" fill-rule="evenodd"/>
        <path id="Path_26515" data-name="Path 26515" d="M1586.22,645.327l2.807,140.125,9.031-1.312Z" transform="translate(-483.306 -212.784)" fill="#10221b" fill-rule="evenodd"/>
        <path id="Path_26516" data-name="Path 26516" d="M1570.274,805.75l-29.422-17.638,29.422,23.615Z" transform="translate(-461.346 -281.899)" fill="#10221b" fill-rule="evenodd"/>
        <path id="Path_26517" data-name="Path 26517" d="M1597.876,778.752,1626,758.492l-28.122,25.479Z" transform="translate(-488.948 -267.561)" fill="#10221b" fill-rule="evenodd"/>
        <path id="Path_26518" data-name="Path 26518" d="M1565.042,725.271l-28.247-23.365,28.247,18.893Z" transform="translate(-459.382 -240.171)" fill="#10221b" fill-rule="evenodd"/>
        <path id="Path_26524" data-name="Path 26524" d="M1806.853,602.995l-3.85-2.706,3.472,1.8Z" transform="translate(-588.239 -190.984)" fill="#8d9fca" fill-rule="evenodd"/>
        <g id="Group_17575" data-name="Group 17575" transform="translate(-33.052 -0.323)">
          <path id="Path_26545" data-name="Path 26545" d="M702.273,685.124s10.02-2.277,11.086-15.235c.228-2.832-.052-6.012-2.2-7.872-2.358-2.051-5.963-1.5-9.06-1.1,3.617-.082,6.008-3.715,7.542-7a26.184,26.184,0,0,0,2.678-8.362,10.713,10.713,0,0,0-2.337-8.244,6.488,6.488,0,0,0-7.819-1.476,13.005,13.005,0,0,0,5.405-9.488c.245-3.042-.762-6.329-3.2-8.164s-6.995-1.574-8.791.89a45.771,45.771,0,0,0,.126-8.548c-.926-14.31-19.024-19.342-22.3,7.408.082.919.2,1.833.358,2.734a3.983,3.983,0,0,0-2.638-1.9c-6.943-1.918-10.3,1.988-9.292,8.4.436,2.808,1.859,5.35,3.257,7.825-3.928.065-6.937,1.782-8.465,5.405a16.438,16.438,0,0,0,0,11.535c1.264,3.727,4.422,6.826,6.722,10.017a8.265,8.265,0,0,0-7.944,6.971,12.819,12.819,0,0,0,3.68,11.117,24.052,24.052,0,0,0,11.208,6.143c.66.15,3.622,9.1,12.645,10.4,6.011.866,13.051-.958,16.988-5.684A33.782,33.782,0,0,0,702.273,685.124Z" transform="translate(-32.654 -190.272)" fill="#1dc5ce" fill-rule="evenodd"/>
          <path id="Path_26546" data-name="Path 26546" d="M708.262,649.7l-3.58,83.1,6.031.984Z" transform="translate(-56.521 -214.901)" fill="#011" fill-rule="evenodd"/>
          <path id="Path_26547" data-name="Path 26547" d="M711.637,751.192l20.8-14.517-19.626,18.719Z" transform="translate(-59.97 -257.001)" fill="#011" fill-rule="evenodd"/>
          <path id="Path_26548" data-name="Path 26548" d="M691.431,743.005l-18.7-9.612,18.407,13.521Z" transform="translate(-41.136 -255.413)" fill="#011" fill-rule="evenodd"/>
          <path id="Path_26549" data-name="Path 26549" d="M711.082,693.063l17.434-13.5L711.6,695.49Z" transform="translate(-59.701 -229.357)" fill="#011" fill-rule="evenodd"/>
          <path id="Path_26550" data-name="Path 26550" d="M698.552,686.719l-14-11.673,12.869,13.188Z" transform="translate(-46.861 -227.17)" fill="#011" fill-rule="evenodd"/>
        </g>
        <g id="Group_17576" data-name="Group 17576" transform="translate(42.323 29.757)">
          <path id="Path_26545-2" data-name="Path 26545" d="M688.108,659.149s7-1.592,7.75-10.65c.159-1.979-.036-4.2-1.538-5.5-1.649-1.434-4.168-1.05-6.333-.772,2.529-.057,4.2-2.6,5.272-4.892a18.3,18.3,0,0,0,1.872-5.845,7.488,7.488,0,0,0-1.634-5.763,4.535,4.535,0,0,0-5.466-1.031,9.091,9.091,0,0,0,3.778-6.632,6.487,6.487,0,0,0-2.234-5.707c-1.7-1.286-4.89-1.1-6.146.622a31.992,31.992,0,0,0,.088-5.976c-.647-10-13.3-13.521-15.588,5.178.057.643.141,1.281.25,1.911a2.784,2.784,0,0,0-1.844-1.332c-4.854-1.341-7.2,1.39-6.5,5.874a16.6,16.6,0,0,0,2.277,5.47,6.04,6.04,0,0,0-5.917,3.778,11.491,11.491,0,0,0,0,8.064c.883,2.605,3.091,4.772,4.7,7a5.778,5.778,0,0,0-5.553,4.873,8.961,8.961,0,0,0,2.572,7.771,16.813,16.813,0,0,0,7.835,4.295c.462.1,2.532,6.361,8.839,7.27,4.2.606,9.123-.67,11.875-3.974A23.609,23.609,0,0,0,688.108,659.149Z" transform="translate(-32.654 -190.272)" fill="#1dc5ce" fill-rule="evenodd"/>
          <path id="Path_26546-2" data-name="Path 26546" d="M707.133,649.7l-2.92,61.888s1.234-.109,2.531-.25,2.192-.229,2.192-.229Z" transform="translate(-64.176 -222.803)" fill="#10221b" fill-rule="evenodd"/>
          <path id="Path_26547-2" data-name="Path 26547" d="M711.637,746.823l14.542-10.148L712.46,749.761Z" transform="translate(-68.732 -278.408)" fill="#10221b" fill-rule="evenodd"/>
          <path id="Path_26548-2" data-name="Path 26548" d="M685.8,740.113l-13.075-6.719,12.868,9.452Z" transform="translate(-43.856 -276.31)" fill="#10221b" fill-rule="evenodd"/>
          <path id="Path_26549-2" data-name="Path 26549" d="M711.082,689l12.187-9.435L711.444,690.7Z" transform="translate(-68.377 -241.896)" fill="#10221b" fill-rule="evenodd"/>
          <path id="Path_26550-2" data-name="Path 26550" d="M694.34,683.206l-9.784-8.16,9,9.219Z" transform="translate(-51.419 -239.007)" fill="#10221b" fill-rule="evenodd"/>
        </g>
        <g id="Group_17590" data-name="Group 17590" transform="translate(-15 -55.235)">
          <path id="Path_26525" data-name="Path 26525" d="M1140.162,369.382c15.646-5.592,13.476,5.865,16.41,17.5-5.768,3.281-8.945,6.141-11.1,11.412-4.439-3.257-7.749-2.35-10.771-6.886-5.026-5.974-11.365-17.565-5.048-18.395,1.993,5.1,4.414,6.21,7.388,8.264a37.149,37.149,0,0,0-1.613-7.574,28.107,28.107,0,0,0-5.992-10.247q-8.789-2.217-7.11-5.288Q1133.195,356.185,1140.162,369.382Z" transform="translate(-208.592 -70.803)" fill="#f5b58b" fill-rule="evenodd"/>
          <path id="Path_26526" data-name="Path 26526" d="M1036.333,804.938c7.734,21.957,14.247,71.882,16.682,149.862,1.981,37.874-3.458,88.232-10.461,154.42-6.87,3.128-17.048,3.771-24.8,3.534-11.059-91.413-13.45-130.205-8.062-155.549-12.727-26.827-20.424-53.326-27.742-81.147q-5.629,58.385-14.324,92.786-19.744,55.2-58.948,144.751c-6.34,1-17.679-.649-24.353-4.789,12.376-65.3,20.7-132.889,41.973-145.6-16.224-80.446-8.635-127.566,6.749-157.315Q994.808,812.882,1036.333,804.938Z" transform="translate(-103.834 -267.787)" fill="#10221b" fill-rule="evenodd"/>
          <path id="Path_26527" data-name="Path 26527" d="M1056.932,495.82c5.228,58.1-6.838,53.226-6.354,134.418q-30.919,5.911-73.066,3.55c1.838,7.8,3.306,14.767,4.4,20.011-5.86-.02-14.93-.135-21.089,8.2-5.992-9.433-11.217-18.169-15.745-26.306-14.347-25.77-21.675-45.472-24.033-61.913-14.927-97.06,8.313-128.82,66.667-130.619,3.83,9.522,24.879,15.69,30.989,15.094,4.313-2.5,6.336-9.375,9.8-15.79,17.731,3.227,35.517,12.895,45.277,20.991a260.328,260.328,0,0,1-20.93-40.468q2.662-9.072,14.668-14.509,93.265,79.442,65.959,99.572Q1104.414,519.823,1056.932,495.82Z" transform="translate(-118.079 -93.087)" fill="#1dc5ce" fill-rule="evenodd"/>
          <path id="Path_26528" data-name="Path 26528" d="M1008.581,665.9c-4.745-20.149-11.945-45.9-21.428-62.166,3.716-17.247,3.59-38.95,1.956-59.555a183.236,183.236,0,0,1,7.542,59.356c7.911,16.681,13.446,37.808,17.232,62.632q-2.628-.118-5.3-.267Zm110-150.152q-19.045-23.189-37.479-34.393a104.357,104.357,0,0,1,23.745,14.212Q1111.148,505.616,1118.584,515.748Z" transform="translate(-149.147 -125.199)" fill="#10221b" fill-rule="evenodd"/>
          <path id="Path_26529" data-name="Path 26529" d="M1066.621,426.572c-6.11.6-27.158-5.572-30.989-15.094,4.045-6.262,6.348-13.327,6.768-17.208q-1.577-2.7-3.542-6.906-21.371-9.177-8.834-17.985,3.067,1.018,8.712,8.227a5.736,5.736,0,0,0,4.317-4.308,168.178,168.178,0,0,1-9.318-20.956c4.421-10.421,18.676-14.542,38.369-15.767q2.823,7.414,5.332,15.825c4,2.47,5.808,14.158,5.266,28.134q4.549,10.951-11.676,15.17c.465,3.553,3.019,12.3,5.395,15.079C1072.956,417.2,1070.934,424.068,1066.621,426.572Z" transform="translate(-165.996 -61.401)" fill="#f5b58b" fill-rule="evenodd"/>
          <path id="Path_26530" data-name="Path 26530" d="M1058.037,316.943c-19.693,1.226-33.948,5.347-38.369,15.767a168.159,168.159,0,0,0,9.318,20.956,5.737,5.737,0,0,1-4.317,4.308q-5.651-7.21-8.712-8.227-12.538,8.812,8.834,17.985,1.959,4.206,3.542,6.906c-11.82-.349-23.254-8.646-25.435-12.772-18.251-23.487-5.643-37.335,1.468-42.872-1.506-26.463,40.35-10.909,56.712-26.97C1070.528,300.885,1063.8,315.59,1058.037,316.943Z" transform="translate(-151.929 -41.771)" fill="#10221b" fill-rule="evenodd"/>
          <path id="Path_26531" data-name="Path 26531" d="M1027.248,819.088q-.957-4.329-1.786-7.8,2.673.148,5.3.267,1.411,8.381,2.716,20.559a29.541,29.541,0,0,0-3.616-.816c-.705-3.376-1.565-7.463-2.576-12.029C1027.273,819.206,1027.259,819.147,1027.248,819.088Z" transform="translate(-166.029 -270.583)" fill="#142d4d" fill-rule="evenodd"/>
          <path id="Path_26532" data-name="Path 26532" d="M1080.019,441.232a56.285,56.285,0,0,0,15.081.589,50.105,50.105,0,0,0,2.248,8.611C1092.019,450.208,1082.731,444.586,1080.019,441.232Z" transform="translate(-190.069 -107.519)" fill="#ed7d5b" fill-rule="evenodd"/>
          <path id="Path_26533" data-name="Path 26533" d="M905.758,1354.517a28.636,28.636,0,0,0-1.111,10.724,30.166,30.166,0,0,1-19.391-3.351,40.368,40.368,0,0,0,3.528-10.421,46.211,46.211,0,0,0,16.974,3.047Zm117.394,8.42a62.644,62.644,0,0,0,.188-9.516,61.559,61.559,0,0,0,16.52-2.366,21.922,21.922,0,0,0,3.527,9.668A30.087,30.087,0,0,1,1023.151,1362.937Z" transform="translate(-104.247 -508.435)" fill="#f4af8f" fill-rule="evenodd"/>
          <path id="Path_26534" data-name="Path 26534" d="M1004.207,671.911q57.5-2.2,90.055-13.319c.476-3.358.915-6.62,1.292-9.95q-32.375,9.966-91.538,13.284Q1004.248,666.844,1004.207,671.911Z" transform="translate(-156.579 -198.915)" fill="#10221b" fill-rule="evenodd"/>
          <path id="Path_26535" data-name="Path 26535" d="M1000.5,568.32q65.722-.62,93.848-12.452c.119-3.013.166-6.212.125-9.681Q1062.731,559,998.889,557.849c.616,3.364,1.163,6.862,1.612,10.471Zm54.442-83.287c-6.11.6-27.158-5.572-30.989-15.094q-2.1.066-4.132.183,5.38,15.453,35.627,19.352a39.567,39.567,0,0,0,12.321-19.619q-1.511-.334-3.026-.612C1061.28,475.66,1059.257,482.529,1054.944,485.033Z" transform="translate(-154.319 -119.862)" fill="#10221b" fill-rule="evenodd"/>
          <path id="Path_26536" data-name="Path 26536" d="M989.485,476.072q25.582,6.669,30.1,41.481c3.233,24.909-10.229,67.677-23.538,114.875l-2.565-7.669c13.081-46.4,19.136-83.192,16.015-107.25-2.967-22.85-13.934-35.594-31.86-37.584C979.422,474.721,981.847,474.08,989.485,476.072Z" transform="translate(-144.956 -122.412)" fill="#10221b" fill-rule="evenodd"/>
          <path id="Path_26537" data-name="Path 26537" d="M1131.9,471.876q10.816,25.53,14.69,58.747a312.229,312.229,0,0,1,1.737,59.752c-.5,8.928-1.472,11.04-4.509,19.4,2.325-28.293-.819-55.756-3.461-78.441-2.627-22.574-7.977-44.455-15.527-61.472C1126.135,467.391,1130.334,468.171,1131.9,471.876Z" transform="translate(-209.816 -119.506)" fill="#10221b" fill-rule="evenodd"/>
          <path id="Path_26538" data-name="Path 26538" d="M888.66,426.691l-39.9,7.539c-6.584,1.245-10.757,5.651-12.189,12.19-15.767,72.117-13.022,132.964,0,210.993,1.1,6.6,5.612,10.944,12.189,12.188l39.9,7.54a6.51,6.51,0,0,0,6.495-2.441,137.073,137.073,0,0,1,9.875-31.042c-14.347-25.773-21.675-45.472-24.033-61.916-9.65-62.754-3.347-98.211,18.088-115.921.317-8.989.882-17.989,1.768-26.939C901.509,432.215,895.25,425.445,888.66,426.691Z" transform="translate(-78.028 -101.046)" fill="#f1923f" fill-rule="evenodd"/>
          <path id="Path_26539" data-name="Path 26539" d="M877.67,582.127a119.487,119.487,0,0,1-50.007-7.969q-.46,5.76-.764,11.5,26.984,9.169,50.243,6.968Q877.253,587.146,877.67,582.127Z" transform="translate(-78.531 -166.093)" fill="#10221b" fill-rule="evenodd"/>
          <path id="Path_26540" data-name="Path 26540" d="M828.691,708.223a129.979,129.979,0,0,0,53.833-3.839q-.265-1.539-.483-3.042-.261-1.7-.51-3.384-24.276,6.742-53.4,2.923Q828.385,704.536,828.691,708.223Z" transform="translate(-79.072 -220.646)" fill="#10221b" fill-rule="evenodd"/>
          <path id="Path_26541" data-name="Path 26541" d="M968.48,462.395c1.734-5.059,4.07-5.8,11.225-4.011a107.7,107.7,0,0,1,21.594-3.241l.1,0q1.987-.113,4.033-.176a48.222,48.222,0,0,0,6.443-15.219q-22.157-10.287-53.254,2.974c-.886,8.95-1.451,17.95-1.768,26.939A53.377,53.377,0,0,1,968.48,462.395Z" transform="translate(-135.796 -104.883)" fill="#f5c780" fill-rule="evenodd"/>
          <path id="Path_26542" data-name="Path 26542" d="M952.968,433.19q31.095-13.262,53.254-2.974c.151-.729.258-1.4.324-1.995-11.82-.347-23.254-8.645-25.439-12.769-.476-.614-.93-1.223-1.369-1.825a141.609,141.609,0,0,0-35.715,7.382C949.266,422.017,953.513,427.64,952.968,433.19Z" transform="translate(-130.142 -95.355)" fill="#ed7a15" fill-rule="evenodd"/>
          <path id="Path_26543" data-name="Path 26543" d="M861.767,827.849a3.585,3.585,0,1,1,4.442,5.628L596.953,1046.851a3.586,3.586,0,1,1-4.443-5.63Z" transform="translate(25.353 -277.543)" fill="#683e1a" fill-rule="evenodd"/>
          <path id="Path_26544" data-name="Path 26544" d="M1014.217,846.9a151.268,151.268,0,0,1,5.639,25.513q-6.31,17.44-15.989,19.621c-7.421-.467-8.956-6.105-10.8-10.087q6.494-5.28,7.466-12.382-6.112-4.646-3.277-9.906-1.252-2.922-2.318-5.257c4.8-6.119,9.328-7.516,13.811-7.7C1010.572,846.687,1012.391,846.818,1014.217,846.9Z" transform="translate(-151.755 -286.187)" fill="#f5b58b" fill-rule="evenodd"/>
          <g id="Group_17573" data-name="Group 17573" transform="translate(912.147 844.628)">
            <path id="Path_26551" data-name="Path 26551" d="M1127.432,1389.1h9.5c3.184-.5,5.536-1.417,8.8-1.841,4.956-.657,7.243,1.373,7.694,1.841l.088.1h40.373c1.015-1.454.04-4.808-.911-7.284a5.751,5.751,0,0,0-3.782-3.457c-4.281-1.236-12.72-2.344-20.451-9.339-4.35-3.93-21-14.447-21-14.447l-.088-.025c-.366.007-2.108.549-9.679,6.937-3.915,3.3-10.587-4.66-10.587-4.66a9.585,9.585,0,0,0-2.192,2.963,10.1,10.1,0,0,0-.867,6.2c.6,3.637-1.339,10.4-2.889,14.974-.945,2.771-1.735,4.734-1.735,4.734S1119.255,1388.073,1127.432,1389.1Z" transform="translate(-1119.704 -1354.645)" fill="#10221b" fill-rule="evenodd"/>
            <path id="Path_26552" data-name="Path 26552" d="M1129.529,1359.885c2.273,1.609,7.063,4.753,10.236,5.174,4.288.553,12.31-10.388,12.31-10.388l-.088-.025c-.366.007-2.108.549-9.679,6.937-3.916,3.3-10.588-4.66-10.588-4.66A9.588,9.588,0,0,0,1129.529,1359.885Z" transform="translate(-1124.033 -1354.645)" fill="#3964a2" fill-rule="evenodd"/>
            <path id="Path_26553" data-name="Path 26553" d="M1127.432,1409.909h9.5c3.184-.5,5.536-1.417,8.8-1.841,4.956-.657,7.243,1.373,7.694,1.841l.088.1h40.373c1.015-1.454.04-4.808-.911-7.284-1.225-1.093-1.571,4.738-2.251,5.661s-32.938.343-34.8-1.019-7.454-3.727-15.244-1.856c-6.778,1.613-16.771-2.531-19.243-3.638-.945,2.771-1.735,4.734-1.735,4.734S1119.255,1408.884,1127.432,1409.909Z" transform="translate(-1119.704 -1375.456)" fill="#1dc5ce" fill-rule="evenodd"/>
          </g>
          <path id="Path_26554" data-name="Path 26554" d="M864.484,1382.309l8.923,3.277c3.162.627,5.682.58,8.9,1.3,4.881,1.1,6.324,3.79,6.586,4.38l.053.125,40.693,2.421c2.62-1.823,2.514-9.9-.022-11.761-3.593-2.639-15.855.746-20.7-8.483-2.727-5.191-13.49-16.579-13.49-16.579l-.074-.052c-.347-.122-2.165-.21-11.476,3.177-4.815,1.749-8.332-8.025-8.332-8.025a9.51,9.51,0,0,0-3.078,2.03,10.017,10.017,0,0,0-2.952,5.524c-.687,3.623-4.846,9.3-7.875,13.055-1.841,2.277-3.262,3.849-3.262,3.849S857.164,1378.53,864.484,1382.309Z" transform="translate(-92.368 -508.892)" fill="#10221b" fill-rule="evenodd"/>
          <path id="Path_26555" data-name="Path 26555" d="M883.62,1354.122c1.575,2.291,4.989,6.888,7.823,8.379,3.838,2,15.136-5.509,15.136-5.509l-.074-.052c-.347-.122-2.165-.21-11.476,3.177-4.815,1.749-8.332-8.025-8.332-8.025A9.509,9.509,0,0,0,883.62,1354.122Z" transform="translate(-103.526 -508.892)" fill="#3964a2" fill-rule="evenodd"/>
          <path id="Path_26556" data-name="Path 26556" d="M864.484,1398.544l8.923,3.277c3.162.628,5.682.58,8.9,1.3,4.881,1.1,6.324,3.79,6.586,4.38l.053.125,40.693,2.422c2.875-1.72,2.576-8.635.974-10.51-.775-1.446-1.495,7.573-2.451,8.207s-35.077-1.277-36.353-3.2-5.4-4.635-13.358-5.565c-6.922-.826-14.874-8.159-16.811-10.052-1.841,2.277-3.262,3.849-3.262,3.849S857.164,1394.765,864.484,1398.544Z" transform="translate(-92.368 -525.127)" fill="#1dc5ce" fill-rule="evenodd"/>
        </g>
      </g>
    </g>
  </g>
</svg>
