<svg xmlns="http://www.w3.org/2000/svg" width="65" height="62" viewBox="0 0 65 62">
  <g id="Group_25139" data-name="Group 25139" transform="translate(-1275 -1014)">
    <g id="Group_15340" data-name="Group 15340" transform="translate(295 3)">
      <circle id="Ellipse_246" data-name="Ellipse 246" cx="16" cy="16" r="16" transform="translate(1013 1041)" fill="#f5c780" opacity="0.25"/>
    </g>
    <g id="support" transform="translate(1249 1014)">
      <g id="Group_15342" data-name="Group 15342" transform="translate(63.66 45.192)">
        <g id="Group_15341" data-name="Group 15341">
          <path id="Path_18431" data-name="Path 18431" d="M357.141,396a1.141,1.141,0,1,0,1.141,1.141A1.142,1.142,0,0,0,357.141,396Z" transform="translate(-356 -396)" fill="#1dc5ce"/>
        </g>
      </g>
      <g id="Group_15344" data-name="Group 15344" transform="translate(26)">
        <g id="Group_15343" data-name="Group 15343">
          <path id="Path_18432" data-name="Path 18432" d="M67.611,41.5l-5.424-1.808L60.24,35.8a12.5,12.5,0,0,0,3.383-6.612l.243-1.456h2.077a3.428,3.428,0,0,0,3.424-3.424v-7.19a17.118,17.118,0,0,0-34.237,0v7.19a3.429,3.429,0,0,0,2.282,3.227v1.338A3.428,3.428,0,0,0,40.836,32.3h1a12.381,12.381,0,0,0,1.914,2.964c.162.186.33.366.5.541l-1.946,3.892L36.885,41.5C30.578,43.605,26,50.245,26,57.289a1.141,1.141,0,0,0,1.141,1.141H77.355A1.141,1.141,0,0,0,78.5,57.289C78.5,50.245,73.919,43.605,67.611,41.5Zm-.527-17.194a1.143,1.143,0,0,1-1.141,1.141H64.2c.29-2.247.483-4.638.561-6.993,0-.066,0-.131.006-.2h2.316Zm-28.53,1.141a1.143,1.143,0,0,1-1.141-1.141V18.26h2.316q.006.179.012.359s0,.008,0,.012h0c.08,2.291.271,4.62.554,6.817H38.553Zm2.282,4.565a1.143,1.143,0,0,1-1.141-1.141V27.732h.936l.243,1.456c.046.277.1.552.169.826ZM39.7,15.977H37.456a14.836,14.836,0,0,1,29.585,0H64.8A11.559,11.559,0,0,0,53.27,4.565H51.227A11.559,11.559,0,0,0,39.7,15.977Zm11.53-9.13h2.043a9.28,9.28,0,0,1,9.25,9.291c0,.359,0,.672-.009.956,0,0,0,.007,0,.011l-1.427-.2a18.338,18.338,0,0,1-10.31-5.155,1.142,1.142,0,0,0-.807-.334,10.325,10.325,0,0,0-7.938,3.756A9.277,9.277,0,0,1,51.227,6.847ZM43.408,30.014a65.231,65.231,0,0,1-1.369-11.076l1.536-2.048a8.033,8.033,0,0,1,5.94-3.183A20.642,20.642,0,0,0,60.76,19.161l1.68.24c-.112,2.383-.342,4.775-.671,6.975v0c-.1.707-.187,1.162-.4,2.434a9.694,9.694,0,0,1-6.88,7.8A8.979,8.979,0,0,1,44.412,32.3h2.326a3.429,3.429,0,0,0,3.227,2.282h2.282a3.424,3.424,0,1,0,0-6.847H49.966a3.425,3.425,0,0,0-3.229,2.282Zm6.461,8.9a11.447,11.447,0,0,0,4.245.1L52.1,41.146Zm.659,3.887-3.62,3.828a43.482,43.482,0,0,1-2.555-5.925l1.359-2.719Zm8.061-5.2,1.553,3.105a43.471,43.471,0,0,1-2.555,5.927L53.712,42.76Zm-9.765-6.447a1.141,1.141,0,0,1,1.141-1.141h2.282a1.141,1.141,0,1,1,0,2.282H49.966A1.143,1.143,0,0,1,48.824,31.155Zm-20.5,24.993c.452-5.653,4.215-10.792,9.278-12.481l4.8-1.6a45.749,45.749,0,0,0,3.248,7.046l.006.012h0a45.76,45.76,0,0,0,3.124,4.77l1.4,2.254Zm23.92-1.017L50.7,52.646q-.026-.042-.055-.081a43.512,43.512,0,0,1-2.571-3.842l4.07-4.3,4.288,4.288a43.465,43.465,0,0,1-2.58,3.857C53.8,52.639,53.875,52.522,52.248,55.131ZM54.3,56.148l1.4-2.254a45.744,45.744,0,0,0,3.146-4.808l.017-.03,0,0a45.71,45.71,0,0,0,3.214-6.986l4.8,1.6c5.064,1.689,8.826,6.827,9.278,12.481H54.3Z" transform="translate(-26)" fill="#1dc5ce"/>
        </g>
      </g>
      <g id="Group_15346" data-name="Group 15346" transform="translate(67.67 47.371)">
        <g id="Group_15345" data-name="Group 15345">
          <path id="Path_18433" data-name="Path 18433" d="M396.207,419.247a11.41,11.41,0,0,0-3.231-3.922,1.141,1.141,0,0,0-1.392,1.809,9.114,9.114,0,0,1,2.58,3.133,1.141,1.141,0,0,0,2.042-1.02Z" transform="translate(-391.139 -415.088)" fill="#1dc5ce"/>
        </g>
      </g>
    </g>
  </g>
</svg>
