<svg xmlns="http://www.w3.org/2000/svg" width="263.64" height="176.979" viewBox="0 0 263.64 176.979">
  <g id="Group_14275" data-name="Group 14275" transform="translate(0)">
    <g id="Group_5056" data-name="Group 5056" transform="translate(128.366 132.377)">
      <path id="Path_1038" data-name="Path 1038" d="M1766.738,2735.461c2.773-3.632,10.212-9.079,15.633-12.78a11.244,11.244,0,0,1,12.339-.241c5.464,3.434,13.229,8.521,17.671,12.334a26.516,26.516,0,0,1,5.216,6.117,11.2,11.2,0,0,1-4.083,15.674c-7.716,4.367-17.735,7.184-22.667,8.418a11.264,11.264,0,0,1-5.848-.113l-.111-.032-14.543-4.208a11.2,11.2,0,0,1-7.928-12.761C1763.259,2743.238,1764.619,2738.217,1766.738,2735.461Z" transform="translate(-1762.229 -2720.714)" fill="#97daff"/>
      <path id="Path_1039" data-name="Path 1039" d="M1900.469,2735.854c2.773-3.632,10.212-9.079,15.633-12.78a11.22,11.22,0,0,1,4.666-1.842c-3.472,7.374-7.425,16.7-8.365,22.705-.895,5.72,2.578,14.273,6.209,21.276L1904.069,2761a11.2,11.2,0,0,1-7.929-12.761C1896.99,2743.63,1898.35,2738.61,1900.469,2735.854Z" transform="translate(-1895.96 -2721.106)" fill="#69d1ff"/>
      <path id="Path_1040" data-name="Path 1040" d="M1828.652,2731.686c2.351,1.078,9.537,3.887,12.163,9.224,1.124,2.281-.661,4.738-2.939,3.617-3.764-1.862-10.67-2.493-12.3-4.275C1822.771,2737.167,1825.442,2730.215,1828.652,2731.686Z" transform="translate(-1799.096 -2728.887)" fill="#d7f3ff"/>
    </g>
    <g id="Group_5058" data-name="Group 5058" transform="translate(0 0)">
      <path id="Path_982" data-name="Path 982" d="M2112.269,2122.714c.241-.024,5.845-.463,15.674,10.178,5.7,6.169,11.683,14.838,17.791,25.766,7.623,13.636,15.464,30.866,23.309,51.191a.528.528,0,0,1-.984.381c-9.71-25.175-24.644-58.854-40.644-76.354-5-5.467-8.828-7.926-11.162-9.028a8.763,8.763,0,0,0-3.88-1.085.528.528,0,0,1-.1-1.049Z" transform="translate(-2111.825 -2116.766)" fill="#0a5c60"/>
      <path id="Path_983" data-name="Path 983" d="M2056.03,2113.726a.528.528,0,0,1,.677.309,148.071,148.071,0,0,1,6.19,24.791c2.243,13.5,3.815,33.827-1.447,53.848a.526.526,0,1,1-1.018-.268c5.2-19.831,3.644-39.978,1.42-53.385a146.9,146.9,0,0,0-6.142-24.618.526.526,0,0,1,.318-.678Z" transform="translate(-1994.205 -2109.926)" fill="#0a5c60"/>
      <path id="Path_984" data-name="Path 984" d="M2082.76,2098.917a4.866,4.866,0,0,1,.808,6.028,3.264,3.264,0,0,1-5.081.878,4.845,4.845,0,0,1-.808-6.014A3.275,3.275,0,0,1,2082.76,2098.917Z" transform="translate(-2018.615 -2098.07)" fill="#feb84f"/>
      <ellipse id="Ellipse_1" data-name="Ellipse 1" cx="4.299" cy="3.636" rx="4.299" ry="3.636" transform="translate(0.404 9.418) rotate(-92.17)" fill="#feb84f"/>
      <path id="Path_985" data-name="Path 985" d="M1998.789,2246.506c1.162-1.878,2.305-3.617,3.217-4.885,1.377-1.917,1.594-1.948,1.8-1.977a.482.482,0,0,1,.26.911c-.812.673-7.444,10.1-13.706,23.7-5.5,11.934-11.669,29.336-9.851,44.461a.482.482,0,0,1-.419.531h-.056a.483.483,0,0,1-.482-.422c-1.866-15.546,4.529-33.38,10.222-45.6A162.6,162.6,0,0,1,1998.789,2246.506Zm5.158-5.917Z" transform="translate(-1915.117 -2205.503)" fill="#0a5c60"/>
      <path id="Path_986" data-name="Path 986" d="M1965.893,2221.738c2-1.326,4.558-.468,5.706,1.93a5.406,5.406,0,0,1-1.546,6.72c-2,1.328-4.56.468-5.708-1.917A5.426,5.426,0,0,1,1965.893,2221.738Z" transform="translate(-1879.212 -2191.444)" fill="#feb84f"/>
      <path id="Path_987" data-name="Path 987" d="M2036.827,2145.8a8.435,8.435,0,0,1,1.071-.8c-.352-2.242.3-3.542,1.184-4.294a3.314,3.314,0,0,1,4.34.1c28.915,23.668,33.376,63.344,33.518,64.35,3.208,22.544-4.492,17.709-7.666,21.7a4.622,4.622,0,0,0-.557.9c-2.679,5.64-4.48,7.408-9.863,7.746s-5.994-17.661-8.681-26.4-16.9-53.547-16.554-57.661A8.7,8.7,0,0,1,2036.827,2145.8Z" transform="translate(-2001.602 -2129.852)" fill="#b3d0d1"/>
      <path id="Path_988" data-name="Path 988" d="M2072.1,2264.651l.885,1.774,1.753,3.562c.284.6.593,1.184.856,1.792l.8,1.818,1.6,3.639c.132.3.272.6.393.912l.359.928.723,1.852.724,1.854c.241.622.5,1.229.7,1.864a105.482,105.482,0,0,1,4.242,15.339l.337,1.965c.051.328.123.651.157.984l.113.991.217,1.982c.046.666.077,1.331.111,1.994.012.333.038.663.036,1l-.015,1v1c-.012.33-.05.663-.077.994s-.051.663-.089.993l-.152.986a11.2,11.2,0,0,1-.5,1.929,11.155,11.155,0,0,0,.3-1.951l.068-.984c.012-.328,0-.656,0-.984v-.984l-.053-.984-.053-.981c-.02-.328-.072-.654-.1-.979-.077-.651-.137-1.3-.217-1.956l-.32-1.929c-.184-1.3-.5-2.575-.76-3.858l-.205-.964c-.077-.319-.167-.634-.241-.965l-.482-1.907-.241-.964c-.077-.319-.162-.634-.263-.948l-.574-1.886c-.711-2.53-1.613-5-2.457-7.49-.2-.627-.451-1.235-.677-1.852l-.7-1.845-.7-1.847-.349-.921c-.118-.309-.241-.61-.374-.914l-1.545-3.648c-.506-1.206-.986-2.445-1.534-3.644l-1.6-3.617c-.531-1.206-1.027-2.433-1.6-3.617-1.106-2.4-2.218-4.792-3.279-7.217,1.319,2.291,2.588,4.61,3.858,6.933C2071.5,2263.481,2071.807,2264.065,2072.1,2264.651Z" transform="translate(-2018.121 -2217.887)" fill="#3ea399"/>
      <path id="Path_989" data-name="Path 989" d="M2034.691,2145.007c-.352-2.242.3-3.542,1.184-4.294a3.314,3.314,0,0,1,4.34.1c28.915,23.668,33.376,63.344,33.518,64.35,3.208,22.544-4.492,17.709-7.666,21.7,1.4-31.367-23.873-68.5-32.455-81.063A8.385,8.385,0,0,1,2034.691,2145.007Z" transform="translate(-1998.395 -2129.852)" fill="#8bc3c0"/>
      <path id="Path_990" data-name="Path 990" d="M2113.925,2252.152a5.075,5.075,0,0,1,2.918-.7c10.892.466,21.688,9.819,27.1,16.156,5.486,6.4,4.941,17.929,4.912,18.433l1.063-8.879c8.016,11.406,8.473,26.675,8.473,26.675l1.871-5.6c1.755,5.182,1.816,21.555,1.816,21.555-9.7-1.584-16.156-10.044-16.357-10.3a3.769,3.769,0,0,0,4.611-.5c-15.02-3.046-18.49-24.6-21.519-32.554s-8.336-13.588-13.986-18.568c-2.6-2.289-2.631-3.834-1.907-4.823A3.342,3.342,0,0,1,2113.925,2252.152Z" transform="translate(-2105.006 -2214.455)" fill="#8bc3c0"/>
      <path id="Path_991" data-name="Path 991" d="M2140.185,2283.787c6.809,10.434,21.9,41.03,21.9,41.03-9.7-1.584-16.156-10.044-16.357-10.3a3.77,3.77,0,0,0,4.611-.5c-15.02-3.046-18.49-24.6-21.519-32.554s-8.336-13.588-13.986-18.567c-2.6-2.288-2.631-3.834-1.907-4.823C2126.208,2261.832,2133.9,2274.156,2140.185,2283.787Z" transform="translate(-2105.006 -2219.488)" fill="#62b5ad"/>
      <path id="Path_992" data-name="Path 992" d="M2116.609,2304.187l1.283,1.625.639.817c.212.272.427.545.625.827l1.206,1.688c.805,1.124,1.627,2.238,2.385,3.393,3.135,4.55,5.975,9.3,8.748,14.075s5.332,9.672,7.8,14.613c.617,1.232,1.232,2.469,1.823,3.716s1.188,2.491,1.77,3.742c1.153,2.505,2.291,5.023,3.338,7.577q-3.825-7.343-7.717-14.625c-1.31-2.412-2.619-4.847-3.955-7.254l-2-3.617-2.047-3.586c-.668-1.205-1.372-2.385-2.065-3.573s-1.384-2.38-2.1-3.552l-2.132-3.535q-1.107-1.741-2.2-3.492c-2.973-4.627-6.055-9.189-9.443-13.547q1.375,1.543,2.737,3.106C2115.765,2303.082,2116.177,2303.637,2116.609,2304.187Z" transform="translate(-2089.156 -2250.912)" fill="#3ea399"/>
      <path id="Path_993" data-name="Path 993" d="M1946.981,2319.354l2.055,7.5s-1.006-12.136-.256-13.858,8.44-12.97,12.134-14.321c3.176-1.162,10.077-2.1,11.968-2.341h0c.307-.043.483-.063.483-.063l-3.714,9.969-9.8,3.923,8.293-.482s-6.325,16.443-7.251,17.205-9.966,6.827-9.966,6.827l9.021-2.92s-4.391,13.545-6.909,15.409c-2.462,1.825-9.26,5.814-9.58,6h0s-3.509-11.635-2.448-17.8S1946.981,2319.354,1946.981,2319.354Z" transform="translate(-1874.881 -2248.477)" fill="#2c8790"/>
      <path id="Path_994" data-name="Path 994" d="M1970.233,2296.372h0c.307-.043.483-.062.483-.062l-3.714,9.968-9.8,3.924,8.293-.482s-6.325,16.443-7.251,17.205-9.966,6.827-9.966,6.827l9.021-2.92s-4.391,13.545-6.909,15.409c-2.462,1.825-9.26,5.814-9.58,6,1.784-9.6,8.066-29.546,15.4-41.986C1960.81,2302.442,1966.247,2298.417,1970.233,2296.372Z" transform="translate(-1872.233 -2248.507)" fill="#38a8ad"/>
      <path id="Path_995" data-name="Path 995" d="M2014.974,2398.07q.352-1.174.724-2.346c.241-.781.511-1.555.776-2.332,1.056-3.1,2.23-6.156,3.547-9.163q.5-1.121,1.018-2.233t1.09-2.2q.562-1.092,1.182-2.153c.207-.353.422-.7.651-1.042.116-.169.241-.337.359-.5.063-.082.128-.16.2-.241a.56.56,0,0,1,.241-.178.556.556,0,0,0-.224.2c-.06.082-.116.166-.171.241-.108.171-.208.35-.306.528-.191.357-.374.723-.55,1.088-.357.723-.682,1.478-1.008,2.223s-.634,1.5-.936,2.255-.605,1.51-.895,2.272c-1.158,3.038-2.216,6.115-3.2,9.213q-.369,1.163-.723,2.33t-.7,2.337c-.458,1.557-.875,3.135-1.3,4.7q-.313,1.176-.644,2.351l-.323,1.177-.335,1.174c-.449,1.567-.9,3.135-1.432,4.692a54.671,54.671,0,0,1,1.628-9.684C2014.053,2401.212,2014.506,2399.63,2014.974,2398.07Z" transform="translate(-1943.446 -2308.738)" fill="#0a5c60"/>
      <path id="Path_9584" data-name="Path 9584" d="M1766.738,2735.461c2.773-3.632,10.212-9.079,15.633-12.78a11.244,11.244,0,0,1,12.339-.241c5.464,3.434,13.229,8.521,17.671,12.334a26.516,26.516,0,0,1,5.216,6.117,11.2,11.2,0,0,1-4.083,15.674c-7.716,4.367-17.735,7.184-22.667,8.418a11.264,11.264,0,0,1-5.848-.113l-.111-.032-14.543-4.208a11.2,11.2,0,0,1-7.928-12.761C1763.259,2743.238,1764.619,2738.217,1766.738,2735.461Z" transform="translate(-1726.342 -2642.632)" fill="#97daff"/>
      <path id="Path_9585" data-name="Path 9585" d="M1900.469,2735.854c2.773-3.632,10.212-9.079,15.633-12.78a11.22,11.22,0,0,1,4.666-1.842c-3.472,7.374-7.425,16.7-8.365,22.705-.895,5.72,2.578,14.273,6.209,21.276L1904.069,2761a11.2,11.2,0,0,1-7.929-12.761C1896.99,2743.63,1898.35,2738.61,1900.469,2735.854Z" transform="translate(-1860.073 -2643.025)" fill="#69d1ff"/>
      <path id="Path_9586" data-name="Path 9586" d="M1828.652,2731.686c2.351,1.078,9.537,3.887,12.163,9.224,1.124,2.281-.661,4.738-2.939,3.617-3.764-1.862-10.67-2.493-12.3-4.275C1822.771,2737.167,1825.442,2730.215,1828.652,2731.686Z" transform="translate(-1763.209 -2650.805)" fill="#d7f3ff"/>
    </g>
    <g id="Group_5057" data-name="Group 5057" transform="translate(233.677 99.262)">
      <path id="Path_1041" data-name="Path 1041" d="M2687,2814.956c1.447-1.907,5.365-4.77,8.2-6.721a5.914,5.914,0,0,1,6.484-.13,91.153,91.153,0,0,1,9.281,6.479,13.961,13.961,0,0,1,2.74,3.212,5.877,5.877,0,0,1-2.144,8.228,51.328,51.328,0,0,1-11.912,4.423,5.922,5.922,0,0,1-3.07-.058l-.06-.017-7.639-2.211a5.883,5.883,0,0,1-4.165-6.7C2685.173,2819.041,2685.886,2816.4,2687,2814.956Z" transform="translate(-2684.617 -2807.201)" fill="#97daff"/>
      <path id="Path_1042" data-name="Path 1042" d="M2757.211,2815.175c1.447-1.907,5.365-4.77,8.2-6.72a5.877,5.877,0,0,1,2.453-.965c-1.823,3.873-3.9,8.772-4.394,11.927-.482,3,1.353,7.5,3.26,11.177l-7.639-2.211a5.884,5.884,0,0,1-4.165-6.7C2755.386,2819.26,2756.1,2816.622,2757.211,2815.175Z" transform="translate(-2754.83 -2807.421)" fill="#69d1ff"/>
      <path id="Path_1043" data-name="Path 1043" d="M2719.412,2813c1.238.567,5.011,2.042,6.391,4.845.591,1.206-.347,2.488-1.546,1.9-1.975-.979-5.6-1.31-6.46-2.248C2716.323,2815.875,2717.727,2812.221,2719.412,2813Z" transform="translate(-2703.872 -2811.518)" fill="#d7f3ff"/>
    </g>
  </g>
</svg>
