<svg xmlns="http://www.w3.org/2000/svg" width="70" height="61.5" viewBox="0 0 70 61.5">
  <g id="Group_15339" data-name="Group 15339" transform="translate(-975 -1011.5)">
    <g id="Group_25139" data-name="Group 25139">
      <circle id="Ellipse_246" data-name="Ellipse 246" cx="16" cy="16" r="16" transform="translate(1013 1041)" fill="#f5c780" opacity="0.25"/>
      <g id="management" transform="translate(974.986 1011.5)">
        <g id="Group_15330" data-name="Group 15330" transform="translate(0.014 13.458)">
          <g id="Group_15329" data-name="Group 15329" transform="translate(0)">
            <path id="Path_18426" data-name="Path 18426" d="M52.107,143.642l-3.792-.906V141.4a7.107,7.107,0,0,0,3.5-6.121v-5.027a7.113,7.113,0,0,0-7.105-7.105h-.786a7.088,7.088,0,0,0-5.276,2.352,10,10,0,0,0-19.109,0,7.088,7.088,0,0,0-5.276-2.352h-.786a7.113,7.113,0,0,0-7.105,7.105v5.027a7.107,7.107,0,0,0,3.5,6.121v1.332l-3.792.906a7.886,7.886,0,0,0-6.073,7.695v3.42a1.136,1.136,0,0,0,1.136,1.136h9.176a10.724,10.724,0,0,0-.087,1.366v3.633H3.422a1.136,1.136,0,0,0,0,2.272h51.35a1.136,1.136,0,0,0,0-2.272H47.956v-3.628a10.72,10.72,0,0,0-.088-1.371h9.176a1.136,1.136,0,0,0,1.136-1.136v-3.42A7.886,7.886,0,0,0,52.107,143.642ZM39.095,130.256a4.838,4.838,0,0,1,4.833-4.833h.786a4.838,4.838,0,0,1,4.833,4.833v.291a8.578,8.578,0,0,1-4.6-1.4,1.135,1.135,0,0,0-1.244,0,8.576,8.576,0,0,1-4.6,1.4v-.291Zm0,4.1V132.82a10.84,10.84,0,0,0,5.226-1.4,10.839,10.839,0,0,0,5.226,1.4v2.463a4.838,4.838,0,0,1-4.833,4.833h-.786a4.838,4.838,0,0,1-4.833-4.833v-.927Zm2.179,13.076a10.715,10.715,0,0,0-1.434-.453l-3.611-.863a5.637,5.637,0,0,1,.829-.269l3.589-.86Zm-.94-6.025v1.319l-3.8.912a7.894,7.894,0,0,0-2.313.962v-1.66a10.072,10.072,0,0,0,3.7-3.879A7.156,7.156,0,0,0,40.333,141.409Zm-3.51-7.052a7.725,7.725,0,1,1-15.45,0v-3.328h1.249a14.631,14.631,0,0,0,8.726-2.866l.26.389a5.568,5.568,0,0,0,4.637,2.477h.579v3.328Zm-15.451-5.908a7.725,7.725,0,0,1,15.45,0v.307h-.579a3.3,3.3,0,0,1-2.748-1.468l-.42-.628q.511-.518.976-1.091a1.136,1.136,0,0,0-1.767-1.428,12.371,12.371,0,0,1-9.664,4.615H21.372Zm-1.093,10.614a10.071,10.071,0,0,0,3.711,3.885v1.66a7.9,7.9,0,0,0-2.323-.969l-3.8-.912v-1.319A7.16,7.16,0,0,0,20.279,139.063Zm1.674,7.05-3.606.864a10.708,10.708,0,0,0-1.426.45l.626-2.438,3.589.86A5.623,5.623,0,0,1,21.953,146.113ZM8.648,130.256a4.838,4.838,0,0,1,4.833-4.833h.786a4.838,4.838,0,0,1,4.833,4.833v.291a8.578,8.578,0,0,1-4.6-1.4,1.135,1.135,0,0,0-1.244,0,8.576,8.576,0,0,1-4.6,1.4v-.291Zm0,5.027V132.82a10.84,10.84,0,0,0,5.226-1.4,10.839,10.839,0,0,0,5.226,1.4v2.463a4.839,4.839,0,0,1-4.833,4.833h-.786A4.838,4.838,0,0,1,8.648,135.284Zm2.231,18.338H2.286v-2.284a5.621,5.621,0,0,1,4.329-5.485L10.192,145l1.69,6.588A10.511,10.511,0,0,0,10.88,153.621Zm1.272-11.359a7.106,7.106,0,0,0,1.33.127h.786a7.107,7.107,0,0,0,1.322-.125v1.217l-1.424,5.548c-.166.134-.33.271-.487.415l-1.527-5.954v-1.227Zm.359,18.63v-3.633A8.275,8.275,0,0,1,15.98,150.5l10.389,10.389ZM18.1,149.413c.252-.087.51-.163.774-.227l5.426-1.3L26.97,158.28Zm8.159-3.036v-2.433a10,10,0,0,0,5.682,0v2.449L29.1,157.456ZM33.9,147.9l5.409,1.292c.272.065.537.144.8.234L31.234,158.3Zm11.782,12.994H31.854l10.374-10.374a8.273,8.273,0,0,1,3.456,6.746Zm.36-17.4h0l-1.529,5.958c-.157-.143-.319-.279-.484-.412l-1.425-5.555v-1.217a7.108,7.108,0,0,0,1.322.125h.786a7.106,7.106,0,0,0,1.33-.127v1.227Zm9.865,10.132h-8.6a10.518,10.518,0,0,0-1-2.033L48,145l3.577.855a5.621,5.621,0,0,1,4.329,5.485v2.284Z" transform="translate(-0.014 -118.452)" fill="#1dc5ce"/>
          </g>
        </g>
        <g id="Group_15332" data-name="Group 15332" transform="translate(27.961)">
          <g id="Group_15331" data-name="Group 15331">
            <path id="Path_18427" data-name="Path 18427" d="M247.136,0A1.136,1.136,0,0,0,246,1.136V6a1.136,1.136,0,0,0,2.272,0V1.136A1.136,1.136,0,0,0,247.136,0Z" transform="translate(-246)" fill="#1dc5ce"/>
          </g>
        </g>
        <g id="Group_15334" data-name="Group 15334" transform="translate(27.961 8.815)">
          <g id="Group_15333" data-name="Group 15333">
            <path id="Path_18428" data-name="Path 18428" d="M247.938,77.918a1.135,1.135,0,1,0,.333.8A1.145,1.145,0,0,0,247.938,77.918Z" transform="translate(-245.999 -77.585)" fill="#1dc5ce"/>
          </g>
        </g>
        <g id="Group_15336" data-name="Group 15336" transform="translate(15.394 4.864)">
          <g id="Group_15335" data-name="Group 15335">
            <path id="Path_18429" data-name="Path 18429" d="M141.532,47.354l-4.209-4.209a1.136,1.136,0,1,0-1.606,1.607l4.21,4.209a1.136,1.136,0,1,0,1.606-1.607Z" transform="translate(-135.384 -42.813)" fill="#1dc5ce"/>
          </g>
        </g>
        <g id="Group_15338" data-name="Group 15338" transform="translate(36.233 4.688)">
          <g id="Group_15337" data-name="Group 15337">
            <path id="Path_18430" data-name="Path 18430" d="M325.209,41.592a1.137,1.137,0,0,0-1.607,0l-4.466,4.466a1.136,1.136,0,0,0,1.607,1.607l4.466-4.466A1.136,1.136,0,0,0,325.209,41.592Z" transform="translate(-318.803 -41.26)" fill="#1dc5ce"/>
          </g>
        </g>
      </g>
    </g>
  </g>
</svg>
