<svg xmlns="http://www.w3.org/2000/svg" width="74.218" height="63.796" viewBox="0 0 74.218 63.796">
  <g id="asia" transform="translate(-0.002 -35.953)">
    <g id="Group_17763" data-name="Group 17763" transform="translate(50.667 45.774)">
      <g id="Group_17762" data-name="Group 17762" transform="translate(0 0)">
        <path id="Path_26602" data-name="Path 26602" d="M351.31,103.725l-.238-.019a1.45,1.45,0,0,0-.229,2.89l.233.019c.04,0,.079,0,.119,0a1.45,1.45,0,0,0,.116-2.895Z" transform="translate(-349.507 -103.701)" fill="#1dc5ce"/>
      </g>
    </g>
    <g id="Group_17765" data-name="Group 17765" transform="translate(0.002 35.953)">
      <g id="Group_17764" data-name="Group 17764" transform="translate(0)">
        <path id="Path_26603" data-name="Path 26603" d="M74.176,51.6c-.434-2.47-3.9-3.168-5.041-3.4-3.326-.67-6.709-1.235-10.054-1.681A1.45,1.45,0,0,0,58.7,49.39c3.282.438,6.6.993,9.865,1.65,2.142.431,2.661.951,2.75,1.063-.043.162-.4,1.08-3.114,2.728-.538.327-1.1.6-1.641.872a12.919,12.919,0,0,0-2.993,1.85,5.948,5.948,0,0,0-1.26,1.885c-.57,1.144-.852,1.551-1.3,1.556a1.66,1.66,0,0,1-.285-.017,6.222,6.222,0,0,1-.065-.866c-.035-1.087-.093-2.907-1.824-3.9-1.688-.964-5.58-.012-6.713,1.048a4.186,4.186,0,0,0-1.623,3A2.749,2.749,0,0,0,51.684,62.3l.067.053c.077.1.15.18.216.255s.135.155.17.2a1.489,1.489,0,0,1-.054.355,10.625,10.625,0,0,1-1.36,1.78c-.049.057-.078.091-.082.1a9.5,9.5,0,0,1-1.558,1.335,8.418,8.418,0,0,0-2.112,1.975,2.219,2.219,0,0,0-.321,1,2,2,0,0,0-1.364-.744,2.545,2.545,0,0,0-2.1.68c-1.017,1-.9,2.569-.781,4.231.085,1.158.2,2.745-.278,3.224a5.737,5.737,0,0,1-2.008.5c-1.344.188-2.733.381-3.489,1.442-1.4,1.97-.2,3.1.191,3.475l.1.092c0,.014-.005.031-.009.051a3.94,3.94,0,0,1-.26.874,12.4,12.4,0,0,1-1.864-1.352,18.717,18.717,0,0,0-2.244-1.654c-1.98-1.169-3.4-1.534-4.617-1.186-1.468.421-2.148,1.731-2.805,3-.148.285-.3.581-.47.882a22.245,22.245,0,0,0-1.876-4.249c-1.484-2.443-3.333-3.566-5.5-3.339-.811.086-2.7.284-2.734,2.231a6.681,6.681,0,0,0-.48.949A5.323,5.323,0,0,1,12.98,80.22c-1.24,1.17-2.116,1.74-2.677,1.74h-.034c-.405-.017-.943-.4-1.6-1.134a12.018,12.018,0,0,1-2.133-4.111,16.718,16.718,0,0,0-2.045-4.235c.006-.022.011-.044.016-.066a12.4,12.4,0,0,0,2.883-2.5,5.245,5.245,0,0,0,.834-5.024,7.375,7.375,0,0,0-3-3.444c-1.066-.807-2.074-1.569-2.3-2.5A3.6,3.6,0,0,1,3.485,57a7.505,7.505,0,0,0,.86-2.757,6.08,6.08,0,0,0-.47-2.4,6.6,6.6,0,0,1-.229-.731l.049-.028H3.7a14.138,14.138,0,0,1,2.392.56,10.849,10.849,0,0,0,4.578.7,39.283,39.283,0,0,0,4.3-1.217c.729-.236,1.417-.458,2.059-.643,1.134-.326,2.076-.665,2.987-.993a22.225,22.225,0,0,1,4.85-1.319,33.971,33.971,0,0,0,4.141-1.012c3.073-.938,3.892-1.6,4.288-2.133.134-.179.245-.324.335-.442a3.583,3.583,0,0,0,.542-.835,1.575,1.575,0,0,0-.325-1.712l-.005-.006a1.414,1.414,0,0,1-.08-.271,3.9,3.9,0,0,0-1.439-2.048c-.14-.124-.333-.295-.447-.421a2.357,2.357,0,0,1,.262-.307c.186-.189.255-.26,1.379.238.3.131.6.266.929.378a21.254,21.254,0,0,1,4.195,2.416c.634.529.633.657.631,1.132a4.054,4.054,0,0,0,.406,1.98l.167.337A3.923,3.923,0,0,0,40.883,47a2.575,2.575,0,0,0,1.79.431,14.069,14.069,0,0,1,2.213.112,1.45,1.45,0,1,0,.351-2.878,17.119,17.119,0,0,0-2.62-.133c-.055-.108-.117-.232-.175-.349l-.173-.347a1.271,1.271,0,0,1-.1-.669A3.86,3.86,0,0,0,40.5,39.8a23.289,23.289,0,0,0-5.119-2.935c-.2-.07-.439-.174-.687-.283-1.034-.458-2.958-1.311-4.62.38a3.341,3.341,0,0,0-1.149,2.461A3.5,3.5,0,0,0,30.4,41.888a3.934,3.934,0,0,1,.538.532,4.452,4.452,0,0,0,.2.661l-.128.169c-.768.644-5.092,1.854-6.542,2.056a24.888,24.888,0,0,0-5.431,1.462c-.867.312-1.765.634-2.807.934-.688.2-1.4.427-2.15.671a37.166,37.166,0,0,1-3.972,1.131,11.36,11.36,0,0,1-3.216-.647c-1.828-.524-3.271-.938-4.322-.451A2.821,2.821,0,0,0,.749,50.725a4.812,4.812,0,0,0,.394,2.087,3.748,3.748,0,0,1,.308,1.276,5.3,5.3,0,0,1-.592,1.689,5.767,5.767,0,0,0-.75,3.85c.467,1.935,2.008,3.1,3.367,4.129.916.693,1.78,1.347,1.982,1.995.6,1.91-.423,2.814-3.264,4.729q-.351.236-.706.479l-.007,0a1.45,1.45,0,0,0-.6.92h0a1.423,1.423,0,0,0-.021.156c0,.048-.005.1,0,.142A1.45,1.45,0,0,0,1.3,73.207a10.92,10.92,0,0,1,2.515,4.5,14.471,14.471,0,0,0,2.692,5.046,5.418,5.418,0,0,0,3.638,2.1c1.809.076,3.387-1.169,4.826-2.528a7.978,7.978,0,0,0,1.738-2.693c.085-.192.2-.453.255-.536a2.227,2.227,0,0,0,.421-.914l.192-.023c2.412-.259,3.94,4.434,4.759,6.953.16.493.312.959.453,1.348a1.449,1.449,0,0,0,2.386.53,13.864,13.864,0,0,0,2.512-3.672c.34-.654.762-1.469,1.032-1.546.092-.026.642-.108,2.345.9a16.679,16.679,0,0,1,1.884,1.4c1.511,1.233,3.073,2.508,4.713,1.921,1.571-.562,1.959-2.485,2.086-3.117a2.747,2.747,0,0,0-.627-2.508,11.363,11.363,0,0,1,1.4-.253A6.226,6.226,0,0,0,44.176,78.8c1.414-1.417,1.25-3.672,1.118-5.483-.014-.191-.03-.408-.043-.629A2.3,2.3,0,0,0,47.926,74c1.849-.552,1.705-2.652,1.636-3.661-.012-.173-.028-.41-.029-.57A11.234,11.234,0,0,1,50.827,68.7a11.441,11.441,0,0,0,2.067-1.826l.009-.01c1.735-1.977,1.906-2.647,1.979-2.933a3.1,3.1,0,0,0-.727-3.22c-.057-.065-.116-.132-.173-.206a2.8,2.8,0,0,0-.484-.463,4.328,4.328,0,0,1,.591-.653,6.478,6.478,0,0,1,3.329-.64c.239.154.307.457.339,1.456A4.88,4.88,0,0,0,58.2,62.46a2.9,2.9,0,0,0,2.773,1.435h.063c2.3-.028,3.278-1.99,3.862-3.162a4.966,4.966,0,0,1,.584-1.005A10.4,10.4,0,0,1,67.842,58.3c.6-.3,1.217-.6,1.862-.994C73.079,55.258,74.5,53.442,74.176,51.6Z" transform="translate(-0.002 -35.953)" fill="#1dc5ce"/>
      </g>
    </g>
    <g id="Group_17767" data-name="Group 17767" transform="translate(49.189 69.406)">
      <g id="Group_17766" data-name="Group 17766">
        <path id="Path_26604" data-name="Path 26604" d="M346.9,266.966a1.449,1.449,0,0,0-2.01.4c-.437.656-.8,1.247-1.113,1.768a8.936,8.936,0,0,1-3.736,3.924,1.449,1.449,0,1,0,1.445,2.513,11.732,11.732,0,0,0,4.769-4.932c.317-.521.645-1.061,1.048-1.666A1.449,1.449,0,0,0,346.9,266.966Z" transform="translate(-339.314 -266.722)" fill="#1dc5ce"/>
      </g>
    </g>
    <g id="Group_17769" data-name="Group 17769" transform="translate(30.657 89.538)">
      <g id="Group_17768" data-name="Group 17768">
        <path id="Path_26605" data-name="Path 26605" d="M221.606,412.3c-2.691-.766-4.594-2.314-7.539-6.134a1.449,1.449,0,0,0-2.3,1.77c2.864,3.716,5.262,6.077,9.041,7.153a1.45,1.45,0,1,0,.793-2.788Z" transform="translate(-211.47 -405.606)" fill="#1dc5ce"/>
      </g>
    </g>
    <g id="Group_17771" data-name="Group 17771" transform="translate(44.952 96.849)">
      <g id="Group_17770" data-name="Group 17770">
        <path id="Path_26606" data-name="Path 26606" d="M311.585,456.041h-.052a1.45,1.45,0,0,0-.006,2.9h.058a1.45,1.45,0,0,0,0-2.9Z" transform="translate(-310.084 -456.041)" fill="#1dc5ce"/>
      </g>
    </g>
    <g id="Group_17773" data-name="Group 17773" transform="translate(38.191 85.253)">
      <g id="Group_17772" data-name="Group 17772" transform="translate(0 0)">
        <path id="Path_26607" data-name="Path 26607" d="M271.351,378.5c-.18-.618-.6-2.066-1.867-2.392-1.19-.306-2.039.54-2.788,1.286a4.747,4.747,0,0,1-2.1,1.466,1.45,1.45,0,0,0-1.152,1.419,4.251,4.251,0,0,0,2.237,4.138,3.608,3.608,0,0,0,1.505.322,4.3,4.3,0,0,0,2.79-1.075A4.842,4.842,0,0,0,271.351,378.5Zm-3.269,2.971a1.226,1.226,0,0,1-1.194.31.871.871,0,0,1-.409-.543,8.744,8.744,0,0,0,2.152-1.678A1.872,1.872,0,0,1,268.082,381.47Z" transform="translate(-263.445 -376.043)" fill="#1dc5ce"/>
      </g>
    </g>
    <g id="Group_17775" data-name="Group 17775" transform="translate(49.189 90.143)">
      <g id="Group_17774" data-name="Group 17774" transform="translate(0 0)">
        <path id="Path_26608" data-name="Path 26608" d="M346.745,415.486c-.773-3-2.429-3.923-4.346-5-.29-.162-.589-.33-.9-.513a1.45,1.45,0,0,0-1.464,2.5c.337.2.649.372.951.541,1.761.986,2.491,1.393,2.954,3.19a1.45,1.45,0,1,0,2.807-.724Z" transform="translate(-339.315 -409.778)" fill="#1dc5ce"/>
      </g>
    </g>
    <g id="Group_17777" data-name="Group 17777" transform="translate(12.284 37.787)">
      <g id="Group_17776" data-name="Group 17776" transform="translate(0 0)">
        <path id="Path_26609" data-name="Path 26609" d="M95.537,49.7a1.449,1.449,0,0,0-1.758-1.055c-.055.014-.155.035-.292.064-5.054,1.081-7.768,2.466-8.539,4.359a3.146,3.146,0,0,0,.382,2.992,1.45,1.45,0,0,0,2.415-1.6c-.053-.08-.139-.225-.111-.293.056-.139.717-1.39,6.46-2.618.182-.039.315-.068.389-.086A1.45,1.45,0,0,0,95.537,49.7Z" transform="translate(-84.727 -48.605)" fill="#1dc5ce"/>
      </g>
    </g>
    <g id="Group_17779" data-name="Group 17779" transform="translate(47.436 84.517)">
      <g id="Group_17778" data-name="Group 17778">
        <path id="Path_26610" data-name="Path 26610" d="M329.694,371.39a1.449,1.449,0,1,0,.425,1.025A1.46,1.46,0,0,0,329.694,371.39Z" transform="translate(-327.22 -370.965)" fill="#1dc5ce"/>
      </g>
    </g>
  </g>
</svg>
