<svg xmlns="http://www.w3.org/2000/svg" width="76.239" height="63.796" viewBox="0 0 76.239 63.796">
  <g id="europe_1_" data-name="europe (1)" transform="translate(-0.002 -41.778)">
    <g id="Group_17782" data-name="Group 17782" transform="translate(0.002 41.778)">
      <g id="Group_17781" data-name="Group 17781" transform="translate(0 0)">
        <path id="Path_26614" data-name="Path 26614" d="M75.666,84.027a4.092,4.092,0,0,0-2.827-1.288c-.22-.034-.449-.069-.578-.105a3.553,3.553,0,0,1-2.273-1.579,3.012,3.012,0,0,1-.127-2.387,8.709,8.709,0,0,1,.412-1,4.608,4.608,0,0,0,.49-3.849,11.832,11.832,0,0,0-2.52-3.267l-.03-.03.087-.072c.835-.7,1.7-1.42,2.564-2.068.084-.063.234-.156.379-.246a5.661,5.661,0,0,0,.992-.721,3.544,3.544,0,0,0,1.005-3.461,2.8,2.8,0,0,0-2.319-1.912c-.324-.056-.7-.088-1.139-.125a12.147,12.147,0,0,1-2.041-.293,2.655,2.655,0,0,0-.491-2.592,2.168,2.168,0,0,0-1.354-.722,4.747,4.747,0,0,0-.11-.7,11.39,11.39,0,0,0-2.412-4.31c-.183-.235-.367-.47-.545-.708-.274-.366-.6-.734-.945-1.124A8.159,8.159,0,0,1,60.4,49.449a4.788,4.788,0,0,1,.019-1.786,7.435,7.435,0,0,0-.061-2.944,3.954,3.954,0,0,0-3.812-2.94h-.022c-2.44.013-3.388,1.908-4.016,3.162-.831,1.659-1.648,3.353-2.438,4.992q-.6,1.242-1.2,2.482c-.173.356-.353.806-.561,1.328a21.58,21.58,0,0,1-1.281,2.806c-.608,1.033-.964,1.124-.962,1.125a.844.844,0,0,1-.355-.059,5.226,5.226,0,0,1-.162-1.978,5.982,5.982,0,0,0-.437-3.079c-.947-1.706-3.383-2.25-5.162-2.647-.3-.067-.586-.131-.8-.188a3.324,3.324,0,0,0-1.758-.165,2.433,2.433,0,0,0-1.4,1.155c-.069.1-.148.213-.244.344L32.39,55.646c-.429.587-.834,1.221-1.263,1.892-1.1,1.718-2.233,3.494-3.64,4.231l-.427.221c-1.943,1-2.434,1.491-2.795,3.988l-.029.2c-.2,1.352-.5,3.4.739,4.653a3.164,3.164,0,0,0,2.823.808,3.091,3.091,0,0,0,1.025-.343,2.276,2.276,0,0,0,.473.7,3.338,3.338,0,0,0,2.493.981,4.1,4.1,0,0,0,2.91-1.426,6.166,6.166,0,0,0,1.492-4.54,4.574,4.574,0,0,0-.58-1.623l-.048-.086c.006-.022.015-.048.027-.08a5.827,5.827,0,0,1,2.16-2.84,5.2,5.2,0,0,1,.956,1.862,10.086,10.086,0,0,0,.8,1.782c.015.024.051.094.077.145a3.2,3.2,0,0,0,.747,1.011,4.921,4.921,0,0,0-.839.47,7.84,7.84,0,0,0-2.788,3.5,7.348,7.348,0,0,0-.328,1.353,3.514,3.514,0,0,1-.268,1.01,3.031,3.031,0,0,1-1.3,1.309,4.573,4.573,0,0,1-.788.327,1.492,1.492,0,1,0,.9,2.846,7.551,7.551,0,0,0,1.3-.545A5.75,5.75,0,0,0,39.317,73a4.86,4.86,0,0,1,.187-.824,4.946,4.946,0,0,1,1.726-2.108,4.152,4.152,0,0,1,.66-.32,3.2,3.2,0,0,0,2.4-2.8A5.472,5.472,0,0,0,42.9,64.01a1.531,1.531,0,0,0-1.192-.278c-.069-.174-.137-.358-.205-.539-.493-1.321-1.108-2.965-2.655-3.6a2.955,2.955,0,0,0-2.367.077c-2.012.9-3.379,3.643-3.7,4.534A2.848,2.848,0,0,0,33,66.827a1.682,1.682,0,0,1,.245.645,3.288,3.288,0,0,1-.787,2.1,1.161,1.161,0,0,1-.766.413.39.39,0,0,1-.178-.031,2.436,2.436,0,0,0-1.307-1.644,2.687,2.687,0,0,0-2.595.244c-.081.045-.189.105-.243.127a1.34,1.34,0,0,1-.278.01,6.93,6.93,0,0,1,.1-2.079l.031-.21a6.383,6.383,0,0,1,.25-1.213,6.182,6.182,0,0,1,.96-.55l.442-.23c2.109-1.1,3.523-3.316,4.77-5.267.4-.631.784-1.226,1.158-1.738l3.356-4.593c.059-.081.113-.157.163-.227l.07.018c.272.072.584.141.914.215.719.16,2.905.648,3.2,1.175a6.156,6.156,0,0,1,.067,1.554c-.038,1.335-.084,3,.984,4.12a3.345,3.345,0,0,0,2.453.986h.068c2.692,0,4.086-3.492,5.011-5.809.179-.448.347-.87.473-1.128q.606-1.244,1.206-2.492c.786-1.629,1.6-3.313,2.419-4.952.629-1.256.858-1.51,1.363-1.513h.005a.988.988,0,0,1,.941.768,5.2,5.2,0,0,1-.031,1.782,6.962,6.962,0,0,0,.115,3.081,9.666,9.666,0,0,0,2.075,3.044c.3.344.591.668.793.938.19.253.384.5.58.753A8.862,8.862,0,0,1,62.885,58.3a2.391,2.391,0,0,1,.048.36,2.758,2.758,0,0,0,.961,2.032,2.106,2.106,0,0,0,.888.469,2.582,2.582,0,0,0,.445,2.269c.916,1.17,2.8,1.33,4.3,1.458.317.027.619.053.818.082a.887.887,0,0,1-.2.307,5.064,5.064,0,0,1-.478.318c-.2.124-.406.252-.6.394-.93.7-1.824,1.444-2.69,2.167-.42.351-.855.715-1.281,1.062a1.493,1.493,0,0,0-.206,2.111c.358.431.77.854,1.207,1.3a10.014,10.014,0,0,1,1.915,2.36c.093.216-.255.978-.463,1.434a11,11,0,0,0-.553,1.378,5.956,5.956,0,0,0,.369,4.691,6.532,6.532,0,0,0,4.09,3.017c.145.041.295.073.445.1-.476.048-.987.069-1.489.09-.53.022-1.078.045-1.591.1s-1.048.141-1.562.223a13.462,13.462,0,0,1-2.759.261,9.078,9.078,0,0,1-2.456-.781c-1.562-.646-3.333-1.378-5.052-.837a9.632,9.632,0,0,0-1.789.8c-.866.472-.978.533-1.907-.032a3.3,3.3,0,0,0-2.792-.539c-1.194.417-1.614,1.561-2.021,2.667-.045.123-.092.251-.141.381-.094.248-.218.532-.35.832-.608,1.387-1.442,3.287-.627,5.08a6.615,6.615,0,0,0,.427.778,5.767,5.767,0,0,1-2,.609,12.255,12.255,0,0,0-1.7.413,2.966,2.966,0,0,0-2.031,1.808,3.159,3.159,0,0,0,1.014,2.846,4.641,4.641,0,0,1,.56.772,1.98,1.98,0,0,1-.375,1.464,7.74,7.74,0,0,1-1.52-2.062c-.262-.439-.509-.854-.773-1.225-.138-.194-.3-.387-.454-.573a5.1,5.1,0,0,1-.51-.675,3.424,3.424,0,0,1,.01-.516,4.895,4.895,0,0,0-.041-1.278c-.38-1.935-4.945-6.751-7.755-7.191a2.454,2.454,0,0,0-2.644,1.217c-.422.765-.3,1.737.55,4.15l-.1-.09a4.351,4.351,0,0,1-.835-1.383,4.854,4.854,0,0,0-1.453-2.072,3.3,3.3,0,0,0-3.44-.071c-.154.069-.3.136-.434.2-.871.4-1.028.478-1.7.294-1.981-.546-3.388-.733-4.837,1.547a1.11,1.11,0,0,1-.8.651,10.963,10.963,0,0,0-1.128.486,8.933,8.933,0,0,0-2.511,2.078l-.144.154c-.28.3-.553.633-.841.984-.716.874-1.694,2.068-2.44,2.068H9.453a8.627,8.627,0,0,1-1.135-.128,8.931,8.931,0,0,0-2.053-.147,2.857,2.857,0,0,1-.489,0c-.054-.063-.133-.169-.2-.258a10.225,10.225,0,0,0-.7-.851A8.241,8.241,0,0,0,3.586,96.77a4.748,4.748,0,0,1-.6-.474,1.291,1.291,0,0,1,.082-.3,29.518,29.518,0,0,1,1.959-3.87c.276-.487.562-.989.828-1.483.42-.777.714-.984.853-1.038a1.841,1.841,0,0,1,1.189.24c1.063.473,2.142.993,3.184,1.5.538.26,1.077.519,1.616.775A1.492,1.492,0,0,0,14.7,91.4c.159-.343.363-.72.58-1.118a11.939,11.939,0,0,0,1.285-3A4.462,4.462,0,0,0,16.622,86a1.95,1.95,0,0,1,.008-.542,3.641,3.641,0,0,1,1.4-1.508l.216-.168A39.724,39.724,0,0,1,22.88,80.6,1.493,1.493,0,0,0,21.4,78.006a42.6,42.6,0,0,0-4.989,3.422l-.2.159A6.082,6.082,0,0,0,13.769,84.6a4.348,4.348,0,0,0-.127,1.574,2.33,2.33,0,0,1,0,.461,9.447,9.447,0,0,1-.964,2.162l-.3-.144c-1.063-.513-2.163-1.043-3.268-1.535-2.572-1.144-4.5-.455-5.881,2.107-.252.466-.517.933-.8,1.428A31.661,31.661,0,0,0,.283,94.938c-.935,2.456.686,3.625,1.557,4.253a5.613,5.613,0,0,1,.846.694,7.418,7.418,0,0,1,.506.619,3.167,3.167,0,0,0,3.265,1.439,6.211,6.211,0,0,1,1.4.117,11.277,11.277,0,0,0,1.526.163c2.206.053,3.727-1.8,4.837-3.16.256-.313.5-.609.713-.838l.148-.159a6.348,6.348,0,0,1,1.668-1.445,8.023,8.023,0,0,1,.841-.36,3.9,3.9,0,0,0,2.267-1.842,2.959,2.959,0,0,1,.39-.523,7.547,7.547,0,0,1,1.135.253,4.732,4.732,0,0,0,3.747-.465c.125-.058.257-.12.4-.183a2.1,2.1,0,0,1,.522-.175,6.031,6.031,0,0,1,.436.841,6.826,6.826,0,0,0,1.54,2.346c.071.064.284.275.51.5.567.56,1.424,1.406,2.208,2.108,1.21,1.083,2.077,1.769,3.092,1.444a1.522,1.522,0,0,0,.9-.789c.343-.715.188-1.119-.82-3.75-.356-.928-.979-2.554-1.33-3.687a12.147,12.147,0,0,1,2.088,1.637,12.026,12.026,0,0,1,2.376,2.847,4.032,4.032,0,0,1-.013.486,4.151,4.151,0,0,0,.14,1.658,5.314,5.314,0,0,0,1.048,1.633c.124.149.241.289.312.388.194.273.412.638.642,1.025a9.091,9.091,0,0,0,2.456,3.035,3,3,0,0,0,1.662.524,2.82,2.82,0,0,0,1.836-.7,4.689,4.689,0,0,0,1.228-5.019,6.573,6.573,0,0,0-.973-1.439l-.024-.029c.295-.079.64-.145,1-.215a7.227,7.227,0,0,0,3.419-1.306,2.547,2.547,0,0,0,.583-3.757,4.327,4.327,0,0,1-.278-.49c-.263-.58.239-1.726.643-2.647.141-.323.288-.656.409-.977q.079-.208.15-.405c.083-.225.184-.5.275-.714.054.029.116.064.186.107a4.162,4.162,0,0,0,4.885.1,6.813,6.813,0,0,1,1.26-.575c.685-.216,1.922.3,3.014.748a10.991,10.991,0,0,0,3.412,1,15.607,15.607,0,0,0,3.417-.293c.5-.08.967-.155,1.407-.2.417-.045.894-.065,1.4-.086A13.06,13.06,0,0,0,74.1,88.2a3.036,3.036,0,0,0,2.037-1.9A2.484,2.484,0,0,0,75.666,84.027Z" transform="translate(-0.002 -41.778)" fill="#1dc5ce"/>
      </g>
    </g>
    <g id="Group_17784" data-name="Group 17784" transform="translate(26.77 75.67)">
      <g id="Group_17783" data-name="Group 17783">
        <path id="Path_26615" data-name="Path 26615" d="M182.77,270.764a1.5,1.5,0,0,0-1.608-1.375l-.022,0a1.492,1.492,0,0,0,.124,2.98c.038,0,.076,0,.115,0l.022,0A1.487,1.487,0,0,0,182.77,270.764Z" transform="translate(-179.767 -269.385)" fill="#1dc5ce"/>
      </g>
    </g>
    <g id="Group_17786" data-name="Group 17786" transform="translate(9.744 62.114)">
      <g id="Group_17785" data-name="Group 17785">
        <path id="Path_26616" data-name="Path 26616" d="M77.4,189.865a17.639,17.639,0,0,0-.624-2.271,10.063,10.063,0,0,1-.621-2.652,5.5,5.5,0,0,1,.227-1.059c.333-1.221.837-3.066-.562-4.4a5.683,5.683,0,0,0-4.983-.939,3.2,3.2,0,0,0-2.416,2.123,6.42,6.42,0,0,0,.038,3.061,4.194,4.194,0,0,1,.094,1.86,22.76,22.76,0,0,1-1.182,2.876c-.233.5-.473,1.022-.693,1.541-.028.066-.1.214-.169.357-.818,1.682-1.547,3.435-.716,4.765a2.337,2.337,0,0,0,2.1,1.065c.349,0,.725.008,1.123.016.433.009.883.019,1.341.019,2.267,0,4.723-.233,6.145-1.9A5.167,5.167,0,0,0,77.4,189.865Zm-3.174,2.521c-.791.926-3.312.873-5.153.834l-.546-.011a13.594,13.594,0,0,1,.665-1.544c.1-.2.176-.362.235-.5.2-.472.419-.946.651-1.448a25.331,25.331,0,0,0,1.33-3.265,6.717,6.717,0,0,0-.015-3.266,4.433,4.433,0,0,1-.123-1.626,3.045,3.045,0,0,1,2.483.076A4.434,4.434,0,0,1,73.5,183.1a6.828,6.828,0,0,0-.332,1.9,12.3,12.3,0,0,0,.765,3.511,15.3,15.3,0,0,1,.527,1.883A2.434,2.434,0,0,1,74.228,192.386Z" transform="translate(-65.426 -178.346)" fill="#1dc5ce"/>
      </g>
    </g>
  </g>
</svg>
