<svg xmlns="http://www.w3.org/2000/svg" width="62" height="62" viewBox="0 0 62 62">
  <g id="Group_25143" data-name="Group 25143" transform="translate(-749 -1441)">
    <g id="Group_15322" data-name="Group 15322" transform="translate(296 -52)">
      <path id="Rectangle_1020" data-name="Rectangle 1020" d="M31,0h0A31,31,0,0,1,62,31v0A31,31,0,0,1,31,62H0a0,0,0,0,1,0,0V31A31,31,0,0,1,31,0Z" transform="translate(453 1493)" fill="#fff"/>
    </g>
    <g id="location-pin" transform="translate(766 1454)">
      <path id="Path_15061" data-name="Path 15061" d="M69.7,61.012A9.692,9.692,0,1,0,79.393,70.7,9.7,9.7,0,0,0,69.7,61.012Zm0,17.231A7.538,7.538,0,1,1,77.239,70.7,7.547,7.547,0,0,1,69.7,78.242Zm0,0" transform="translate(-55.7 -56.632)" fill="#10221b"/>
      <path id="Path_15062" data-name="Path 15062" d="M14,0A14.052,14.052,0,0,0,0,14.072a13.883,13.883,0,0,0,2.794,8.393L14,36.753,25.193,22.482l.013-.017A13.883,13.883,0,0,0,28,14.072,14.052,14.052,0,0,0,14,0Zm9.49,21.164L14,33.258,4.51,21.164a11.744,11.744,0,0,1-2.357-7.092,11.846,11.846,0,1,1,23.692,0,11.744,11.744,0,0,1-2.357,7.092Zm0,0" transform="translate(0 0)" fill="#10221b"/>
      <path id="Path_15063" data-name="Path 15063" d="M128.406,160.041l-2.469-2.469-1.523,1.523,3.992,3.992,6.146-6.146-1.523-1.523Zm0,0" transform="translate(-115.483 -144.262)" fill="#10221b"/>
    </g>
  </g>
</svg>
