<svg xmlns="http://www.w3.org/2000/svg" width="62" height="62" viewBox="0 0 62 62">
  <g id="Group_25144" data-name="Group 25144" transform="translate(-1049 -1441)">
    <g id="Group_15323" data-name="Group 15323" transform="translate(596 -52)">
      <path id="Rectangle_1020" data-name="Rectangle 1020" d="M31,0h0A31,31,0,0,1,62,31v0A31,31,0,0,1,31,62H0a0,0,0,0,1,0,0V31A31,31,0,0,1,31,0Z" transform="translate(453 1493)" fill="#fff"/>
    </g>
    <g id="reception" transform="translate(1064 1456)">
      <path id="Path_15064" data-name="Path 15064" d="M30.171,126.871h-.7l-.789-3.156a.973.973,0,0,0-.944-.737H24.331v-1.46h2.92a.973.973,0,1,0,0-1.946v-.487a11.694,11.694,0,0,0-10.706-11.638v-1.5h1.46a.973.973,0,1,0,0-1.946H13.139a.973.973,0,1,0,0,1.946H14.6v1.5A11.694,11.694,0,0,0,3.893,119.085v.487a.973.973,0,1,0,0,1.946h2.92v1.46H3.406a.973.973,0,0,0-.944.737l-.789,3.156h-.7a.973.973,0,1,0,0,1.947h29.2a.973.973,0,1,0,0-1.947ZM5.84,119.085a9.733,9.733,0,0,1,19.465,0v.487H5.84Zm2.92,2.433H22.385v1.46H8.759Zm-5.08,5.353.487-1.947H26.978l.487,1.947Z" transform="translate(0 -97.674)" fill="#10221b"/>
      <path id="Path_15065" data-name="Path 15065" d="M.973,241.947H2.92a.973.973,0,0,0,0-1.947H.973a.973.973,0,0,0,0,1.947Z" transform="translate(0 -225.401)" fill="#10221b"/>
      <path id="Path_15066" data-name="Path 15066" d="M448.973,241.947h1.946a.973.973,0,1,0,0-1.947h-1.946a.973.973,0,1,0,0,1.947Z" transform="translate(-420.749 -225.401)" fill="#10221b"/>
      <path id="Path_15067" data-name="Path 15067" d="M71.955,73.332a.973.973,0,0,0,1.376-1.376l-1.376-1.376a.973.973,0,0,0-1.376,1.376Z" transform="translate(-66.017 -66.018)" fill="#10221b"/>
      <path id="Path_15068" data-name="Path 15068" d="M388.035,73.619a.97.97,0,0,0,.688-.285l1.376-1.376a.973.973,0,1,0-1.376-1.376l-1.376,1.376A.974.974,0,0,0,388.035,73.619Z" transform="translate(-363.516 -66.02)" fill="#10221b"/>
      <path id="Path_15069" data-name="Path 15069" d="M240.973,3.893a.973.973,0,0,0,.973-.973V.973a.973.973,0,0,0-1.947,0V2.92A.973.973,0,0,0,240.973,3.893Z" transform="translate(-225.401)" fill="#10221b"/>
    </g>
  </g>
</svg>
