<svg xmlns="http://www.w3.org/2000/svg" width="62" height="62" viewBox="0 0 62 62">
  <g id="Group_25145" data-name="Group 25145" transform="translate(-1349 -1441)">
    <g id="Group_15324" data-name="Group 15324" transform="translate(896 -52)">
      <path id="Rectangle_1020" data-name="Rectangle 1020" d="M31,0h0A31,31,0,0,1,62,31v0A31,31,0,0,1,31,62H0a0,0,0,0,1,0,0V31A31,31,0,0,1,31,0Z" transform="translate(453 1493)" fill="#fff"/>
    </g>
    <g id="booking" transform="translate(1363 1440.5)">
      <path id="Path_15070" data-name="Path 15070" d="M27.291,15.5H7.065a7.065,7.065,0,0,0,0,14.13h5.144v5.708l-.251-.211a3.27,3.27,0,0,0-4.331.189,2.825,2.825,0,0,0,.184,4.206l4.4,3.69v3.557a1.007,1.007,0,0,0,1.007,1.007H25.294A1.007,1.007,0,0,0,26.3,46.769V35.459a3.024,3.024,0,0,0-2.646-3l-5.406-.673V29.63h9.043a7.065,7.065,0,0,0,0-14.13ZM14.222,45.762V43.749H24.287v2.013Zm9.183-11.3a1.008,1.008,0,0,1,.882,1v6.278H13.582L9.1,37.98a.815.815,0,0,1-.054-1.24,1.251,1.251,0,0,1,1.613-.07l1.9,1.6a1.007,1.007,0,0,0,1.653-.771V24.626a1.007,1.007,0,0,1,2.013,0v8.052a1.007,1.007,0,0,0,.882,1Zm3.886-6.843H18.248V24.626a3.02,3.02,0,0,0-6.039,0v2.991H7.065a5.052,5.052,0,0,1,0-10.1H27.291a5.052,5.052,0,0,1,0,10.1Z" transform="translate(0 0)" fill="#10221b"/>
      <path id="Path_15071" data-name="Path 15071" d="M307.542,75.809l-3.476,3.476L302.7,77.92a1.055,1.055,0,0,0-1.493,1.493l2.111,2.111a1.055,1.055,0,0,0,1.493,0l4.222-4.222a1.055,1.055,0,0,0-1.493-1.493Z" transform="translate(-281.01 -55.778)" fill="#10221b"/>
    </g>
  </g>
</svg>
