<svg xmlns="http://www.w3.org/2000/svg" width="62" height="62" viewBox="0 0 62 62">
  <g id="Group_15321" data-name="Group 15321" transform="translate(-453 -1493)">
    <g id="Group_25142" data-name="Group 25142">
      <path id="Rectangle_1020" data-name="Rectangle 1020" d="M31,0h0A31,31,0,0,1,62,31v0A31,31,0,0,1,31,62H0a0,0,0,0,1,0,0V31A31,31,0,0,1,31,0Z" transform="translate(453 1493)" fill="#fff"/>
      <g id="airplane" transform="translate(463.004 1507.003)">
        <g id="Page-1_1_" transform="translate(3.996 -0.003)">
          <g id="ride_export_1_" transform="translate(0 0)">
            <path id="airplane_x2C_-jet_x2C_-private_x2C_-small_x2C_-aircraft-2" d="M674.129,928.1h-2.219a3.01,3.01,0,0,1-2.951-2.419l-.2-1a3.01,3.01,0,0,1,2.951-3.6h.39a62.491,62.491,0,0,1-1.224-8.528h-7.367a3.01,3.01,0,0,1-2.987-2.636l-.5-4.013a3.009,3.009,0,0,1,2.986-3.383h8.649A11.1,11.1,0,0,1,673.377,899h-2.611a1,1,0,1,1,0-2.006H682.8a1,1,0,1,1,0,2.006h-2.611a11.1,11.1,0,0,1,1.722,3.511h8.649a3.01,3.01,0,0,1,2.986,3.383l-.5,4.013a3.01,3.01,0,0,1-2.987,2.636H682.7a62.462,62.462,0,0,1-1.223,8.528h.39a3.01,3.01,0,0,1,2.951,3.6l-.2,1a3.009,3.009,0,0,1-2.951,2.42h-2.219c-.8,1.948-1.653,3.01-2.657,3.01S674.931,930.046,674.129,928.1Zm-11.247-23.569a1,1,0,0,0-.871,1.12l.5,4.013a1,1,0,0,0,1,.879h26.555a1,1,0,0,0,1-.879l.5-4.013a1.023,1.023,0,0,0,.008-.125,1,1,0,0,0-1-1H663.006A1.035,1.035,0,0,0,662.882,904.529Zm11.932,19.226a27.347,27.347,0,0,0,1.471,4.219,6.564,6.564,0,0,0,.5.9,6.554,6.554,0,0,0,.5-.9,27.347,27.347,0,0,0,1.471-4.219,60.652,60.652,0,0,0,1.928-11.207h-7.8A60.632,60.632,0,0,0,674.814,923.755Zm4.99-21.24c-.833-2.336-2.06-3.511-3.019-3.511s-2.186,1.176-3.019,3.511Zm-8.1,20.567a1,1,0,0,0-.984,1.2l.2,1a1,1,0,0,0,.984.807h1.508c-.3-.914-.584-1.928-.854-3.01Zm8.445,3.01h1.508a1,1,0,0,0,.984-.807l.2-1a1,1,0,0,0-.984-1.2h-.855C680.737,924.163,680.449,925.177,680.153,926.091Zm-2.365-3.01a1,1,0,1,1-2.006,0v-2.007a1,1,0,0,1,2.006,0Z" transform="translate(-659.996 -896.997)" fill="#10221b"/>
          </g>
        </g>
      </g>
    </g>
  </g>
</svg>
