<svg xmlns="http://www.w3.org/2000/svg" width="215.971" height="144.979" viewBox="0 0 215.971 144.979">
  <g id="Group_19759" data-name="Group 19759" transform="translate(-24.473 -2543.021)" opacity="0.5">
    <g id="Group_14275" data-name="Group 14275" transform="translate(24.473 2543.021)">
      <g id="Group_5056" data-name="Group 5056" transform="translate(105.156 108.442)">
        <path id="Path_1038" data-name="Path 1038" d="M1765.924,2732.794c2.271-2.975,8.365-7.437,12.806-10.469a9.21,9.21,0,0,1,10.108-.2,141.54,141.54,0,0,1,14.476,10.1,21.729,21.729,0,0,1,4.273,5.011,9.176,9.176,0,0,1-3.344,12.84c-6.321,3.577-14.529,5.885-18.568,6.9a9.228,9.228,0,0,1-4.79-.093l-.091-.026-11.914-3.447a9.175,9.175,0,0,1-6.495-10.454C1763.074,2739.165,1764.188,2735.052,1765.924,2732.794Z" transform="translate(-1762.23 -2720.714)" fill="#97daff"/>
        <path id="Path_1039" data-name="Path 1039" d="M1899.654,2733.21c2.272-2.975,8.366-7.437,12.806-10.469a9.192,9.192,0,0,1,3.822-1.509c-2.844,6.04-6.082,13.681-6.852,18.6-.733,4.686,2.112,11.692,5.086,17.429l-11.913-3.447a9.176,9.176,0,0,1-6.5-10.453C1896.8,2739.58,1897.918,2735.467,1899.654,2733.21Z" transform="translate(-1895.96 -2721.129)" fill="#69d1ff"/>
        <path id="Path_1040" data-name="Path 1040" d="M1827.883,2731.649c1.926.883,7.813,3.185,9.964,7.556.921,1.869-.541,3.882-2.408,2.963-3.083-1.525-8.741-2.042-10.074-3.5C1823.065,2736.139,1825.253,2730.444,1827.883,2731.649Z" transform="translate(-1803.671 -2729.356)" fill="#d7f3ff"/>
      </g>
      <g id="Group_5058" data-name="Group 5058" transform="translate(0 0)">
        <path id="Path_982" data-name="Path 982" d="M2112.189,2122.713c.2-.02,4.788-.379,12.84,8.338,4.666,5.053,9.571,12.155,14.574,21.107,6.244,11.17,12.668,25.285,19.094,41.935a.433.433,0,0,1-.806.312c-7.955-20.623-20.188-48.213-33.295-62.548-4.093-4.478-7.232-6.493-9.144-7.4a7.184,7.184,0,0,0-3.178-.889.432.432,0,0,1-.085-.859Z" transform="translate(-2111.825 -2117.84)" fill="#0a5c60"/>
        <path id="Path_983" data-name="Path 983" d="M2055.967,2113.72a.432.432,0,0,1,.555.253,121.307,121.307,0,0,1,5.071,20.309c1.837,11.062,3.125,27.711-1.185,44.112a.431.431,0,1,1-.834-.219c4.261-16.246,2.985-32.75,1.164-43.733a120.328,120.328,0,0,0-5.031-20.167.431.431,0,0,1,.261-.555Z" transform="translate(-2005.321 -2110.607)" fill="#0a5c60"/>
        <path id="Path_984" data-name="Path 984" d="M2081.716,2098.764a3.986,3.986,0,0,1,.662,4.938,2.674,2.674,0,0,1-4.162.719,3.97,3.97,0,0,1-.662-4.927A2.683,2.683,0,0,1,2081.716,2098.764Z" transform="translate(-2029.169 -2098.07)" fill="#feb84f"/>
        <ellipse id="Ellipse_1" data-name="Ellipse 1" cx="3.522" cy="2.979" rx="3.522" ry="2.979" transform="translate(0.331 7.715) rotate(-92.17)" fill="#feb84f"/>
        <path id="Path_985" data-name="Path 985" d="M1995.251,2245.265c.952-1.539,1.889-2.963,2.635-4,1.128-1.57,1.306-1.6,1.478-1.619a.395.395,0,0,1,.213.747c-.666.551-6.1,8.275-11.228,19.418-4.5,9.776-9.559,24.032-8.07,36.422a.4.4,0,0,1-.344.435h-.046a.4.4,0,0,1-.4-.346c-1.529-12.735,3.71-27.345,8.374-37.358A133.225,133.225,0,0,1,1995.251,2245.265Zm4.226-4.847Z" transform="translate(-1926.708 -2211.676)" fill="#0a5c60"/>
        <path id="Path_986" data-name="Path 986" d="M1965.513,2221.626a3.186,3.186,0,0,1,4.674,1.581,4.429,4.429,0,0,1-1.266,5.505,3.19,3.19,0,0,1-4.676-1.57A4.444,4.444,0,0,1,1965.513,2221.626Z" transform="translate(-1894.505 -2196.809)" fill="#feb84f"/>
        <path id="Path_987" data-name="Path 987" d="M2036.246,2144.745a6.886,6.886,0,0,1,.877-.652,3.557,3.557,0,0,1,.97-3.518,2.715,2.715,0,0,1,3.556.083c23.687,19.388,27.341,51.891,27.458,52.715,2.628,18.467-3.68,14.507-6.28,17.778a3.785,3.785,0,0,0-.456.739c-2.195,4.621-3.67,6.069-8.079,6.345s-4.91-14.467-7.112-21.624-13.847-43.865-13.561-47.235A7.125,7.125,0,0,1,2036.246,2144.745Z" transform="translate(-2007.39 -2131.678)" fill="#b3d0d1"/>
        <path id="Path_988" data-name="Path 988" d="M2071.231,2263.08l.725,1.454,1.437,2.918c.233.49.486.97.7,1.468l.654,1.489,1.31,2.981c.108.249.223.494.322.747l.294.76.593,1.517.593,1.519c.2.509.407,1.007.572,1.527a86.419,86.419,0,0,1,3.475,12.565l.276,1.61c.042.269.1.534.129.806l.093.812.178,1.624c.038.545.063,1.091.091,1.634.01.273.031.543.03.816l-.012.818v.817c-.01.271-.041.543-.063.814s-.041.543-.073.814l-.124.808a9.181,9.181,0,0,1-.407,1.58,9.151,9.151,0,0,0,.246-1.6l.055-.806c.01-.269,0-.537,0-.806v-.806l-.043-.806-.044-.8c-.016-.269-.059-.535-.085-.8-.063-.534-.113-1.069-.178-1.6l-.262-1.58c-.15-1.062-.409-2.11-.622-3.161l-.168-.79c-.063-.261-.136-.52-.2-.79l-.4-1.562-.2-.79c-.063-.261-.132-.52-.215-.776l-.47-1.545c-.583-2.072-1.322-4.1-2.013-6.135-.162-.514-.369-1.011-.555-1.517l-.573-1.511-.573-1.513-.286-.755c-.1-.253-.2-.5-.306-.749l-1.266-2.989c-.415-.988-.808-2-1.256-2.985l-1.308-2.963c-.435-.988-.841-1.993-1.313-2.963-.906-1.964-1.817-3.925-2.687-5.912,1.081,1.877,2.12,3.777,3.161,5.679C2070.739,2262.121,2070.994,2262.6,2071.231,2263.08Z" transform="translate(-2027.015 -2224.771)" fill="#3ea399"/>
        <path id="Path_989" data-name="Path 989" d="M2034.5,2144.093a3.557,3.557,0,0,1,.97-3.518,2.715,2.715,0,0,1,3.556.083c23.687,19.388,27.341,51.891,27.458,52.715,2.627,18.467-3.68,14.507-6.28,17.778,1.148-25.7-19.556-56.118-26.586-66.406A6.855,6.855,0,0,1,2034.5,2144.093Z" transform="translate(-2004.763 -2131.678)" fill="#8bc3c0"/>
        <path id="Path_990" data-name="Path 990" d="M2113.671,2252.023a4.156,4.156,0,0,1,2.39-.577c8.923.381,17.766,8.043,22.2,13.235,4.494,5.242,4.048,14.687,4.024,15.1l.871-7.274c6.566,9.344,6.941,21.852,6.941,21.852l1.533-4.585c1.438,4.245,1.488,17.658,1.488,17.658-7.945-1.3-13.235-8.228-13.4-8.441a3.087,3.087,0,0,0,3.777-.408c-12.3-2.5-15.147-20.149-17.628-26.667s-6.829-11.131-11.457-15.21c-2.127-1.875-2.155-3.141-1.562-3.951A2.737,2.737,0,0,1,2113.671,2252.023Z" transform="translate(-2106.365 -2221.142)" fill="#8bc3c0"/>
        <path id="Path_991" data-name="Path 991" d="M2135.183,2279.137c5.578,8.547,17.938,33.611,17.938,33.611-7.945-1.3-13.235-8.228-13.4-8.441a3.088,3.088,0,0,0,3.777-.409c-12.3-2.5-15.147-20.149-17.628-26.667s-6.829-11.131-11.457-15.21c-2.127-1.875-2.155-3.141-1.562-3.951C2123.733,2261.152,2130.033,2271.248,2135.183,2279.137Z" transform="translate(-2106.365 -2226.464)" fill="#62b5ad"/>
        <path id="Path_992" data-name="Path 992" d="M2115.877,2303.336l1.051,1.332.523.67c.174.223.35.446.512.677l.988,1.383c.66.921,1.333,1.833,1.953,2.779,2.568,3.728,4.9,7.617,7.167,11.53s4.368,7.923,6.389,11.971c.506,1.01,1.009,2.023,1.493,3.044s.973,2.041,1.45,3.066c.945,2.052,1.877,4.115,2.734,6.207q-3.133-6.015-6.321-11.98c-1.073-1.976-2.146-3.971-3.24-5.942l-1.64-2.963-1.677-2.937c-.547-.988-1.124-1.954-1.691-2.927s-1.134-1.95-1.724-2.91l-1.746-2.9q-.907-1.426-1.8-2.861c-2.436-3.791-4.96-7.528-7.736-11.1q1.126,1.264,2.242,2.544C2115.185,2302.431,2115.523,2302.885,2115.877,2303.336Z" transform="translate(-2093.387 -2259.694)" fill="#3ea399"/>
        <path id="Path_993" data-name="Path 993" d="M1945.865,2315.18l1.683,6.143s-.824-9.942-.21-11.353,6.914-10.625,9.94-11.731a61.4,61.4,0,0,1,9.8-1.918h0c.251-.036.4-.052.4-.052l-3.042,8.166-8.028,3.214,6.793-.4s-5.181,13.47-5.94,14.094-8.164,5.592-8.164,5.592l7.39-2.393s-3.6,11.1-5.659,12.623c-2.017,1.5-7.585,4.762-7.848,4.917h0s-2.874-9.531-2.005-14.584S1945.865,2315.18,1945.865,2315.18Z" transform="translate(-1886.802 -2257.118)" fill="#2c8790"/>
        <path id="Path_994" data-name="Path 994" d="M1964.913,2296.361h0c.251-.035.4-.051.4-.051l-3.042,8.166-8.028,3.214,6.793-.4s-5.181,13.47-5.94,14.094-8.164,5.592-8.164,5.592l7.39-2.392s-3.6,11.1-5.659,12.623c-2.017,1.5-7.585,4.762-7.848,4.917,1.462-7.866,6.608-24.2,12.613-34.395A28.762,28.762,0,0,1,1964.913,2296.361Z" transform="translate(-1884.633 -2257.15)" fill="#38a8ad"/>
        <path id="Path_995" data-name="Path 995" d="M2014.438,2394.021q.289-.962.593-1.922c.2-.64.419-1.274.636-1.91.865-2.539,1.827-5.043,2.906-7.507q.409-.918.834-1.829t.893-1.8q.46-.894.968-1.763c.17-.289.346-.575.533-.854.095-.138.2-.277.294-.409.051-.067.1-.131.162-.2a.457.457,0,0,1,.2-.146.455.455,0,0,0-.184.162c-.049.067-.095.136-.14.2-.089.14-.17.286-.251.433-.156.292-.306.593-.451.891-.292.593-.559,1.211-.826,1.821s-.52,1.227-.766,1.847-.5,1.237-.733,1.861c-.948,2.489-1.815,5.009-2.625,7.547q-.3.953-.592,1.909t-.573,1.914c-.375,1.276-.717,2.568-1.063,3.85q-.257.964-.527,1.926l-.265.964-.274.962c-.368,1.284-.739,2.568-1.173,3.844a44.782,44.782,0,0,1,1.333-7.933C2013.684,2396.6,2014.055,2395.3,2014.438,2394.021Z" transform="translate(-1955.843 -2320.842)" fill="#0a5c60"/>
        <path id="Path_9584" data-name="Path 9584" d="M1765.924,2732.794c2.271-2.975,8.365-7.437,12.806-10.469a9.21,9.21,0,0,1,10.108-.2,141.54,141.54,0,0,1,14.476,10.1,21.729,21.729,0,0,1,4.273,5.011,9.176,9.176,0,0,1-3.344,12.84c-6.321,3.577-14.529,5.885-18.568,6.9a9.228,9.228,0,0,1-4.79-.093l-.091-.026-11.914-3.447a9.175,9.175,0,0,1-6.495-10.454C1763.074,2739.165,1764.188,2735.052,1765.924,2732.794Z" transform="translate(-1732.832 -2656.75)" fill="#97daff"/>
        <path id="Path_9585" data-name="Path 9585" d="M1899.654,2733.21c2.272-2.975,8.366-7.437,12.806-10.469a9.192,9.192,0,0,1,3.822-1.509c-2.844,6.04-6.082,13.681-6.852,18.6-.733,4.686,2.112,11.692,5.086,17.429l-11.913-3.447a9.176,9.176,0,0,1-6.5-10.453C1896.8,2739.58,1897.918,2735.467,1899.654,2733.21Z" transform="translate(-1866.562 -2657.166)" fill="#69d1ff"/>
        <path id="Path_9586" data-name="Path 9586" d="M1827.883,2731.649c1.926.883,7.813,3.185,9.964,7.556.921,1.869-.541,3.882-2.408,2.963-3.083-1.525-8.741-2.042-10.074-3.5C1823.065,2736.139,1825.253,2730.444,1827.883,2731.649Z" transform="translate(-1774.272 -2665.393)" fill="#d7f3ff"/>
      </g>
      <g id="Group_5057" data-name="Group 5057" transform="translate(191.425 81.314)">
        <path id="Path_1041" data-name="Path 1041" d="M2686.568,2813.554c1.185-1.563,4.4-3.907,6.716-5.506a4.845,4.845,0,0,1,5.312-.107,74.674,74.674,0,0,1,7.6,5.308,11.432,11.432,0,0,1,2.244,2.631,4.814,4.814,0,0,1-1.756,6.74,42.037,42.037,0,0,1-9.758,3.623,4.851,4.851,0,0,1-2.515-.047l-.049-.014-6.258-1.812a4.819,4.819,0,0,1-3.412-5.491A13.917,13.917,0,0,1,2686.568,2813.554Z" transform="translate(-2684.617 -2807.201)" fill="#97daff"/>
        <path id="Path_1042" data-name="Path 1042" d="M2756.781,2813.786c1.185-1.562,4.4-3.907,6.716-5.505a4.813,4.813,0,0,1,2.009-.79c-1.493,3.172-3.2,7.186-3.6,9.77-.4,2.461,1.108,6.141,2.67,9.156l-6.257-1.811a4.82,4.82,0,0,1-3.412-5.492A13.914,13.914,0,0,1,2756.781,2813.786Z" transform="translate(-2754.83 -2807.433)" fill="#69d1ff"/>
        <path id="Path_1043" data-name="Path 1043" d="M2719.008,2812.977c1.014.464,4.1,1.673,5.235,3.969.484.988-.284,2.038-1.266,1.553-1.618-.8-4.591-1.073-5.292-1.841C2716.477,2815.335,2717.627,2812.342,2719.008,2812.977Z" transform="translate(-2706.278 -2811.766)" fill="#d7f3ff"/>
      </g>
    </g>
  </g>
</svg>
