<svg xmlns="http://www.w3.org/2000/svg" width="37.445" height="42.812" viewBox="0 0 37.445 42.812">
  <g id="Group_5060" data-name="Group 5060" transform="translate(-753.888 71.441)">
    <path id="Path_9827" data-name="Path 9827" d="M801.1,20.476c-.014,6.24-3.523,10.977-9.679,12.806a21.365,21.365,0,0,1-15.517-.925A12.692,12.692,0,0,1,768.579,20.1a17.335,17.335,0,0,1,4.478-11.026c1.275-1.469,2.474-3,3.747-4.474a1.448,1.448,0,0,1,.96-.466q7.09-.045,14.181-.008a1.132,1.132,0,0,1,.794.3c1.985,2.467,4.05,4.879,5.869,7.465A14.644,14.644,0,0,1,801.1,20.476Zm-12.372-4.958c-.354-.7-.538-1.619-1.1-2.056A3.44,3.44,0,0,1,786,10.185c.058-.6-.531-.96-1.152-.965a1.109,1.109,0,0,0-1.187.955,4.518,4.518,0,0,0-.06,1.245,1.148,1.148,0,0,1-.686,1.242,3.454,3.454,0,0,0-1.761,3.741,3.5,3.5,0,0,0,2.638,3c.473.141.989.141,1.457.293a1.118,1.118,0,0,1,.773,1.387,1.1,1.1,0,0,1-1.08.975,1.135,1.135,0,0,1-1.28-.832,4.581,4.581,0,0,1-.115-.487A1.267,1.267,0,0,0,782.17,19.6a1.3,1.3,0,0,0-1.067,1.534,3.428,3.428,0,0,0,1.828,2.9A1.118,1.118,0,0,1,783.6,25.2c-.009,1,.475,1.546,1.25,1.537s1.241-.558,1.225-1.563a1.152,1.152,0,0,1,.684-1.16,3.634,3.634,0,0,0,.318-6.1,6.874,6.874,0,0,0-2.385-.838,1.23,1.23,0,0,1-1.1-1.257,1.194,1.194,0,0,1,1.049-1.222c.686-.15,1.221.346,1.427,1.273.2.876.675,1.276,1.425,1.186C788.2,16.974,788.572,16.454,788.728,15.519Z" transform="translate(-12.23 -62.939)" fill="#1dc5ce"/>
    <path id="Path_9828" data-name="Path 9828" d="M828.661-61.456H816.039a21.3,21.3,0,0,0-2.235-8.067,1.219,1.219,0,0,1,.2-1.533,1.227,1.227,0,0,1,1.535-.182c1.141.57,2.3,1.106,3.415,1.727a.808.808,0,0,0,1.2-.213,14.125,14.125,0,0,1,1.236-1.24,1.259,1.259,0,0,1,1.979.01c.062.056.117.119.178.175.547.5,1.04,1.31,1.658,1.421.573.1,1.282-.533,1.928-.849.7-.342,1.392-.69,2.086-1.037a1.213,1.213,0,0,1,1.531.2,1.382,1.382,0,0,1,.163,1.619c-.617,1.657-1.252,3.312-1.762,5A22.448,22.448,0,0,0,828.661-61.456Z" transform="translate(-49.762)" fill="#1dc5ce"/>
    <path id="Path_9829" data-name="Path 9829" d="M936.263-23.246c.171-.979-.281-2.342,1.356-2.4.838-.032,1.054.413,1.268,2.392.925.237,2.509-.3,2.369,1.476-.113,1.437-1.43.971-2.358,1.167-.235.93.285,2.459-1.419,2.376-1.487-.072-1.05-1.422-1.21-2.359-.948-.236-2.425.278-2.4-1.363C933.9-23.525,935.3-23.06,936.263-23.246Z" transform="translate(-149.932 -38.143)" fill="#1dc5ce"/>
    <path id="Path_9830" data-name="Path 9830" d="M756.282-68.691c.155-1-.264-2.439,1.338-2.41,1.528.028,1.118,1.427,1.262,2.415.967.153,2.411-.305,2.4,1.312-.014,1.543-1.38,1.166-2.372,1.255-.2,1,.26,2.5-1.4,2.438-1.463-.058-1.09-1.4-1.218-2.406-.947-.182-2.447.31-2.4-1.36C753.935-69,755.338-68.524,756.282-68.691Z" transform="translate(0 -0.283)" fill="#1dc5ce"/>
    <path id="Path_9831" data-name="Path 9831" d="M771.121,5.5a1.226,1.226,0,1,1-2.452.006,1.226,1.226,0,1,1,2.452-.006Z" transform="translate(-12.313 -63.073)" fill="#1dc5ce"/>
  </g>
</svg>
