<svg xmlns="http://www.w3.org/2000/svg" width="42.428" height="42.356" viewBox="0 0 42.428 42.356">
  <g id="Group_5024" data-name="Group 5024" transform="translate(-618.712 -140.65)">
    <path id="Path_9689" data-name="Path 9689" d="M622.929,202.646l-1.2,1.032c1.036,1.205,2.4.811,3.652.755a15.484,15.484,0,0,0,2.687-.463.8.8,0,0,1,1.059.489,2.249,2.249,0,0,0,.3.494A6.825,6.825,0,0,1,631,210.321a1.424,1.424,0,0,0,.26.908c.808,1.152,1.651,2.279,2.5,3.4a3.422,3.422,0,0,0,.678.5l.148-1.262c.109.117.189.162.2.224a3.068,3.068,0,0,0,3.166,2.411,3.383,3.383,0,0,1,2.2,1.156,12.859,12.859,0,0,0,1.986,1.346c-.292.614-.605,1.345-.984,2.041a1.187,1.187,0,0,0,.015,1.373,14.784,14.784,0,0,1,1.976,4.963,2.983,2.983,0,0,1,.039,1.289c-.444,1.9-1.141,3.768-.479,5.963-1.484.028-2.826.158-4.152.062a21.1,21.1,0,0,1-19.387-16.887,20.837,20.837,0,0,1,1.959-14.06A1.706,1.706,0,0,1,622.929,202.646Z" transform="translate(0 -51.726)" fill="#1dc5ce"/>
    <path id="Path_9690" data-name="Path 9690" d="M748.812,174.095c.442-1.764,1.552-1.972,2.819-1.939a3.388,3.388,0,0,0,1.229-.138c.822-.3,1.133.153,1.506.763a21.189,21.189,0,0,1-8.776,29.764c-1.38.662-2.842,1.153-4.421,1.786.116-.971.273-1.641,1.047-2.013.345-.166.628-.458.971-.63a4.8,4.8,0,0,0,2.744-3.384,1.261,1.261,0,0,1,.741-.765,4.65,4.65,0,0,0,3-2.921c.35-.859.842-1.66,1.309-2.56-.59-.348-1.113-.7-1.672-.979a9.922,9.922,0,0,1-3.488-2.852,1.413,1.413,0,0,0-.707-.509c-1.365-.329-2.733-.672-4.119-.872a12.688,12.688,0,0,0-2.1.153,1.512,1.512,0,0,1-.845-.239c-.547-.372-1.048-.812-1.7-1.333v-1.194a1.543,1.543,0,0,0-1.93.721l-.4-1.639c.885-.589,1.717-1.061,2.776-.345a3.924,3.924,0,0,0,1.229.353c1.787-3.689,4.2-6.239,8.637-6.13a1.07,1.07,0,0,0-.305-1.35,9.5,9.5,0,0,1-2.824-3.612c-.04-.118-.149-.278-.252-.3-1.3-.277-2.6-.533-3.988-.811l-.444,2.116c-2.706-.3-2.288-.229-2.346-1.578.6-.305,1.355-.465,1.7-.932a6.058,6.058,0,0,0,.535-2.083c.506.2.961.37,1.4.572.127.059.31.242.291.333-.2,1,.593,1.058,1.188,1.346a1.635,1.635,0,0,0,2.043-.356c-.809-.824-1.645-1.622-2.411-2.483a5.705,5.705,0,0,1-.635-1.269,4.446,4.446,0,0,1,4.536,3.514C745.644,172.105,747.336,172.828,748.812,174.095Z" transform="translate(-96.204 -21.804)" fill="#1dc5ce"/>
    <path id="Path_9691" data-name="Path 9691" d="M649.3,148.2c6.005-7.625,17.248-9.522,24.814-5.46a4.668,4.668,0,0,1-1.063-.1,2.682,2.682,0,0,0-3.06,1.034,2.75,2.75,0,0,1-2.276,1.05c-1.151.016-2.3,0-3.452.05a1.011,1.011,0,0,0-.768.4,2.144,2.144,0,0,1-2.292,1.3,8.263,8.263,0,0,1-3.085-.348.9.9,0,0,0-.71,0c-1.324.96-2.9.947-4.407,1.225C651.769,147.57,650.553,147.9,649.3,148.2Zm15.851-4.763c.954,1.157,3.336.494,4.706-1.27-.579-.173-1.2-.591-1.6-.433A26.735,26.735,0,0,0,665.156,143.433Zm-2.31.672-.695-1.18-.083.21c-.647-.053-1.294-.115-1.942-.153a.6.6,0,0,0-.357.133c-.372.278-.731.573-1.1.869C660.009,145.454,661.361,144.255,662.846,144.106Z" transform="translate(-25.526)" fill="#1dc5ce"/>
  </g>
</svg>
