<svg xmlns="http://www.w3.org/2000/svg" width="44.269" height="44.231" viewBox="0 0 44.269 44.231">
  <g id="Group_5062" data-name="Group 5062" transform="translate(-1732.552 41.915)">
    <path id="Path_9835" data-name="Path 9835" d="M1740.357-38.753c.341-2.653.655-3.206,1.742-3.159s1.4.643,1.554,3.085h15.718c.19-1.211-.41-3.12,1.721-3.033,1.881.076,1.388,1.788,1.527,3.107.989,0,1.964,0,2.939,0a4.735,4.735,0,0,1,4.915,4.912q.012,9.431,0,18.863v.958l-5.527-4.887c-.592-.523-1.179-1.051-1.772-1.573a3.009,3.009,0,0,0-3.467-.595,3.07,3.07,0,0,0-1.875,2.99q-.005,6.469,0,12.937V-3.98h-1.042q-9.577,0-19.154,0a4.756,4.756,0,0,1-5.084-5.041q-.006-12.344,0-24.689a4.755,4.755,0,0,1,5.083-5.041C1738.525-38.754,1739.411-38.753,1740.357-38.753Zm.027,3.158c-1.076,0-2.093-.021-3.108.007a1.407,1.407,0,0,0-1.513,1.284c-.1,1.658-.03,3.325-.03,4.958h31.588c0-1.591.017-3.1-.006-4.617a1.48,1.48,0,0,0-1.418-1.6c-1.07-.089-2.153-.021-3.283-.021-.138,1.3.373,3.069-1.576,3.1-2.029.031-1.517-1.789-1.651-3.045h-15.7c-.262,2.565-.548,3.1-1.646,3.1S1740.622-33.007,1740.384-35.594ZM1742.8-18.2c.23,0,.459.008.688,0a1.608,1.608,0,0,0,1.708-1.532,1.6,1.6,0,0,0-1.706-1.631c-.328-.012-.655,0-.983,0-1.322.006-2.05.567-2.051,1.581s.731,1.579,2.049,1.586Zm9.557,0c1.573,0,2.34-.532,2.322-1.608s-.763-1.56-2.37-1.56-2.352.485-2.37,1.557C1749.916-18.715,1750.688-18.2,1752.353-18.2Zm-9.529,6.323h.3c1.333-.006,2.058-.551,2.074-1.561s-.725-1.6-2.028-1.606h-.295c-1.67,0-2.437.51-2.417,1.609C1740.471-12.368,1741.216-11.878,1742.824-11.878Zm9.459,0c.229,0,.459.008.688,0a1.606,1.606,0,0,0,1.7-1.536,1.6,1.6,0,0,0-1.71-1.627c-.295-.011-.59,0-.885,0-1.409,0-2.148.549-2.146,1.585s.742,1.579,2.152,1.582Z" fill="#1dc5ce"/>
    <path id="Path_9836" data-name="Path 9836" d="M1868.557,81.2c0-3.026.011-6.052-.008-9.078a1.75,1.75,0,0,1,.982-1.863,1.7,1.7,0,0,1,1.952.517q6.813,6.067,13.635,12.126c1.273,1.133,1.088,2.339-.487,3.043q-6.734,3.011-13.479,6c-1.586.7-2.59.054-2.594-1.665C1868.552,87.252,1868.557,84.226,1868.557,81.2Z" transform="translate(-109.137 -89.906)" fill="#1dc5ce"/>
  </g>
</svg>
