<svg xmlns="http://www.w3.org/2000/svg" width="43.375" height="43.354" viewBox="0 0 43.375 43.354">
  <g id="Group_5064" data-name="Group 5064" transform="translate(-2653.41 63.066)">
    <path id="Path_9843" data-name="Path 9843" d="M2778.321,28.643c-.157,2.007-.431,2.516-1.33,2.5-.882-.013-1.149-.515-1.3-2.479h-16c-.15.987.29,2.383-1.383,2.462-.856.04-1.087-.486-1.244-2.485-.141-.06-.291-.131-.447-.189a2.925,2.925,0,0,1-2.046-2.894q-.008-12.147,0-24.294c0-1.909,1.287-3.1,3.342-3.1q9.355-.011,18.711,0c.31,0,.621,0,.931,0a3.024,3.024,0,0,1,3.259,3.276q0,11.766,0,23.533C2780.817,27.086,2780.312,27.842,2778.321,28.643Zm-16.13-15.187q0-5.162,0-10.324c0-.973-.5-1.576-1.274-1.573s-1.264.607-1.267,1.581c-.006,1.862,0,3.724,0,5.586q0,7.447,0,14.894c0,.952.42,1.524,1.148,1.6.8.085,1.391-.543,1.393-1.524Q2762.2,18.575,2762.191,13.455Zm11,0V18.7c0,1.721-.014,3.442.007,5.162a1.28,1.28,0,0,0,1.3,1.358,1.31,1.31,0,0,0,1.233-1.35c0-.084,0-.169,0-.254q0-10.24,0-20.48a2.229,2.229,0,0,0-.039-.588,1.119,1.119,0,0,0-1.22-.949,2.568,2.568,0,0,0-1.2.88c-.149.162-.08.54-.081.819Q2773.191,8.378,2773.2,13.456Z" transform="translate(-84.032 -50.858)" fill="#1dc5ce"/>
    <path id="Path_9844" data-name="Path 9844" d="M2668.865,70.051h-10.322c-.12,1.046.289,2.5-1.318,2.479s-1.17-1.468-1.272-2.479c-1.946-.54-2.566-1.868-2.542-3.775.063-4.995.02-9.99.022-14.986a2.992,2.992,0,0,1,3.259-3.261c3.724,0,7.448,0,11.3,0v.927c0,5.729.013,11.458-.01,17.187A7.13,7.13,0,0,0,2668.865,70.051Zm-7.812-11.018c0-2,0-4,0-6.007,0-.987-.464-1.58-1.231-1.609-.8-.03-1.311.591-1.312,1.612q-.005,6.007,0,12.014c0,.99.461,1.579,1.23,1.606.8.028,1.31-.589,1.312-1.609C2661.057,63.038,2661.053,61.036,2661.053,59.033Z" transform="translate(0 -92.285)" fill="#1dc5ce"/>
    <path id="Path_9845" data-name="Path 9845" d="M2810.567-55.26h-2.522c0-1.3,0-2.585,0-3.87,0-1.269-.123-1.388-1.412-1.389-1.129,0-2.258-.006-3.387,0-.925.006-1.127.214-1.132,1.159-.006,1.346,0,2.693,0,4.079h-2.494c0-1.7-.123-3.394.036-5.061a3.138,3.138,0,0,1,3.193-2.709c1.5-.019,2.991-.022,4.488,0a3.213,3.213,0,0,1,3.21,2.9C2810.646-58.555,2810.567-56.948,2810.567-55.26Z" transform="translate(-121.417)" fill="#1dc5ce"/>
    <path id="Path_9846" data-name="Path 9846" d="M2714.129,1.7l-.523,2.495c-.444,0-.917,0-1.391,0-1.065.007-1.2.144-1.2,1.241,0,.451,0,.9,0,1.42h-2.427C2708.117,3.747,2708.75,1.076,2714.129,1.7Z" transform="translate(-45.73 -53.726)" fill="#1dc5ce"/>
  </g>
</svg>
