<svg xmlns="http://www.w3.org/2000/svg" width="43.036" height="42.649" viewBox="0 0 43.036 42.649">
  <g id="Group_5061" data-name="Group 5061" transform="translate(-1121.916 74.762)">
    <path id="Path_9832" data-name="Path 9832" d="M1195.888-61.112a17.036,17.036,0,0,1-2.725,8.623,43.279,43.279,0,0,1-10.123,11.667,1.226,1.226,0,0,1-1.688.082c-5.2-4.371-9.71-9.313-12.112-15.8a13.706,13.706,0,0,1,11.422-18.148,13.754,13.754,0,0,1,14.857,10.67C1195.73-63.069,1195.769-62.081,1195.888-61.112Zm-13.847,8.5a8.328,8.328,0,0,0,8.444-8.294,8.376,8.376,0,0,0-8.317-8.357,8.362,8.362,0,0,0-8.358,8.314A8.33,8.33,0,0,0,1182.041-52.608Z" transform="translate(-38.691)" fill="#1dc5ce"/>
    <path id="Path_9833" data-name="Path 9833" d="M1143.4,102.5q-9.248,0-18.495,0a2.787,2.787,0,0,1-2.5-1.1,2.308,2.308,0,0,1-.165-2.609c1.91-3.417,3.8-6.843,5.78-10.222a3.6,3.6,0,0,1,3.362-1.516c.209,0,.474.258.625.463a51.737,51.737,0,0,0,8.337,8.732,4.536,4.536,0,0,0,6.315-.066,52.136,52.136,0,0,0,8.317-8.751.892.892,0,0,1,.58-.384,3.764,3.764,0,0,1,3.5,1.742q2.753,4.851,5.461,9.728a2.537,2.537,0,0,1-2.377,3.973Q1152.772,102.511,1143.4,102.5Z" transform="translate(0 -134.616)" fill="#1dc5ce"/>
    <path id="Path_9834" data-name="Path 9834" d="M1224.05-23.154c.889-.015,1.373.323,1.468,1.028.1.763-.3,1.241-1.183,1.412-1.9.367-2.426.91-2.731,2.814a1.272,1.272,0,0,1-1.4,1.148,1.3,1.3,0,0,1-1.106-1.44A5.2,5.2,0,0,1,1224.05-23.154Z" transform="translate(-80.852 -42.934)" fill="#1dc5ce"/>
  </g>
</svg>
