<svg xmlns="http://www.w3.org/2000/svg" width="44.145" height="37.458" viewBox="0 0 44.145 37.458">
  <g id="Group_5063" data-name="Group 5063" transform="translate(-2116.456 65.026)">
    <path id="Path_9837" data-name="Path 9837" d="M2194.632,52.416q-4.021,0-8.041,0c-1.393,0-1.759-.368-1.761-1.757,0-3.774-.013-7.548,0-11.323a6.125,6.125,0,0,1,6.516-6.526c2.243-.011,4.486-.025,6.728,0a6.053,6.053,0,0,1,6.339,6.193c.07,3.964.025,7.931.011,11.9,0,1.091-.45,1.5-1.59,1.509C2200.1,52.424,2197.367,52.416,2194.632,52.416Z" transform="translate(-56.098 -79.991)" fill="#1dc5ce"/>
    <path id="Path_9838" data-name="Path 9838" d="M2214.794-57.681a7.23,7.23,0,0,1-7.42,7.227,7.234,7.234,0,0,1-7.126-7.437,7.29,7.29,0,0,1,7.3-7.135A7.286,7.286,0,0,1,2214.794-57.681Z" transform="translate(-68.987 0)" fill="#1dc5ce"/>
    <path id="Path_9839" data-name="Path 9839" d="M2125.388,68.688c-1.956,0-3.843.084-5.719-.025a3.2,3.2,0,0,1-3.114-2.972,57.865,57.865,0,0,1,.116-8.517,5.642,5.642,0,0,1,5.545-4.793c1.143-.04,2.288-.007,3.367-.007-.573,5.083-.169,10.116-.278,15.138C2125.3,67.89,2125.356,68.269,2125.388,68.688Z" transform="translate(0 -96.343)" fill="#1dc5ce"/>
    <path id="Path_9840" data-name="Path 9840" d="M2317.3,68.3c-.132-5.494.294-10.9-.291-16.463a32.016,32.016,0,0,1,4.66.329,5.866,5.866,0,0,1,4.454,5.7c.017,2.162.008,4.325,0,6.488a3.56,3.56,0,0,1-3.528,3.917C2320.829,68.394,2319.048,68.3,2317.3,68.3Z" transform="translate(-165.529 -95.902)" fill="#1dc5ce"/>
    <path id="Path_9841" data-name="Path 9841" d="M2138.881-12.6a5.376,5.376,0,0,1-5.48-5.426,5.4,5.4,0,0,1,5.386-5.446,5.406,5.406,0,0,1,5.486,5.349A5.407,5.407,0,0,1,2138.881-12.6Z" transform="translate(-14.161 -34.239)" fill="#1dc5ce"/>
    <path id="Path_9842" data-name="Path 9842" d="M2300.333-18.035a5.376,5.376,0,0,1-5.477,5.43,5.4,5.4,0,0,1-5.4-5.438,5.4,5.4,0,0,1,5.483-5.434A5.4,5.4,0,0,1,2300.333-18.035Z" transform="translate(-142.509 -34.239)" fill="#1dc5ce"/>
  </g>
</svg>
