<svg xmlns="http://www.w3.org/2000/svg" width="359.936" height="381.992" viewBox="0 0 359.936 381.992">
  <g id="Group_14221" data-name="Group 14221" transform="translate(-1417.718 -588.119)">
    <g id="Group_14082" data-name="Group 14082" transform="translate(1417.718 800.852)">
      <path id="Path_14854" data-name="Path 14854" d="M1774.153,2502.619c-10.616,23.632-89.98,17.424-110.352,4.938-16.269-9.971-39.108-15.741-58.175-15-13.369.521-25.819,2.5-24.356,8.2,3.717,14.475-6.347,14.373-16.835,15.977-7.766,1.188-19.058-2.991-36.828.8-15.18,3.053-33.436-6-37.092-11.625-4.234-6.514-.491-15.622-.481-15.485.705-2.343-16.635,3.205-24.461,5.577-9.2,2.787-16.451-6.613-20.624-8.36s-11.981,2.686-22.232-1.495-1.56-11.652-1.56-11.652,7.1-14.548,33.4-17.532c84.549-9.59,273.794-18.243,282.482-27.912C1744.062,2430.607,1783.887,2480.95,1774.153,2502.619Z" transform="translate(-1417.718 -2349.377)" fill="#b7b7b7" opacity="0.31" style="mix-blend-mode: multiply;isolation: isolate"/>
      <g id="Group_14081" data-name="Group 14081" transform="translate(28.167)">
        <path id="Path_14855" data-name="Path 14855" d="M1888.708,2041.088c-14.4,5.309-27.216,7.086-46.984,16.645-6.437,3.113-16.632,5.184-28.4,6.4q-.428.045-.859.087l-.611.059-.476.046-1,.092-1.161.1-.775.063-.355.028q-.874.071-1.758.135-.9.066-1.82.125-.453.031-.905.058c-.2.013-.405.025-.608.037l-.8.047-.927.052q-2.028.109-4.083.189-.463.021-.927.035c-.309.012-.62.022-.93.033q-1.322.047-2.651.078-.413.011-.828.021c-.148,0-.3.006-.444.01l-.868.017c-.42.009-.841.016-1.261.022l-.847.012-.583.006q-.468.007-.939.009c-5.9.049-11.8-.054-17.5-.294-.5-.021-1.005-.043-1.505-.065s-1-.049-1.5-.074c-2.24-.112-4.442-.247-6.594-.4-.476-.036-.951-.069-1.423-.107-1.891-.143-3.74-.3-5.535-.479-.448-.043-.893-.089-1.335-.133s-.883-.092-1.317-.139-.865-.1-1.293-.145q-.965-.108-1.9-.226-1.249-.156-2.45-.32t-2.351-.34q-1.437-.22-2.786-.452l-.047-.009c-7.14-1.232-19.653-2.814-34.3-4.575-35.768-4.3-84.25-9.667-98.2-13.576a12.5,12.5,0,0,1-3.464-1.353,1.18,1.18,0,0,1-.388-.405c-1.31-2.655-5.242-3.874-7.048-5.758s-1.485-4.435,5.717-9.744c12.986-9.572,22.579-44.392,29.139-60.881.716-1.8,1.4-3.382,2.041-4.689a35.9,35.9,0,0,1,4.345-6.674c10.024-5.8,26.282-10,29.831-17.06,4.424-3.966,20.182-3.2,27.079-5.581,17.59-5.792,38.813-5.545,57.045-2.305,36.214,7.5,73.807-6.506,100.546-.5a53.681,53.681,0,0,1,9.695,5.251c14.467,9.755,27.225,27,33.843,44.245C1904.423,2002.6,1903.113,2035.779,1888.708,2041.088Z" transform="translate(-1595.052 -1927.433)" fill="#b2b2b2"/>
        <g id="Group_14080" data-name="Group 14080" transform="translate(0.277)">
          <path id="Path_14856" data-name="Path 14856" d="M1862.883,1934.463c-3.845,4.365-12.5,10.379-18.4,11.855-9.284,2.322-25.066,9.284-33.885,14.39s-38.529,13.461-50.6,15.318-14.854,8.819-15.783,19.96c-1.322,29.961-32.855,44.624-17.174,52.917,7.891,4.642,32.028,6.035,44.1,8.819,11.515,2.657,30.64-.179,43.659,6.412q-.428.045-.859.087l-.611.059-.476.046-1,.092-1.161.1-.775.063-.355.028q-.874.071-1.758.135-.905.066-1.82.125-.452.031-.9.058c-.2.013-.405.025-.608.037l-.8.047-.927.052q-2.027.109-4.083.189-.464.021-.927.035c-.309.012-.62.022-.93.033q-1.322.047-2.651.078c-.275.008-.552.015-.828.021-.148,0-.3.006-.444.01l-.868.017c-.42.009-.842.016-1.262.022l-.847.012-.583.006q-.468.007-.939.009c-5.9.049-11.8-.054-17.5-.294-.5-.021-1.006-.043-1.505-.065s-1-.049-1.5-.074q-3.361-.168-6.594-.4c-.476-.036-.951-.069-1.423-.107q-2.837-.215-5.535-.479c-.448-.043-.893-.089-1.335-.133s-.883-.092-1.317-.139-.865-.1-1.293-.145q-.965-.108-1.9-.226-1.249-.153-2.45-.32t-2.351-.34q-1.437-.217-2.787-.451a.447.447,0,0,1-.046-.01c-8.248-1.764-20.442-3.193-34.3-4.575-33.98-3.392-77.951-6.5-98.2-13.576-1.248-.436-2.406-.886-3.464-1.353-4.08-1.8-7.355-4.711-8.083-7.042,3.626,2.2,24.67,9.82,29.047,9.421,20.952-2.616,11.883-76.031,6.456-79.168-1.016-.587-1.625-1.054-1.64-1.344-.2-4.046,3.185-7.219,8.025-10.018,10.024-5.8,26.282-10,29.831-17.06,4.424-3.966,20.182-3.2,27.079-5.581,17.59-5.792,38.813-5.545,57.045-2.305,36.214,7.5,73.807-6.506,100.546-.5A53.682,53.682,0,0,1,1862.883,1934.463Z" transform="translate(-1596.799 -1927.433)" fill="#a5a5a5"/>
          <path id="Path_14857" data-name="Path 14857" d="M2866.583,2311.467s-3.714,9.284,7.427,18.1,24.138,2.785,34.814,9.748,13.925,5.106,28.315,5.57,16.247-7.891,16.711-11.14-22.281-3.25-31.1-10.677-7.891-7.427-15.318-18.567-28.779-6.5-36.206-6.963S2869.833,2308.217,2866.583,2311.467Z" transform="translate(-2664.394 -2238.272)" fill="#a5a5a5"/>
          <path id="Path_14858" data-name="Path 14858" d="M3359.471,2076.814a103.544,103.544,0,0,0-20.557-32.751c.73,3.363,1.766,9.612.8,14.75-1.392,7.427-7.891,19.96-.464,25.066s20.888,9.748,23.209,12.533a3.747,3.747,0,0,0,2.111,1.21A90,90,0,0,0,3359.471,2076.814Z" transform="translate(-3059.544 -2025.538)" fill="#b2b2b2"/>
          <path id="Path_14859" data-name="Path 14859" d="M2556.471,2418.493a117.434,117.434,0,0,0-6.963,13.926c-2.321,6.034-3.249,12.069-6.034,14.854s11.6,7.427,18.567,7.891,5.571-4.642,10.212-10.212-4.642-9.748-5.57-16.71S2563.434,2405.961,2556.471,2418.493Z" transform="translate(-2392.81 -2336.479)" fill="#a5a5a5"/>
        </g>
      </g>
    </g>
    <g id="Group_14199" data-name="Group 14199" transform="translate(1420.484 588.119)">
      <g id="Group_14122" data-name="Group 14122" transform="translate(0)">
        <g id="Group_14088" data-name="Group 14088" transform="translate(0 167.666)">
          <g id="Group_14084" data-name="Group 14084">
            <path id="Path_14860" data-name="Path 14860" d="M1632.284,1700.632c-11.293,2.07-27.82,10.316-43.057,11.45-.713,9.048-2.72,23.6-2.734,40.419-.016,18.994,1.322,35.144,1.322,35.144l-10,4.946-12.592-4.535c-5.384-21-11.651-81.072-5.939-95.694,2.289-5.86,8.149-9.209,13.052-12.537,23.819-13.649,62.373-26.346,82.706-33.724,25.912-9.27,31.7,11.347,31.7,11.347C1698.221,1685.639,1645.934,1698.131,1632.284,1700.632Z" transform="translate(-1537.662 -1643.706)" fill="#3d4990"/>
            <g id="Group_14083" data-name="Group 14083" transform="translate(0 141.26)">
              <path id="Path_14861" data-name="Path 14861" d="M1484.554,2708.729c-2.693,1.587-8.649,3.117-14.7,4.368-2.418.5-4.85.953-7.095,1.347-5.7,1-10.2,1.622-10.2,1.622-10.617,1.535-15.283-1.282-16.4-2.14-.776-.594-.959-4.3-.95-4.449,0,0,31.373-3.345,31.373-3.345l13.439-1.431,4.537-.483c.007.084.015.168.022.254C1484.73,2706.267,1484.9,2708.427,1484.554,2708.729Z" transform="translate(-1435.196 -2677.029)" fill="#121d3f"/>
              <path id="Path_14862" data-name="Path 14862" d="M1485.284,2535.726c-.583,3.728-.4,10.354-.457,15.241-.029,2.415-.044,4.652-.095,6.4a24.065,24.065,0,0,1-.217,3.121,1.182,1.182,0,0,1-.158.478c-1.285,1.5-5.294,2.9-9.85,4.034-2.954.735-6.138,1.36-8.957,1.835-.64.137-1.31.281-2,.425-10.585,2.2-26.663,4.747-28.4-1.766-.575-10.195,18.889-13.272,24.047-18.39,4.71-4.672,2.214-11.873,2.964-13.19,2.24-3.941,8.936,7.116,12.89,1.959C1478.638,2531.19,1485.63,2533.5,1485.284,2535.726Z" transform="translate(-1435.132 -2533.046)" fill="#212851"/>
              <path id="Path_14863" data-name="Path 14863" d="M1630.793,2645.872c-.029,2.415-.044,4.652-.095,6.4l-4.776,3.351-3.683,2.583s-.692.692-1.766,1.7c-1.23,1.15-2.959,2.712-4.717,4.114-2.418.5-4.85.952-7.095,1.347a12.678,12.678,0,0,1,.609-2.521c.075-.229.157-.457.242-.68a18.733,18.733,0,0,1,2.971-5.11C1618.336,2649.782,1628.682,2646.484,1630.793,2645.872Z" transform="translate(-1581.098 -2627.951)" fill="#121d3f" opacity="0.21" style="mix-blend-mode: multiply;isolation: isolate"/>
              <path id="Path_14864" data-name="Path 14864" d="M1489.774,2634.243c1.051-.245,4.419-1.081,11.765-3.293a27.438,27.438,0,0,0,13.706-8.991.317.317,0,0,0,.036-.067,1.516,1.516,0,0,1-.3-.12.945.945,0,0,1-.241-.213c-.008.009-.016.016-.023.026a26.776,26.776,0,0,1-13.364,8.746c-8.353,2.515-11.537,3.243-12.022,3.349a10.038,10.038,0,0,0-1.917-1.766,9.159,9.159,0,0,0-4.285-1.638q-.539.257-1.057.523a3.113,3.113,0,0,0,.644.1,8.314,8.314,0,0,1,4.357,1.567c2.925,2.067,4.662,5.924,5.024,11.155a.293.293,0,0,0,.009.036c.207-.034.419-.071.634-.108C1492.429,2639.1,1491.194,2636.168,1489.774,2634.243Z" transform="translate(-1474.617 -2607.5)" fill="#47539a"/>
            </g>
          </g>
          <g id="Group_14087" data-name="Group 14087" transform="translate(31.46 13.573)">
            <path id="Path_14865" data-name="Path 14865" d="M1798.627,1775.008c-3.129.621-25.33,12.58-36.765,15.021,5.738,16.142,1.485,77.077-.254,77.258-1.786.185-19.331-1.567-19.331-1.567s-2.836,1.415-3.854-5.584c-3.524-24.221-12.112-80.658-6.4-92.6,5.553-11.6,61.161-32.673,61.161-32.673,15.739-7.248,11.518-6.146,15.923-4.476C1855.03,1747.8,1809.718,1772.809,1798.627,1775.008Z" transform="translate(-1714.719 -1729.16)" fill="#47539a"/>
            <g id="Group_14086" data-name="Group 14086" transform="translate(0 129.159)">
              <path id="Path_14866" data-name="Path 14866" d="M1676.27,2573.99a6.262,6.262,0,0,0-11.343,1.209,9.271,9.271,0,0,0-.389,1.851c-.559,5.235-13.97,10.981-18.037,13.449s-13.74,6.441-13.144,12.352c.378,2.207,6.892,3.5,14.089,1.591s17.979-6.014,23.462-7.576,10.3-3.828,11.429-5.752-3.908-13.768-5.542-16.273C1676.616,2574.567,1676.443,2574.282,1676.27,2573.99Z" transform="translate(-1633.309 -2566.365)" fill="#f6af9a"/>
              <g id="Group_14085" data-name="Group 14085">
                <path id="Path_14867" data-name="Path 14867" d="M1633.932,2718.657s1.454,5.554,2.137,6.128c1.173.984,5.5,2.771,16.715-.366,0,0,25.13-6.574,31.585-11.6.348-.392-.2-2.9-.628-4.856Z" transform="translate(-1633.815 -2681.652)" fill="#121d3f"/>
                <path id="Path_14868" data-name="Path 14868" d="M1681.387,2544.153c-.052-1.948-4.713-2.855-7.213-.125-4.762,5.2-15.527-5.965-17.244.738-.71,2.771,2.847,7.281-1.568,12.969-4.834,6.228-24.061,10.9-22.017,21.782,2.959,7.215,19.414,2.742,30.315-1.137,7.545-2.3,17.486-5.984,19.417-8.947C1683.8,2568.263,1681.574,2551.123,1681.387,2544.153Z" transform="translate(-1633.193 -2542.315)" fill="#212851"/>
                <path id="Path_14869" data-name="Path 14869" d="M1682.838,2632.534c-3.45,1.292,2.462-.82,12.2-5.189a29.776,29.776,0,0,0,13.491-11.594.354.354,0,0,0,.029-.077,1.711,1.711,0,0,1-.339-.087,1.023,1.023,0,0,1-.289-.2.348.348,0,0,0-.021.031,29.056,29.056,0,0,1-13.157,11.282c-8.637,3.875-11.962,5.1-12.468,5.286a10.858,10.858,0,0,0-2.31-1.632,9.943,9.943,0,0,0-4.84-1.164q-.544.352-1.064.711a3.427,3.427,0,0,0,.708.017,9.021,9.021,0,0,1,4.908,1.077c3.437,1.814,5.846,5.722,6.967,11.3a.351.351,0,0,0,.015.037c.218-.066.441-.135.667-.2C1686.375,2637.386,1684.635,2634.406,1682.838,2632.534Z" transform="translate(-1667.576 -2603.784)" fill="#47539a"/>
              </g>
            </g>
          </g>
        </g>
        <g id="Group_14121" data-name="Group 14121" transform="translate(35.987)">
          <g id="Group_14102" data-name="Group 14102" transform="translate(0 65.847)">
            <g id="Group_14093" data-name="Group 14093" transform="translate(0 12.609)">
              <g id="Group_14090" data-name="Group 14090" transform="translate(19.38 59.268)">
                <g id="Group_14089" data-name="Group 14089">
                  <path id="Path_14870" data-name="Path 14870" d="M1801.473,1460.576s-3.3,7.655-6.044,16.61-5.928,17.668-8.861,24.676-3.815,11.619-1.657,12.829,6.521-2.02,10.7-7.2,16.163-23.28,18.427-31.371,3.959-18.2-.937-20.1C1809.114,1454.487,1805.244,1454.6,1801.473,1460.576Z" transform="translate(-1783.713 -1455.195)" fill="#f6af9a"/>
                </g>
              </g>
              <g id="Group_14092" data-name="Group 14092">
                <path id="Path_14871" data-name="Path 14871" d="M1916.212,1107.469a5.277,5.277,0,0,0-5.844.982c-2.015,1.89-5.4,5.87-8.36,13.215-4.561,11.325-10.9,33.629-12.805,39.707s-5.4,20.493-.665,23.357,11.279-4.727,15.051-11.8,10.71-28.183,13.5-36.945C1919.511,1128.391,1923.294,1110.821,1916.212,1107.469Z" transform="translate(-1850.512 -1103.025)" fill="#f6af9a"/>
                <g id="Group_14091" data-name="Group 14091">
                  <path id="Path_14872" data-name="Path 14872" d="M1692.852,1767.765s-.009.065-.036.18a4.6,4.6,0,0,1-.606,1.4,5.257,5.257,0,0,1-3.1,2.2c-3.366.963-5.817,4.139-8.029,7.24-2.372,3.327-4.665,4.861-6.3,3.414a2.559,2.559,0,0,1-.213-.207,1.406,1.406,0,0,1-.333-1.177c.138-1.17,1.221-2.563,1.641-3.293.284-.491.269-.685-.526-.315-2.434,1.128-2.237,4.433-5.19,7.935s-8.172-.206-8.447-5.081a9.233,9.233,0,0,1,.806-4.018,20.452,20.452,0,0,1,7.846-8.961c2.634-1.463,7.552-3.738,10.183-4.935,1.074-.488,1.767-.8,1.767-.8Z" transform="translate(-1661.699 -1653.45)" fill="#ffc675"/>
                  <path id="Path_14873" data-name="Path 14873" d="M1758.5,1802.429a5.258,5.258,0,0,1-3.1,2.2c-3.366.963-5.817,4.139-8.03,7.24-2.477,3.474-4.868,4.992-6.515,3.207a1.406,1.406,0,0,1-.333-1.177c.031.089.445,1.128,3.045-.006,2.712-1.183,4.386-7.361,8.154-9.269a7.137,7.137,0,0,0,3.651-3.942C1756.685,1801.428,1757.825,1802.059,1758.5,1802.429Z" transform="translate(-1727.987 -1686.537)" fill="#f2b255"/>
                  <path id="Path_14874" data-name="Path 14874" d="M1670.156,1862.949c-2.953,3.5-8.172-.206-8.447-5.081a9.232,9.232,0,0,1,.806-4.018c.021.148,1.212,8.791,4.6,8.052,3.417-.745,5.551-6.153,8.231-6.888C1672.912,1856.142,1673.109,1859.447,1670.156,1862.949Z" transform="translate(-1661.699 -1731.261)" fill="#f2b255"/>
                  <path id="Path_14875" data-name="Path 14875" d="M1836.488,1116.891c-2.248,11.385-27.121,56.084-35.231,69.484-3.909,5.647-6.378,8.975-8.6,11.925-3.127-1.707-10.749-5.954-12.309-7.551,2.806-9.154,14.8-40.106,16.806-48.37,3.6-14.818,9.657-36,15.568-49.813,5.35-9.912,11.374-10.459,11.374-10.459C1834.949,1080.786,1838.647,1105.007,1836.488,1116.891Z" transform="translate(-1761.498 -1082.056)" fill="#e86f6f"/>
                  <path id="Path_14876" data-name="Path 14876" d="M1912.012,1186.375c.66-1.156,1.49-2.552,2.459-4.144,9.79-16.749,30.719-54.941,32.772-65.34,2.16-11.885-1.539-36.105-12.4-34.783,0,0-6.024.547-11.374,10.459a237.2,237.2,0,0,0-9.14,26.156c-.475,7.9,4.287,23.543,4.077,32.4C1918.087,1164.829,1913.57,1180.118,1912.012,1186.375Z" transform="translate(-1872.253 -1082.056)" fill="#d35f5f"/>
                </g>
              </g>
            </g>
            <g id="Group_14101" data-name="Group 14101" transform="translate(44.787)">
              <g id="Group_14095" data-name="Group 14095">
                <path id="Path_14877" data-name="Path 14877" d="M2018.923,1135.161c-6.677-6.172-45.11-11.762-58.768-10.953-10.4-.176-10.825-2.581-12.51-3.887-2.589-2-2.564-3.145-2.564-3.145s4.7-23.246,5.148-27.113-.043-14.683-1.075-17.448-3.828-5.933-4.841-11.5-1.225-11.513,2.329-19.926,5.025-16.286,9.716-22.288a16.669,16.669,0,0,1,4.559-3.763c2.2-1.85,3.087-7.123,3.753-10.185.248-1.142.532-2.038.541-2.275,0-.021,10.923,6.544,17.059,5.249a3.965,3.965,0,0,0,1.687-.631c.11-.076.12-.253.15-.413a.274.274,0,0,1,.369-.21,2.272,2.272,0,0,1,.832,2.151c-.187,1.279,1.7,1.71,5.766,2.721,10.99,1.8,23.772,11.273,22.969,21.072-.485,8.3-3.2,18.524-5.2,26.913-6.573,20.9,1.644,28.963,6.515,51.665C2017.026,1118.983,2018.923,1135.161,2018.923,1135.161Z" transform="translate(-1943.666 -1002.675)" fill="#e86f6f"/>
                <path id="Path_14878" data-name="Path 14878" d="M2245.434,1059.337c-1.252-.321-2.355-.593-3.32-.834a24.916,24.916,0,0,1,3.3.828Z" transform="translate(-2194.709 -1049.635)" fill="#e86f6f"/>
                <g id="Group_14094" data-name="Group 14094" transform="translate(19.547 13.009)">
                  <path id="Path_14879" data-name="Path 14879" d="M2070.664,1185.63c.255-7.528.5-21.633-1.029-26-2.312-6.6-4.884-36.494-.609-51.413a213.5,213.5,0,0,0,5.5-23.269.444.444,0,0,1,.876.142,214.779,214.779,0,0,1-5.527,23.372c-2.521,8.8-2.41,21.812-2.119,28.788.44,10.577,1.726,19.274,2.712,22.088,1.6,4.553,1.348,18.748,1.084,26.325C2071.483,1187.741,2070.593,1187.717,2070.664,1185.63Z" transform="translate(-2066.727 -1084.578)" fill="#d35f5f"/>
                </g>
                <path id="Path_14880" data-name="Path 14880" d="M2097.587,1254.626c-.1-.527-.2-1.029-.3-1.5-4.871-22.7-13.088-30.76-6.515-51.665,1.791-7.516,4.157-16.5,4.979-24.261-7.585-2.493-15.616-4.69-19.452-5.789,0,0-4.873,11.809,1.81,50.286,1.349,7.768-19.1,18.767-30.636,23.119-8.731,3.292-6.555,8.064-4.841,14.32C2047.116,1266.928,2085.721,1257.63,2097.587,1254.626Z" transform="translate(-2025.593 -1144.609)" fill="#d35f5f"/>
              </g>
              <g id="Group_14100" data-name="Group 14100" transform="translate(3.959 66.69)">
                <g id="Group_14099" data-name="Group 14099">
                  <g id="Group_14098" data-name="Group 14098">
                    <g id="Group_14096" data-name="Group 14096" transform="translate(19.478 0.08)">
                      <path id="Path_14881" data-name="Path 14881" d="M2099.9,1425.808a26.205,26.205,0,0,0,9.6-2.134.331.331,0,1,0-.265-.606,27.161,27.161,0,0,1-17.582,1.145.331.331,0,0,0-.206.629A27.141,27.141,0,0,0,2099.9,1425.808Z" transform="translate(-2091.222 -1423.04)" fill="#d35f5f"/>
                    </g>
                    <g id="Group_14097" data-name="Group 14097">
                      <path id="Path_14882" data-name="Path 14882" d="M1979.139,1424.425q.357-.012.707-.037a.331.331,0,1,0-.047-.66,40.869,40.869,0,0,1-10.792-1.18.331.331,0,0,0-.164.641A43.158,43.158,0,0,0,1979.139,1424.425Z" transform="translate(-1968.593 -1422.537)" fill="#d35f5f"/>
                    </g>
                  </g>
                </g>
              </g>
            </g>
          </g>
          <g id="Group_14120" data-name="Group 14120" transform="translate(45.849)">
            <path id="Path_14883" data-name="Path 14883" d="M2098.244,926.774a.43.43,0,0,1-.076.329c-.2.268-.562.65-2.233.85-6.927.828-14.359-3.765-16.212-5.008a3.6,3.6,0,0,1-.426-.324,38.562,38.562,0,0,0,.251-5.42,13.068,13.068,0,0,1,.632-3.324c1.727-4.989,6.318-4.883,8.915-5.682.153-.048.3-.1.438-.152,4.8-1.9,9.133,1.547,8.643,5.372q-.129,1.125-.216,2.167A44.133,44.133,0,0,0,2098.244,926.774Z" transform="translate(-2058.816 -856.774)" fill="#f6af9a"/>
            <path id="Path_14884" data-name="Path 14884" d="M2101.9,927.269a2.612,2.612,0,0,1-1.376.572c-.067.013-.191.028-.289.044-5.477-1.277-9.693-2.288-13.936-8.53-.057-.72-1.806-4.062-2.3-5.478a2.448,2.448,0,0,1-.124-.462c-.489-3.825,3.839-7.272,8.643-5.372.127.051.259.1.4.152,2.526.947,6.824,2.259,8.865,7.386a44.109,44.109,0,0,0,.288,11.222A.489.489,0,0,1,2101.9,927.269Z" transform="translate(-2062.634 -856.774)" fill="#e57e73"/>
            <g id="Group_14111" data-name="Group 14111" transform="translate(9.076 11.939)">
              <path id="Path_14885" data-name="Path 14885" d="M2035.073,693.007s18.836-5.423,20.951,16.326c2.03,20.871-1.6,33.874-10.3,34.948-8.2,1.012-20.563-6.155-26.751-17.462S2016.448,696.139,2035.073,693.007Z" transform="translate(-2014.817 -687.781)" fill="#f6af9a"/>
              <g id="Group_14110" data-name="Group 14110">
                <g id="Group_14109" data-name="Group 14109">
                  <g id="Group_14104" data-name="Group 14104">
                    <path id="Path_14886" data-name="Path 14886" d="M2037.8,673.663s-1.246.509-3.715,1.688-4.089,2.628-3.99,8.49-4.63,11.09-8.873,14.555-1.946,12.191-2.066,13.377a37.058,37.058,0,0,1-4-4.182,34.476,34.476,0,0,1-5.31-8.644c-.041-.1.086-.329.03-.445-.2-.415-.646-.775-.756-1.143-2.085-6.96-5.456-28.094,14.093-32.341,0,0,10.806-4.807,19.881,1.591s9.5,16.808,9.265,21.645-.215,6.244,1.726,10.518-1.826,9.439-4.65,13c0,0,3.072-5.865,1.363-10.161s-.955-8.664-1.643-12.12-1.17-8.8-5.126-12.053S2037.8,673.663,2037.8,673.663Z" transform="translate(-2007.497 -663.283)" fill="#e67a38"/>
                    <g id="Group_14103" data-name="Group 14103" transform="translate(5.634 3.755)">
                      <path id="Path_14887" data-name="Path 14887" d="M2044.657,710.9a.3.3,0,0,0,.229-.438c-.032-.057-3.148-5.832.37-14.219,3.231-7.7,12.884-8.728,12.98-8.737a.3.3,0,1,0-.057-.588,20.235,20.235,0,0,0-5.448,1.5,14.676,14.676,0,0,0-8.02,7.6c-3.635,8.667-.477,14.492-.341,14.736A.3.3,0,0,0,2044.657,710.9Z" transform="translate(-2042.968 -686.921)" fill="#d6682b"/>
                    </g>
                  </g>
                  <g id="Group_14108" data-name="Group 14108" transform="translate(7.678 29.624)">
                    <path id="Path_14888" data-name="Path 14888" d="M2063.944,854.5s-3.064-6.16-6.767-4.392,1.263,7.692,2.882,9.114C2061.984,860.912,2067.159,861,2063.944,854.5Z" transform="translate(-2055.835 -849.787)" fill="#f6af9a"/>
                    <g id="Group_14107" data-name="Group 14107" transform="translate(2.913 2.658)">
                      <g id="Group_14105" data-name="Group 14105" transform="translate(0.033)">
                        <path id="Path_14889" data-name="Path 14889" d="M2078.077,871.594a.3.3,0,0,0,.265-.331c-.022-.18-.587-4.412-3.632-4.744a.3.3,0,1,0-.064.587c2.581.281,3.1,4.191,3.11,4.23A.3.3,0,0,0,2078.077,871.594Z" transform="translate(-2074.382 -866.518)" fill="#e57e73"/>
                      </g>
                      <g id="Group_14106" data-name="Group 14106" transform="translate(0 1.915)">
                        <path id="Path_14890" data-name="Path 14890" d="M2077.287,879.84a.3.3,0,0,0,.146-.533,3.51,3.51,0,0,0-3.079-.545.3.3,0,0,0,.231.544,2.973,2.973,0,0,1,2.5.479A.294.294,0,0,0,2077.287,879.84Z" transform="translate(-2074.173 -878.577)" fill="#e57e73"/>
                      </g>
                    </g>
                  </g>
                </g>
              </g>
            </g>
            <g id="Group_14119" data-name="Group 14119">
              <g id="Group_14112" data-name="Group 14112">
                <path id="Path_14891" data-name="Path 14891" d="M1964.929,600.144s1.974-5.1,1.143-7.473-3.052.992-3.052.992-1.317-5.733-3.69-5.539-3.291,4.569-2.643,6c-1.281-1.382-4.707-2.377-5.458.126a4.619,4.619,0,0,0,1.674,4.907c-1.8.041-5.53,5.76,1.879,6.112S1964.929,600.144,1964.929,600.144Z" transform="translate(-1950.355 -588.119)" fill="#ffc675"/>
                <path id="Path_14892" data-name="Path 14892" d="M1952.9,623.559a4.619,4.619,0,0,1-1.674-4.907,2.039,2.039,0,0,1,1.9-1.526c-.09,1.065-.127,3.64,1.489,4.534,1.951,1.081,5.048-.685,11.331-.569a26.2,26.2,0,0,1-1.024,3.453s-2.739,5.479-10.147,5.128S1951.1,623.6,1952.9,623.559Z" transform="translate(-1950.355 -612.518)" fill="#f2b255"/>
              </g>
              <path id="Path_14893" data-name="Path 14893" d="M1988.024,666.676a233.383,233.383,0,0,1,22.746-22.993c13.112-11.472,23.94,15.166,15.895-3.949a25.4,25.4,0,0,0-3.592-6.052c-11.507-14.385-36.435-13.16-41.463,3.082q-.2.653-.375,1.3A30.129,30.129,0,0,0,1988.024,666.676Z" transform="translate(-1975.377 -618.033)" fill="#5381cf"/>
              <g id="Group_14118" data-name="Group 14118" transform="translate(8.541 7.587)">
                <g id="Group_14113" data-name="Group 14113" transform="translate(15.191)">
                  <path id="Path_14894" data-name="Path 14894" d="M2121.191,647.357a.369.369,0,0,1-.146-.03c-.418-.18-4.09-1.817-4.1-3.779,0-.654-.595-.848-1.848-1.107a3.7,3.7,0,0,1-2.195-.946,7.973,7.973,0,0,1-.632-.969c-.626-1.068-1.167-1.991-2.685-1.544-2.411.711-4.913-.153-5.578-1.926a.543.543,0,0,0-.313-.312c-.844-.379-2.759.208-3.425.465a.37.37,0,1,1-.267-.69c.275-.106,2.72-1.022,3.995-.45a1.27,1.27,0,0,1,.7.727c.466,1.242,2.456,2.131,4.677,1.477,2.072-.611,2.881.77,3.531,1.879a7.3,7.3,0,0,0,.57.879,3.3,3.3,0,0,0,1.77.686c1.083.224,2.43.5,2.438,1.827.007,1.253,2.708,2.7,3.654,3.1a.37.37,0,0,1-.146.709Z" transform="translate(-2099.765 -635.883)" fill="#3c71c6"/>
                </g>
                <g id="Group_14114" data-name="Group 14114" transform="translate(0 8.352)">
                  <path id="Path_14895" data-name="Path 14895" d="M2010.941,711.258a.37.37,0,0,1-.365-.312c-.24-1.516-1.023-4.026-2.1-4.308-1.281-.335-1.218-1.709-1.167-2.814a3.3,3.3,0,0,0-.227-1.884,7.34,7.34,0,0,0-.71-.769c-.914-.9-2.051-2.03-.946-3.887,1.207-2.028.336-3.022-.676-3.727-1.518-1.059.207-4.5.409-4.893a.37.37,0,0,1,.656.34c-.545,1.054-1.419,3.4-.642,3.946,1.756,1.224,2.046,2.765.888,4.711-.809,1.359-.049,2.112.831,2.983a7.977,7.977,0,0,1,.783.853,3.7,3.7,0,0,1,.373,2.36c-.059,1.279-.018,1.9.615,2.064,1.9.5,2.576,4.459,2.647,4.909a.369.369,0,0,1-.307.423A.384.384,0,0,1,2010.941,711.258Z" transform="translate(-2004.128 -688.464)" fill="#3c71c6"/>
                </g>
                <g id="Group_14115" data-name="Group 14115" transform="translate(10.792 3.054)">
                  <path id="Path_14896" data-name="Path 14896" d="M2090.154,666.186a.368.368,0,0,1-.076-.008c-.2-.041-4.839-1.037-5.505-3.694-.276-1.1-.6-1.711-1.044-1.977-.43-.257-1.054-.247-2.156.032a3.272,3.272,0,0,1-2.754-.648,4.583,4.583,0,0,1-1.889-2.768s-.086-.436-2.067-.89a22.628,22.628,0,0,0-2.26-.383.37.37,0,0,1,.08-.735c1.469.16,4.892.672,4.985,1.956a3.869,3.869,0,0,0,1.585,2.222,2.606,2.606,0,0,0,2.139.531,2.785,2.785,0,0,1,4.1,2.482c.553,2.209,4.9,3.141,4.939,3.151a.37.37,0,0,1-.075.732Z" transform="translate(-2072.072 -655.111)" fill="#3c71c6"/>
                </g>
                <g id="Group_14116" data-name="Group 14116" transform="translate(6.108 4.998)">
                  <path id="Path_14897" data-name="Path 14897" d="M2056.745,682.043a.376.376,0,0,1-.059,0c-.208-.033-5.109-.852-5.022-4.042.046-1.691-.8-1.992-1.873-2.373a4.391,4.391,0,0,1-1.563-.806c-1.214-1.11-2.759-3.354-2.394-4.866.15-.619-1.637-1.489-2.986-1.879a.37.37,0,0,1,.205-.71c.65.188,3.876,1.2,3.5,2.763-.255,1.058.918,3,2.174,4.147a3.8,3.8,0,0,0,1.311.655c1.081.384,2.426.862,2.365,3.09-.069,2.544,4.355,3.284,4.4,3.292a.37.37,0,0,1-.058.735Z" transform="translate(-2042.582 -667.347)" fill="#3c71c6"/>
                </g>
                <g id="Group_14117" data-name="Group 14117" transform="translate(4.043 6.235)">
                  <path id="Path_14898" data-name="Path 14898" d="M2038.318,693.73a.368.368,0,0,1-.166-.04c-.142-.072-3.489-1.787-3.773-4.194s-.813-3.6-1.891-4.293c-1.425-.917-2.309-4.542-1.788-6.126.332-1.009-.65-2.771-1.057-3.365a.37.37,0,1,1,.61-.418c.068.1,1.662,2.454,1.149,4.013-.424,1.29.365,4.552,1.485,5.273,1.487.956,1.965,2.622,2.225,4.828.238,2.012,3.341,3.6,3.372,3.621a.37.37,0,0,1-.167.7Z" transform="translate(-2029.579 -675.135)" fill="#3c71c6"/>
                </g>
              </g>
              <path id="Path_14899" data-name="Path 14899" d="M2026.664,694.84a25.489,25.489,0,0,0-2.837-5.053c-2.794-1.168-9.374-.642-15.267,1.838-12.134,5.106-13.031,8.324-21.086,14.225-5.974,4.376-6.212-12.516-6.241-12.681a31.47,31.47,0,0,0-1.053,10.519,30.414,30.414,0,0,0,6.634,16.737l.046.056c.373.455.679.795.883,1.013.179.191.28.289.28.289a233.34,233.34,0,0,1,22.745-22.993C2023.881,687.317,2034.71,713.955,2026.664,694.84Z" transform="translate(-1975.377 -673.139)" fill="#3c71c6" opacity="0.62"/>
              <path id="Path_14900" data-name="Path 14900" d="M2021.619,740.78c.251,3.864,1.891,6.622,3.6,7.867a3.427,3.427,0,0,0,1.91.741s.379-12.767,15.729-22.457a32.43,32.43,0,0,1,10.615-4.644c7.411-1.512,10.452,2.262,10.452,2.262a3.66,3.66,0,0,0,.5-1.56c-.217-2.048-1.236-6.1-3.2-7.968-2.511-2.394-22.239-.137-31.017,9.862C2024.869,730.974,2021.317,736.132,2021.619,740.78Z" transform="translate(-2010.285 -694.127)" fill="#5381cf"/>
              <path id="Path_14901" data-name="Path 14901" d="M2035.9,790.437l.526.8a6.765,6.765,0,0,0,1.138,1.319c.541.484,1.133,1.03,1.562,1.037,0,0,.406-13.844,15.756-23.534a32.431,32.431,0,0,1,10.615-4.644c-11.888,1.644-19.31,7.561-24.277,14.945S2035.9,790.437,2035.9,790.437Z" transform="translate(-2022.314 -737.251)" fill="#3c71c6"/>
              <path id="Path_14902" data-name="Path 14902" d="M2222.266,761.795c7.406-1.512,10.448,2.262,10.448,2.262a1.508,1.508,0,0,0,.449-1.07l-.765-.438S2229.306,759.9,2222.266,761.795Z" transform="translate(-2179.076 -733.634)" fill="#3c71c6"/>
            </g>
          </g>
        </g>
      </g>
      <g id="Group_14181" data-name="Group 14181" transform="translate(70.032 3.348)">
        <g id="Group_14137" data-name="Group 14137" transform="translate(0 189.282)">
          <g id="Group_14130" data-name="Group 14130">
            <path id="Path_14903" data-name="Path 14903" d="M2185.9,1833.377c-4.177,26.146-26.3,22.588-46.1,19.029-17.167-3.085-35.108-9.176-39.579-10.744,1.188,20.2-.912,83.243-2.055,82.975-.662-.157-9.056,4.846-15.917,4.381-5.918-.4-12.963-7.157-12.963-7.157s.837-8.128-1.572-23.649c-2.5-16.138-1.724-45.5-2.114-66.521-.38-20.57,14.513-26.121,16.592-26.795q.279-.091.557-.185c4.213-1.437,16.679-4.1,21.931-3.823,8.819.464,50.747,6.344,50.747,6.344C2192.863,1812.026,2186.985,1825.486,2185.9,1833.377Z" transform="translate(-2035.481 -1800.867)" fill="#121d3f"/>
            <g id="Group_14129" data-name="Group 14129" transform="translate(0 118.625)">
              <path id="Path_14904" data-name="Path 14904" d="M1938.944,2568.755a55.579,55.579,0,0,0-.892,9.467,9.771,9.771,0,0,1-.156,2.2c-.768,3.875-4,3.437-4,3.437s-9.279.9-17.275,1.312-30.755,2.36-34.717.921c-2.3-.835-4.969-2.114-5.231-4.794-.189-1.938,1.191-4.781,5.563-7.344,10.956-6.421,17.231-3.9,25.917-8.723.3-.169,3.646-5.458,2.454-13.061-.607-3.869-.171-4.675,1.31-4.146,1.572.561,4.311,2.616,8.218,4.112,2.192.84,5.841.568,9.509-.242,4.234-.934,8.5-2.583,10.58-4.065C1942.763,2546.024,1940.008,2563.583,1938.944,2568.755Z" transform="translate(-1876.56 -2547.701)" fill="#d35f5f"/>
              <path id="Path_14905" data-name="Path 14905" d="M2116.378,2553.621c-2.047.651-8.36,2.5-11.557,1.646-3.848-1.028-6.17-5.516-6.17-5.516,1.572.561,4.311,2.616,8.218,4.112C2109.061,2554.7,2112.71,2554.431,2116.378,2553.621Z" transform="translate(-2063.292 -2549.426)" fill="#cc5050"/>
              <g id="Group_14124" data-name="Group 14124" transform="translate(29.231 17.854)">
                <g id="Group_14123" data-name="Group 14123">
                  <path id="Path_14906" data-name="Path 14906" d="M2063.31,2666.9a.351.351,0,0,1-.332-.368,6.581,6.581,0,0,0-2.75-5.783.351.351,0,0,1,.376-.592,7.284,7.284,0,0,1,3.075,6.411A.351.351,0,0,1,2063.31,2666.9Z" transform="translate(-2060.066 -2660.104)" fill="#eaebf4"/>
                </g>
              </g>
              <g id="Group_14126" data-name="Group 14126" transform="translate(25.002 18.82)">
                <g id="Group_14125" data-name="Group 14125">
                  <path id="Path_14907" data-name="Path 14907" d="M2036.689,2672.985a.35.35,0,0,1-.332-.368,6.67,6.67,0,0,0-2.75-5.783.351.351,0,1,1,.375-.592,7.283,7.283,0,0,1,3.075,6.411A.351.351,0,0,1,2036.689,2672.985Z" transform="translate(-2033.444 -2666.188)" fill="#eaebf4"/>
                </g>
              </g>
              <g id="Group_14128" data-name="Group 14128" transform="translate(20.702 20.136)">
                <g id="Group_14127" data-name="Group 14127">
                  <path id="Path_14908" data-name="Path 14908" d="M2009.618,2681.267a.351.351,0,0,1-.332-.368,6.581,6.581,0,0,0-2.75-5.783.351.351,0,0,1,.376-.592,7.284,7.284,0,0,1,3.075,6.411A.351.351,0,0,1,2009.618,2681.267Z" transform="translate(-2006.374 -2674.47)" fill="#eaebf4"/>
                </g>
              </g>
              <path id="Path_14909" data-name="Path 14909" d="M1937.374,2753.732c.047,1.542.151,6.737-.535,8.223-.809,1.751-14.263,2.017-14.988,2.1s.692-2.472-3.625-2.6-2.265,2.257-4.108,2.933-26.379,1.837-32.049.1-6.377-9-5.917-9.883c.262,2.681,2.934,3.959,5.231,4.794,3.961,1.439,26.72-.507,34.716-.921s17.275-1.312,17.275-1.312S1936.6,2757.606,1937.374,2753.732Z" transform="translate(-1876.037 -2721.007)" fill="#212851"/>
            </g>
          </g>
          <g id="Group_14136" data-name="Group 14136" transform="translate(7.029 0.054)">
            <g id="Group_14131" data-name="Group 14131" transform="translate(43.776)">
              <path id="Path_14910" data-name="Path 14910" d="M2323.2,1836.913c-7.272,10.676-28,21.041-45.64,25.992-13.122,3.683-21.918,6-27.537,7.324,0,0-9.145,29.247-14.1,41.747-3.118,7.864-9.636,25.217-15.018,34.757-.01.018-.116,0-.127.018-.586.932-2.3,1.175-2.859,1.826a20.862,20.862,0,0,1-3.79,3.768l-18.235-14.487s17.706-93.085,27.925-102.839a20.866,20.866,0,0,1,2.726-2.194c4.277-3.474,37.4-17.726,49.625-24.069s40.737-13.72,50.175,1.131C2326.346,1809.887,2330.474,1826.238,2323.2,1836.913Z" transform="translate(-2195.895 -1801.209)" fill="#212851"/>
            </g>
            <g id="Group_14135" data-name="Group 14135" transform="translate(0 135.694)">
              <path id="Path_14911" data-name="Path 14911" d="M1990.346,2665.337c-8.5,9.748-6.064,13.214-5.7,26.82a7.742,7.742,0,0,1-.142,1.441c-.634,3.213-2.551,4.479-4.685,4.1,0,0-9.578.021-17.767-.362-8.972-1.1-34.285,2.114-39.367-5.568-.08-.12-.17-.231-.245-.349a4.083,4.083,0,0,1-.637-2.379c0-.041,0-.084.006-.127,0-.016,0-.032,0-.049,0-.046.007-.092.012-.139s.01-.106.018-.161.015-.108.024-.163a5.112,5.112,0,0,1,.1-.509c.01-.043.021-.085.034-.128s.026-.1.043-.154.035-.122.056-.185c0-.016.01-.032.016-.05.058-.178.124-.358.2-.543s.146-.346.232-.524c.037-.077.075-.154.114-.23s.08-.157.123-.235a17.61,17.61,0,0,1,1.86-2.729q.869-1.077,2.039-2.273c.276-.251.553-.491.831-.716,8.741-7.086,18.094-1.248,27.141-5.159,9.333-4.036,7.772-5.256,9.389-11.335a63.707,63.707,0,0,0,1.29-7.167.316.316,0,0,1,.009-.048,1.183,1.183,0,0,1,1.831-.692l.342.238.022.026c4.844,5.895,10.3,5.911,14.338,4.831a9.364,9.364,0,0,1,3.8-.259c.006,0,.011,0,.015,0,.189.027.375.063.554.106C1988.846,2661.28,1990.418,2663.156,1990.346,2665.337Z" transform="translate(-1921.559 -2655.508)" fill="#e56c6c"/>
              <g id="Group_14134" data-name="Group 14134" transform="translate(0 0.214)">
                <path id="Path_14912" data-name="Path 14912" d="M2226.654,2661.811a1.024,1.024,0,0,0-.107-.009c-2.268-.156-7.724,2.87-12.786,2.4-5.163-.479-6.259-7.145-6.28-7.347l.364.266c4.844,5.894,10.3,5.91,14.337,4.83a12.09,12.09,0,0,1,3.8-.258s.01,0,.014,0c.05,0,.1.011.143.018C2226.347,2661.753,2226.521,2661.787,2226.654,2661.811Z" transform="translate(-2161.864 -2656.854)" fill="#d35f5f"/>
                <g id="Group_14132" data-name="Group 14132" transform="translate(44.791 27.946)">
                  <path id="Path_14913" data-name="Path 14913" d="M2202.621,2885.419a.36.36,0,0,1-.317-.484,9.892,9.892,0,0,1,3.356-4.365.359.359,0,0,1,.392.6,9.288,9.288,0,0,0-3.075,4.013A.359.359,0,0,1,2202.621,2885.419Z" transform="translate(-2202.282 -2872.934)" fill="#d35f5f"/>
                  <path id="Path_14914" data-name="Path 14914" d="M2232.825,2855.351a.359.359,0,0,1-.177-.658c.045-.047.146-.166.237-.273.644-.757,2.151-2.531,3.71-3.011a.359.359,0,1,1,.211.686c-1.359.418-2.771,2.08-3.374,2.79-.322.379-.38.447-.549.466A.364.364,0,0,1,2232.825,2855.351Z" transform="translate(-2227.688 -2848.439)" fill="#d35f5f"/>
                  <path id="Path_14915" data-name="Path 14915" d="M2269.58,2835.3a.359.359,0,0,1-.2-.641c.113-.088,2.778-2.142,4.575-1.83a.359.359,0,1,1-.124.707c-1.232-.218-3.312,1.145-4.01,1.688A.357.357,0,0,1,2269.58,2835.3Z" transform="translate(-2258.605 -2832.797)" fill="#d35f5f"/>
                </g>
                <path id="Path_14916" data-name="Path 14916" d="M1983.1,2872.152c-.107,1.576-.629,7.115-1.477,8.56-1,1.7-14.736.62-15.483.63s.954-2.449-3.432-3.013-2.535,2.072-4.481,2.575-27.063-.783-32.666-3.121-5.592-9.808-5.034-10.666c0,2.758,2.591,4.329,4.848,5.411,3.891,1.865,27.277,2.172,35.466,2.556s17.734.4,17.734.4S1981.926,2876.021,1983.1,2872.152Z" transform="translate(-1920.29 -2833.72)" fill="#212851"/>
                <g id="Group_14133" data-name="Group 14133" transform="translate(25.261 17.484)">
                  <path id="Path_14917" data-name="Path 14917" d="M2144.65,2773.227a.359.359,0,0,1-.336-.311,6.737,6.737,0,0,0-3.862-5.3.359.359,0,0,1,.266-.667,7.458,7.458,0,0,1,4.307,5.869.359.359,0,0,1-.308.4A.341.341,0,0,1,2144.65,2773.227Z" transform="translate(-2130.553 -2766.926)" fill="#eaebf4"/>
                  <path id="Path_14918" data-name="Path 14918" d="M2119.015,2784.388a.359.359,0,0,1-.335-.31,6.738,6.738,0,0,0-3.862-5.3.359.359,0,0,1,.266-.667,7.458,7.458,0,0,1,4.307,5.869.359.359,0,0,1-.308.4A.383.383,0,0,1,2119.015,2784.388Z" transform="translate(-2108.991 -2776.314)" fill="#eaebf4"/>
                  <path id="Path_14919" data-name="Path 14919" d="M2083.748,2790.338a.358.358,0,0,1-.335-.31,6.738,6.738,0,0,0-3.862-5.3.359.359,0,0,1,.266-.667,7.458,7.458,0,0,1,4.307,5.869.359.359,0,0,1-.308.4A.324.324,0,0,1,2083.748,2790.338Z" transform="translate(-2079.326 -2781.319)" fill="#eaebf4"/>
                </g>
              </g>
            </g>
          </g>
        </g>
        <g id="Group_14180" data-name="Group 14180" transform="translate(73.63)">
          <g id="Group_14158" data-name="Group 14158" transform="translate(0 62.178)">
            <g id="Group_14140" data-name="Group 14140">
              <g id="Group_14139" data-name="Group 14139">
                <path id="Path_14920" data-name="Path 14920" d="M2447.12,1137.17c-57.766,16.668-84.875-4.1-88.38-6.716-.229-.171,2.15-7.858,2.278-10.562.643-13.728,1.165-23.315.371-27.461-.774-4.159.7-7.835-.56-13.2-.021-.346-6.377-24.5-8.083-32.889-1.436-7.065-14.213-24.384-13.083-24.807,7.27-2.726,27.306-8.292,30.329-9.744a46.415,46.415,0,0,1,7.312-2.033c.333-1.446.541-2.509.541-2.509s.51,1.672,5.514,1.744c1.953-.2,3.934-.4,5.93-.692,5.95-1.916,8.431-7.652,8.431-7.652.755,1.61,4.437,3.18,7.35,4.2,2.05.72,3.721,1.168,3.721,1.168.349,0,.7,0,1.041.008a31.488,31.488,0,0,1,4.24.345c12.861,1.992,18.1,8.388,18.1,8.388,9.964,12.938,4.482,38.5,3.192,47.267a95.528,95.528,0,0,0-1.009,20.714,43.847,43.847,0,0,0,.672,4.961c.956,4.811,2.976,14.531,4.663,21.569a70.123,70.123,0,0,0,2.106,7.581c1.522,3.74,5.59,17.2,6.084,18.95A1.11,1.11,0,0,1,2447.12,1137.17Z" transform="translate(-2339.593 -1000.651)" fill="#5381cf"/>
                <path id="Path_14921" data-name="Path 14921" d="M2576.084,1050.72c-4.61,6.874-5.384,8.423-4.077,17.861.867,6.265,4.077,18.587,4.077,18.587a24.457,24.457,0,0,1-11.161,3.288c-.032.139-1.682,6.931-13.972,8.312-12.415,1.4-10.14-4.911-10.14-4.911l19.868-4.545c-4.126-7.158,12.131-59.784,12.131-59.784a9.96,9.96,0,0,1,1.381-2.423c2.05.721,3.719,1.168,3.719,1.168.349,0,.7,0,1.042.008.149,1.37.242,4.156-1.188,5.505C2575.83,1035.62,2580.694,1043.848,2576.084,1050.72Z" transform="translate(-2508.713 -1022.905)" fill="#3c71c6"/>
                <g id="Group_14138" data-name="Group 14138" transform="translate(37.663 26.842)">
                  <path id="Path_14922" data-name="Path 14922" d="M2639.147,1251.421c.223.915-23.743,6.009-27.207,7.608-3.484,1.607-5.366-.439-7.689.723-1.109.555-4.282,1.437-5.484,3.813-1.314,2.6-.8,5.509-3.178,6.775-1.684.9-10.721.192-15.337-.237a3.083,3.083,0,0,1-2.8-2.982l-.743-25.9,16.3,3.529-2.433-.666s-.415-5.041.289-5.337,10.092,1.416,13.65-.616,14.884-7.7,19.675-11.835c4.7-4.058,1.013-11.1.869-11.368-.034-.06-.065-.114-.1-.17l-.07-.121a223.883,223.883,0,0,1-11.513-21.72c-6.165-14.3-4.894-23.282-4.894-23.282a236.49,236.49,0,0,1,28.77,4.288c1,11.8-1.6,24.557-2.439,30.249a95.155,95.155,0,0,0-1,20.836c.021.26.044.518.07.774q.046.485.1.957c.013.124.029.248.046.371s.028.22.042.33c.028.208.056.413.086.616.028.185.057.369.087.551.021.136.044.269.068.4.012.067.023.134.034.2.039.216.078.426.121.637C2635.44,1234.663,2637.46,1244.382,2639.147,1251.421Z" transform="translate(-2576.713 -1169.64)" fill="#3c71c6"/>
                  <path id="Path_14923" data-name="Path 14923" d="M2937.678,1546.159c-.217-.345-.451-.719-.7-1.119l.426-.333c.039.214.079.426.121.637C2937.577,1545.617,2937.629,1545.888,2937.678,1546.159Z" transform="translate(-2879.753 -1485.133)" fill="#3c71c6"/>
                </g>
              </g>
            </g>
            <g id="Group_14157" data-name="Group 14157" transform="translate(34.196 8.026)">
              <g id="Group_14154" data-name="Group 14154" transform="translate(0 65.088)">
                <path id="Path_14924" data-name="Path 14924" d="M2780.366,1480.085s-9.383,4.679-27.078,10.544a299.686,299.686,0,0,1-31.747,8.874c-6.887,1.707-8.787-5.725-.542-10.62s15.106-9.958,26.434-15.892,21.085-12.341,26.57-12.019C2781.759,1461.427,2786.882,1475.31,2780.366,1480.085Z" transform="translate(-2690.037 -1460.961)" fill="#f6af9a"/>
                <g id="Group_14153" data-name="Group 14153" transform="translate(1.383 9.937)">
                  <path id="Path_14925" data-name="Path 14925" d="M2629.491,1624.078c-.639,6.289-2.86,7.024-2.86,7.024a1.692,1.692,0,0,0-.224-2.958,4.358,4.358,0,0,0-.851-.279,5.468,5.468,0,0,0-1.2.162c-1.731.167-4.809,1.518-6.456.882a1.02,1.02,0,0,1-.435-1.57,5.85,5.85,0,0,1,2.47-1.691,20.984,20.984,0,0,1,7.291-1.906A13.965,13.965,0,0,1,2629.491,1624.078Z" transform="translate(-2608.73 -1607.822)" fill="#f6af9a"/>
                  <g id="cap" transform="translate(0.405)">
                    <g id="Group_14152" data-name="Group 14152">
                      <g id="Group_14141" data-name="Group 14141" transform="translate(17.591)">
                        <path id="Path_14926" data-name="Path 14926" d="M2680.625,1531.006a5.315,5.315,0,0,1-1.266-.326l-.206-.791a5.519,5.519,0,0,0,3.725.009c.812-.382,2.307-1.514,2.15-3.064a3.025,3.025,0,0,0-2.266-2.447c-1.651-.4-4.023.951-5.136,3.9l-.745-.28c1.135-3.015,3.8-4.947,6.068-4.4a3.853,3.853,0,0,1,2.871,3.141c.2,1.99-1.542,3.367-2.6,3.866A4.635,4.635,0,0,1,2680.625,1531.006Z" transform="translate(-2676.882 -1523.521)" fill="#3b4a75"/>
                      </g>
                      <g id="Group_14142" data-name="Group 14142" transform="translate(0 4.755)">
                        <path id="Path_14927" data-name="Path 14927" d="M2587.6,1623.1s1.157-30.285,1.157-30.285l-20.165.289.544,8.133,1.481,22.1a.165.165,0,0,0,0,.028c.013.916,3.826,1.6,8.517,1.537,1.094-.016,2.141-.071,3.1-.159.217-.019.428-.041.635-.063a22.693,22.693,0,0,0,2.392-.379c.229-.05.442-.1.642-.156,1.072-.293,1.7-.649,1.7-1.024A.127.127,0,0,0,2587.6,1623.1Z" transform="translate(-2568.204 -1586.562)" fill="#e86f6f"/>
                        <path id="Path_14928" data-name="Path 14928" d="M2657.536,1598.4l-.015.442-.918,27.881,0,.151-.032.973-.034,1c-.2.054-.413.106-.641.156a22.683,22.683,0,0,1-2.392.379l-.045-1.49-.045-1.493,0-.054-.834-26.833-.014-.451Z" transform="translate(-2638.832 -1591.26)" fill="#3b4a75"/>
                        <path id="Path_14929" data-name="Path 14929" d="M2653.523,1598.456l-.014.442-.918,27.881-.037,1.124-.038,1.147a24.653,24.653,0,0,1-3.026.442l-.048-1.544-.048-1.547-.834-26.833-.014-.451Z" transform="translate(-2635.456 -1591.308)" fill="#e5d7d1"/>
                        <path id="Path_14930" data-name="Path 14930" d="M2586.889,1556.843a.448.448,0,0,0,.06-.22c0-.271-.285-.525-.782-.754a.541.541,0,0,0,.186-.378l.551-2.035-20.767.3.609,2.019a.537.537,0,0,0,.2.372c-.491.243-.764.505-.76.776a.451.451,0,0,0,.065.218l.543,1.8a.586.586,0,0,0,.254.423c-.338.2-.521.415-.518.634.016,1.087,4.542,1.9,10.111,1.824s10.07-1.026,10.055-2.113c0-.219-.193-.427-.537-.619a.588.588,0,0,0,.242-.43Z" transform="translate(-2566.137 -1553.456)" fill="#b2b2b2"/>
                      </g>
                      <path id="Path_14931" data-name="Path 14931" d="M2586.9,1543.482c0,.253-.23.5-.66.727-1.475.788-5.256,1.385-9.7,1.449s-8.234-.425-9.73-1.171c-.437-.217-.677-.454-.681-.707-.016-1.12,4.62-2.094,10.354-2.176S2586.887,1542.362,2586.9,1543.482Z" transform="translate(-2566.136 -1538.727)" fill="#3b4a75"/>
                      <path id="Path_14932" data-name="Path 14932" d="M2588.862,1658.532c.007.465-4.255,2.014-8.943,2.08a24.069,24.069,0,0,1-3.131-.165c-3.313-.38-5.863-1.315-5.866-1.669l-1.281-14.635a.264.264,0,0,1,.374-.263,13.422,13.422,0,0,0,2.945.783c.83.149,1.783.279,2.825.373a38.2,38.2,0,0,0,3.913.149c5.481-.075,9.926-1.367,10.052-1.907l-.893,15.24A.023.023,0,0,1,2588.862,1658.532Z" transform="translate(-2569.084 -1624.257)" fill="#fff"/>
                      <path id="Path_14933" data-name="Path 14933" d="M2593.406,1549.5a.188.188,0,0,1,0,.365,47.012,47.012,0,0,1-9.067.82c-1.493.022-2.915,0-4.2-.054-1.031-.044-1.973-.11-2.8-.2-.315-.032-.611-.068-.888-.105-.452-.061-.707-.082-.926-.116a.14.14,0,0,1-.021-.272,31.38,31.38,0,0,1,8.8-1.308A38.7,38.7,0,0,1,2593.406,1549.5Z" transform="translate(-2573.939 -1544.644)" fill="#212851"/>
                      <path id="Path_14934" data-name="Path 14934" d="M2576.768,1663.543c-3.313-.38-5.863-1.315-5.866-1.669l-1.284-14.683c-.016-.181.233-.284.4-.206a12.621,12.621,0,0,0,2.926.774c.829.149,1.783.279,2.824.373Q2576.266,1655.837,2576.768,1663.543Z" transform="translate(-2569.063 -1627.352)" fill="#f2edeb"/>
                      <g id="Group_14150" data-name="Group 14150" transform="translate(1.68 20.374)">
                        <g id="Group_14143" data-name="Group 14143">
                          <path id="Path_14935" data-name="Path 14935" d="M2577.87,1666.058a.4.4,0,0,1-.346-.371l-.81-13.476a.4.4,0,1,1,.8-.048l.81,13.476a.4.4,0,0,1-.374.422A.406.406,0,0,1,2577.87,1666.058Z" transform="translate(-2576.714 -1651.789)" fill="#ccc2ca"/>
                        </g>
                        <g id="Group_14144" data-name="Group 14144" transform="translate(2.375 0.606)">
                          <path id="Path_14936" data-name="Path 14936" d="M2592.4,1669.815a.4.4,0,0,1-.347-.383l-.394-13.419a.4.4,0,1,1,.8-.023l.4,13.419a.4.4,0,0,1-.387.41A.364.364,0,0,1,2592.4,1669.815Z" transform="translate(-2591.663 -1655.603)" fill="#ccc2ca"/>
                        </g>
                        <g id="Group_14145" data-name="Group 14145" transform="translate(4.809 1.177)">
                          <path id="Path_14937" data-name="Path 14937" d="M2607.526,1673.134a.4.4,0,0,1-.347-.39l-.189-13.141a.4.4,0,0,1,.8-.011l.189,13.141a.4.4,0,0,1-.393.4A.383.383,0,0,1,2607.526,1673.134Z" transform="translate(-2606.991 -1659.2)" fill="#ccc2ca"/>
                        </g>
                        <g id="Group_14146" data-name="Group 14146" transform="translate(7.543 1.475)">
                          <path id="Path_14938" data-name="Path 14938" d="M2624.738,1674.876a.4.4,0,0,1-.347-.389l-.186-13.005a.4.4,0,1,1,.8-.011l.187,13.006a.4.4,0,0,1-.393.4A.336.336,0,0,1,2624.738,1674.876Z" transform="translate(-2624.205 -1661.077)" fill="#ccc2ca"/>
                        </g>
                        <g id="Group_14147" data-name="Group 14147" transform="translate(10.609 1.431)">
                          <path id="Path_14939" data-name="Path 14939" d="M2644.041,1674.6a.4.4,0,0,1-.347-.39l-.187-13.005a.4.4,0,1,1,.8-.011l.187,13.005a.4.4,0,0,1-.393.4A.379.379,0,0,1,2644.041,1674.6Z" transform="translate(-2643.508 -1660.799)" fill="#ccc2ca"/>
                        </g>
                        <g id="Group_14148" data-name="Group 14148" transform="translate(13.6 1.051)">
                          <path id="Path_14940" data-name="Path 14940" d="M2662.866,1672.207a.4.4,0,0,1-.346-.389l-.187-13.006a.4.4,0,1,1,.8-.011l.187,13.005a.4.4,0,0,1-.393.4A.373.373,0,0,1,2662.866,1672.207Z" transform="translate(-2662.333 -1658.408)" fill="#ccc2ca"/>
                        </g>
                        <g id="Group_14149" data-name="Group 14149" transform="translate(16.372 0.269)">
                          <path id="Path_14941" data-name="Path 14941" d="M2680.134,1667.282a.4.4,0,0,1-.347-.4l.221-13.005a.4.4,0,0,1,.8.013l-.221,13.005a.4.4,0,0,1-.405.392Z" transform="translate(-2679.787 -1653.484)" fill="#ccc2ca"/>
                        </g>
                      </g>
                      <g id="Group_14151" data-name="Group 14151" transform="translate(8.121 8.115)">
                        <path id="Path_14942" data-name="Path 14942" d="M2617.614,1576.238a.4.4,0,0,1,.086-.792,29.554,29.554,0,0,0,10.914-.815.4.4,0,1,1,.255.755,29.824,29.824,0,0,1-11.238.854Z" transform="translate(-2617.266 -1574.61)" fill="#ccc2ca"/>
                      </g>
                    </g>
                  </g>
                  <path id="Path_14943" data-name="Path 14943" d="M2603.181,1631.194s-.9,4.739-7.22,6.618-9.326,5.681-13.519,8.094a16.992,16.992,0,0,1-11.6,1.7c-2.865-.774-9.091-3.983-6.382-5.956,0,0-2.078-2.674.186-3.391,0,0-.778-2.439,1.191-3a3.314,3.314,0,0,1,1.872.2,22.288,22.288,0,0,0,6.962.5c1.67-.155,4.395-1.49,6.819-3.077,0,0,2.221-.735,2.86-7.025a51.07,51.07,0,0,0,10.274,1.255C2599.155,1627.057,2603.175,1626.578,2603.181,1631.194Z" transform="translate(-2563.586 -1609.606)" fill="#f6af9a"/>
                  <path id="Path_14944" data-name="Path 14944" d="M2570.22,1703.775c1.068.227,2.138.441,3.212.632s2.149.374,3.228.517a29.365,29.365,0,0,0,3.239.278,27.964,27.964,0,0,0,3.233-.087l.013.044a5.882,5.882,0,0,1-1.6.447,7.362,7.362,0,0,1-1.663.065,32.154,32.154,0,0,1-3.271-.417q-1.619-.28-3.219-.643c-1.066-.244-2.128-.5-3.182-.791Z" transform="translate(-2569.157 -1675.144)" fill="#e57e73"/>
                  <path id="Path_14945" data-name="Path 14945" d="M2569.024,1725.13q1.527.642,3.1,1.175a30.274,30.274,0,0,0,3.162.938,13.394,13.394,0,0,0,1.609.277c.272.029.544.058.816.078s.544.047.816.069a24.32,24.32,0,0,0,3.288.052l.01.045a8.411,8.411,0,0,1-1.646.31,13.333,13.333,0,0,1-1.676.056,13.734,13.734,0,0,1-1.668-.155,15.823,15.823,0,0,1-1.641-.373,30.552,30.552,0,0,1-3.151-1.081q-1.541-.625-3.035-1.35Z" transform="translate(-2568.144 -1693.107)" fill="#e57e73"/>
                </g>
                <path id="Path_14946" data-name="Path 14946" d="M2591.164,1638.128a16.242,16.242,0,0,0-7.951,3.672c-4.1,3.327-11.506,8.526-20.654,6.18s-9.459-12.433-4.419-13.6a19.118,19.118,0,0,1,3.773-.392c4.581-.11,9.827.518,12.345-2.291,3.257-3.634,2.766-5.834,2.766-5.834l11.889,1.04Z" transform="translate(-2554.88 -1599.672)" fill="#ffc675"/>
                <path id="Path_14947" data-name="Path 14947" d="M2612.488,1633.615c-4.887,3.744-13.17.434-13.313.376,4.579-.11,9.825.518,12.343-2.291a9.662,9.662,0,0,0,2.566-4.612c.155-.752.2-1.222.2-1.222S2617.418,1629.838,2612.488,1633.615Z" transform="translate(-2592.139 -1599.672)" fill="#f2b255"/>
              </g>
              <g id="Group_14156" data-name="Group 14156" transform="translate(30.118)">
                <path id="Path_14948" data-name="Path 14948" d="M2802.01,1063.807s7.781,7.406,20.648,32.668,21.535,39.8,12.928,46.208-24.146-14.434-32.028-24.132-23.61-34.833-22.384-46.079S2791.914,1055.929,2802.01,1063.807Z" transform="translate(-2775.291 -1058.644)" fill="#f6af9a"/>
                <g id="Group_14155" data-name="Group 14155">
                  <path id="Path_14949" data-name="Path 14949" d="M2806.348,1135.668c-10.357,9.844-27.009,14.081-35.333,16.328s-19.99,5.633-19.99,5.633-4.206-15.665-6.529-16.732c0,0,29.516-15.577,31.793-16.758s-.554-4.138-.554-4.138-15.983-24.407-21.955-36.342-7.969-31.216,7.6-32.475c3.447.136,7.944,2.424,13.239,6.544a192.963,192.963,0,0,1,28.319,44.382l0,.01C2803.25,1102.647,2816.589,1125.933,2806.348,1135.668Z" transform="translate(-2744.496 -1051.183)" fill="#5381cf"/>
                  <path id="Path_14950" data-name="Path 14950" d="M2875.375,1233.314s11.245-7.581,18.7-8.844l2.274,4.612s-17.941,7.518-18.068,8.781S2875.375,1233.314,2875.375,1233.314Z" transform="translate(-2854.586 -1196.946)" fill="#3c71c6" opacity="0.69"/>
                </g>
              </g>
            </g>
          </g>
          <g id="Group_14179" data-name="Group 14179" transform="translate(18.012)">
            <g id="Group_14159" data-name="Group 14159" transform="translate(18.912 48.011)">
              <path id="Path_14951" data-name="Path 14951" d="M2589.03,913.525a7.767,7.767,0,0,1,2.295,4.353c.481,2.784,1.794,9.069,4.37,12.978,3.387,5.139-4.224,13.715-10.7,14.024-7.019.335-9.546-1.936-10.724-8.014s-1.4-7.279-2.07-12.184c-1.062-7.818,3.864-12.045,8.363-12.928C2584.565,910.97,2587.222,911.827,2589.03,913.525Z" transform="translate(-2572.054 -911.461)" fill="#f6af9a"/>
              <path id="Path_14952" data-name="Path 14952" d="M2580.563,911.755c4-.785,6.659.072,8.467,1.771a7.767,7.767,0,0,1,2.295,4.353c.1.559.228,1.26.394,2.054-4.22,8.029-10.907,13.968-17.518,16.58-1.117-5.77-1.348-7.023-2-11.83C2571.138,916.865,2576.063,912.638,2580.563,911.755Z" transform="translate(-2572.054 -911.461)" fill="#e57e73"/>
            </g>
            <g id="Group_14160" data-name="Group 14160" transform="translate(9.211 60.13)">
              <path id="Path_14953" data-name="Path 14953" d="M2538.127,1119.564a7.955,7.955,0,0,1-1.175,4.012c-5.353,8.828-24.507,7.189-20.754,2.416,2.539-3.229,6.533-18.047-1.9-29.374-6.056-8.129-2.437-20.382.088-26.652.992-2.465,1.815-4,1.815-4l6.786,1.568,9.935,2.3s1.086,7.317,2.268,16.561C2536.661,1097.941,2538.285,1112.5,2538.127,1119.564Z" transform="translate(-2510.982 -1053.541)" fill="#ffc675"/>
              <path id="Path_14954" data-name="Path 14954" d="M2556.385,1117.26c-.034,1.5-.272,4.324-.989,5.5-1.251-1.331-4.707-3.447-8.452-8.865a32.6,32.6,0,0,1-5.593-24.185c1.218-8.849,5.863-8.445.913-10.664-3.94-1.768-8.139-6.884-9.872-9.083.991-2.465,1.815-4,1.815-4l6.786,1.568c4.677,2.781,10.032,6.289,10.032,6.289l2.171,12.569C2554.671,1097.941,2556.544,1110.2,2556.385,1117.26Z" transform="translate(-2528.992 -1053.541)" fill="#f2b255"/>
              <path id="Path_14955" data-name="Path 14955" d="M2623.923,1113.57s-4.622,3.916-13.076.194-13.286-26.448-9.571-32.547c1.264-2.076,2.38-4.063,3.261-5.776,1.707-3.321,2.533-5.615,1.864-5.543-1.013.111,17.038-9.849,17.038-9.849a20.051,20.051,0,0,1,1.508,3.582c1.354,4.208,2.375,11.412-3.153,17.7C2613.371,1090.918,2623.923,1113.57,2623.923,1113.57Z" transform="translate(-2585.868 -1048.566)" fill="#ffc675"/>
              <path id="Path_14956" data-name="Path 14956" d="M2648.93,1063.63s-8.142,12.788-20.408,11.809c1.706-3.321,2.532-5.615,1.862-5.543-1.013.111,17.038-9.849,17.038-9.849A20.029,20.029,0,0,1,2648.93,1063.63Z" transform="translate(-2609.853 -1048.566)" fill="#f2b255"/>
              <path id="Path_14957" data-name="Path 14957" d="M2568.867,987.762s9.58,3.812,10.451,7.053-6.964,12.675-18.969,15.482-16.532-10.115-16.532-10.115a12.931,12.931,0,0,1,3.964-4.148C2550.71,994.389,2553.52,1001.121,2568.867,987.762Z" transform="translate(-2538.603 -987.762)" fill="#ffc675"/>
            </g>
            <g id="Group_14161" data-name="Group 14161" transform="translate(22.189 131.232)">
              <path id="Path_14958" data-name="Path 14958" d="M2617.528,1450.285a5.885,5.885,0,0,0,2.574-6.389c-1.025-4.284-4.656-5.3-3.639-8.495a4.908,4.908,0,0,0,.508,5.972A7.85,7.85,0,0,1,2617.528,1450.285Z" transform="translate(-2612.03 -1435.402)" fill="#eaebf4"/>
              <path id="Path_14959" data-name="Path 14959" d="M2593.85,1486.754a3.434,3.434,0,0,0,.487-4.7c-1.888-2.71-.487-3.791-.487-3.791s-1.982,1.373-.771,3.235A7.5,7.5,0,0,1,2593.85,1486.754Z" transform="translate(-2592.687 -1471.459)" fill="#eaebf4"/>
              <path id="Path_14960" data-name="Path 14960" d="M2661.955,1480.41a3.434,3.434,0,0,1-.487-4.7c1.888-2.71.487-3.791.487-3.791s1.981,1.373.771,3.235A7.489,7.489,0,0,0,2661.955,1480.41Z" transform="translate(-2649.929 -1466.123)" fill="#eaebf4"/>
            </g>
            <g id="Group_14178" data-name="Group 14178">
              <g id="Group_14176" data-name="Group 14176" transform="translate(0 7.254)">
                <path id="Path_14961" data-name="Path 14961" d="M2493.985,675.193s-17.713-1.56-21.632,14.1-2.6,39.99,7.829,42.127,27.169-6.986,32.043-23.17S2509.147,675.709,2493.985,675.193Z" transform="translate(-2467.57 -671.928)" fill="#f6af9a"/>
                <g id="Group_14175" data-name="Group 14175">
                  <g id="Group_14169" data-name="Group 14169">
                    <path id="Path_14962" data-name="Path 14962" d="M2473.075,662.5s4.733-1.621,5.34,4.513-6.624,14.062,3.321,17.111a7.271,7.271,0,0,1,3.466,5.981c.125,4.165,1.8,2.563,4.362,3.75,0,0-.1,12.11,5.26,13.884a10.481,10.481,0,0,1-.438-4.422,7.237,7.237,0,0,0,4.417,1,11.4,11.4,0,0,1-2.449-2.927,8.864,8.864,0,0,0,7.026-.263s-3.261-2.414-2.971-8.2c0,0,.36-3.637,1.29-8.771s2.393-29.623-21.765-27.952a19.94,19.94,0,0,0-18.9,2.447c-9.7,6.722-7.916,22.535-7.916,22.535s.968,1.057,3.007-.154a3.114,3.114,0,0,1-1.271,2.431s7.923.08,9.882-6.308c0,0,2.3-1.524,2.3-5.846S2466.562,662.139,2473.075,662.5Z" transform="translate(-2452.991 -654.866)" fill="#212851"/>
                    <g id="Group_14168" data-name="Group 14168" transform="translate(2.715 1.334)">
                      <g id="Group_14165" data-name="Group 14165" transform="translate(17.219 2.115)">
                        <g id="Group_14162" data-name="Group 14162" transform="translate(0 0.162)">
                          <path id="Path_14963" data-name="Path 14963" d="M2589.731,702.532a.421.421,0,0,0,.3-.667c-1.524-2.089-.932-3.77-.035-6.315a26.907,26.907,0,0,0,1.426-5.293,13.584,13.584,0,0,0-1.11-7.976,8.335,8.335,0,0,0-4.975-4.448c-4.276-1.269-6.724,3-6.752,3.051-.114.2-.144.626.059.74s.561-.125.675-.327c.036-.063,2.157-3.732,5.779-2.657,3.924,1.165,6.285,6.106,5.493,11.495a26.229,26.229,0,0,1-1.387,5.136c-.914,2.595-1.637,4.644.149,7.091A.421.421,0,0,0,2589.731,702.532Z" transform="translate(-2578.493 -677.597)" fill="#121d3f"/>
                        </g>
                        <g id="Group_14163" data-name="Group 14163" transform="translate(4.415)">
                          <path id="Path_14964" data-name="Path 14964" d="M2622.975,707.781a.421.421,0,0,0,.254-.718c-3.616-3.561-3.612-8.316-3.288-10.833.042-.323.089-.665.139-1.023.548-3.918,1.376-9.838-2.6-14.483a11.006,11.006,0,0,0-10.884-3.9.421.421,0,0,0-.287.521c.065.223.4.143.62.078s5.489-1.316,9.912,3.845c3.733,4.357,2.936,10.051,2.409,13.819-.05.362-.1.707-.14,1.032-.594,4.614.661,8.712,3.532,11.54A.419.419,0,0,0,2622.975,707.781Z" transform="translate(-2606.289 -676.579)" fill="#121d3f"/>
                        </g>
                        <g id="Group_14164" data-name="Group 14164" transform="translate(7.945 0.009)">
                          <path id="Path_14965" data-name="Path 14965" d="M2648.092,711.657a.421.421,0,0,0,.206-.759c-3.238-2.344-3.216-5.981-3.185-11.013a53.521,53.521,0,0,0-.647-10.22c-1.3-7.229-5.465-10.385-8.73-11.76a16.113,16.113,0,0,0-6.835-1.253.423.423,0,0,0-.387.452c.018.232.214.206.445.189a18.083,18.083,0,0,1,6.481,1.4c4.452,1.887,7.21,5.629,8.2,11.121a52.809,52.809,0,0,1,.634,10.066c-.032,5.085-.056,9.1,3.533,11.7A.418.418,0,0,0,2648.092,711.657Z" transform="translate(-2628.512 -676.634)" fill="#121d3f"/>
                        </g>
                      </g>
                      <g id="Group_14166" data-name="Group 14166" transform="translate(7.867 4.39)">
                        <path id="Path_14966" data-name="Path 14966" d="M2520.817,707.888a.421.421,0,0,0,.373-.347,18.918,18.918,0,0,0-.306-5.66c-.473-3.2-.963-6.51.932-8.452,3.016-3.092,7.278-1,7.32-.979a.421.421,0,1,0,.378-.752c-.048-.024-4.859-2.385-8.3,1.143-2.186,2.24-1.665,5.759-1.162,9.163a18.4,18.4,0,0,1,.309,5.394.421.421,0,0,0,.456.49Z" transform="translate(-2519.609 -690.903)" fill="#121d3f"/>
                      </g>
                      <g id="Group_14167" data-name="Group 14167" transform="translate(0 1.509)">
                        <path id="Path_14967" data-name="Path 14967" d="M2470.546,696.507a.418.418,0,0,0,.219-.089c2.458-1.941,2.448-5.291,2.438-8.839-.012-4.088-.025-8.315,3.574-11.055,6.64-5.055,12.066-2.081,12.294-1.952a.421.421,0,0,0,.417-.731,9.956,9.956,0,0,0-3.947-1.05,13.552,13.552,0,0,0-9.273,3.063c-3.932,2.994-3.918,7.633-3.906,11.727.01,3.337.019,6.489-2.117,8.176a.421.421,0,0,0,.3.749Z" transform="translate(-2470.084 -672.763)" fill="#121d3f"/>
                      </g>
                      <path id="Path_14968" data-name="Path 14968" d="M2586.251,663.262c-1.522.21-5.325.5-6.825,6.3A12.742,12.742,0,0,1,2586.251,663.262Z" transform="translate(-2562.059 -663.262)" fill="#121d3f"/>
                    </g>
                  </g>
                  <g id="Group_14174" data-name="Group 14174" transform="translate(30.483 30.9)">
                    <path id="Path_14969" data-name="Path 14969" d="M2645.542,853.8s1.331-5.461,6.2-4.215-.241,13.564-4.373,12.533S2645.542,853.8,2645.542,853.8Z" transform="translate(-2644.903 -849.402)" fill="#f6af9a"/>
                    <g id="Group_14171" data-name="Group 14171" transform="translate(2.518 3.155)">
                      <g id="Group_14170" data-name="Group 14170">
                        <path id="Path_14970" data-name="Path 14970" d="M2661.3,876.105a.432.432,0,0,0,.385-.477c-.5-4.426,1.853-5.493,1.954-5.536a.43.43,0,0,0-.33-.794c-.125.051-3.06,1.32-2.478,6.427A.43.43,0,0,0,2661.3,876.105Z" transform="translate(-2660.756 -869.267)" fill="#e57e73"/>
                      </g>
                    </g>
                    <g id="Group_14173" data-name="Group 14173" transform="translate(2.66 5.86)">
                      <g id="Group_14172" data-name="Group 14172">
                        <path id="Path_14971" data-name="Path 14971" d="M2666.211,886.761a.286.286,0,0,1-.331.235c-2.844-.557-3.668.974-3.7,1.039a.279.279,0,0,1-.378.125.291.291,0,0,1-.119-.386c.041-.082,1.027-1.989,4.309-1.347A.285.285,0,0,1,2666.211,886.761Z" transform="translate(-2661.651 -886.296)" fill="#e57e73"/>
                      </g>
                    </g>
                  </g>
                </g>
              </g>
              <g id="Group_14177" data-name="Group 14177" transform="translate(0.034)">
                <path id="Path_14972" data-name="Path 14972" d="M2504.126,653.588a25.981,25.981,0,0,1-1.487,2.991s-13.654-20.738-27.533-24.049-19.522,1.741-19.522,1.741-.339-22.023,28.992-24.928c13.109-1.3,19.047,6.289,21.678,15.106C2509.1,633.966,2507.32,646.063,2504.126,653.588Z" transform="translate(-2455.206 -609.196)" fill="#e56c6c"/>
                <path id="Path_14973" data-name="Path 14973" d="M2644.449,734.353l-22.045-23.5c.23.129,18.444,10.326,21.894,5.416,3.474-4.942,2.279-11.054,2.279-11.054C2649.421,714.732,2647.644,726.829,2644.449,734.353Z" transform="translate(-2595.529 -689.962)" fill="#dc6565"/>
                <path id="Path_14974" data-name="Path 14974" d="M2459.683,725.157s-5.937,2.388-6.227,2.651-.539-4.625.513-5.641,12.316-7.388,31.23,3.058c12.456,6.879,16.89,12.1,18.465,14.868a5.358,5.358,0,0,1,.591,3.721c-.52,2.559-1.763,7.3-3.6,5.589-2.469-2.3-4.68-9.135-15.28-16.54S2468.031,723.3,2459.683,725.157Z" transform="translate(-2453.204 -701.824)" fill="#d35f5f"/>
                <path id="Path_14975" data-name="Path 14975" d="M2537.036,671.86s-4.148-1.526-13.564-2.349c0,0,1.124-4.084,2.609-5.855.532-.635,11.823.9,13.64,1.7C2539.721,665.355,2537.877,670,2537.036,671.86Z" transform="translate(-2512.311 -654.879)" fill="#f6a672"/>
              </g>
            </g>
          </g>
        </g>
      </g>
      <g id="Group_14198" data-name="Group 14198" transform="translate(80.614 77.364)">
        <path id="Path_14976" data-name="Path 14976" d="M2360.83,1172.814c1.264,5.363-.215,9.038.56,13.2a35.849,35.849,0,0,1,.4,6.054c2.165-1.509,6.381-5.134,6.989-10.791.824-7.662-3.109-32.823-8.222-51.388-3.573-12.972-10.244-17.448-11.113-17.985-3.908,1.209-7.481,2.355-9.779,3.216-1.129.424,11.648,17.742,13.083,24.808,1.706,8.39,8.061,32.543,8.083,32.886Z" transform="translate(-2276.545 -1106.069)" fill="#3c71c6"/>
        <g id="Group_14183" data-name="Group 14183" transform="translate(29.311)">
          <g id="Group_14182" data-name="Group 14182">
            <path id="Path_14977" data-name="Path 14977" d="M2178.207,1157.4c-9.137,7.3-45.423,21.773-45.423,21.773s-.244-.842-.633-2.129l0-.011c-1.08-3.572-3.272-10.543-4.481-12.439a1.242,1.242,0,0,0-.425-.468c-1.363-.6,26.037-13.24,29.317-17.732s-1.389-15.087-1.389-15.087a117.967,117.967,0,0,1-5.917-25.626c-3.306-28.472,4.484-30.5,4.484-30.5,10.1,2.459,19.083,20.232,21.955,29.075,1.976,6.083,4.429,13.1,5.486,18.577C2181.177,1122.837,2187.344,1150.1,2178.207,1157.4Z" transform="translate(-2127.193 -1075.184)" fill="#e86f6f"/>
          </g>
          <path id="Path_14978" data-name="Path 14978" d="M2340.431,1289.949s-7.913,3.17-11.74,3.8c-1.725.286-5.026-15.156-5.026-15.156s12.852-4.1,13.147-3.432C2337.533,1276.8,2340.431,1289.949,2340.431,1289.949Z" transform="translate(-2292.458 -1243.339)" fill="#d35f5f"/>
        </g>
        <g id="Group_14197" data-name="Group 14197" transform="translate(0 57.42)">
          <g id="cap-2" data-name="cap" transform="translate(2.285)">
            <g id="Group_14195" data-name="Group 14195" transform="translate(0 13.37)">
              <g id="Group_14184" data-name="Group 14184" transform="translate(15.473)">
                <path id="Path_14979" data-name="Path 14979" d="M2057.753,1527.442a4.686,4.686,0,0,1-1.113-.286l-.181-.7a4.855,4.855,0,0,0,3.277.008c.714-.336,2.029-1.332,1.891-2.7a2.659,2.659,0,0,0-1.992-2.152c-1.453-.354-3.54.836-4.517,3.434l-.656-.247c1-2.652,3.342-4.352,5.338-3.869a3.389,3.389,0,0,1,2.524,2.763c.177,1.751-1.356,2.961-2.29,3.4A4.076,4.076,0,0,1,2057.753,1527.442Z" transform="translate(-2054.461 -1520.857)" fill="#3b4a75"/>
              </g>
              <g id="Group_14185" data-name="Group 14185" transform="translate(0 4.183)">
                <path id="Path_14980" data-name="Path 14980" d="M1975.927,1608.449s1.018-26.64,1.018-26.64l-17.738.254.479,7.154,1.3,19.443a.121.121,0,0,0,0,.025c.011.806,3.365,1.411,7.492,1.352.963-.014,1.883-.062,2.729-.14.19-.017.377-.036.558-.056a19.9,19.9,0,0,0,2.1-.333c.2-.043.388-.09.564-.137.943-.258,1.5-.571,1.494-.9A.117.117,0,0,0,1975.927,1608.449Z" transform="translate(-1958.863 -1576.31)" fill="#212851"/>
                <path id="Path_14981" data-name="Path 14981" d="M2037.443,1586.722l-.012.388-.808,24.526,0,.133-.028.856-.029.879c-.176.047-.363.094-.564.137a19.958,19.958,0,0,1-2.1.333l-.04-1.31-.04-1.313,0-.048-.734-23.6-.013-.4Z" transform="translate(-2020.99 -1580.443)" fill="#3b4a75"/>
                <path id="Path_14982" data-name="Path 14982" d="M2033.914,1586.773l-.013.388-.808,24.526-.032.989-.033,1.009a21.729,21.729,0,0,1-2.662.389l-.042-1.358-.042-1.361-.734-23.6-.013-.4Z" transform="translate(-2018.021 -1580.486)" fill="#e5d7d1"/>
                <path id="Path_14983" data-name="Path 14983" d="M1975.3,1550.168a.4.4,0,0,0,.052-.193c0-.238-.251-.462-.688-.663a.473.473,0,0,0,.163-.333l.485-1.79-18.267.262.536,1.776a.474.474,0,0,0,.173.328c-.431.214-.672.444-.669.682a.4.4,0,0,0,.058.192l.478,1.584a.517.517,0,0,0,.224.372c-.3.177-.459.365-.456.557.014.956,4,1.674,8.894,1.6s8.858-.9,8.844-1.859c0-.193-.169-.375-.472-.544a.517.517,0,0,0,.212-.378Z" transform="translate(-1957.045 -1547.189)" fill="#b2b2b2"/>
              </g>
              <path id="Path_14984" data-name="Path 14984" d="M1975.311,1538.416c0,.223-.2.437-.581.639-1.3.693-4.623,1.219-8.528,1.275s-7.243-.374-8.559-1.03c-.384-.191-.6-.4-.6-.622-.014-.985,4.065-1.842,9.108-1.914S1975.3,1537.431,1975.311,1538.416Z" transform="translate(-1957.044 -1534.234)" fill="#3b4a75"/>
              <path id="Path_14985" data-name="Path 14985" d="M1977.007,1641.041a.017.017,0,0,1,.006.011c.006.41-3.744,1.773-7.867,1.83a21.149,21.149,0,0,1-2.754-.144c-.113-.013-.227-.027-.341-.043a20.9,20.9,0,0,1-3.183-.654c-1.013-.3-1.634-.607-1.636-.77l-1.131-12.84,0-.075c-.014-.161.2-.251.349-.181a9.686,9.686,0,0,0,2.127.6c.143.029.292.056.446.083.731.132,1.569.246,2.486.329a33.2,33.2,0,0,0,3.44.13,24.606,24.606,0,0,0,8.463-1.382.243.243,0,0,1,.348.235Z" transform="translate(-1959.615 -1610.902)" fill="#fff"/>
              <path id="Path_14986" data-name="Path 14986" d="M1981.032,1543.712a.165.165,0,0,1,0,.321,41.341,41.341,0,0,1-7.976.721c-1.313.019-2.564,0-3.693-.048-.906-.039-1.736-.1-2.459-.172-.277-.028-.538-.06-.781-.092-.4-.053-.622-.072-.815-.1a.123.123,0,0,1-.018-.239,27.6,27.6,0,0,1,7.74-1.15A34.02,34.02,0,0,1,1981.032,1543.712Z" transform="translate(-1963.908 -1539.438)" fill="#212851"/>
              <path id="Path_14987" data-name="Path 14987" d="M1966.392,1644.027c-.113-.013-.227-.027-.341-.043a25.75,25.75,0,0,1-3.183-.654c-1.642-.44-1.634-.583-1.636-.771l-1.131-12.84,0-.075c-.014-.16.2-.251.349-.181a9.674,9.674,0,0,0,2.127.6c.143.029.292.056.446.083.731.132,1.569.246,2.486.329Q1965.951,1637.25,1966.392,1644.027Z" transform="translate(-1959.615 -1612.193)" fill="#f2edeb"/>
              <g id="Group_14193" data-name="Group 14193" transform="translate(1.478 17.922)">
                <g id="Group_14186" data-name="Group 14186">
                  <path id="Path_14988" data-name="Path 14988" d="M1967.366,1646.238a.351.351,0,0,1-.3-.327l-.712-11.853a.35.35,0,1,1,.7-.042l.713,11.854a.351.351,0,0,1-.329.371A.41.41,0,0,1,1967.366,1646.238Z" transform="translate(-1966.348 -1633.686)" fill="#ccc2ca"/>
                </g>
                <g id="Group_14187" data-name="Group 14187" transform="translate(2.089 0.533)">
                  <path id="Path_14989" data-name="Path 14989" d="M1980.151,1649.544a.351.351,0,0,1-.3-.337l-.347-11.8a.35.35,0,1,1,.7-.021l.348,11.8a.351.351,0,0,1-.34.361A.386.386,0,0,1,1980.151,1649.544Z" transform="translate(-1979.499 -1637.042)" fill="#ccc2ca"/>
                </g>
                <g id="Group_14188" data-name="Group 14188" transform="translate(4.23 1.036)">
                  <path id="Path_14990" data-name="Path 14990" d="M1993.453,1652.463a.35.35,0,0,1-.3-.343l-.166-11.559a.35.35,0,0,1,.7-.01l.166,11.559a.35.35,0,0,1-.345.355A.363.363,0,0,1,1993.453,1652.463Z" transform="translate(-1992.982 -1640.206)" fill="#ccc2ca"/>
                </g>
                <g id="Group_14189" data-name="Group 14189" transform="translate(6.636 1.298)">
                  <path id="Path_14991" data-name="Path 14991" d="M2008.593,1654a.35.35,0,0,1-.3-.343l-.164-11.44a.35.35,0,0,1,.7-.01l.164,11.44a.35.35,0,0,1-.345.355A.326.326,0,0,1,2008.593,1654Z" transform="translate(-2008.124 -1641.857)" fill="#ccc2ca"/>
                </g>
                <g id="Group_14190" data-name="Group 14190" transform="translate(9.333 1.259)">
                  <path id="Path_14992" data-name="Path 14992" d="M2025.573,1653.75a.351.351,0,0,1-.3-.343l-.164-11.44a.35.35,0,0,1,.7-.01l.164,11.44a.352.352,0,0,1-.4.353Z" transform="translate(-2025.104 -1641.612)" fill="#ccc2ca"/>
                </g>
                <g id="Group_14191" data-name="Group 14191" transform="translate(11.963 0.925)">
                  <path id="Path_14993" data-name="Path 14993" d="M2042.131,1651.647a.35.35,0,0,1-.3-.343l-.164-11.44a.35.35,0,0,1,.7-.01l.164,11.44a.35.35,0,0,1-.346.355A.31.31,0,0,1,2042.131,1651.647Z" transform="translate(-2041.662 -1639.509)" fill="#ccc2ca"/>
                </g>
                <g id="Group_14192" data-name="Group 14192" transform="translate(14.401 0.237)">
                  <path id="Path_14994" data-name="Path 14994" d="M2057.321,1647.315a.35.35,0,0,1-.305-.353l.194-11.44a.351.351,0,1,1,.7.012l-.194,11.439a.351.351,0,0,1-.356.344Z" transform="translate(-2057.016 -1635.178)" fill="#ccc2ca"/>
                </g>
              </g>
              <g id="Group_14194" data-name="Group 14194" transform="translate(7.144 7.138)">
                <path id="Path_14995" data-name="Path 14995" d="M2002.326,1567.229a.351.351,0,0,1,.076-.7,25.989,25.989,0,0,0,9.6-.717.351.351,0,0,1,.224.664,26.236,26.236,0,0,1-9.885.751Z" transform="translate(-2002.021 -1565.797)" fill="#ccc2ca"/>
              </g>
            </g>
            <g id="Group_14196" data-name="Group 14196" transform="translate(2.653)">
              <path id="Path_14996" data-name="Path 14996" d="M2000.729,1451.6a5.884,5.884,0,0,0,3.11-6.146c-.656-4.355-4.187-5.678-2.9-8.774a4.908,4.908,0,0,0,0,5.993A7.85,7.85,0,0,1,2000.729,1451.6Z" transform="translate(-1995.761 -1436.685)" fill="#eaebf4"/>
              <path id="Path_14997" data-name="Path 14997" d="M1974.359,1486.093a3.434,3.434,0,0,0,.886-4.636c-1.649-2.862-.162-3.819-.162-3.819s-2.092,1.2-1.045,3.158A7.5,7.5,0,0,1,1974.359,1486.093Z" transform="translate(-1973.744 -1471.133)" fill="#eaebf4"/>
              <path id="Path_14998" data-name="Path 14998" d="M2040.981,1485.607a3.434,3.434,0,0,1-.085-4.719c2.112-2.54.809-3.736.809-3.736s1.857,1.537.493,3.29A7.494,7.494,0,0,0,2040.981,1485.607Z" transform="translate(-2029.459 -1470.724)" fill="#eaebf4"/>
            </g>
          </g>
          <path id="Path_14999" data-name="Path 14999" d="M1976.928,1650.552a24.083,24.083,0,0,0-9.332,3.487c-3.87,2.753-9.858,6.969-17.937,4.342s-8.741-11.668-4.149-12.429c.037-.006.076-.012.114-.017.193-.031.392-.056.595-.074,4.566-.445,10.939,1.521,13.913-1.4,3.13-3.078,2.8-5.081,2.8-5.081l9.507-1.278c1.208,1.9,3.4,8.867,4.481,12.439Z" transform="translate(-1942.66 -1606.109)" fill="#ffc675"/>
          <path id="Path_15000" data-name="Path 15000" d="M1979.015,1653.188c-4.02,2.158-11.333-.487-13.947-.559,4.566-.445,10.939,1.522,13.913-1.4,2.344-2.3,2.7-3.927,2.754-4.637.02-.238.051-.444.051-.444A5.744,5.744,0,0,1,1979.015,1653.188Z" transform="translate(-1961.509 -1612.877)" fill="#f2b255"/>
        </g>
      </g>
    </g>
    <g id="Group_14220" data-name="Group 14220" transform="translate(1653.003 761.4)">
      <g id="Group_14201" data-name="Group 14201" transform="translate(0 52.447)">
        <g id="Group_14200" data-name="Group 14200" transform="translate(1.895)">
          <path id="Path_15001" data-name="Path 15001" d="M2952.762,2588.186a18.633,18.633,0,0,1-1.393,6.962c-1.393,2.785-1.915,10.792,3.133,15.318l-7.659-.348a33.355,33.355,0,0,1-1.741-10.618c.174-5.222,2.611-7.833,2.611-12.881Z" transform="translate(-2939.669 -2494.911)" fill="#c95959"/>
          <path id="Path_15002" data-name="Path 15002" d="M3009.549,2287.463s-8.355-.7-12.358.522l-.522-4.526s7.485-1.567,13.055-.7Z" transform="translate(-2983.053 -2239.097)" fill="#c95959"/>
          <path id="Path_15003" data-name="Path 15003" d="M2938.142,2010.789s-14.969-4.178-20.714,1.219-7.311,20.018-6.093,33.247,3.308,24.369,3.655,39.687.871,20.888,9.226,20.192c2.263-.174,3.308-3.83,3.481-15.666s-.522-27.5-1.219-38.817-.7-27.676,1.567-28.547,6.44.348,8.529,2.263Z" transform="translate(-2910.95 -2009.246)" fill="#47539a"/>
        </g>
        <path id="Path_15004" data-name="Path 15004" d="M2925.842,2721.183s-7.485.348-12.707-1.74-12.185-1.045-13.577,4.7-3.266,20.357,38.837,27.5Z" transform="translate(-2899.017 -2605.802)" fill="#d35f5f"/>
      </g>
      <g id="Group_14219" data-name="Group 14219" transform="translate(25.387)">
        <path id="Path_15005" data-name="Path 15005" d="M3143.34,1695.117a10.634,10.634,0,0,0-2.006-2.85c-2.224-2.258-7.268-6.926-12.951-9.164-7.658-3.017-14.388-5.106-24.831-3.481s-30.168,3.481-34.81,6.266-8.122,9.747-8.586,19.493.7,48.269.928,70.78-.7,62.657-.7,75.885,5.8,23.671,13.46,25.3,49.429-.464,71.012-6.5c3.481-1.392,9.282-5.569,10.21-15.316s-2.089-55.927-2.785-70.315-3.017-48.734-4.641-65.21C3146.156,1704.9,3146.031,1700.714,3143.34,1695.117Z" transform="translate(-3059.857 -1679.055)" fill="#ffc675"/>
        <g id="Group_14218" data-name="Group 14218">
          <g id="Group_14203" data-name="Group 14203" transform="translate(0.191 7.969)">
            <path id="Path_15006" data-name="Path 15006" d="M3073.848,1919.543c-7.658-1.624-13.46-12.067-13.46-25.295s.928-53.375.7-75.885-1.393-61.033-.928-70.78c.41-8.616,3.178-15.055,7.021-18.357a38.733,38.733,0,0,1,15.49,4.2c9.979,4.873,13.228,8.586,14.156,10.907s.232,33.417.928,50.59.232,57.552,0,74.493c-.21,15.32,3.376,42.217.631,50.14C3086.769,1920.254,3077.146,1920.243,3073.848,1919.543Z" transform="translate(-3060.048 -1729.227)" fill="#f2b255"/>
            <g id="Group_14202" data-name="Group 14202" transform="translate(0.338 50.319)">
              <path id="Path_15007" data-name="Path 15007" d="M3062.174,2046.026s11.7,21.288,37.637,34.517l.084,2.493c.071,18.616-.2,41.247-.356,52.861-.21,15.32,3.376,42.217.631,50.14-11.613.7-21.236.685-24.534-.014-7.658-1.625-13.46-12.067-13.46-25.295s.928-53.375.7-75.885C3062.761,2073.959,3062.432,2059.333,3062.174,2046.026Z" transform="translate(-3062.174 -2046.026)" fill="#f2b255"/>
              <path id="Path_15008" data-name="Path 15008" d="M3062.192,2161.9c0-13.228.928-53.375.7-75.885-.112-10.823-.438-25.347-.7-38.595l.268.25a94.909,94.909,0,0,0,29.77,29.712c-.6,8.618-4.1,47.855-19.907,94.673a43.757,43.757,0,0,1-8.99-.365A41.1,41.1,0,0,1,3062.192,2161.9Z" transform="translate(-3062.189 -2047.199)" fill="#ffc675"/>
            </g>
          </g>
          <g id="Group_14205" data-name="Group 14205" transform="translate(0.276 145.176)">
            <path id="Path_15009" data-name="Path 15009" d="M3067.71,2676.88c25.329,1.82,29.979-16.086,31.536-21.447.838-2.887,3.346-4.945,5.021-6.044.489,15.54,2.975,37.2.56,44.175-11.612.7-21.236.685-24.533-.014C3074.4,2692.3,3068.1,2686.345,3067.71,2676.88Z" transform="translate(-3066.578 -2640.439)" fill="#d35f5f"/>
            <g id="Group_14204" data-name="Group 14204">
              <path id="Path_15010" data-name="Path 15010" d="M3098.272,2602s-17.642,16.581-37.427,16.834a26.209,26.209,0,0,1,.077-7.843c1.092-.27,21.613-5.468,37.32-17.94-.014,1.06-.028,2.057-.04,2.983-.025,1.84,0,3.846.071,5.966Z" transform="translate(-3060.583 -2593.048)" fill="#c95959"/>
              <path id="Path_15011" data-name="Path 15011" d="M3121.28,2647.29a2.1,2.1,0,0,1,2.036-.023,2.347,2.347,0,0,1,1.1,1.469c.422,1.426,2.959,7.833,1.741,8.877s-12.011,5.4-13.751,5.4-4.177-8.877-4-9.748,5.57-2.437,7.659-3.307C3117.665,2649.285,3120.195,2647.9,3121.28,2647.29Z" transform="translate(-3100.798 -2638.442)" fill="#47539a"/>
            </g>
          </g>
          <g id="Group_14217" data-name="Group 14217">
            <g id="Group_14210" data-name="Group 14210" transform="translate(29.655 51.289)">
              <g id="Group_14207" data-name="Group 14207" transform="translate(0 12.364)">
                <path id="Path_15012" data-name="Path 15012" d="M3279.407,2080.4s.97,40.252,1.707,47.875c.838,8.66.764,13.377,1.287,15.988,0,0-5.19,1.444-7.628.748,0,0-1.025-58.247-1.2-65.21Z" transform="translate(-3269.123 -2079.799)" fill="#e56c6c"/>
                <g id="Group_14206" data-name="Group 14206" transform="translate(0 9.682)">
                  <rect id="Rectangle_888" data-name="Rectangle 888" width="13.924" height="23.671" rx="6.962" transform="translate(15.085 23.641) rotate(177.147)" fill="#47539a"/>
                  <path id="Path_15013" data-name="Path 15013" d="M3314.118,2188.025l.466,9.346a4.7,4.7,0,0,1-.466-9.346Z" transform="translate(-3299.838 -2180.516)" fill="#3d4990"/>
                  <path id="Path_15014" data-name="Path 15014" d="M3252.329,2195.736a4.7,4.7,0,0,1-4.026,4.651l-.466-9.346A4.7,4.7,0,0,1,3252.329,2195.736Z" transform="translate(-3247.474 -2183.054)" fill="#3d4990"/>
                </g>
              </g>
              <g id="Group_14209" data-name="Group 14209" transform="translate(56.347)">
                <path id="Path_15015" data-name="Path 15015" d="M3606.853,2003.61s6.239,48.22,6.935,55.009,1.915,15.492,3.481,20.017a34.1,34.1,0,0,1-6.267.348s-5.249-63.274-6.293-77.026Z" transform="translate(-3604.008 -2001.959)" fill="#e56c6c"/>
                <g id="Group_14208" data-name="Group 14208" transform="translate(0 21.041)">
                  <path id="Path_15016" data-name="Path 15016" d="M3604.332,2158.675l5.022-.361a2.588,2.588,0,0,0,2.4-2.767l-1.262-18.72a2.588,2.588,0,0,0-2.767-2.4l-5.022.361a2.588,2.588,0,0,0-2.4,2.767l1.263,18.719A2.588,2.588,0,0,0,3604.332,2158.675Z" transform="translate(-3600.295 -2134.426)" fill="#47539a"/>
                  <path id="Path_15017" data-name="Path 15017" d="M3655.289,2185.715l.557,8.249a4.7,4.7,0,0,1-.557-8.249Z" transform="translate(-3644.71 -2177.568)" fill="#3d4990"/>
                  <path id="Path_15018" data-name="Path 15018" d="M3605.549,2194.615a4.7,4.7,0,0,1-2.212,3.987l-.558-8.272A4.7,4.7,0,0,1,3605.549,2194.615Z" transform="translate(-3602.384 -2181.45)" fill="#3d4990"/>
                </g>
              </g>
            </g>
            <g id="Group_14216" data-name="Group 14216">
              <g id="Group_14213" data-name="Group 14213" transform="translate(34.877 12.546)">
                <g id="Group_14211" data-name="Group 14211" transform="translate(12.764 33.505)">
                  <path id="Path_15019" data-name="Path 15019" d="M3553.095,1968.981s.7,76.581,7.194,103.037l5.105-.928s-7.194-28.08-7.658-101.412Z" transform="translate(-3522.23 -1968.981)" fill="#e56c6c"/>
                  <path id="Path_15020" data-name="Path 15020" d="M3363.42,1990.9s6.034,69.387,1.857,105.125H3360.4s3.945-61.5-1.625-103.965Z" transform="translate(-3358.779 -1987.416)" fill="#e56c6c"/>
                </g>
                <g id="Group_14212" data-name="Group 14212" transform="translate(2.315 133.279)">
                  <path id="Path_15021" data-name="Path 15021" d="M3334.077,2598.3s13.46-2.089,16.245-.7,3.713,12.067,3.713,21.814-.232,19.03-10.211,21.814-45.717,6.5-47.805,5.57-2.785-8.354-2.553-19.261-3.017-23.9,4.874-25.527S3334.077,2598.3,3334.077,2598.3Z" transform="translate(-3292.996 -2597.128)" fill="#e56c6c"/>
                  <path id="Path_15022" data-name="Path 15022" d="M3351.983,2616.754s11.864-1.841,14.319-.614,3.273,10.637,3.273,19.229-.2,16.774-9,19.228-40.3,5.728-42.139,4.909-2.454-7.364-2.25-16.978-2.659-21.069,4.3-22.5S3351.983,2616.754,3351.983,2616.754Z" transform="translate(-3312.153 -2612.766)" fill="#ffc675"/>
                  <path id="Path_15023" data-name="Path 15023" d="M3589.882,2610.748a7.584,7.584,0,0,1,4.522-.078c.878.439,1.537,3.794,2.034,5.916.808,6.888,1.177,19.549-1.7,30.88-.867,2.5-2.767,2.767-5.586,3.383C3590.834,2643.474,3593.324,2626.273,3589.882,2610.748Z" transform="translate(-3542.115 -2608.266)" fill="#e56c6c"/>
                  <path id="Path_15024" data-name="Path 15024" d="M3368.806,2633.085a9.643,9.643,0,0,1,6.014-.684c1.017,5.089,4.507,25.472-1.356,40.406a11.725,11.725,0,0,1-6.377.516A78.106,78.106,0,0,0,3368.806,2633.085Z" transform="translate(-3355.318 -2626.615)" fill="#e56c6c"/>
                </g>
                <path id="Path_15025" data-name="Path 15025" d="M3280.512,1768.57a9.546,9.546,0,0,0-2.009-2.93l-.079-2.175s29.549-6.61,46.122-5.239q.257.254.479.479a10.626,10.626,0,0,1,2.006,2.85c2.691,5.6,2.815,9.781,4.3,24.884.36,3.659.755,8.2,1.159,13.206-1.894-2.3-7.874-7.913-20.654-7.172-15.018.871-25.342,12.153-30.586,20.443C3280.88,1795.374,3281.336,1770.63,3280.512,1768.57Z" transform="translate(-3278.423 -1758.039)" fill="#e56c6c"/>
              </g>
              <g id="Group_14215" data-name="Group 14215">
                <path id="Path_15026" data-name="Path 15026" d="M3102.009,1685.887c4.641-2.785,24.367-4.641,34.809-6.266s17.173.464,24.831,3.481c5.683,2.239,10.728,6.906,12.951,9.164a10.627,10.627,0,0,1,1.74,2.335c-7.359-.846-29.661-2.312-47.412,7.995l-29.333-14.775A12.036,12.036,0,0,1,3102.009,1685.887Z" transform="translate(-3093.123 -1679.055)" fill="#f79494"/>
                <path id="Path_15027" data-name="Path 15027" d="M3066.166,1729.227a38.73,38.73,0,0,1,15.49,4.2c9.979,4.873,13.228,8.586,14.156,10.907.821,2.052.371,26.617.739,44.147-1.659-1.5-14.173-11.969-37.176-8.936a314.538,314.538,0,0,1-.229-31.963C3059.555,1738.968,3062.323,1732.529,3066.166,1729.227Z" transform="translate(-3058.845 -1721.258)" fill="#d35f5f"/>
                <g id="Group_14214" data-name="Group 14214" transform="translate(5.802 51.46)">
                  <path id="Path_15028" data-name="Path 15028" d="M3122.36,2007.9a.3.3,0,0,1-.114-.023c-.157-.064-15.813-6.423-26.493-3.469a.3.3,0,0,1-.16-.576c10.881-3.01,26.722,3.427,26.881,3.493a.3.3,0,0,1-.114.576Z" transform="translate(-3095.374 -2003.032)" fill="#c95959"/>
                </g>
              </g>
            </g>
          </g>
        </g>
      </g>
    </g>
  </g>
</svg>
