<svg xmlns="http://www.w3.org/2000/svg" width="70.771" height="63.796" viewBox="0 0 70.771 63.796">
  <g id="XMLID_1468_" transform="translate(-0.001 -25.236)">
    <g id="XMLID_754_" transform="translate(0.001 25.236)">
      <path id="XMLID_767_" d="M65.222,73.657l-4.415-1.565,1.1-.566a5.964,5.964,0,0,0-.331-10.76l-6.6-2.906a2.713,2.713,0,0,0-3.262.876l-.1.141a.462.462,0,0,1-.73.02A6.368,6.368,0,0,0,48.73,57.2l3.01-.732a1.382,1.382,0,0,0,1.033-1.093l1.41-7.661a1.382,1.382,0,0,0-.823-1.524l-3.92-1.651-8.119-5a3.585,3.585,0,0,0-1.453-.5L42.222,27.67a1.985,1.985,0,0,0-2.63-2.307L32.75,27.926a1.382,1.382,0,0,0-.871,1.563l.352,1.779a.21.21,0,0,1-.3.227l-.824-.432A1.382,1.382,0,0,0,29.082,32.2l-.311,5.047-3.157-4.292a1.382,1.382,0,0,0-1.939-.289l-3.73,2.782a1.382,1.382,0,0,0-.453,1.631L21,40.755l-.933,1.157-2.124-2.9a1.383,1.383,0,0,0-.51-.426L12.352,36.12a1.383,1.383,0,0,0-1.548.233l-9.963,9.3A1.382,1.382,0,0,0,.472,47.1l1.222,3.7a1.383,1.383,0,0,0,.964.9v4.759L.743,58.66a1.382,1.382,0,0,0-.011,1.8l.376.442L.6,62.057A6.9,6.9,0,0,0,.065,65.8l.01.072A7.123,7.123,0,0,0,4.8,71.649l6.056,2.119a1.382,1.382,0,1,0,.913-2.609L5.711,69.04a4.37,4.37,0,0,1-2.9-3.543l-.01-.072a4.133,4.133,0,0,1,.318-2.245l.865-1.946a1.382,1.382,0,0,0-.21-1.457l-.168-.2,1.472-1.687a1.382,1.382,0,0,0,.341-.909V49.958a1.382,1.382,0,0,0-1.549-1.372l-.5-1.511L12,39.021l3.914,1.9,2.012,2.745L20.708,48.4a1.382,1.382,0,0,0,.8.624l7.237,2.162a1.382,1.382,0,0,0,1.484-.473l1.565-2L34.14,50.8a1.383,1.383,0,0,0,1.3.295l1.392-.4-1.844,2.916a6.751,6.751,0,0,0-4.165,5.428,8.23,8.23,0,0,0,4.858,8.495l3.324,1.445.427,2.249a1.382,1.382,0,0,0,.364.7l1.751,1.812a2.462,2.462,0,0,0,4.223-1.915l-.187-2.245L47.2,66.26a1.382,1.382,0,0,0-.158-1.462l-2.322-2.942A1.561,1.561,0,0,1,44.4,61.1a1.561,1.561,0,0,1,1.546-1.771,3.6,3.6,0,0,1,2.793,1.321,3.226,3.226,0,0,0,5.1-.142l.07-.1L60.461,63.3a3.2,3.2,0,0,1,.177,5.774l-1.414.729a2.61,2.61,0,0,0,.324,4.781L62.7,75.7l-1.335,2.2a1.5,1.5,0,0,1-2.1.476L55.836,76.13A1.382,1.382,0,0,0,53.7,77.286v2.25L51.933,80a1.383,1.383,0,0,0-.685.425l-5.114,5.838H44.09l1.574-3.062a1.382,1.382,0,0,0-1.229-2.014H42.923l-4.962-4.506a1.382,1.382,0,0,0-1.528-.222l-1.619.78H29.16l-5.651-1.977a1.382,1.382,0,0,0-.913,2.609l5.873,2.055a1.38,1.38,0,0,0,.457.078h6.2a1.381,1.381,0,0,0,.6-.137l1.064-.512L41.461,83.6a1.382,1.382,0,0,0,.718.343L40.6,87.017a1.382,1.382,0,0,0,1.229,2.014H46.76A1.382,1.382,0,0,0,47.8,88.56l5.249-5.992,2.384-.633A1.382,1.382,0,0,0,56.461,80.6v-.756l1.289.844a4.261,4.261,0,0,0,5.977-1.356l2.215-3.655a1.382,1.382,0,0,0-.72-2.019ZM48.08,46.952a1.363,1.363,0,0,0,.188.1l2.994,1.261L50.216,54l-2.232.543-2.793-.884a.838.838,0,0,1-.5-1.174,3.586,3.586,0,0,0-1.321-4.671l-4.2-2.608a2.028,2.028,0,0,1-.32-3.2.84.84,0,0,1,1.014-.1ZM31.724,34.27a2.979,2.979,0,0,0,3.218-3.539l-.124-.628,4.42-1.656-2.286,11.03-5.512-.609Zm-3.1,14-5.814-1.737-1.235-2.1,2.08-2.58a1.382,1.382,0,0,0,.2-1.391l-1.407-3.439,1.756-1.31,3.206,4.358,1.543,7.774Zm6.778-.039-2.88-2.559a1.359,1.359,0,0,0-1.241-.309l-.757-3.815,5.122.566a4.8,4.8,0,0,0,2.067,5.436l.016.01Zm7.284,9.815a4.325,4.325,0,0,0-.136,5.524l1.784,2.26-1.406,2.885a1.381,1.381,0,0,0-.135.72l.148,1.778-.874-.9-.487-2.562a1.382,1.382,0,0,0-.807-1.009L36.785,65a5.449,5.449,0,0,1-3.217-5.624,3.979,3.979,0,0,1,2.751-3.306,1.383,1.383,0,0,0,.754-.58L40.859,49.5l1.056.656a.835.835,0,0,1,.307,1.087,3.6,3.6,0,0,0,2.135,5.045l1,.317a4.323,4.323,0,0,0-2.668,1.439Z" transform="translate(-0.001 -25.236)" fill="#1dc5ce"/>
      <path id="XMLID_774_" d="M488.407,348.114l-.987-1.379a1.382,1.382,0,0,0-2.506.8v1.379A1.382,1.382,0,0,0,486.3,350.3h.987a1.382,1.382,0,0,0,1.124-2.186Z" transform="translate(-417.894 -301.802)" fill="#1dc5ce"/>
      <path id="XMLID_775_" d="M115.687,371.806a1.383,1.383,0,1,0,.977.405A1.392,1.392,0,0,0,115.687,371.806Z" transform="translate(-98.507 -323.907)" fill="#1dc5ce"/>
    </g>
  </g>
</svg>
