<svg xmlns="http://www.w3.org/2000/svg" width="109.709" height="136.667" viewBox="0 0 109.709 136.667">
  <g id="Group_19769" data-name="Group 19769" opacity="0.5">
    <path id="Path_982" data-name="Path 982" d="M2112.319,2122.715c.269-.027,6.512-.516,17.46,11.338,6.346,6.872,13.015,16.529,19.819,28.7,8.492,15.19,17.227,34.384,25.966,57.027a.588.588,0,0,1-1.1.425c-10.817-28.045-27.453-65.563-45.276-85.058-5.566-6.09-9.834-8.829-12.435-10.057a9.763,9.763,0,0,0-4.322-1.209.588.588,0,0,1-.115-1.168Z" transform="translate(-2111.826 -2116.089)" fill="#0a5c60"/>
    <path id="Path_983" data-name="Path 983" d="M2056.07,2113.729a.589.589,0,0,1,.755.344,164.99,164.99,0,0,1,6.9,27.617c2.5,15.043,4.25,37.683-1.612,59.986a.586.586,0,1,1-1.134-.3c5.794-22.092,4.059-44.536,1.582-59.471a163.6,163.6,0,0,0-6.841-27.424.586.586,0,0,1,.354-.755Z" transform="translate(-1987.198 -2109.496)" fill="#0a5c60"/>
    <path id="Path_984" data-name="Path 984" d="M2083.418,2099.013a5.42,5.42,0,0,1,.9,6.715,3.636,3.636,0,0,1-5.66.978,5.4,5.4,0,0,1-.9-6.7A3.648,3.648,0,0,1,2083.418,2099.013Z" transform="translate(-2011.962 -2098.07)" fill="#feb84f"/>
    <ellipse id="Ellipse_1" data-name="Ellipse 1" cx="4.79" cy="4.051" rx="4.79" ry="4.051" transform="translate(0.45 10.491) rotate(-92.17)" fill="#feb84f"/>
    <path id="Path_985" data-name="Path 985" d="M2001.019,2247.289c1.295-2.092,2.568-4.029,3.584-5.442,1.534-2.135,1.776-2.171,2.009-2.2a.537.537,0,0,1,.29,1.016c-.905.749-8.292,11.252-15.268,26.406-6.125,13.294-13,32.681-10.973,49.529a.538.538,0,0,1-.467.591h-.062a.539.539,0,0,1-.537-.471c-2.079-17.318,5.045-37.185,11.387-50.8A181.22,181.22,0,0,1,2001.019,2247.289Zm5.746-6.591Z" transform="translate(-1907.809 -2201.612)" fill="#0a5c60"/>
    <path id="Path_986" data-name="Path 986" d="M1966.133,2221.809c2.232-1.477,5.077-.521,6.356,2.15a6.023,6.023,0,0,1-1.722,7.487c-2.229,1.479-5.08.521-6.358-2.136A6.044,6.044,0,0,1,1966.133,2221.809Z" transform="translate(-1869.571 -2188.063)" fill="#feb84f"/>
    <path id="Path_987" data-name="Path 987" d="M2037.193,2146.47a9.385,9.385,0,0,1,1.193-.887c-.392-2.5.335-3.946,1.319-4.784a3.692,3.692,0,0,1,4.835.113c32.211,26.365,37.18,70.565,37.339,71.685,3.573,25.113-5,19.728-8.54,24.176a5.158,5.158,0,0,0-.621,1.005c-2.984,6.283-4.991,8.252-10.987,8.628s-6.678-19.673-9.671-29.406-18.83-59.651-18.441-64.233A9.69,9.69,0,0,1,2037.193,2146.47Z" transform="translate(-1997.953 -2128.701)" fill="#b3d0d1"/>
    <path id="Path_988" data-name="Path 988" d="M2072.642,2265.641l.986,1.977,1.953,3.969c.317.665.661,1.319.953,2l.889,2.025,1.781,4.053c.148.339.3.672.438,1.016l.4,1.034.806,2.063.806,2.066c.269.693.553,1.37.779,2.076a117.5,117.5,0,0,1,4.726,17.087l.376,2.19c.056.365.137.725.175,1.1l.126,1.1.242,2.208c.051.741.086,1.483.124,2.221.013.371.043.739.041,1.109l-.017,1.113v1.112c-.013.368-.056.739-.086,1.107s-.056.739-.1,1.106l-.169,1.1a12.49,12.49,0,0,1-.553,2.149,12.424,12.424,0,0,0,.335-2.173l.075-1.1c.013-.366,0-.731,0-1.1v-1.1l-.059-1.1-.06-1.093c-.022-.366-.08-.728-.116-1.091-.086-.725-.153-1.453-.242-2.179l-.357-2.149c-.2-1.445-.556-2.869-.846-4.3l-.229-1.074c-.086-.355-.185-.707-.269-1.075l-.537-2.125-.268-1.074c-.086-.355-.18-.707-.293-1.056l-.639-2.1c-.792-2.818-1.8-5.571-2.737-8.344-.22-.7-.5-1.376-.755-2.063l-.779-2.055-.78-2.058-.389-1.025c-.131-.344-.269-.68-.417-1.019l-1.721-4.064c-.564-1.343-1.1-2.724-1.708-4.059l-1.778-4.03c-.591-1.343-1.145-2.711-1.787-4.029-1.233-2.67-2.471-5.338-3.653-8.04,1.469,2.552,2.883,5.136,4.3,7.723C2071.973,2264.338,2072.319,2264.989,2072.642,2265.641Z" transform="translate(-2012.514 -2213.547)" fill="#3ea399"/>
    <path id="Path_989" data-name="Path 989" d="M2034.814,2145.583c-.392-2.5.336-3.946,1.319-4.784a3.692,3.692,0,0,1,4.835.113c32.211,26.365,37.181,70.565,37.339,71.685,3.573,25.113-5,19.728-8.539,24.176,1.561-34.942-26.594-76.313-36.154-90.3A9.312,9.312,0,0,1,2034.814,2145.583Z" transform="translate(-1994.381 -2128.701)" fill="#8bc3c0"/>
    <path id="Path_990" data-name="Path 990" d="M2114.085,2252.234a5.65,5.65,0,0,1,3.25-.785c12.134.519,24.16,10.938,30.193,18,6.111,7.129,5.5,19.973,5.472,20.534l1.184-9.891c8.93,12.706,9.44,29.715,9.44,29.715l2.084-6.235c1.955,5.773,2.023,24.013,2.023,24.013-10.8-1.765-18-11.188-18.221-11.479a4.2,4.2,0,0,0,5.136-.556c-16.732-3.393-20.6-27.4-23.972-36.264s-9.286-15.137-15.58-20.685c-2.894-2.549-2.931-4.271-2.125-5.373A3.7,3.7,0,0,1,2114.085,2252.234Z" transform="translate(-2104.149 -2210.239)" fill="#8bc3c0"/>
    <path id="Path_991" data-name="Path 991" d="M2143.338,2286.719c7.585,11.623,24.394,45.706,24.394,45.706-10.8-1.765-18-11.188-18.221-11.479a4.2,4.2,0,0,0,5.136-.555c-16.732-3.393-20.6-27.4-23.972-36.264s-9.286-15.137-15.58-20.684c-2.894-2.549-2.931-4.271-2.125-5.373C2127.769,2262.261,2136.335,2275.99,2143.338,2286.719Z" transform="translate(-2104.149 -2215.09)" fill="#62b5ad"/>
    <path id="Path_992" data-name="Path 992" d="M2117.07,2304.723l1.429,1.811.712.911c.236.3.475.606.7.921l1.344,1.881c.9,1.252,1.813,2.493,2.656,3.78,3.492,5.069,6.656,10.358,9.745,15.679s5.94,10.775,8.688,16.279c.688,1.373,1.373,2.751,2.031,4.14s1.324,2.775,1.972,4.169c1.284,2.791,2.552,5.6,3.718,8.44q-4.261-8.179-8.6-16.291c-1.459-2.687-2.918-5.4-4.406-8.081l-2.23-4.029-2.281-3.995c-.744-1.343-1.528-2.657-2.3-3.98s-1.541-2.652-2.344-3.957l-2.375-3.938q-1.233-1.94-2.45-3.89c-3.312-5.155-6.745-10.237-10.519-15.091q1.531,1.719,3.049,3.46C2116.13,2303.493,2116.59,2304.111,2117.07,2304.723Z" transform="translate(-2086.488 -2245.376)" fill="#3ea399"/>
    <path id="Path_993" data-name="Path 993" d="M1947.684,2321.985l2.289,8.354s-1.12-13.52-.285-15.437,9.4-14.449,13.517-15.954c3.538-1.295,11.226-2.34,13.332-2.608h0c.342-.048.538-.07.538-.07l-4.137,11.1-10.917,4.371,9.238-.538s-7.046,18.318-8.077,19.167-11.1,7.6-11.1,7.6l10.049-3.253s-4.892,15.088-7.7,17.165c-2.743,2.033-10.316,6.477-10.673,6.686h0s-3.908-12.961-2.727-19.832S1947.684,2321.985,1947.684,2321.985Z" transform="translate(-1867.366 -2243.029)" fill="#2c8790"/>
    <path id="Path_994" data-name="Path 994" d="M1973.587,2296.379h0c.341-.048.538-.069.538-.069l-4.137,11.1-10.917,4.371,9.238-.537s-7.046,18.317-8.077,19.167-11.1,7.6-11.1,7.6l10.049-3.253s-4.891,15.089-7.7,17.165c-2.743,2.034-10.315,6.477-10.673,6.686,1.988-10.7,8.985-32.915,17.151-46.772C1963.09,2303.141,1969.147,2298.658,1973.587,2296.379Z" transform="translate(-1864.416 -2243.058)" fill="#38a8ad"/>
    <path id="Path_995" data-name="Path 995" d="M2015.312,2400.622q.393-1.307.806-2.613c.269-.871.57-1.732.865-2.6,1.176-3.452,2.484-6.858,3.951-10.208q.556-1.249,1.134-2.488t1.214-2.452q.626-1.217,1.316-2.4c.231-.393.47-.783.725-1.161.129-.188.269-.376.4-.556.069-.092.142-.177.22-.269a.627.627,0,0,1,.269-.2.618.618,0,0,0-.25.22c-.067.091-.129.185-.19.268-.121.191-.231.389-.342.589-.212.4-.416.805-.613,1.211-.4.806-.76,1.646-1.122,2.476s-.707,1.668-1.042,2.512-.674,1.682-1,2.531c-1.29,3.384-2.469,6.812-3.57,10.263q-.411,1.3-.806,2.6t-.779,2.6c-.51,1.735-.975,3.492-1.445,5.235q-.348,1.311-.717,2.619l-.36,1.311-.373,1.308c-.5,1.746-1,3.492-1.6,5.227a60.921,60.921,0,0,1,1.814-10.788C2014.286,2404.122,2014.791,2402.36,2015.312,2400.622Z" transform="translate(-1935.63 -2301.107)" fill="#0a5c60"/>
    <path id="Path_9584" data-name="Path 9584" d="M1767.251,2737.142c3.089-4.046,11.376-10.114,17.415-14.237a12.524,12.524,0,0,1,13.746-.269c6.087,3.825,14.737,9.493,19.685,13.74a29.53,29.53,0,0,1,5.81,6.815,12.478,12.478,0,0,1-4.548,17.461c-8.6,4.865-19.757,8-25.25,9.377a12.543,12.543,0,0,1-6.514-.126l-.123-.035-16.2-4.687a12.477,12.477,0,0,1-8.832-14.216C1763.375,2745.805,1764.89,2740.213,1767.251,2737.142Z" transform="translate(-1722.25 -2633.732)" fill="#97daff"/>
    <path id="Path_9585" data-name="Path 9585" d="M1900.983,2737.521c3.089-4.046,11.376-10.114,17.415-14.237a12.5,12.5,0,0,1,5.2-2.052c-3.868,8.214-8.271,18.6-9.318,25.294-1,6.372,2.871,15.9,6.917,23.7l-16.2-4.687a12.478,12.478,0,0,1-8.832-14.215C1897.107,2746.183,1898.622,2740.59,1900.983,2737.521Z" transform="translate(-1855.982 -2634.11)" fill="#69d1ff"/>
    <path id="Path_9586" data-name="Path 9586" d="M1829.137,2731.709c2.619,1.2,10.624,4.33,13.55,10.275,1.252,2.541-.736,5.278-3.275,4.029-4.193-2.074-11.887-2.778-13.7-4.763C1822.585,2737.815,1825.562,2730.07,1829.137,2731.709Z" transform="translate(-1756.234 -2641.609)" fill="#d7f3ff"/>
  </g>
</svg>
