<svg id="Group_19773" data-name="Group 19773" xmlns="http://www.w3.org/2000/svg" width="169.17" height="105.925" viewBox="0 0 169.17 105.925">
  <g id="Group_5072" data-name="Group 5072" transform="translate(69.179)" opacity="0.2">
    <path id="Path_1005" data-name="Path 1005" d="M3480.273,2651.371a36.439,36.439,0,0,0-19.812-3.7c-10.038.954-11.784,6.7-11.875,7.013l.338-5.159c-8.289,5.863-10.381,12.451-10.617,15.221a2.205,2.205,0,0,0,.117,1.314c5.7,5.673,20.73-.546,20.73-.546l-2.4-4.185s5.24,3.166,14.133,3.709c8.321.505,16.191,11.166,18.668,6a6.439,6.439,0,0,0,.435-1.314C3491.8,2661.724,3482.151,2652.352,3480.273,2651.371Z" transform="translate(-3408.256 -2626.052)" fill="#89c2c1"/>
    <path id="Path_1006" data-name="Path 1006" d="M3466.415,2681.264c-13.62-1.577-23.631,5.911-28.179,10.241a2.211,2.211,0,0,0,.117,1.314c5.7,5.673,20.73-.546,20.73-.546l-2.4-4.185s5.24,3.166,14.134,3.71c8.321.506,16.191,11.166,18.667,6C3486.189,2691.9,3479.093,2682.735,3466.415,2681.264Z" transform="translate(-3408.2 -2652.809)" fill="#3ea399"/>
    <path id="Path_1007" data-name="Path 1007" d="M3461.35,2679c-.382,0-.764,0-1.146.02l-1.148.059-1.144.113a30.675,30.675,0,0,0-4.517.869,32.759,32.759,0,0,0-4.328,1.557,30.083,30.083,0,0,0-4.029,2.2c-.322.2-.633.429-.95.641s-.619.447-.924.677c-.606.475-1.193.952-1.755,1.468s-1.106,1.045-1.617,1.617q-.194.209-.376.428c-.121.146-.247.29-.364.439s-.233.3-.346.453a2.726,2.726,0,0,0-.3.487,6.009,6.009,0,0,1,.771-.821c.137-.129.273-.259.415-.382s.279-.25.424-.37c.571-.487,1.151-.96,1.755-1.4a35.837,35.837,0,0,1,3.742-2.446,35.268,35.268,0,0,1,8.192-3.4,31.744,31.744,0,0,1,4.344-.9,36.446,36.446,0,0,1,4.435-.358,48.264,48.264,0,0,1,8.944.772,31.3,31.3,0,0,0-8.933-1.694C3462.116,2679,3461.734,2679,3461.35,2679Z" transform="translate(-3408.36 -2651.174)" fill="#199"/>
    <path id="Path_1031" data-name="Path 1031" d="M3387.311,2581.454s-8.976-13.464-13.766-14.96-14.06-12.868-20.346-17.952c-3.841-3.117-11.523-5.113-16.9-6.188-3.378-.685-5.838-.992-5.838-.992-22.44,7.777-40.694,40.091-40.694,40.091a.049.049,0,0,0,.02.014c9.7,9.223,35.508,17.158,58.25,21.906,20.077,4.207,37.762,5.914,39.867,3.811,2.384-2.386,2.07-9.484,1.247-15.624C3388.429,2586.134,3387.311,2581.454,3387.311,2581.454Z" transform="translate(-3289.771 -2541.36)" fill="#97daff"/>
    <path id="Path_1032" data-name="Path 1032" d="M3557.2,2570.44c-4.784-1.494-14.061-12.87-20.344-17.954-3.852-3.117-11.534-5.111-16.9-6.186,8.1,9.208,20.72,23.427,24.379,31.321,3.776,8.154-5.8,21.6-12.641,29.7,20.077,4.207,37.762,5.913,39.865,3.809,4.488-4.488-.6-25.729-.6-25.729S3561.99,2571.935,3557.2,2570.44Z" transform="translate(-3473.424 -2545.301)" fill="#69d1ff"/>
    <path id="Path_1033" data-name="Path 1033" d="M3411.914,2564.4c-4-.887-13.9,7.181-19.278,13.381-1.25,1.439,1.793,3.014,3.629,2.495,15.077-4.264,25.6,5.487,26.989-.453C3424.84,2573.023,3418.037,2565.765,3411.914,2564.4Z" transform="translate(-3371.606 -2559.692)" fill="#d7f3ff"/>
    <path id="Path_1034" data-name="Path 1034" d="M3379.237,2754.318c-41.806,14.012-88.2-13.869-89.357-14.568,9.7,9.223,35.508,17.158,58.25,21.906,20.077,4.207,37.762,5.913,39.867,3.811,2.384-2.385,2.07-9.483,1.247-15.623Z" transform="translate(-3289.857 -2699.643)" fill="#48c4ef"/>
  </g>
  <g id="Group_5074" data-name="Group 5074" transform="translate(62.17 62.051)" opacity="0.2">
    <path id="Path_1005-2" data-name="Path 1005" d="M3465.889,2650.049a23.958,23.958,0,0,0-13.026-2.431c-6.6.627-7.748,4.4-7.808,4.611l.222-3.392c-5.45,3.854-6.825,8.187-6.981,10.008a1.448,1.448,0,0,0,.077.863c3.748,3.73,13.63-.358,13.63-.358l-1.576-2.751a21.9,21.9,0,0,0,9.293,2.439c5.471.332,10.646,7.342,12.274,3.947a4.247,4.247,0,0,0,.285-.865C3473.466,2656.856,3467.124,2650.694,3465.889,2650.049Z" transform="translate(-3418.539 -2633.402)" fill="#89c2c1"/>
    <path id="Path_1006-2" data-name="Path 1006" d="M3456.754,2681.19c-8.955-1.037-15.537,3.887-18.528,6.734a1.451,1.451,0,0,0,.078.864c3.748,3.729,13.629-.359,13.629-.359l-1.576-2.752a21.906,21.906,0,0,0,9.292,2.439c5.471.333,10.646,7.341,12.274,3.946C3469.755,2688.186,3465.09,2682.158,3456.754,2681.19Z" transform="translate(-3418.478 -2662.481)" fill="#3ea399"/>
    <path id="Path_1007-2" data-name="Path 1007" d="M3453.492,2679c-.251,0-.5,0-.753.013l-.755.038-.752.075a20.127,20.127,0,0,0-2.97.572,21.576,21.576,0,0,0-2.846,1.023,19.825,19.825,0,0,0-2.649,1.447c-.211.133-.417.282-.625.422s-.407.294-.608.446c-.4.312-.784.626-1.154.965s-.727.687-1.063,1.063q-.127.138-.247.282c-.08.1-.162.19-.239.288s-.153.2-.228.3a1.806,1.806,0,0,0-.194.32,3.952,3.952,0,0,1,.506-.54c.09-.085.179-.17.272-.251s.184-.165.279-.243c.375-.321.756-.632,1.154-.92a23.621,23.621,0,0,1,2.46-1.608,23.209,23.209,0,0,1,5.386-2.239,20.958,20.958,0,0,1,2.856-.591,24.009,24.009,0,0,1,2.917-.235,31.714,31.714,0,0,1,5.88.508,20.557,20.557,0,0,0-5.873-1.114C3454,2679,3453.745,2679,3453.492,2679Z" transform="translate(-3418.652 -2660.704)" fill="#199"/>
    <path id="Path_1031-2" data-name="Path 1031" d="M3353.9,2567.721s-5.9-8.853-9.051-9.836-9.245-8.461-13.377-11.8c-2.525-2.05-7.576-3.362-11.109-4.069-2.221-.451-3.839-.653-3.839-.653-14.754,5.114-26.755,26.36-26.755,26.36a.038.038,0,0,0,.013.009c6.381,6.064,23.347,11.281,38.3,14.4,13.2,2.766,24.828,3.888,26.212,2.506,1.567-1.569,1.361-6.236.82-10.272C3354.638,2570.8,3353.9,2567.721,3353.9,2567.721Z" transform="translate(-3289.771 -2541.36)" fill="#97daff"/>
    <path id="Path_1032-2" data-name="Path 1032" d="M3544.446,2562.172c-3.145-.982-9.245-8.462-13.376-11.8-2.532-2.05-7.583-3.36-11.109-4.067,5.329,6.054,13.623,15.4,16.029,20.594,2.483,5.361-3.816,14.2-8.312,19.526,13.2,2.766,24.829,3.888,26.211,2.5,2.951-2.951-.392-16.917-.392-16.917S3547.594,2563.154,3544.446,2562.172Z" transform="translate(-3489.363 -2545.643)" fill="#69d1ff"/>
    <path id="Path_1033-2" data-name="Path 1033" d="M3405.21,2564.381c-2.627-.583-9.137,4.721-12.675,8.8-.822.946,1.179,1.982,2.386,1.64,9.913-2.8,16.833,3.608,17.745-.3C3413.709,2570.047,3409.236,2565.276,3405.21,2564.381Z" transform="translate(-3378.708 -2561.283)" fill="#d7f3ff"/>
    <path id="Path_1034-2" data-name="Path 1034" d="M3348.631,2749.329c-27.487,9.213-57.991-9.118-58.751-9.578,6.38,6.064,23.346,11.281,38.3,14.4,13.2,2.766,24.828,3.888,26.212,2.505,1.567-1.568,1.361-6.235.82-10.272Z" transform="translate(-3289.865 -2713.38)" fill="#48c4ef"/>
  </g>
  <g id="Group_5075" data-name="Group 5075" transform="translate(0 35.171)" opacity="0.2">
    <path id="Path_1005-3" data-name="Path 1005" d="M3455.2,2649.066a14.68,14.68,0,0,0-7.981-1.49c-4.043.384-4.747,2.7-4.784,2.825l.136-2.078c-3.339,2.362-4.182,5.016-4.277,6.132a.885.885,0,0,0,.047.529c2.3,2.286,8.351-.219,8.351-.219l-.966-1.686a13.418,13.418,0,0,0,5.694,1.494c3.352.2,6.522,4.5,7.521,2.418a2.63,2.63,0,0,0,.175-.53C3459.837,2653.237,3455.952,2649.461,3455.2,2649.066Z" transform="translate(-3426.184 -2638.867)" fill="#89c2c1"/>
    <path id="Path_1006-3" data-name="Path 1006" d="M3449.571,2681.135a14.275,14.275,0,0,0-11.352,4.125.89.89,0,0,0,.047.53c2.3,2.285,8.351-.22,8.351-.22l-.966-1.686a13.423,13.423,0,0,0,5.694,1.495c3.352.2,6.522,4.5,7.52,2.418C3457.537,2685.421,3454.678,2681.728,3449.571,2681.135Z" transform="translate(-3426.12 -2669.672)" fill="#3ea399"/>
    <path id="Path_1007-3" data-name="Path 1007" d="M3447.651,2679c-.154,0-.308,0-.462.008l-.463.024-.461.045a12.366,12.366,0,0,0-1.819.35,13.192,13.192,0,0,0-1.744.627,12.21,12.21,0,0,0-1.623.886c-.129.082-.255.173-.382.259s-.25.18-.373.273c-.244.191-.48.383-.707.591s-.445.421-.651.651q-.078.085-.151.173c-.049.059-.1.117-.146.177s-.094.122-.14.183a1.106,1.106,0,0,0-.119.2,2.423,2.423,0,0,1,.31-.331c.056-.052.11-.1.167-.154s.112-.1.171-.149c.23-.2.464-.387.707-.563a14.526,14.526,0,0,1,1.507-.985,14.212,14.212,0,0,1,3.3-1.372,12.809,12.809,0,0,1,1.75-.363,14.645,14.645,0,0,1,1.787-.144,19.415,19.415,0,0,1,3.6.311,12.605,12.605,0,0,0-3.6-.683C3447.959,2679,3447.805,2679,3447.651,2679Z" transform="translate(-3426.304 -2667.79)" fill="#199"/>
    <path id="Path_1031-3" data-name="Path 1031" d="M3329.063,2557.511s-3.616-5.424-5.545-6.027-5.664-5.184-8.2-7.232c-1.547-1.256-4.642-2.06-6.807-2.493-1.361-.276-2.352-.4-2.352-.4-9.04,3.133-16.393,16.151-16.393,16.151a.02.02,0,0,0,.008.006c3.909,3.715,14.3,6.912,23.466,8.825,8.087,1.694,15.212,2.382,16.06,1.535.96-.961.834-3.82.5-6.294C3329.514,2559.4,3329.063,2557.511,3329.063,2557.511Z" transform="translate(-3289.771 -2541.36)" fill="#97daff"/>
    <path id="Path_1032-3" data-name="Path 1032" d="M3534.962,2556.025c-1.927-.6-5.664-5.185-8.2-7.233-1.552-1.256-4.646-2.059-6.807-2.492,3.265,3.709,8.347,9.437,9.821,12.617,1.521,3.285-2.338,8.7-5.092,11.964,8.087,1.695,15.212,2.382,16.059,1.534,1.808-1.808-.24-10.365-.24-10.365S3536.892,2556.627,3534.962,2556.025Z" transform="translate(-3501.214 -2545.898)" fill="#69d1ff"/>
    <path id="Path_1033-3" data-name="Path 1033" d="M3400.226,2564.364c-1.61-.357-5.6,2.893-7.766,5.391-.5.58.722,1.214,1.461,1,6.074-1.718,10.314,2.21,10.872-.182C3405.434,2567.836,3402.693,2564.912,3400.226,2564.364Z" transform="translate(-3383.989 -2562.466)" fill="#d7f3ff"/>
    <path id="Path_1034-3" data-name="Path 1034" d="M3325.877,2745.619c-16.841,5.645-35.531-5.587-36-5.869,3.909,3.715,14.3,6.912,23.465,8.825,8.088,1.695,15.212,2.382,16.06,1.535.96-.961.834-3.82.5-6.293Z" transform="translate(-3289.871 -2723.594)" fill="#48c4ef"/>
  </g>
</svg>
