<svg id="Group_19758" data-name="Group 19758" xmlns="http://www.w3.org/2000/svg" width="125.111" height="99.146" viewBox="0 0 125.111 99.146">
  <g id="Group_5071" data-name="Group 5071" transform="translate(0 41.267)" opacity="0.2">
    <path id="Path_1005" data-name="Path 1005" d="M3474.7,2650.859a31.6,31.6,0,0,0-17.185-3.208c-8.707.828-10.222,5.808-10.3,6.083l.293-4.475c-7.19,5.085-9,10.8-9.209,13.2a1.916,1.916,0,0,0,.1,1.139c4.945,4.92,17.981-.473,17.981-.473l-2.08-3.63a28.9,28.9,0,0,0,12.259,3.218c7.218.438,14.044,9.685,16.192,5.206a5.548,5.548,0,0,0,.377-1.14C3484.7,2659.839,3476.333,2651.71,3474.7,2650.859Z" transform="translate(-3412.237 -2628.898)" fill="#89c2c1"/>
    <path id="Path_1006" data-name="Path 1006" d="M3462.675,2681.235c-11.814-1.368-20.5,5.128-24.443,8.884a1.918,1.918,0,0,0,.1,1.14c4.945,4.92,17.981-.473,17.981-.473l-2.079-3.63a28.9,28.9,0,0,0,12.259,3.218c7.218.438,14.044,9.685,16.192,5.206C3479.826,2690.464,3473.671,2682.512,3462.675,2681.235Z" transform="translate(-3412.18 -2656.554)" fill="#3ea399"/>
    <path id="Path_1007" data-name="Path 1007" d="M3458.308,2679c-.332,0-.663,0-.994.018l-1,.051-.993.1a26.577,26.577,0,0,0-3.917.754,28.379,28.379,0,0,0-3.754,1.35,26.056,26.056,0,0,0-3.495,1.91c-.279.175-.549.372-.824.556s-.537.388-.8.587c-.526.412-1.034.826-1.522,1.273s-.959.906-1.4,1.4q-.168.182-.326.372c-.1.127-.214.251-.316.381s-.2.261-.3.393a2.358,2.358,0,0,0-.256.422,5.224,5.224,0,0,1,.668-.712c.119-.112.236-.225.36-.332s.242-.217.368-.321c.495-.422,1-.833,1.522-1.213a31.111,31.111,0,0,1,3.245-2.122,30.592,30.592,0,0,1,7.106-2.953,27.57,27.57,0,0,1,3.768-.78,31.615,31.615,0,0,1,3.847-.31,41.871,41.871,0,0,1,7.758.67,27.159,27.159,0,0,0-7.749-1.469C3458.972,2679,3458.641,2679,3458.308,2679Z" transform="translate(-3412.345 -2654.864)" fill="#199"/>
    <path id="Path_1031" data-name="Path 1031" d="M3374.376,2576.137s-7.786-11.679-11.94-12.976-12.2-11.162-17.647-15.572c-3.332-2.7-10-4.435-14.656-5.368-2.93-.594-5.064-.861-5.064-.861-19.465,6.746-35.3,34.775-35.3,34.775a.041.041,0,0,0,.017.012c8.417,8,30.8,14.883,50.526,19,17.414,3.649,32.754,5.129,34.58,3.305,2.068-2.069,1.8-8.226,1.082-13.552C3375.346,2580.2,3374.376,2576.137,3374.376,2576.137Z" transform="translate(-3289.771 -2541.36)" fill="#97daff"/>
    <path id="Path_1032" data-name="Path 1032" d="M3552.262,2567.239c-4.149-1.3-12.2-11.163-17.646-15.573-3.341-2.7-10-4.433-14.656-5.366,7.03,7.987,17.972,20.32,21.146,27.168,3.275,7.072-5.035,18.733-10.965,25.76,17.415,3.649,32.754,5.129,34.578,3.3,3.893-3.893-.518-22.318-.518-22.318S3556.417,2568.535,3552.262,2567.239Z" transform="translate(-3479.595 -2545.434)" fill="#69d1ff"/>
    <path id="Path_1033" data-name="Path 1033" d="M3409.318,2564.4c-3.467-.77-12.054,6.229-16.722,11.607-1.084,1.249,1.555,2.615,3.147,2.164,13.078-3.7,22.207,4.759,23.41-.393C3420.531,2571.871,3414.63,2565.575,3409.318,2564.4Z" transform="translate(-3374.356 -2560.308)" fill="#d7f3ff"/>
    <path id="Path_1034" data-name="Path 1034" d="M3367.387,2752.387c-36.262,12.154-76.5-12.03-77.507-12.636,8.417,8,30.8,14.882,50.525,19,17.414,3.649,32.755,5.129,34.58,3.305,2.068-2.069,1.8-8.226,1.083-13.552Z" transform="translate(-3289.861 -2704.962)" fill="#48c4ef"/>
  </g>
  <g id="Group_5073" data-name="Group 5073" transform="translate(73.849 23.316)" opacity="0.2">
    <path id="Path_1005-2" data-name="Path 1005" d="M3459.808,2649.49a18.676,18.676,0,0,0-10.157-1.9c-5.146.489-6.041,3.433-6.088,3.6l.173-2.645c-4.249,3.006-5.322,6.384-5.443,7.8a1.133,1.133,0,0,0,.06.674c2.923,2.908,10.628-.28,10.628-.28l-1.229-2.145a17.081,17.081,0,0,0,7.246,1.9c4.266.259,8.3,5.724,9.571,3.077a3.315,3.315,0,0,0,.223-.674C3465.716,2654.8,3460.771,2649.993,3459.808,2649.49Z" transform="translate(-3422.886 -2636.51)" fill="#89c2c1"/>
    <path id="Path_1006-2" data-name="Path 1006" d="M3452.67,2681.159c-6.983-.808-12.115,3.031-14.447,5.251a1.131,1.131,0,0,0,.06.674c2.923,2.908,10.627-.28,10.627-.28l-1.229-2.146a17.071,17.071,0,0,0,7.246,1.9c4.266.259,8.3,5.724,9.57,3.077C3462.807,2686.614,3459.169,2681.913,3452.67,2681.159Z" transform="translate(-3422.825 -2666.571)" fill="#3ea399"/>
    <path id="Path_1007-2" data-name="Path 1007" d="M3450.17,2679c-.2,0-.392,0-.588.01l-.589.03-.586.058a15.753,15.753,0,0,0-2.316.446,16.8,16.8,0,0,0-2.219.8,15.392,15.392,0,0,0-2.066,1.128c-.165.1-.324.22-.487.329s-.317.229-.474.347c-.311.244-.611.488-.9.753s-.567.536-.83.829c-.066.072-.13.145-.193.22s-.126.148-.187.225-.119.154-.177.232a1.41,1.41,0,0,0-.151.25,3.043,3.043,0,0,1,.4-.421c.07-.066.139-.133.212-.2s.143-.128.217-.19c.292-.25.59-.492.9-.717a18.4,18.4,0,0,1,1.918-1.254,18.083,18.083,0,0,1,4.2-1.746,16.284,16.284,0,0,1,2.227-.461,18.7,18.7,0,0,1,2.274-.183,24.7,24.7,0,0,1,4.585.4,16.034,16.034,0,0,0-4.58-.869C3450.563,2679,3450.368,2679,3450.17,2679Z" transform="translate(-3423.004 -2664.734)" fill="#199"/>
    <path id="Path_1031-2" data-name="Path 1031" d="M3339.776,2561.915s-4.6-6.9-7.057-7.669-7.209-6.6-10.431-9.2c-1.969-1.6-5.908-2.621-8.663-3.173-1.732-.351-2.993-.509-2.993-.509-11.5,3.987-20.862,20.554-20.862,20.554a.023.023,0,0,0,.01.007c4.975,4.729,18.2,8.8,29.863,11.231,10.293,2.157,19.359,3.032,20.438,1.954,1.222-1.223,1.061-4.862.639-8.01C3340.35,2564.314,3339.776,2561.915,3339.776,2561.915Z" transform="translate(-3289.771 -2541.36)" fill="#97daff"/>
    <path id="Path_1032-2" data-name="Path 1032" d="M3539.052,2558.676c-2.452-.766-7.208-6.6-10.429-9.2-1.975-1.6-5.914-2.62-8.663-3.171,4.155,4.721,10.622,12.01,12.5,16.058,1.936,4.18-2.975,11.072-6.48,15.225,10.292,2.157,19.359,3.032,20.438,1.953,2.3-2.3-.306-13.191-.306-13.191S3541.508,2559.442,3539.052,2558.676Z" transform="translate(-3496.103 -2545.788)" fill="#69d1ff"/>
    <path id="Path_1033-2" data-name="Path 1033" d="M3402.376,2564.372c-2.049-.455-7.125,3.681-9.884,6.86-.641.738.919,1.545,1.861,1.279,7.729-2.186,13.125,2.813,13.836-.232C3409,2568.79,3405.515,2565.069,3402.376,2564.372Z" transform="translate(-3381.711 -2561.956)" fill="#d7f3ff"/>
    <path id="Path_1034-2" data-name="Path 1034" d="M3335.69,2747.219c-21.433,7.184-45.218-7.11-45.811-7.469,4.975,4.728,18.2,8.8,29.863,11.231,10.293,2.157,19.36,3.031,20.438,1.954,1.222-1.223,1.061-4.862.64-8.01Z" transform="translate(-3289.868 -2719.189)" fill="#48c4ef"/>
  </g>
  <g id="Group_5076" data-name="Group 5076" transform="translate(15.154)" opacity="0.2">
    <path id="Path_1005-3" data-name="Path 1005" d="M3452.952,2648.86a12.736,12.736,0,0,0-6.923-1.292c-3.507.333-4.117,2.34-4.149,2.451l.118-1.8c-2.9,2.049-3.627,4.351-3.71,5.319a.773.773,0,0,0,.041.459c1.992,1.982,7.244-.19,7.244-.19l-.838-1.462a11.642,11.642,0,0,0,4.938,1.3c2.908.177,5.658,3.9,6.523,2.1a2.279,2.279,0,0,0,.152-.459C3456.979,2652.478,3453.608,2649.2,3452.952,2648.86Z" transform="translate(-3427.788 -2640.013)" fill="#89c2c1"/>
    <path id="Path_1006-3" data-name="Path 1006" d="M3448.064,2681.124a12.38,12.38,0,0,0-9.847,3.579.768.768,0,0,0,.041.459c1.992,1.982,7.243-.191,7.243-.191l-.837-1.462a11.645,11.645,0,0,0,4.938,1.3c2.907.177,5.657,3.9,6.523,2.1A10.786,10.786,0,0,0,3448.064,2681.124Z" transform="translate(-3427.723 -2671.181)" fill="#3ea399"/>
    <path id="Path_1007-3" data-name="Path 1007" d="M3446.425,2679c-.134,0-.267,0-.4.007l-.4.021-.4.04a10.7,10.7,0,0,0-1.578.3,11.416,11.416,0,0,0-1.512.544,10.551,10.551,0,0,0-1.408.769c-.113.071-.221.15-.332.224s-.216.156-.323.237c-.212.166-.417.333-.613.513s-.386.365-.565.565c-.045.049-.089.1-.131.15s-.086.1-.127.153-.081.105-.121.158a.958.958,0,0,0-.1.17,2.068,2.068,0,0,1,.27-.287c.048-.045.095-.091.145-.134s.1-.087.148-.129c.2-.17.4-.336.613-.489a12.576,12.576,0,0,1,1.308-.854,12.334,12.334,0,0,1,2.862-1.19,11.176,11.176,0,0,1,1.518-.314,12.722,12.722,0,0,1,1.55-.125,16.865,16.865,0,0,1,3.125.27,10.931,10.931,0,0,0-3.121-.592C3446.693,2679,3446.559,2679,3446.425,2679Z" transform="translate(-3427.909 -2669.277)" fill="#199"/>
    <path id="Path_1031-3" data-name="Path 1031" d="M3323.853,2555.369s-3.136-4.7-4.81-5.227-4.913-4.5-7.109-6.273c-1.342-1.089-4.026-1.786-5.9-2.162-1.181-.239-2.04-.347-2.04-.347-7.841,2.718-14.219,14.009-14.219,14.009a.013.013,0,0,0,.007,0c3.391,3.223,12.407,6,20.354,7.655,7.015,1.47,13.195,2.066,13.93,1.331.833-.833.723-3.314.436-5.459C3324.244,2557,3323.853,2555.369,3323.853,2555.369Z" transform="translate(-3289.771 -2541.36)" fill="#97daff"/>
    <path id="Path_1032-3" data-name="Path 1032" d="M3532.973,2554.735c-1.671-.522-4.913-4.5-7.108-6.274-1.346-1.089-4.03-1.786-5.9-2.162,2.832,3.218,7.24,8.186,8.518,10.944,1.32,2.849-2.028,7.546-4.417,10.377,7.015,1.47,13.2,2.066,13.93,1.331,1.568-1.568-.208-8.99-.208-8.99S3534.646,2555.257,3532.973,2554.735Z" transform="translate(-3503.7 -2545.951)" fill="#69d1ff"/>
    <path id="Path_1033-3" data-name="Path 1033" d="M3399.181,2564.361c-1.4-.31-4.855,2.509-6.736,4.676-.437.5.626,1.053,1.268.872,5.269-1.49,8.946,1.917,9.43-.158C3403.7,2567.372,3401.32,2564.836,3399.181,2564.361Z" transform="translate(-3385.096 -2562.714)" fill="#d7f3ff"/>
    <path id="Path_1034-3" data-name="Path 1034" d="M3321.1,2744.841c-14.608,4.9-30.819-4.846-31.223-5.09,3.391,3.223,12.407,5.995,20.354,7.655,7.015,1.47,13.2,2.066,13.93,1.332.833-.834.723-3.314.436-5.459Z" transform="translate(-3289.872 -2725.736)" fill="#48c4ef"/>
  </g>
</svg>
