<svg xmlns="http://www.w3.org/2000/svg" width="240.138" height="150.361" viewBox="0 0 240.138 150.361">
  <g id="Group_5109" data-name="Group 5109" transform="translate(-1648.72 -3323.639)">
    <g id="Group_5072" data-name="Group 5072" transform="translate(45 1604.319)" opacity="0.2">
      <path id="Path_1005" data-name="Path 1005" d="M3497.889,2652.99a51.72,51.72,0,0,0-28.123-5.249c-14.249,1.354-16.728,9.5-16.857,9.955l.479-7.324c-11.766,8.322-14.736,17.675-15.072,21.607a3.132,3.132,0,0,0,.166,1.865c8.093,8.052,29.427-.775,29.427-.775l-3.4-5.94s7.438,4.494,20.063,5.266c11.812.717,22.984,15.85,26.5,8.52a9.122,9.122,0,0,0,.617-1.866C3514.247,2667.686,3500.556,2654.382,3497.889,2652.99Z" transform="translate(-1693.741 -897.729)" fill="#89c2c1"/>
      <path id="Path_1006" data-name="Path 1006" d="M3478.248,2681.354c-19.334-2.238-33.544,8.391-40,14.538a3.138,3.138,0,0,0,.166,1.865c8.093,8.052,29.426-.775,29.426-.775l-3.4-5.941s7.438,4.494,20.063,5.266c11.812.718,22.983,15.85,26.5,8.52C3506.317,2696.457,3496.244,2683.443,3478.248,2681.354Z" transform="translate(-1693.692 -921.641)" fill="#3ea399"/>
      <path id="Path_1007" data-name="Path 1007" d="M3470.973,2679c-.543,0-1.085,0-1.627.029l-1.63.083-1.624.161a43.515,43.515,0,0,0-6.411,1.234,46.492,46.492,0,0,0-6.144,2.21,42.679,42.679,0,0,0-5.719,3.125c-.457.287-.9.609-1.349.909s-.878.635-1.312.962c-.861.674-1.693,1.352-2.491,2.083s-1.57,1.484-2.3,2.3q-.275.3-.534.608c-.172.207-.35.411-.516.623s-.33.427-.491.643a3.865,3.865,0,0,0-.419.691,8.529,8.529,0,0,1,1.094-1.165c.2-.184.387-.368.589-.543s.4-.356.6-.525c.81-.692,1.633-1.363,2.491-1.986a50.854,50.854,0,0,1,5.312-3.473,50.077,50.077,0,0,1,11.629-4.833,45.1,45.1,0,0,1,6.167-1.277,51.761,51.761,0,0,1,6.3-.508,68.508,68.508,0,0,1,12.7,1.1,44.42,44.42,0,0,0-12.681-2.405C3472.061,2679,3471.518,2679,3470.973,2679Z" transform="translate(-1693.834 -920.18)" fill="#199"/>
      <path id="Path_1031" data-name="Path 1031" d="M3428.229,2598.273s-12.741-19.113-19.54-21.236-19.959-18.266-28.881-25.484c-5.452-4.425-16.357-7.258-23.985-8.784-4.8-.973-8.288-1.409-8.288-1.409-31.854,11.04-57.765,56.91-57.765,56.91a.071.071,0,0,0,.028.02c13.775,13.092,50.4,24.356,82.686,31.1,28.5,5.972,53.6,8.394,56.591,5.409,3.384-3.386,2.939-13.462,1.771-22.177C3429.817,2604.917,3428.229,2598.273,3428.229,2598.273Z" transform="translate(-1587.851 -822.039)" fill="#97daff"/>
      <path id="Path_1032" data-name="Path 1032" d="M3572.824,2580.568c-6.79-2.121-19.959-18.269-28.878-25.486-5.467-4.425-16.373-7.255-23.985-8.781,11.5,13.071,29.412,33.254,34.606,44.461,5.361,11.574-8.239,30.657-17.944,42.156,28.5,5.972,53.6,8.394,56.588,5.407,6.371-6.371-.847-36.523-.847-36.523S3579.622,2582.688,3572.824,2580.568Z" transform="translate(-1751.982 -825.562)" fill="#69d1ff"/>
      <path id="Path_1033" data-name="Path 1033" d="M3420.124,2564.433c-5.673-1.26-19.727,10.193-27.365,18.995-1.774,2.043,2.545,4.279,5.151,3.541,21.4-6.052,36.342,7.789,38.311-.642C3438.473,2576.666,3428.816,2566.364,3420.124,2564.433Z" transform="translate(-1660.987 -838.422)" fill="#d7f3ff"/>
      <path id="Path_1034" data-name="Path 1034" d="M3416.723,2760.43c-59.344,19.89-125.2-19.687-126.843-20.679,13.775,13.092,50.4,24.355,82.686,31.1,28.5,5.972,53.6,8.394,56.591,5.409,3.384-3.386,2.939-13.462,1.771-22.177Z" transform="translate(-1587.929 -963.497)" fill="#48c4ef"/>
    </g>
    <g id="Group_5074" data-name="Group 5074" transform="translate(35.051 1692.401)" opacity="0.2">
      <path id="Path_1005-2" data-name="Path 1005" d="M3477.472,2651.113a34.009,34.009,0,0,0-18.491-3.451c-9.368.89-11,6.249-11.083,6.545l.315-4.815c-7.736,5.472-9.688,11.621-9.91,14.207a2.057,2.057,0,0,0,.109,1.226c5.321,5.295,19.348-.509,19.348-.509l-2.238-3.906s4.891,2.955,13.191,3.462c7.766.472,15.111,10.421,17.423,5.6a6.036,6.036,0,0,0,.405-1.227C3488.227,2660.776,3479.225,2652.029,3477.472,2651.113Z" transform="translate(-1708.338 -908.162)" fill="#89c2c1"/>
      <path id="Path_1006-2" data-name="Path 1006" d="M3464.534,2681.249c-12.712-1.471-22.055,5.517-26.3,9.559a2.06,2.06,0,0,0,.11,1.227c5.32,5.294,19.347-.51,19.347-.51l-2.237-3.906s4.891,2.955,13.191,3.463c7.766.472,15.111,10.421,17.423,5.6C3482.989,2691.179,3476.367,2682.623,3464.534,2681.249Z" transform="translate(-1708.281 -935.371)" fill="#3ea399"/>
      <path id="Path_1007-2" data-name="Path 1007" d="M3459.82,2679c-.357,0-.713,0-1.07.019l-1.072.054-1.068.106a28.573,28.573,0,0,0-4.215.811,30.563,30.563,0,0,0-4.04,1.453,28.1,28.1,0,0,0-3.76,2.054c-.3.189-.591.4-.887.6s-.578.417-.863.632c-.566.443-1.113.888-1.638,1.37s-1.032.976-1.509,1.509q-.181.2-.351.4c-.113.136-.23.27-.339.409s-.217.281-.323.423a2.585,2.585,0,0,0-.275.454,5.588,5.588,0,0,1,.719-.766c.128-.121.254-.242.387-.357s.26-.234.4-.345c.532-.455,1.074-.9,1.638-1.306a33.481,33.481,0,0,1,3.492-2.283,32.946,32.946,0,0,1,7.646-3.177,29.706,29.706,0,0,1,4.055-.84,33.968,33.968,0,0,1,4.14-.334,45.022,45.022,0,0,1,8.347.721,29.188,29.188,0,0,0-8.337-1.581C3460.534,2679,3460.178,2679,3459.82,2679Z" transform="translate(-1708.444 -933.709)" fill="#199"/>
      <path id="Path_1031-2" data-name="Path 1031" d="M3380.806,2578.78s-8.377-12.566-12.848-13.962-13.123-12.01-18.989-16.755c-3.585-2.91-10.755-4.772-15.77-5.776-3.153-.64-5.449-.927-5.449-.927-20.944,7.259-37.98,37.418-37.98,37.418a.049.049,0,0,0,.019.013c9.057,8.608,33.141,16.014,54.366,20.446,18.738,3.926,35.244,5.519,37.208,3.557,2.225-2.227,1.932-8.851,1.165-14.582C3381.85,2583.148,3380.806,2578.78,3380.806,2578.78Z" transform="translate(-1587.851 -822.039)" fill="#97daff"/>
      <path id="Path_1032-2" data-name="Path 1032" d="M3554.718,2568.831c-4.465-1.394-13.124-12.012-18.987-16.757-3.595-2.91-10.765-4.77-15.77-5.774,7.564,8.594,19.338,21.865,22.753,29.233,3.525,7.609-5.417,20.157-11.8,27.718,18.738,3.927,35.245,5.519,37.207,3.555,4.189-4.189-.557-24.014-.557-24.014S3559.187,2570.225,3554.718,2568.831Z" transform="translate(-1774.608 -826.047)" fill="#69d1ff"/>
      <path id="Path_1033-2" data-name="Path 1033" d="M3410.608,2564.4c-3.73-.828-12.97,6.7-17.992,12.489-1.167,1.343,1.673,2.813,3.387,2.328,14.072-3.979,23.895,5.121,25.188-.422C3422.673,2572.443,3416.323,2565.669,3410.608,2564.4Z" transform="translate(-1671.069 -840.681)" fill="#d7f3ff"/>
      <path id="Path_1034-2" data-name="Path 1034" d="M3373.278,2753.347c-39.018,13.078-82.319-12.943-83.4-13.6,9.057,8.608,33.14,16.013,54.365,20.446,18.738,3.927,35.244,5.519,37.208,3.557,2.224-2.226,1.932-8.851,1.164-14.582Z" transform="translate(-1587.939 -982.997)" fill="#48c4ef"/>
    </g>
    <g id="Group_5075" data-name="Group 5075" transform="translate(-53.2 1654.244)" opacity="0.2">
      <path id="Path_1005-3" data-name="Path 1005" d="M3462.292,2649.718a20.842,20.842,0,0,0-11.329-2.114c-5.74.545-6.738,3.829-6.791,4.01l.193-2.95c-4.74,3.353-5.936,7.12-6.071,8.7a1.258,1.258,0,0,0,.067.751c3.26,3.244,11.854-.312,11.854-.312l-1.371-2.393a19.049,19.049,0,0,0,8.082,2.121c4.758.289,9.259,6.385,10.675,3.433a3.71,3.71,0,0,0,.249-.752C3468.881,2655.639,3463.366,2650.279,3462.292,2649.718Z" transform="translate(-1719.191 -915.919)" fill="#89c2c1"/>
      <path id="Path_1006-3" data-name="Path 1006" d="M3454.338,2681.171c-7.788-.9-13.513,3.38-16.114,5.856a1.26,1.26,0,0,0,.067.752c3.26,3.244,11.854-.312,11.854-.312l-1.371-2.393a19.05,19.05,0,0,0,8.082,2.122c4.758.289,9.258,6.385,10.675,3.432C3465.646,2687.256,3461.588,2682.013,3454.338,2681.171Z" transform="translate(-1719.129 -945.579)" fill="#3ea399"/>
      <path id="Path_1007-3" data-name="Path 1007" d="M3451.527,2679c-.219,0-.437,0-.656.011l-.657.034-.654.065a17.531,17.531,0,0,0-2.583.5,18.71,18.71,0,0,0-2.475.89,17.245,17.245,0,0,0-2.3,1.259c-.184.116-.362.245-.543.367s-.354.256-.529.387c-.347.271-.682.544-1,.839s-.632.6-.925.925q-.111.12-.215.245c-.07.083-.141.166-.208.251s-.133.172-.2.259a1.569,1.569,0,0,0-.169.278,3.411,3.411,0,0,1,.441-.469c.078-.074.156-.148.237-.219s.159-.143.243-.211c.326-.279.658-.549,1-.8a20.536,20.536,0,0,1,2.14-1.4,20.185,20.185,0,0,1,4.684-1.947,18.232,18.232,0,0,1,2.484-.515,20.86,20.86,0,0,1,2.537-.2,27.584,27.584,0,0,1,5.114.442,17.887,17.887,0,0,0-5.108-.969C3451.965,2679,3451.747,2679,3451.527,2679Z" transform="translate(-1719.306 -943.767)" fill="#199"/>
      <path id="Path_1031-3" data-name="Path 1031" d="M3345.547,2564.287s-5.133-7.7-7.872-8.555-8.04-7.358-11.635-10.266c-2.2-1.783-6.589-2.924-9.662-3.539-1.932-.392-3.339-.568-3.339-.568-12.832,4.448-23.27,22.926-23.27,22.926a.029.029,0,0,0,.011.008c5.549,5.274,20.3,9.812,33.31,12.527,11.48,2.405,21.594,3.381,22.8,2.179,1.363-1.364,1.184-5.423.714-8.934C3346.187,2566.963,3345.547,2564.287,3345.547,2564.287Z" transform="translate(-1587.851 -822.039)" fill="#97daff"/>
      <path id="Path_1032-3" data-name="Path 1032" d="M3541.256,2560.1c-2.735-.854-8.041-7.36-11.633-10.267-2.2-1.783-6.6-2.923-9.662-3.538,4.635,5.266,11.848,13.4,13.94,17.911,2.16,4.662-3.319,12.35-7.229,16.982,11.48,2.406,21.594,3.381,22.8,2.178,2.567-2.567-.341-14.713-.341-14.713S3543.994,2560.959,3541.256,2560.1Z" transform="translate(-1791.43 -826.408)" fill="#69d1ff"/>
      <path id="Path_1033-3" data-name="Path 1033" d="M3403.533,2564.375c-2.285-.507-7.947,4.106-11.024,7.652-.715.823,1.025,1.724,2.075,1.427,8.622-2.438,14.64,3.138,15.433-.259C3410.926,2569.3,3407.035,2565.153,3403.533,2564.375Z" transform="translate(-1678.565 -842.36)" fill="#d7f3ff"/>
      <path id="Path_1034-3" data-name="Path 1034" d="M3340.978,2748.081c-23.906,8.012-50.437-7.93-51.1-8.33,5.549,5.274,20.3,9.811,33.309,12.527,11.481,2.406,21.594,3.381,22.8,2.179,1.363-1.364,1.184-5.423.713-8.934Z" transform="translate(-1587.948 -997.495)" fill="#48c4ef"/>
    </g>
  </g>
</svg>
