<svg xmlns="http://www.w3.org/2000/svg" width="278.191" height="210.62" viewBox="0 0 278.191 210.62">
  <g id="Group_14274" data-name="Group 14274" transform="translate(-803.123 -1742.635)">
    <g id="Group_5056" data-name="Group 5056" transform="translate(368.622 -420.401)">
      <path id="Path_1038" data-name="Path 1038" d="M1824.769,2738.264c-3.3-4.322-12.153-10.8-18.6-15.209a13.38,13.38,0,0,0-14.684-.287c-6.5,4.086-15.743,10.141-21.029,14.679a31.561,31.561,0,0,0-6.207,7.28,13.331,13.331,0,0,0,4.859,18.654c9.183,5.2,21.107,8.549,26.975,10.018a13.407,13.407,0,0,0,6.959-.135l.132-.038,17.308-5.008a13.33,13.33,0,0,0,9.435-15.187C1828.91,2747.519,1827.291,2741.544,1824.769,2738.264Z" transform="translate(-1234.646 -400.137)" fill="#97daff"/>
      <path id="Path_1039" data-name="Path 1039" d="M1920.118,2738.633c-3.3-4.322-12.153-10.8-18.6-15.21a13.354,13.354,0,0,0-5.553-2.192c4.132,8.775,8.836,19.875,9.955,27.021,1.065,6.807-3.068,16.986-7.39,25.32l17.307-5.008a13.33,13.33,0,0,0,9.436-15.187C1924.259,2747.888,1922.64,2741.913,1920.118,2738.633Z" transform="translate(-1329.995 -400.506)" fill="#69d1ff"/>
      <path id="Path_1040" data-name="Path 1040" d="M1839.283,2731.724c-2.8,1.283-11.35,4.626-14.475,10.977-1.337,2.715.786,5.639,3.5,4.3,4.48-2.215,12.7-2.967,14.636-5.088C1846.282,2738.247,1843.1,2729.973,1839.283,2731.724Z" transform="translate(-1278.969 -407.816)" fill="#d7f3ff"/>
    </g>
    <g id="Group_5058" data-name="Group 5058" transform="translate(157.275 -311.259)">
      <path id="Path_982" data-name="Path 982" d="M2179.424,2122.716c-.287-.029-6.956-.551-18.653,12.113-6.779,7.341-13.9,17.658-21.173,30.664-9.071,16.228-18.4,36.733-27.739,60.922a.628.628,0,0,0,1.171.453c11.556-29.96,29.329-70.042,48.369-90.868,5.946-6.506,10.506-9.432,13.284-10.744a10.425,10.425,0,0,1,4.617-1.292.628.628,0,0,0,.123-1.248Z" transform="translate(-1255.913 -61.742)" fill="#0a5c60"/>
      <path id="Path_983" data-name="Path 983" d="M2066.341,2113.732a.628.628,0,0,0-.806.367,176.233,176.233,0,0,0-7.367,29.5c-2.669,16.071-4.54,40.257,1.722,64.084a.626.626,0,1,0,1.211-.318c-6.19-23.6-4.336-47.578-1.69-63.533a174.838,174.838,0,0,1,7.309-29.3.626.626,0,0,0-.379-.806Z" transform="translate(-1215.879 -55.316)" fill="#0a5c60"/>
      <path id="Path_984" data-name="Path 984" d="M2078.771,2099.078a5.791,5.791,0,0,0-.961,7.174,3.884,3.884,0,0,0,6.046,1.045,5.766,5.766,0,0,0,.961-7.157A3.9,3.9,0,0,0,2078.771,2099.078Z" transform="translate(-1231.071 -44.176)" fill="#feb84f"/>
      <ellipse id="Ellipse_1" data-name="Ellipse 1" cx="5.117" cy="4.328" rx="5.117" ry="4.328" transform="translate(914.909 2064.774) rotate(-87.83)" fill="#feb84f"/>
      <path id="Path_985" data-name="Path 985" d="M1985.827,2247.812c-1.383-2.236-2.744-4.3-3.828-5.814-1.639-2.281-1.9-2.319-2.146-2.353a.574.574,0,0,0-.31,1.085c.967.8,8.859,12.021,16.311,28.209,6.543,14.2,13.887,34.913,11.723,52.912a.574.574,0,0,0,.5.632h.066a.574.574,0,0,0,.574-.5c2.221-18.5-5.389-39.726-12.165-54.272A193.481,193.481,0,0,0,1985.827,2247.812Zm-6.139-7.042Z" transform="translate(-1161.365 -145.12)" fill="#0a5c60"/>
      <path id="Path_986" data-name="Path 986" d="M1971.241,2221.857c-2.385-1.578-5.424-.556-6.79,2.3s-.542,6.417,1.84,8,5.427.556,6.793-2.281S1973.625,2223.438,1971.241,2221.857Z" transform="translate(-1150.36 -131.911)" fill="#feb84f"/>
      <path id="Path_987" data-name="Path 987" d="M2082.263,2146.915a10.012,10.012,0,0,0-1.274-.947c.419-2.669-.358-4.215-1.409-5.111a3.944,3.944,0,0,0-5.166.12c-34.411,28.167-39.72,75.385-39.889,76.582-3.817,26.829,5.346,21.076,9.123,25.828a5.493,5.493,0,0,1,.663,1.073c3.188,6.712,5.332,8.816,11.737,9.218s7.134-21.018,10.331-31.415,20.117-63.725,19.7-68.621A10.35,10.35,0,0,0,2082.263,2146.915Z" transform="translate(-1200.145 -74.038)" fill="#b3d0d1"/>
      <path id="Path_988" data-name="Path 988" d="M2083.975,2266.3l-1.053,2.112-2.086,4.239c-.339.711-.706,1.409-1.019,2.132l-.95,2.164-1.9,4.33c-.158.362-.324.717-.468,1.085l-.427,1.1-.861,2.2-.861,2.207c-.287.74-.591,1.463-.832,2.218a125.543,125.543,0,0,0-5.048,18.254l-.4,2.339c-.061.39-.146.775-.187,1.171l-.135,1.179-.258,2.359c-.055.792-.092,1.584-.132,2.373-.014.4-.046.789-.043,1.185l.018,1.188v1.188c.014.393.06.789.092,1.182s.06.789.106,1.182l.18,1.174a13.331,13.331,0,0,0,.591,2.3,13.267,13.267,0,0,1-.358-2.321l-.081-1.171c-.014-.39,0-.781,0-1.171v-1.171l.063-1.171.063-1.168c.023-.39.086-.778.124-1.165.092-.775.164-1.552.258-2.328l.381-2.3c.218-1.544.594-3.065.9-4.592l.244-1.148c.092-.379.2-.755.287-1.148l.574-2.27.287-1.148c.092-.379.192-.755.313-1.128l.683-2.244c.846-3.011,1.92-5.952,2.924-8.914.235-.746.537-1.469.806-2.2l.832-2.2.833-2.2.416-1.1c.141-.367.287-.726.445-1.088l1.839-4.342c.6-1.435,1.174-2.91,1.825-4.336l1.9-4.3c.632-1.435,1.223-2.9,1.909-4.3,1.317-2.853,2.64-5.7,3.9-8.589-1.57,2.726-3.079,5.487-4.592,8.25C2084.689,2264.911,2084.319,2265.605,2083.975,2266.3Z" transform="translate(-1224.172 -156.756)" fill="#3ea399"/>
      <path id="Path_989" data-name="Path 989" d="M2080.989,2145.968c.419-2.669-.358-4.215-1.409-5.111a3.944,3.944,0,0,0-5.166.12c-34.411,28.167-39.72,75.385-39.889,76.582-3.817,26.829,5.346,21.076,9.123,25.828-1.667-37.33,28.41-81.527,38.624-96.472A9.977,9.977,0,0,0,2080.989,2145.968Z" transform="translate(-1200.145 -74.038)" fill="#8bc3c0"/>
      <path id="Path_990" data-name="Path 990" d="M2169.832,2252.288a6.043,6.043,0,0,0-3.473-.838c-12.962.554-25.81,11.686-32.256,19.227-6.529,7.616-5.88,21.337-5.846,21.937l-1.266-10.566c-9.539,13.574-10.084,31.745-10.084,31.745l-2.227-6.66c-2.089,6.167-2.161,25.653-2.161,25.653,11.542-1.885,19.228-11.953,19.466-12.263a4.485,4.485,0,0,1-5.488-.594c17.875-3.625,22.005-29.272,25.61-38.742s9.921-16.171,16.644-22.1c3.091-2.724,3.131-4.563,2.27-5.74A3.978,3.978,0,0,0,2169.832,2252.288Z" transform="translate(-1256.408 -153.531)" fill="#8bc3c0"/>
      <path id="Path_991" data-name="Path 991" d="M2138.58,2288.676c-8.1,12.417-26.06,48.829-26.06,48.829,11.542-1.886,19.228-11.953,19.466-12.263a4.486,4.486,0,0,1-5.488-.594c17.875-3.625,22.005-29.271,25.61-38.742s9.921-16.171,16.644-22.1c3.091-2.723,3.131-4.563,2.27-5.74C2155.213,2262.547,2146.062,2277.214,2138.58,2288.676Z" transform="translate(-1256.408 -158.26)" fill="#62b5ad"/>
      <path id="Path_992" data-name="Path 992" d="M2147.8,2305.082l-1.527,1.934-.76.973c-.253.324-.508.648-.743.984l-1.435,2.009c-.958,1.337-1.937,2.663-2.838,4.038-3.731,5.415-7.111,11.066-10.411,16.751s-6.345,11.51-9.281,17.39c-.735,1.467-1.467,2.939-2.17,4.422s-1.414,2.965-2.106,4.454c-1.372,2.982-2.727,5.978-3.972,9.017q4.552-8.738,9.183-17.4c1.558-2.87,3.117-5.769,4.706-8.632l2.382-4.3,2.436-4.268c.795-1.435,1.633-2.838,2.457-4.253s1.647-2.833,2.5-4.227l2.537-4.207q1.317-2.072,2.617-4.156c3.538-5.507,7.206-10.936,11.238-16.122q-1.636,1.837-3.257,3.7C2148.808,2303.767,2148.317,2304.427,2147.8,2305.082Z" transform="translate(-1256.436 -187.787)" fill="#3ea399"/>
      <path id="Path_993" data-name="Path 993" d="M1972.208,2323.742l-2.445,8.925s1.2-14.443.3-16.492-10.044-15.436-14.441-17.043c-3.779-1.383-11.993-2.5-14.242-2.786h0c-.365-.052-.574-.075-.574-.075l4.419,11.864,11.663,4.669-9.869-.574s7.527,19.569,8.629,20.476,11.861,8.125,11.861,8.125l-10.736-3.476s5.226,16.12,8.222,18.338c2.93,2.172,11.02,6.919,11.4,7.143h0s4.176-13.846,2.913-21.187S1972.208,2323.742,1972.208,2323.742Z" transform="translate(-1133.974 -185.498)" fill="#2c8790"/>
      <path id="Path_994" data-name="Path 994" d="M1941.384,2296.385h0c-.365-.052-.574-.074-.574-.074l4.419,11.863,11.663,4.669-9.869-.574s7.527,19.569,8.629,20.476,11.861,8.124,11.861,8.124l-10.736-3.475s5.226,16.12,8.222,18.338c2.93,2.172,11.02,6.919,11.4,7.143-2.124-11.427-9.6-35.163-18.323-49.968C1952.6,2303.607,1946.128,2298.818,1941.384,2296.385Z" transform="translate(-1133.974 -185.526)" fill="#38a8ad"/>
      <path id="Path_995" data-name="Path 995" d="M2023.656,2402.326q-.419-1.4-.861-2.792c-.287-.93-.609-1.851-.924-2.775-1.257-3.688-2.654-7.326-4.221-10.905q-.594-1.334-1.211-2.658t-1.3-2.62q-.669-1.3-1.406-2.562c-.247-.419-.5-.836-.775-1.24-.138-.2-.287-.4-.428-.594-.074-.1-.152-.19-.235-.287a.664.664,0,0,0-.287-.212.661.661,0,0,1,.267.236c.072.1.138.2.2.287.129.2.247.416.365.628.227.425.445.861.655,1.294.424.861.812,1.759,1.2,2.646s.755,1.782,1.114,2.683.72,1.8,1.064,2.7c1.378,3.616,2.637,7.277,3.814,10.965q.439,1.384.861,2.772t.832,2.781c.545,1.854,1.042,3.731,1.544,5.593q.373,1.4.766,2.8l.385,1.4.4,1.4c.534,1.865,1.073,3.731,1.7,5.584a65.049,65.049,0,0,0-1.937-11.525C2024.752,2406.065,2024.213,2404.183,2023.656,2402.326Z" transform="translate(-1184.742 -242.119)" fill="#0a5c60"/>
      <path id="Path_9584" data-name="Path 9584" d="M1824.769,2738.264c-3.3-4.322-12.153-10.8-18.6-15.209a13.38,13.38,0,0,0-14.684-.287c-6.5,4.086-15.743,10.141-21.029,14.679a31.561,31.561,0,0,0-6.207,7.28,13.331,13.331,0,0,0,4.859,18.654c9.183,5.2,21.107,8.549,26.975,10.018a13.407,13.407,0,0,0,6.959-.135l.132-.038,17.308-5.008a13.33,13.33,0,0,0,9.435-15.187C1828.91,2747.519,1827.291,2741.544,1824.769,2738.264Z" transform="translate(-948.806 -573.896)" fill="#97daff"/>
      <path id="Path_9585" data-name="Path 9585" d="M1920.118,2738.633c-3.3-4.322-12.153-10.8-18.6-15.21a13.354,13.354,0,0,0-5.553-2.192c4.132,8.775,8.836,19.875,9.955,27.021,1.065,6.807-3.068,16.986-7.39,25.32l17.307-5.008a13.33,13.33,0,0,0,9.436-15.187C1924.259,2747.888,1922.64,2741.913,1920.118,2738.633Z" transform="translate(-1044.154 -574.265)" fill="#69d1ff"/>
      <path id="Path_9586" data-name="Path 9586" d="M1839.283,2731.724c-2.8,1.283-11.35,4.626-14.475,10.977-1.337,2.715.786,5.639,3.5,4.3,4.48-2.215,12.7-2.967,14.636-5.088C1846.282,2738.247,1843.1,2729.973,1839.283,2731.724Z" transform="translate(-993.128 -581.575)" fill="#d7f3ff"/>
    </g>
    <g id="Group_5057" data-name="Group 5057" transform="translate(10.834 -484.63)">
      <path id="Path_1041" data-name="Path 1041" d="M2717.442,2816.43c-1.722-2.27-6.385-5.676-9.757-8a7.039,7.039,0,0,0-7.717-.155,108.44,108.44,0,0,0-11.045,7.711,16.608,16.608,0,0,0-3.26,3.822,6.994,6.994,0,0,0,2.552,9.792,61.086,61.086,0,0,0,14.176,5.263,7.048,7.048,0,0,0,3.653-.069l.072-.02,9.091-2.632a7,7,0,0,0,4.956-7.978C2719.615,2821.291,2718.765,2818.152,2717.442,2816.43Z" transform="translate(-1892.328 -461.805)" fill="#97daff"/>
      <path id="Path_1042" data-name="Path 1042" d="M2767.506,2816.636c-1.721-2.27-6.385-5.676-9.757-8a7,7,0,0,0-2.919-1.148c2.169,4.608,4.643,10.44,5.229,14.194.574,3.575-1.61,8.922-3.88,13.3l9.091-2.631a7,7,0,0,0,4.956-7.978C2769.678,2821.5,2768.829,2818.358,2767.506,2816.636Z" transform="translate(-1942.392 -462.011)" fill="#69d1ff"/>
      <path id="Path_1043" data-name="Path 1043" d="M2725,2813.016c-1.473.675-5.964,2.431-7.605,5.766-.7,1.435.413,2.961,1.84,2.256,2.35-1.165,6.669-1.558,7.688-2.675C2728.674,2816.443,2727,2812.094,2725,2813.016Z" transform="translate(-1915.544 -465.861)" fill="#d7f3ff"/>
    </g>
  </g>
</svg>
