<svg id="Group_17159" data-name="Group 17159" xmlns="http://www.w3.org/2000/svg" xmlns:xlink="http://www.w3.org/1999/xlink" width="515.253" height="478.261" viewBox="0 0 515.253 478.261">
  <defs>
    <linearGradient id="linear-gradient" x1="0.223" y1="0.037" x2="0.828" y2="1.585" gradientUnits="objectBoundingBox">
      <stop offset="0" stop-color="#aa80f9"/>
      <stop offset="0.996" stop-color="#6165d7"/>
    </linearGradient>
    <linearGradient id="linear-gradient-2" x1="1" y1="0.5" x2="0" y2="0.5" xlink:href="#linear-gradient"/>
    <linearGradient id="linear-gradient-7" x1="0.235" y1="0.655" x2="0.537" y2="0.239" gradientUnits="objectBoundingBox">
      <stop offset="0" stop-color="#444b8c"/>
      <stop offset="0.996" stop-color="#26264f"/>
    </linearGradient>
    <linearGradient id="linear-gradient-8" x1="-0.03" y1="0.184" x2="0.924" y2="0.71" gradientUnits="objectBoundingBox">
      <stop offset="0" stop-color="#311944"/>
      <stop offset="1" stop-color="#893976"/>
    </linearGradient>
    <linearGradient id="linear-gradient-9" x1="-0.661" y1="0.338" x2="1.352" y2="0.651" xlink:href="#linear-gradient-8"/>
    <linearGradient id="linear-gradient-10" x1="-9.032" y1="-6.601" x2="-10.311" y2="2.562" xlink:href="#linear-gradient-8"/>
    <linearGradient id="linear-gradient-11" x1="-37.124" y1="1.793" x2="-37.186" y2="-2.385" gradientUnits="objectBoundingBox">
      <stop offset="0" stop-color="#ffc444"/>
      <stop offset="0.996" stop-color="#f36f56"/>
    </linearGradient>
    <linearGradient id="linear-gradient-12" x1="-3.045" y1="0.5" x2="-4.045" y2="0.5" xlink:href="#linear-gradient-7"/>
    <linearGradient id="linear-gradient-13" x1="-0.174" y1="-0.563" x2="1.258" y2="1.746" xlink:href="#linear-gradient-11"/>
    <linearGradient id="linear-gradient-14" x1="-0.607" y1="-0.428" x2="1.24" y2="1.08" xlink:href="#linear-gradient-11"/>
    <linearGradient id="linear-gradient-15" x1="-1.672" y1="-0.474" x2="0.571" y2="0.544" xlink:href="#linear-gradient-11"/>
    <linearGradient id="linear-gradient-16" x1="-12.074" y1="0.5" x2="-13.074" y2="0.5" xlink:href="#linear-gradient-11"/>
    <linearGradient id="linear-gradient-17" x1="-3.597" y1="-0.812" x2="0.05" y2="0.415" xlink:href="#linear-gradient-11"/>
    <linearGradient id="linear-gradient-18" x1="-0.179" y1="0.243" x2="1.305" y2="0.638" xlink:href="#linear-gradient-7"/>
    <linearGradient id="linear-gradient-19" x1="0.03" y1="0.331" x2="0.809" y2="0.577" xlink:href="#linear-gradient-7"/>
    <linearGradient id="linear-gradient-20" x1="-0.25" y1="0.333" x2="2.787" y2="0.771" xlink:href="#linear-gradient-11"/>
    <linearGradient id="linear-gradient-21" x1="0.582" y1="1.472" x2="0.69" y2="3.043" gradientUnits="objectBoundingBox">
      <stop offset="0" stop-color="#ff9085"/>
      <stop offset="1" stop-color="#fb6fbb"/>
    </linearGradient>
    <linearGradient id="linear-gradient-22" x1="0.262" y1="0.308" x2="0.931" y2="0.965" gradientUnits="objectBoundingBox">
      <stop offset="0" stop-color="#ffc444"/>
      <stop offset="0.888" stop-color="#f47854"/>
      <stop offset="0.996" stop-color="#f36f56"/>
    </linearGradient>
    <linearGradient id="linear-gradient-23" x1="1" y1="0.5" x2="0" y2="0.5" xlink:href="#linear-gradient-7"/>
    <linearGradient id="linear-gradient-24" x1="-0.802" y1="0" x2="0.583" y2="0.457" xlink:href="#linear-gradient-8"/>
    <linearGradient id="linear-gradient-25" x1="0.18" y1="-0.576" x2="0.662" y2="0.986" xlink:href="#linear-gradient-11"/>
    <linearGradient id="linear-gradient-26" x1="0.118" y1="-0.591" x2="0.633" y2="1.018" xlink:href="#linear-gradient-11"/>
    <linearGradient id="linear-gradient-29" x1="0.674" y1="1.293" x2="0.448" y2="0.483" xlink:href="#linear-gradient-8"/>
    <linearGradient id="linear-gradient-30" x1="0.769" y1="-0.453" x2="0.432" y2="0.77" xlink:href="#linear-gradient-11"/>
    <linearGradient id="linear-gradient-32" x1="9.708" y1="-3.524" x2="9.475" y2="6.387" xlink:href="#linear-gradient-7"/>
    <linearGradient id="linear-gradient-33" x1="2.983" y1="-1.189" x2="2.683" y2="2.684" xlink:href="#linear-gradient-7"/>
    <linearGradient id="linear-gradient-34" x1="4.487" y1="0.957" x2="4.537" y2="0.445" xlink:href="#linear-gradient-8"/>
    <linearGradient id="linear-gradient-35" x1="2.052" y1="0.99" x2="2.086" y2="0.442" xlink:href="#linear-gradient-8"/>
    <linearGradient id="linear-gradient-36" x1="0.614" y1="0.021" x2="0.41" y2="1.147" gradientUnits="objectBoundingBox">
      <stop offset="0.004" stop-color="#e38ddd"/>
      <stop offset="1" stop-color="#9571f6"/>
    </linearGradient>
    <linearGradient id="linear-gradient-37" x1="0.608" y1="0.022" x2="0.396" y2="1.148" xlink:href="#linear-gradient-36"/>
    <linearGradient id="linear-gradient-38" x1="0.462" y1="0.649" x2="0.66" y2="1.827" xlink:href="#linear-gradient-36"/>
    <linearGradient id="linear-gradient-39" x1="0.387" y1="0.192" x2="0.672" y2="1.573" xlink:href="#linear-gradient-36"/>
    <linearGradient id="linear-gradient-40" x1="0.74" y1="0.909" x2="1.301" y2="1.9" xlink:href="#linear-gradient-36"/>
    <linearGradient id="linear-gradient-41" x1="0.565" y1="1.168" x2="0.071" y2="-1.394" xlink:href="#linear-gradient-22"/>
    <linearGradient id="linear-gradient-42" x1="0.591" y1="-0.317" x2="0.911" y2="-3.147" xlink:href="#linear-gradient-22"/>
    <linearGradient id="linear-gradient-43" x1="0.362" y1="0.343" x2="1.096" y2="1.508" xlink:href="#linear-gradient-36"/>
    <linearGradient id="linear-gradient-44" x1="0.852" y1="-1.124" x2="0.429" y2="0.828" xlink:href="#linear-gradient-11"/>
    <linearGradient id="linear-gradient-45" x1="0.789" y1="-0.758" x2="0.436" y2="0.669" gradientUnits="objectBoundingBox">
      <stop offset="0" stop-color="#ffc444"/>
      <stop offset="0.864" stop-color="#f57a54"/>
      <stop offset="0.996" stop-color="#f36f56"/>
    </linearGradient>
    <linearGradient id="linear-gradient-46" x1="0.756" y1="1.46" x2="0.477" y2="0.336" xlink:href="#linear-gradient-8"/>
    <linearGradient id="linear-gradient-47" x1="0.886" y1="-0.227" x2="-0.075" y2="1.566" xlink:href="#linear-gradient-45"/>
    <linearGradient id="linear-gradient-48" x1="0.835" y1="-0.488" x2="0.131" y2="2.1" xlink:href="#linear-gradient-45"/>
    <linearGradient id="linear-gradient-51" x1="8.281" y1="0.02" x2="6.99" y2="0.02" xlink:href="#linear-gradient-7"/>
    <linearGradient id="linear-gradient-52" x1="1.124" y1="0.516" x2="-0.223" y2="0.484" xlink:href="#linear-gradient-7"/>
    <linearGradient id="linear-gradient-53" x1="11.022" y1="-0.481" x2="9.866" y2="-0.481" xlink:href="#linear-gradient-7"/>
    <linearGradient id="linear-gradient-54" x1="28.412" y1="-0.83" x2="26.458" y2="-0.83" xlink:href="#linear-gradient-7"/>
    <linearGradient id="linear-gradient-55" x1="1.352" y1="0.534" x2="-0.413" y2="0.465" xlink:href="#linear-gradient-7"/>
    <linearGradient id="linear-gradient-56" x1="31.215" y1="-2.15" x2="29.8" y2="-2.15" xlink:href="#linear-gradient-7"/>
    <linearGradient id="linear-gradient-57" x1="-7.798" y1="7.467" x2="-8.315" y2="8.748" gradientUnits="objectBoundingBox">
      <stop offset="0" stop-color="#893976"/>
      <stop offset="1" stop-color="#311944"/>
    </linearGradient>
    <linearGradient id="linear-gradient-58" x1="-0.483" y1="-0.385" x2="1.35" y2="1.229" xlink:href="#linear-gradient-57"/>
  </defs>
  <path id="Path_18434" data-name="Path 18434" d="M841.275,909.38c-14.807,10.49-36.879-22.331-92.175-35.741-47.994-11.639-59.707,6.214-106.282-4.7-36.216-8.489-44.049-22.779-93.115-51.731-84.327-49.757-103.5-32.514-138.262-63.017-55.894-49.054-82.572-160.588-32.919-231.377C421.285,461.845,507.8,449.44,561.93,456.973c59.156,8.231,74.812,39.6,132.619,35.741,61.343-4.1,75.759-41.568,108.164-31.038,49.666,16.139,84.53,126.493,52.671,207.863-23.4,59.769-77.036,89.171-63.958,123.213,7.6,19.777,28.83,18,45.147,47.968C849.7,864.832,854.487,900.021,841.275,909.38Z" transform="translate(-352.368 -455)" fill="#1dc5ce" opacity="0.16"/>
  <g id="Group_15364" data-name="Group 15364" transform="translate(25.577 7.558)">
    <path id="Path_18435" data-name="Path 18435" d="M1859.674,921.071c5.067,4.255,9.71,6,13.718,6.542,17.175,2.311,25.01-17.168,42.943-13.921,19.953,3.613,24.664,30.056,41.621,29.722,10.894-.214,12.882-11.1,25.252-14.17,5.334-1.324,10.98-.8,16.76,1.077,42.36,56.251,66.02,80.5,55.687,92.228-3.19,3.619-7.178,3.21-47.912,1.372-67.139-3.029-60.816-2.094-66.52-2.8-58.8-7.273-65.955-24.894-107.9-23.055-6.047.265-9.431.793-11.958-1.737C1813.014,987.967,1830.656,962.313,1859.674,921.071Z" transform="translate(-1819.29 -842.493)" fill="url(#linear-gradient)"/>
    <path id="Path_18436" data-name="Path 18436" d="M2282.511,585.942c-12.369,3.071-14.358,13.955-25.252,14.169-16.957.334-21.668-26.109-41.621-29.722-17.933-3.247-25.767,16.232-42.943,13.921-4.007-.539-8.651-2.287-13.718-6.542,13.131-18.661,28.678-40.638,45.308-65.763,2.285-3.452,7.577-11.474,16.065-12.665,15.928-2.235,31.594,21.141,39.031,32.075,14.5,21.321,27.918,39.709,39.889,55.6C2293.491,585.142,2287.845,584.618,2282.511,585.942Z" transform="translate(-2118.594 -499.19)" fill="#d8dee8" opacity="0.5"/>
    <g id="Group_15362" data-name="Group 15362" transform="translate(91.342 73.821)">
      <path id="Path_18437" data-name="Path 18437" d="M1838.188,990.925c-.647-16.181-11.064-22.506-9.964-42.611a49.367,49.367,0,0,1,4.125-17.518c14.108,7.717,19.611,27.389,34.264,27.1,10.894-.214,12.882-11.1,25.252-14.17,5.334-1.324,10.98-.8,16.76,1.077,42.36,56.251,66.02,80.5,55.687,92.228-3.19,3.618-7.178,3.21-47.912,1.372-67.139-3.029-60.816-2.094-66.52-2.8a255.722,255.722,0,0,1-30.59-5.545C1834.74,1014.861,1838.612,1001.554,1838.188,990.925Z" transform="translate(-1819.29 -930.796)" opacity="0.3" fill="url(#linear-gradient-2)" style="mix-blend-mode: multiply;isolation: isolate"/>
    </g>
    <g id="Group_15363" data-name="Group 15363" transform="translate(104.402 4.49)">
      <path id="Path_18438" data-name="Path 18438" d="M2171.076,525.439c10.254,6.944,19.2,20.258,24.289,27.735,14.5,21.321,27.918,39.709,39.889,55.6-5.78-1.876-11.426-2.4-16.76-1.077-12.369,3.071-14.358,13.956-25.252,14.17-14.653.288-20.156-19.383-34.264-27.1,7.029-15.992,20.516-24.7,21.13-42.374C2180.35,545.448,2178.614,536.393,2171.076,525.439Z" transform="translate(-2158.978 -525.439)" opacity="0.3" fill="url(#linear-gradient-2)" style="mix-blend-mode: multiply;isolation: isolate"/>
    </g>
  </g>
  <g id="Group_15367" data-name="Group 15367" transform="translate(194.351 61.026)">
    <path id="Path_18439" data-name="Path 18439" d="M1224.683,1124.21a19.776,19.776,0,0,0,10.158,4.844c12.719,1.711,18.52-12.713,31.8-10.309,14.776,2.676,18.264,22.257,30.821,22.01,8.067-.159,9.54-8.219,18.7-10.493a22.416,22.416,0,0,1,12.411.8c31.368,41.654,48.889,59.615,41.237,68.3-2.362,2.68-5.316,2.377-35.48,1.016-49.717-2.243-45.035-1.551-49.259-2.073-43.543-5.386-48.841-18.435-79.9-17.073-4.478.2-6.984.588-8.855-1.286C1190.131,1173.747,1203.194,1154.75,1224.683,1124.21Z" transform="translate(-1194.778 -1066.022)" fill="url(#linear-gradient)"/>
    <path id="Path_18440" data-name="Path 18440" d="M1537.8,876.041c-9.16,2.274-10.632,10.334-18.7,10.493-12.557.247-16.045-19.334-30.821-22.009-13.28-2.4-19.081,12.02-31.8,10.309a19.778,19.778,0,0,1-10.158-4.845c9.723-13.819,21.236-30.093,33.552-48.7,1.692-2.556,5.61-8.5,11.9-9.379,11.8-1.655,23.4,15.655,28.9,23.752,10.741,15.788,20.674,29.405,29.538,41.175A22.42,22.42,0,0,0,1537.8,876.041Z" transform="translate(-1416.417 -811.8)" fill="#d8dee8" opacity="0.5"/>
    <g id="Group_15365" data-name="Group 15365" transform="translate(67.64 54.665)">
      <path id="Path_18441" data-name="Path 18441" d="M1208.772,1175.938c-.479-11.982-8.193-16.666-7.378-31.554a36.551,36.551,0,0,1,3.055-12.972c10.447,5.714,14.522,20.281,25.373,20.068,8.067-.159,9.54-8.219,18.7-10.493a22.418,22.418,0,0,1,12.411.8c31.368,41.654,48.889,59.615,41.237,68.3-2.362,2.679-5.315,2.377-35.48,1.016-49.717-2.243-45.035-1.551-49.259-2.073a189.35,189.35,0,0,1-22.653-4.106C1206.219,1193.662,1209.086,1183.808,1208.772,1175.938Z" transform="translate(-1194.778 -1131.411)" opacity="0.3" fill="url(#linear-gradient-2)" style="mix-blend-mode: multiply;isolation: isolate"/>
    </g>
    <g id="Group_15366" data-name="Group 15366" transform="translate(77.311 3.325)">
      <path id="Path_18442" data-name="Path 18442" d="M1455.281,831.238c7.594,5.143,14.219,15,17.986,20.538,10.741,15.788,20.674,29.4,29.538,41.175a22.418,22.418,0,0,0-12.411-.8c-9.16,2.274-10.632,10.334-18.7,10.493-10.851.213-14.926-14.353-25.373-20.068,5.206-11.842,15.193-18.294,15.648-31.378C1462.148,846.055,1460.863,839.349,1455.281,831.238Z" transform="translate(-1446.322 -831.238)" opacity="0.3" fill="url(#linear-gradient-2)" style="mix-blend-mode: multiply;isolation: isolate"/>
    </g>
  </g>
  <g id="Group_15371" data-name="Group 15371" transform="translate(58.125 110.63)">
    <path id="Path_18443" data-name="Path 18443" d="M2153.167,2106.98c-28.514,4.792-44.89,12.545-55.105,18.435-7.005,4.039-10.544,6.118-12.339,9.007-12.654,20.385,25.538,63.155,30.7,68.84l13.489-2.326c1.592-9.046,2.16-21.141-2.791-33.49-3.56-8.88-7.156-10.863-6.047-14.419,3.858-12.362,50.2,2.363,66.048-18.605,6.17-8.163,7.1-20.918,1.861-26.978C2184.186,2101.9,2173.781,2103.516,2153.167,2106.98Z" transform="translate(-2031.297 -1932.439)" fill="url(#linear-gradient-7)"/>
    <g id="Group_15368" data-name="Group 15368" transform="translate(110.575 46.336)">
      <path id="Path_18444" data-name="Path 18444" d="M1889.665,1479.149c10.655,10.03,37.929,6.092,57.009,2.078,3.431-.709,6.6-1.436,9.354-2.078,18.09-4.225,4.157-92.1,3.354-100.854-.3-3.371-2.923-4.647-7.638-5.053-7.537-.642-20.414.938-37.744-.278-28.17-1.969-32.606,8.965-32.606,8.965C1879.778,1386.095,1877.1,1467.32,1889.665,1479.149Z" transform="translate(-1879.985 -1372.727)" fill="url(#linear-gradient-8)"/>
      <path id="Path_18445" data-name="Path 18445" d="M1880.529,1400.813c.474,16-.667,69.37,3.946,82.915,3.431-.71,6.6-1.436,9.354-2.079,18.09-4.224,4.157-92.1,3.354-100.853-.3-3.371-2.923-4.647-7.638-5.053a20.418,20.418,0,0,0-1.7,2.121C1877.995,1391.806,1879.964,1381.945,1880.529,1400.813Z" transform="translate(-1817.788 -1375.227)" opacity="0.5" fill="url(#linear-gradient-9)" style="mix-blend-mode: multiply;isolation: isolate"/>
    </g>
    <path id="Path_18446" data-name="Path 18446" d="M2029.245,3147.284a55.579,55.579,0,0,1,1.35,7.223c.042,1.922-21.1,4.6-21.428,3.183s3.21-3.991,5.765-5,10.05-3.774,10.05-3.774Z" transform="translate(-1856.838 -2797.432)" fill="url(#linear-gradient-10)"/>
    <path id="Path_18447" data-name="Path 18447" d="M2012.346,3114.832l1.212,6.626s2.6,1.432,4.666,0l.5-7.358Z" transform="translate(-1845.518 -2769.923)" fill="url(#linear-gradient-11)"/>
    <path id="Path_18448" data-name="Path 18448" d="M1937.358,2064.645c6.616,24.736,12.835,51.279,18.292,79.52,6.588,34.1,11.231,66.371,14.449,96.422l10.974-.567c12.1-29.6,11.436-48.966,8.356-61.359a182.16,182.16,0,0,1-5.75-28.234,201.049,201.049,0,0,1-1.046-26.541c.138-19.969,1.887-24.466.973-39.658-.858-14.258-1.376-21.466-5.777-25.345C1966.235,2048.665,1939.392,2063.5,1937.358,2064.645Z" transform="translate(-1805.298 -1892.227)" fill="url(#linear-gradient-12)"/>
    <path id="Path_18449" data-name="Path 18449" d="M2948.373,1122.649s-2.933-4.508-4.75-7.823-10.862-13.012-10.862-13.012-.89,1.312,1.024,3.737,6.028,6.662,4.84,8.169-4.229,2.64-2.431,5.88,5.643,1.522,7.267,4.138,3.273,5.458,3.273,5.458Z" transform="translate(-2932.554 -1101.814)" fill="url(#linear-gradient-13)"/>
    <path id="Path_18450" data-name="Path 18450" d="M2299.214,1208.417l-7.761,9.569a105.055,105.055,0,0,0,10.9,27.731,107.164,107.164,0,0,0,26.5,30.728c20.946,16.406,60.341,33.65,73.731,19.675,11.948-12.47-2.285-44.085-4.92-49.769a86.136,86.136,0,0,1-31.18,4.946,79.636,79.636,0,0,1-28.636-5.8C2314.549,1235.772,2303.031,1215.847,2299.214,1208.417Z" transform="translate(-2281.824 -1190.184)" fill="url(#linear-gradient-14)"/>
    <path id="Path_18451" data-name="Path 18451" d="M1927.132,1562.7c-10.8-3.462-16.308-27.307-14.992-45.23,0,0,1.78-24.255-1.359-31.812-.134-.321-1.034-2.886-2.334-6.358a32.151,32.151,0,0,1-1.242-4.285,57.033,57.033,0,0,1,.124-23.347c2.015-9.99,4.136-21.053,12.972-27.206,5.107-3.556,12.447-3.829,26.918-4.23,17.9-.5,26.844-.744,33.769,2.222,1.013.435,22.112,9.811,24.94,27.624,2.937,18.5-18.082,24.5-17.493,46.714.359,13.539,8.2,14.909,10.821,35.343,1.463,11.393,3.232,25.176-3.741,30.338-10.225,7.569-26.97-12.488-50.794-5.791C1934.724,1559.488,1932.591,1564.448,1927.132,1562.7Z" transform="translate(-1814.824 -1365.516)" fill="url(#linear-gradient-15)"/>
    <path id="Path_18452" data-name="Path 18452" d="M1953.22,2051.44l-4.785,3.624a11.848,11.848,0,0,0-6.585-3.372c-3.752-.515-7.892.987-7.9,2.171,0,.949,2.65,1.693,3.061,1.809,3.312.929,5.621-.248,7.025.941a9.873,9.873,0,0,0,2.52,1.908,7.213,7.213,0,0,0,.938.393c2.214.662,5.6-3.371,5.889-3.722Z" transform="translate(-1766.769 -1889.018)" fill="url(#linear-gradient-16)"/>
    <path id="Path_18453" data-name="Path 18453" d="M1748.417,1468.451c-4.348-8.445-7.947-21.618-3.777-41.945,39.163,11.917,61.366,45.828,56.059,74.546-4.375,23.674-26.144,36.779-31.011,39.559l-4.175-7.752c5.338-7,11.17-17.177,9.353-28.116C1772.348,1489.579,1757.22,1485.547,1748.417,1468.451Z" transform="translate(-1582.162 -1370.972)" fill="url(#linear-gradient-17)"/>
    <path id="Path_18454" data-name="Path 18454" d="M2019.183,1391.841s-21.687-7.6-23.377,12.111,11.533,65.943,27.334,68.361c4.58-8.45,2.239-12.9-2.831-18.1s-21.969-51.643-1.126-55.46l2.679,1.421S2025.379,1395.608,2019.183,1391.841Z" transform="translate(-1849.53 -1341.04)" fill="url(#linear-gradient-18)"/>
    <path id="Path_18455" data-name="Path 18455" d="M2367.983,1408.9s-35.043,18.242-21.483,64.6c0,0-14.974-25.964-4.155-49.341S2364.253,1403.677,2367.983,1408.9Z" transform="translate(-2250.544 -1353.369)" fill="url(#linear-gradient-19)"/>
    <path id="Path_18456" data-name="Path 18456" d="M2085.987,1530a1.162,1.162,0,0,0,1.417.723,23.7,23.7,0,0,1,12.5,0,1.162,1.162,0,0,0,1.417-.723h0a1.123,1.123,0,0,0-.838-1.4,25.9,25.9,0,0,0-13.654,0,1.122,1.122,0,0,0-.838,1.4Z" transform="translate(-1940.745 -1454.843)" fill="#fff"/>
    <path id="Path_18457" data-name="Path 18457" d="M2448.352,1539.875c.122.576.523.886.9.723a9.817,9.817,0,0,1,7.939,0c.376.16.779-.146.9-.723h0a1.27,1.27,0,0,0-.532-1.4,10.726,10.726,0,0,0-8.675,0,1.268,1.268,0,0,0-.531,1.4Z" transform="translate(-2359.482 -1463.033)" fill="#fff"/>
    <path id="Path_18458" data-name="Path 18458" d="M2259,1565.95a1.374,1.374,0,0,0,.31-.035,1.4,1.4,0,0,0,1.052-1.669c-19.851-87.512-12.389-116.313-6.174-125.692,2.6-3.928,5-4.4,5.029-4.4a1.409,1.409,0,0,0,1.148-1.592,1.383,1.383,0,0,0-1.55-1.169c-.345.047-3.465.589-6.69,5.235-6.636,9.559-14.742,38.929,5.516,128.238A1.4,1.4,0,0,0,2259,1565.95Z" transform="translate(-2126.946 -1375.01)" fill="url(#linear-gradient-20)"/>
    <path id="Path_18459" data-name="Path 18459" d="M2114.734,1348.959c4.005-4.473,7.618-12.537,4.535-17.094s-11.538-3.723-13.954-3.489c-7.445.722-8.342,4-15,5.233-11.125,2.054-17.562-5.455-20.931-2.442-3.239,2.9-.973,13.13,4.883,19.187C2084.262,1360.689,2105.312,1359.482,2114.734,1348.959Z" transform="translate(-1956.72 -1289.452)" fill="url(#linear-gradient-21)"/>
    <path id="Path_18460" data-name="Path 18460" d="M2207.319,1218.089a10.832,10.832,0,0,0,3.569-17.276c-6.711-7.251-19.778-11.244-27.064-7.766-3.67,1.753,1.276,7.291,1.4,11.861.235,8.926,3.4,15.055,7.1,16.745C2194.99,1222.875,2201.379,1220.7,2207.319,1218.089Z" transform="translate(-2069.666 -1176.387)" fill="url(#linear-gradient-22)"/>
    <g id="Group_15370" data-name="Group 15370" transform="translate(120.801 23.394)">
      <g id="Group_15369" data-name="Group 15369" transform="translate(0)">
        <path id="Path_18461" data-name="Path 18461" d="M2189.439,1252.167c2.424-3.034,2.857-8.911-.32-11.775a7.347,7.347,0,0,0-7.3-1.347c-2.558,1.057-2.382,3.308-5.065,4.2-2.169.722-2.9-.546-5.705,0-.738.144-3.836.746-5.278,3.126-2.019,3.332,1.017,7.713,2.177,10.212.575,1.237,1.639,1.625,2.617,2.536,1.355,1.265,3.475,3.276,6.932,6.642a22.574,22.574,0,0,1,1.39-3.772,21.14,21.14,0,0,1,2.859-4.481C2184.939,1253.824,2187.335,1254.8,2189.439,1252.167Z" transform="translate(-2165.097 -1238.593)" fill="url(#linear-gradient-23)"/>
        <path id="Path_18462" data-name="Path 18462" d="M2181.387,1299.381a12.482,12.482,0,0,0,6.133,4.395c1.535.5,3.467,1.22,5.414.539,3.808-1.332,4.749-6.878,5.031-8.543,1.082-6.376-1.465-13.157-3.8-13.313-1.086-.073-1.383,1.332-3.8,1.9a8.879,8.879,0,0,1-3.8,0c-1.542-.391-1.832-1.006-2.853-.951a4.241,4.241,0,0,0-2.853,1.9c-1.572,2.177-1.015,5.906,1.209,9.474a3.818,3.818,0,0,0-4.021-1.053,2.5,2.5,0,0,0-.935.872C2176.111,1296.289,2177.707,1298.321,2181.387,1299.381Z" transform="translate(-2173.944 -1274.954)" fill="url(#linear-gradient-24)"/>
      </g>
    </g>
    <path id="Path_18463" data-name="Path 18463" d="M1984.077,3050.231s-16.893-1.4-23.214,0l-.467,16.086s-12.118,2.343-12.94,10.8,34.063,0,34.063,0Z" transform="translate(-1799.767 -2716.464)" fill="url(#linear-gradient-25)"/>
    <path id="Path_18464" data-name="Path 18464" d="M2442.407,2629.022s-16.852.453-23.173,1.849l5.368,13.768s-12.118,2.344-12.94,10.8,34.063,0,34.063,0Z" transform="translate(-2340.812 -2367.812)" fill="url(#linear-gradient-26)"/>
  </g>
  <g id="Group_15376" data-name="Group 15376" transform="translate(264.807 89.438)">
    <g id="Group_15372" data-name="Group 15372" transform="translate(66.532 95.795)">
      <path id="Path_18465" data-name="Path 18465" d="M938.766,1644.421c10.655,10.03,37.93,6.092,57.009,2.078,3.43-.709,6.6-1.437,9.354-2.078,18.09-4.225,4.157-92.1,3.354-100.854-.3-3.371-2.924-4.647-7.638-5.053-7.537-.642-20.414.938-37.744-.279-28.171-1.969-32.606,8.965-32.606,8.965C928.88,1551.366,926.2,1632.591,938.766,1644.421Z" transform="translate(-929.087 -1537.998)" fill="url(#linear-gradient-8)"/>
      <path id="Path_18466" data-name="Path 18466" d="M929.631,1566.084c.473,16-.667,69.37,3.946,82.915,3.43-.709,6.6-1.436,9.354-2.078,18.09-4.224,4.157-92.1,3.354-100.853-.3-3.372-2.924-4.647-7.638-5.053a20.374,20.374,0,0,0-1.7,2.121C927.1,1557.077,929.065,1547.216,929.631,1566.084Z" transform="translate(-866.889 -1540.498)" opacity="0.5" fill="url(#linear-gradient-9)" style="mix-blend-mode: multiply;isolation: isolate"/>
    </g>
    <g id="Group_15373" data-name="Group 15373" transform="translate(0 0)">
      <path id="Path_18467" data-name="Path 18467" d="M466.29,1055.888c1.863-3.971,4.636-9.566,8.372-16.047,9-15.6,20.3-35.221,37.211-46.979,19.66-13.672,55.641-22.8,73.258-5.349,13.189,13.068,14.1,39.068,5.116,44.885-10.2,6.607-24.756-18.268-52.792-16.047-16.687,1.322-30.722,11.654-43.955,21.4a147.93,147.93,0,0,0-22.094,20Z" transform="translate(-365.196 -977.914)" fill="url(#linear-gradient-29)"/>
      <path id="Path_18468" data-name="Path 18468" d="M1239.136,1251.68c5.919-1.744,16.755-7.326,17.8,6.041s-2.791,19.17-2.791,19.17l-.349,1.583s-20.581,3.656-24.219-8.921S1233.216,1253.424,1239.136,1251.68Z" transform="translate(-1156.542 -1202.661)" fill="url(#linear-gradient-30)"/>
      <path id="Path_18469" data-name="Path 18469" d="M829.258,1338.848c4.016,16.064-13.525,36.63-32.443,42.559-27.253,8.543-55.467-13.885-66.979-31.047-3.772-5.623-6.68-14.229-12.5-31.441-2.893-8.56-4.28-13.876-1.456-18.1a12.24,12.24,0,0,1,12.21-4.884c6.776,1.558,6.79,9.6,12.21,15.349,12.344,13.1,35.2-4.282,63.839,6.279C808.98,1319.353,825.948,1325.61,829.258,1338.848Z" transform="translate(-641.301 -1241.339)" fill="url(#linear-gradient-23)"/>
      <path id="Path_18470" data-name="Path 18470" d="M1285.956,3118.277s.635,5.049.209,6.741-15.108,2.914-20.091,2.326,2.968-5.679,6.143-6.634S1285.956,3118.277,1285.956,3118.277Z" transform="translate(-1191.87 -2752.194)" fill="url(#linear-gradient-32)"/>
      <path id="Path_18471" data-name="Path 18471" d="M1265.332,3066.832l1.547,10.131s3.946,1.773,5.843.021l.209-10.605Z" transform="translate(-1178.637 -2709.173)" fill="#76326b"/>
      <path id="Path_18472" data-name="Path 18472" d="M815.973,3063.13s-3.115,2.312-2.284,5.08,8.1,13.862,13.28,17.01,3.556-3.411,2.049-7.5-5.359-13.086-6.863-14.594S815.973,3063.13,815.973,3063.13Z" transform="translate(-658.936 -2705.925)" fill="url(#linear-gradient-33)"/>
      <path id="Path_18473" data-name="Path 18473" d="M842.9,3001.306c1.506,4.2,2.954,7.649,4.087,10.195,2.507,5.631,3.877,7.743,5.428,9.576,1.353,1.6,4.556,5,5.417,4.433s-1.469-4.714-5.986-16.837c-.656-1.76-2.727-7.366-2.727-7.366H842.9Z" transform="translate(-691.467 -2655.23)" fill="#76326b"/>
      <path id="Path_18474" data-name="Path 18474" d="M1200.68,1974.409a262.263,262.263,0,0,0-.564,46.8c2.009,25.893,7.187,42.278,13.68,69.887,3.968,16.873,9.315,41.706,14.154,72.763a13.657,13.657,0,0,0,8.678,1.7,13.187,13.187,0,0,0,5.214-1.98c12.7-38.794,8.946-62.834,2.819-77.811-2.612-6.385-5.778-11.422-7.47-21.236-2.239-12.983.529-20.243,4.478-50.318,2.815-21.437,2.328-24.75.455-27.965C1234.637,1973.4,1211.741,1973.647,1200.68,1974.409Z" transform="translate(-1144.73 -1803.726)" fill="url(#linear-gradient-34)"/>
      <path id="Path_18475" data-name="Path 18475" d="M873.158,2002.218c7.777,40.165,15.41,61.259,21.187,73.191a200.6,200.6,0,0,1,10.671,26.046,212.137,212.137,0,0,1,6.484,24.811c2.682,12.311,9.308,30.287,27.139,53.865.222.131,3.263,1.85,6.17.317a5.959,5.959,0,0,0,2.5-2.591c-2.331-22.542-5.007-41.484-7.33-56.1-.487-3.066-2.634-16.481-6-34.2-1.318-6.936-3.247-17.1-5.559-27.537-2.879-13-7.293-30.682-14.1-51.873Z" transform="translate(-785.933 -1827.024)" fill="url(#linear-gradient-35)"/>
      <path id="Path_18476" data-name="Path 18476" d="M1494.2,1477.137c-26.295,11.037-41.884,26.171-50.173,35.838-9.147,10.667-18.4,21.791-15.928,35.042a27.631,27.631,0,0,0,14.335,19.114c16.173,8.091,39.966-3.368,48.581-19.114,2.508-4.584,3.072-8.33,3.186-46.988C1494.224,1491.393,1494.214,1483.23,1494.2,1477.137Z" transform="translate(-1427.687 -1391.751)" fill="url(#linear-gradient-36)"/>
      <path id="Path_18477" data-name="Path 18477" d="M1458.39,1541.247c1.339-3.838,7.161-20.522,1.593-24.688-3.214-2.4-11.125-1.29-32.3,15.476,3.088-6.711,8.35-12.96,13.58-19.06,8.29-9.667,23.879-24.8,50.173-35.838.018,6.093.028,14.256,0,23.892-.114,38.657-.678,42.4-3.185,46.988-8.361,15.28-31.017,26.522-47.129,19.776A68.079,68.079,0,0,0,1458.39,1541.247Z" transform="translate(-1424.933 -1391.751)" opacity="0.3" fill="url(#linear-gradient-37)" style="mix-blend-mode: multiply;isolation: isolate"/>
      <path id="Path_18478" data-name="Path 18478" d="M855.044,1566.056c.242-3.491.723-9.468,4.026-32.684,4.8-33.729,4.6-26.251,5.575-36.634.915-9.764,1.461-18.627,5.575-30.263a94.321,94.321,0,0,1,3.982-9.557c3.982-1.327,19.962-5.239,27.874-5.574,9.09-.386,17.6-.746,24.308-.34.627-.22,8.063.383,14.715,2.729a89.664,89.664,0,0,1,12.742,5.9c-4.911,3.81-11.484,9.881-12.742,18.786-1.4,9.92,5.069,13.9,11.149,32.652a159.148,159.148,0,0,1,6.371,31.059c1.881,16.709-.086,21.6,4.778,28.67,5.517,8.014,12.274,7.854,13.539,14.335,1.4,7.165-5.424,14.719-10.353,18.318-10.278,7.5-22.1,3.432-39.82.8-45.283-6.736-63.077,4.081-71.065-8.1C853.218,1592.373,853.827,1583.6,855.044,1566.056Z" transform="translate(-812.472 -1369.939)" fill="url(#linear-gradient-38)"/>
      <path id="Path_18479" data-name="Path 18479" d="M913.234,1700.165c-6.533-3.688-5.3-10.223-11.946-14.335-9.933-6.143-18.97,4.56-30.263,0-14.337-5.789-16.461-29.777-16.725-33.449-.5-6.928-1.516-21.116,7.168-28.671,10.957-9.533,27.772-.161,33.449-8.76,3.217-4.873-1.621-8.733-.8-20.706.6-8.674,4.231-22.471,12.1-26.756a23.039,23.039,0,0,0-2.541,7.642c-1.4,9.92,5.069,13.9,11.15,32.653a159.115,159.115,0,0,1,6.371,31.059c1.881,16.71-.086,21.6,4.778,28.67,5.517,8.014,12.273,7.854,13.539,14.335,1.4,7.165-5.424,14.719-10.353,18.317q-.57.416-1.151.791C922.852,1702.376,917.586,1702.622,913.234,1700.165Z" transform="translate(-775.05 -1466.649)" opacity="0.3" fill="url(#linear-gradient-39)" style="mix-blend-mode: multiply;isolation: isolate"/>
      <path id="Path_18480" data-name="Path 18480" d="M856.531,1517.323c.04,5.776,1.486,6.584,3.982,16.725,2.972,12.073,5.126,20.82,1.593,27.077-4.463,7.9-16.324,8.873-24.688,9.557-20.378,1.665-37.842-5.125-49.764-11.719a1.544,1.544,0,0,0-.882-.19c-2.678.235-3.345.693-5.464.99a1.579,1.579,0,0,0-1.338,1.833c1.354,7.775,7.286,36.839,36.743,49.7,4.338,1.895,27.246,11.344,52.562.8,7.417-3.091,21.766-10.7,31.06-27.078a63.7,63.7,0,0,0,2.389-57.341c-5.608-12.208-13.79-19.042-21.5-25.485-9.372-7.828-12.781-7.548-14.335-7.167C859.939,1496.722,856.472,1508.623,856.531,1517.323Z" transform="translate(-731.09 -1406.453)" fill="url(#linear-gradient-40)"/>
      <path id="Path_18481" data-name="Path 18481" d="M1196.186,1369.006c.8.8,3.982,7.168,8.76,11.15,2.522,2.1,11.946,3.185,14.335,3.185s.8,2.39-10.353,3.982-18.317,1.593-20.706-.8c0,0,7.964-1.593,5.575-7.168S1196.186,1369.006,1196.186,1369.006Z" transform="translate(-1112.757 -1302.115)" fill="url(#linear-gradient-41)"/>
      <path id="Path_18482" data-name="Path 18482" d="M1306.334,1346.2s-2.071,4.8-7.167,4.147c-4.563-.585-4.509-12.042-1.446-14.04a6.065,6.065,0,0,1,4.674-.4,6.725,6.725,0,0,1,3.728,6.909c.995-.549,2-.481,2.35-.007.449.6-.247,1.717-.4,1.969A3.667,3.667,0,0,1,1306.334,1346.2Z" transform="translate(-1219.497 -1274.437)" fill="url(#linear-gradient-42)"/>
      <path id="Path_18483" data-name="Path 18483" d="M788.892,1689.066c8.492-.806,10.328-5.271,23.892-7.964,20.5-4.071,28.955,3.621,35.042-2.389,7.01-6.922-3.117-18.191,3.186-36.635,4.454-13.032,11.851-14.253,14.335-23.1,1.233-4.389,1.11-10.16-2.544-17.808a56.446,56.446,0,0,1,9.711,14.623,63.7,63.7,0,0,1-2.389,57.341c-9.294,16.379-23.643,23.987-31.06,27.078-25.316,10.548-48.224,1.1-52.562-.8C774.057,1693.984,781.907,1689.729,788.892,1689.066Z" transform="translate(-700.881 -1494.573)" opacity="0.3" fill="url(#linear-gradient-43)" style="mix-blend-mode: multiply;isolation: isolate"/>
      <path id="Path_18484" data-name="Path 18484" d="M1188.222,1213.275a5.746,5.746,0,1,0,5.746-5.746A5.746,5.746,0,0,0,1188.222,1213.275Z" transform="translate(-1092.23 -1168.256)" fill="url(#linear-gradient-44)"/>
      <path id="Path_18485" data-name="Path 18485" d="M1230.811,1291.11s10.788-1.919,10.963,5.407,5.042,13.567,8.19,13.324,7.616-6.523,8-12.453S1245.314,1274.889,1230.811,1291.11Z" transform="translate(-1157.774 -1231.801)" fill="url(#linear-gradient-45)"/>
      <path id="Path_18486" data-name="Path 18486" d="M1199.115,1393.114c.778,6.326-8.393,12.556-15.582,14.651-13.316,3.882-29.821-3.508-31.641-12.486-.671-3.307.481-7.675,3.035-8.91,3.05-1.474,5.631,2.713,11.163,2.791,5.938.083,7.268-4.681,13.256-6.047C1187.3,1381.3,1198.32,1386.655,1199.115,1393.114Z" transform="translate(-1085.433 -1313.513)" fill="url(#linear-gradient-46)"/>
      <path id="Path_18487" data-name="Path 18487" d="M794.375,2999.269l-8.464,2.5a3.8,3.8,0,0,0-2.474,5.012c1.122,2.868,2.291,6.635,1.633,8.607-1.152,3.449,5.558,25.078,18.773,21.938s2.832-18.412,0-21.938c-1.856-2.312-3.665-9.01-4.692-13.353A3.8,3.8,0,0,0,794.375,2999.269Z" transform="translate(-633.636 -2653.411)" fill="url(#linear-gradient-47)"/>
      <path id="Path_18488" data-name="Path 18488" d="M1251.636,3016.821a3.742,3.742,0,0,1,2.5,3.856c-.544,6.006-2.086,20.243-4.557,21.531-3.139,1.637-31.745,1.475-34.089,0-1.729-1.087,3.74-10.5,10.368-13.325,3.787-1.617,3.7-4.93,2.933-7.473a3.688,3.688,0,0,1,2.7-4.612C1236.381,3015.612,1244.649,3014.332,1251.636,3016.821Z" transform="translate(-1151.275 -2666.907)" fill="url(#linear-gradient-48)"/>
    </g>
    <path id="Path_18489" data-name="Path 18489" d="M1068.312,1542.457s-21.687-7.6-23.377,12.111,11.532,65.942,27.334,68.361c4.58-8.449,2.24-12.9-2.83-18.1s-21.969-51.643-1.127-55.46l2.679.93S1074.508,1546.224,1068.312,1542.457Z" transform="translate(-942.707 -1444.703)" fill="url(#linear-gradient-18)"/>
    <path id="Path_18490" data-name="Path 18490" d="M1417.084,1574.175s-35.043,18.242-21.482,64.6c0,0-14.975-25.964-4.156-49.342S1413.355,1568.948,1417.084,1574.175Z" transform="translate(-1343.689 -1469.181)" fill="url(#linear-gradient-19)"/>
    <path id="Path_18491" data-name="Path 18491" d="M1135.115,1680.611a1.162,1.162,0,0,0,1.417.723,23.7,23.7,0,0,1,12.5,0,1.163,1.163,0,0,0,1.417-.723h0a1.124,1.124,0,0,0-.838-1.4,25.9,25.9,0,0,0-13.654,0,1.122,1.122,0,0,0-.838,1.4Z" transform="translate(-1033.921 -1558.506)" fill="#fff"/>
    <path id="Path_18492" data-name="Path 18492" d="M1497.453,1705.147c.122.576.523.885.9.723a9.815,9.815,0,0,1,7.939,0c.375.16.779-.146.9-.723h0a1.271,1.271,0,0,0-.533-1.4,10.73,10.73,0,0,0-8.675,0,1.268,1.268,0,0,0-.532,1.4Z" transform="translate(-1452.626 -1578.845)" fill="#fff"/>
    <g id="Group_15374" data-name="Group 15374" transform="translate(21.654 128.074)">
      <path id="Path_18493" data-name="Path 18493" d="M1548.592,1948.991a2.531,2.531,0,0,0,.264-.014,2.456,2.456,0,0,0,2.182-2.7l-22.36-209.9a2.457,2.457,0,0,0-4.885.521l22.36,209.9A2.457,2.457,0,0,0,1548.592,1948.991Z" transform="translate(-1522.615 -1732.904)" fill="#ff8d8a"/>
      <path id="Path_18494" data-name="Path 18494" d="M1629.944,1772.449a3.585,3.585,0,0,0,.412-.023,3.685,3.685,0,0,0,3.255-4.07L1629.343,1730a3.685,3.685,0,0,0-7.324.815l4.268,38.355A3.685,3.685,0,0,0,1629.944,1772.449Z" transform="translate(-1621.996 -1726.724)" fill="url(#linear-gradient-51)"/>
      <path id="Path_18495" data-name="Path 18495" d="M1507.607,2752.415l3.168,38.477a4.793,4.793,0,0,0,9.554-.787c-.007-.087-.019-.188-.03-.273l-5.367-38.232a3.686,3.686,0,0,0-7.324.814Z" transform="translate(-1489.14 -2573.676)" fill="url(#linear-gradient-52)"/>
      <path id="Path_18496" data-name="Path 18496" d="M1575.471,2363.055a3.692,3.692,0,0,0,3.667-4.093l-1.814-16.3a3.685,3.685,0,0,0-7.325.814l1.814,16.3A3.686,3.686,0,0,0,1575.471,2363.055Z" transform="translate(-1558.625 -2234.596)" fill="url(#linear-gradient-53)"/>
    </g>
    <g id="Group_15375" data-name="Group 15375" transform="translate(77.295 165.28)">
      <path id="Path_18497" data-name="Path 18497" d="M1326.172,2171.887h.01a2.456,2.456,0,0,0,2.448-2.465l-.779-211.084a2.457,2.457,0,0,0-2.456-2.448h-.01a2.456,2.456,0,0,0-2.447,2.465l.779,211.084A2.456,2.456,0,0,0,1326.172,2171.887Z" transform="translate(-1321.483 -1953.9)" fill="#ff8d8a"/>
      <path id="Path_18498" data-name="Path 18498" d="M1323.534,1990.212h.031a3.686,3.686,0,0,0,3.654-3.716l-.323-38.59a3.685,3.685,0,0,0-7.37.061l.323,38.59A3.685,3.685,0,0,0,1323.534,1990.212Z" transform="translate(-1319.49 -1944.252)" fill="url(#linear-gradient-54)"/>
      <path id="Path_18499" data-name="Path 18499" d="M1309.461,2979.466l-.783,38.6a4.793,4.793,0,0,0,9.584.194c0-.087,0-.189,0-.275l-1.429-38.58a3.686,3.686,0,0,0-7.37.062Z" transform="translate(-1308.677 -2799.412)" fill="url(#linear-gradient-55)"/>
      <path id="Path_18500" data-name="Path 18500" d="M1319.552,2588.485h.032a3.685,3.685,0,0,0,3.654-3.715l-.137-16.4a3.685,3.685,0,0,0-7.369.061l.137,16.4A3.685,3.685,0,0,0,1319.552,2588.485Z" transform="translate(-1314.859 -2458.593)" fill="url(#linear-gradient-56)"/>
    </g>
    <path id="Path_18501" data-name="Path 18501" d="M1658.323,1747.9a1.538,1.538,0,0,0,1.025-1.616c-.128-.8-.655-1.564-2.252-1.44-3.176.247-7.022,2.144-7.693,3.794s.309,3.97,3.423,2.929C1655.318,1750.738,1657.036,1748.439,1658.323,1747.9Z" transform="translate(-1630.728 -1613.663)" fill="url(#linear-gradient-57)"/>
    <path id="Path_18502" data-name="Path 18502" d="M1302.763,1926.27s1.055-3.533,4.24-3.533,5.575,3.186,3.186,9.557-1.593,7.167-1.593,7.167-3.982,1.593-3.982,0,1.443-7.116,1.12-8.336S1304.894,1926.617,1302.763,1926.27Z" transform="translate(-1223.267 -1761.137)" fill="url(#linear-gradient-58)"/>
  </g>
</svg>
