<svg xmlns="http://www.w3.org/2000/svg" width="130.821" height="66.604" viewBox="0 0 130.821 66.604">
  <g id="Group_16" data-name="Group 16" transform="translate(-817.808 -422.876)">
    <g id="Group_15" data-name="Group 15" transform="translate(-1479.434 -238.318)">
      <path id="Path_129" data-name="Path 129" d="M2316.692,737.2a6.089,6.089,0,0,1-3.1-.753,2.7,2.7,0,0,1-1.3-2.547,17.792,17.792,0,0,1,1.158-5.557,51.043,51.043,0,0,1,3.7-7.931q1.794-3.241,3.647-6.136t4.168-5.9l-10.478,2.489a46.089,46.089,0,0,1-5.673.984,49.131,49.131,0,0,1-5.21.29,9.93,9.93,0,0,1-4.833-.9,2.593,2.593,0,0,1-1.534-2.229,2.828,2.828,0,0,1,.753-1.736,9.754,9.754,0,0,1,2.778-2.258,18.313,18.313,0,0,1,4.457-1.679,33.876,33.876,0,0,1,4.689-.868,41.682,41.682,0,0,1,4.8-.289q2.2,0,3.647.144a12.3,12.3,0,0,1,2.373.434q.81.29.811.695t-.637.29q-.059,0-1.621-.29a22.782,22.782,0,0,0-4.631-.174q-10.131.405-13.6,3.7a2.021,2.021,0,0,0-.81,1.274q0,.753,1.389.984a20.784,20.784,0,0,0,3.358.231,34.433,34.433,0,0,0,5.354-.55q3.328-.55,6.975-1.3,1.967-.4,3.415-.695l2.895-.579q1.446-.289,3.357-.694.174-.231.666-.81t.724-.81a3.446,3.446,0,0,1,1.737-.637,15.9,15.9,0,0,1,2.721-.232q.925,0,.926.29a9.506,9.506,0,0,1-1.215,1.447q2.2-.289,3.994-.463t3.7-.174a24.5,24.5,0,0,1,4.11.376,20.789,20.789,0,0,1,4.168,1.158,9.364,9.364,0,0,1,3.212,2.026,4,4,0,0,1,1.245,2.923q0,.927-.694.926-.406,0-.521-.521a5.829,5.829,0,0,0-.289-.868q-.174-.4-.29-.637a5.631,5.631,0,0,0-2.894-2.2,17.258,17.258,0,0,0-4.052-.926,36.494,36.494,0,0,0-3.878-.232,42.923,42.923,0,0,0-4.688.261q-2.375.26-5.384.781-2.663,3.069-4.891,6.136t-4.255,6.31q-5.268,8.568-5.268,14.008,0,2.257.926,2.258a3.055,3.055,0,0,0,.781-.174,5.817,5.817,0,0,0,1.071-.463q1.216-.695,1.274-.695.636,0,.637.521,0,.695-1.447,1.274A6.573,6.573,0,0,1,2316.692,737.2Z" transform="translate(0 -9.405)" fill="#10221b"/>
      <path id="Path_130" data-name="Path 130" d="M2454.234,782.257a6.024,6.024,0,0,1-3.415-.926,3.474,3.474,0,0,1-1.389-3.126,9.31,9.31,0,0,1,1.1-3.7,20.629,20.629,0,0,1,2.72-4.284,5.619,5.619,0,0,1-.724.087q-.434.03-.955.029a6.015,6.015,0,0,1-1.737-.26,1.665,1.665,0,0,1-1.158-1.013l-1.158,1.447q-.927,1.159-2.113,2.518t-2.171,2.344q-.985.985-1.331.984a.554.554,0,0,1-.289-.116.34.34,0,0,1-.174-.29q0-.289.608-.868t.9-.868a39.058,39.058,0,0,0,3.271-3.907,26.484,26.484,0,0,0,1.476-2.287,2.973,2.973,0,0,1-.347-1.621,9.659,9.659,0,0,1,.376-2.576,7.935,7.935,0,0,1,1.042-2.344,1.735,1.735,0,0,1,3.155.058,3.733,3.733,0,0,1,.637,1.91,2.827,2.827,0,0,1-.521,1.5,12.828,12.828,0,0,1-1.187,1.563q-.666.753-1.129,1.216a1.985,1.985,0,0,0,2.026,1.389,2.619,2.619,0,0,0,1.737-.579q.695-.578,1.274-1.129a1.753,1.753,0,0,1,1.216-.55,2.156,2.156,0,0,1,1.447.55,1.571,1.571,0,0,1,.579,1.36,22.07,22.07,0,0,0-2.171,2.808,22.458,22.458,0,0,0-2,3.647,8.678,8.678,0,0,0-.81,3.386,1.615,1.615,0,0,0,.666,1.505,3.364,3.364,0,0,0,1.766.405,4.924,4.924,0,0,0,2.2-.579,18.261,18.261,0,0,0,2.315-1.389,22.133,22.133,0,0,0,2.229-1.91q1.476-1.389,3.445-3.531a.332.332,0,0,1,.231-.116q.463,0,.463.637,0,.173-.694.955t-1.65,1.766q-.955.985-1.823,1.823a13.343,13.343,0,0,1-1.273,1.129,26.682,26.682,0,0,1-3.1,2.026A7.161,7.161,0,0,1,2454.234,782.257Z" transform="translate(-115.14 -55.965)" fill="#10221b"/>
      <path id="Path_131" data-name="Path 131" d="M2558.113,802.093a8.121,8.121,0,0,1-4.457-1.216,4.431,4.431,0,0,1-1.91-4.052,7.992,7.992,0,0,1,.955-3.618,15.077,15.077,0,0,1,5.9-6.136,7.407,7.407,0,0,1,3.618-1.013,2.485,2.485,0,0,1,1.563.492,1.75,1.75,0,0,1,.637,1.476,3.752,3.752,0,0,1-1.013,2.373,13.637,13.637,0,0,1-2.489,2.286,23.56,23.56,0,0,1-2.981,1.853,20.5,20.5,0,0,1-2.489,1.129,5.952,5.952,0,0,0-.173,1.447,4.053,4.053,0,0,0,.723,2.373,2.849,2.849,0,0,0,2.518,1.042,7.323,7.323,0,0,0,3.271-.724,12.1,12.1,0,0,0,2.692-1.794q1.216-1.071,2.2-2.055.81-.81,1.332-1.36t.926-.955a.707.707,0,0,1,.521-.174.58.58,0,0,1,.463.2q.174.2-.116.492a11.256,11.256,0,0,1-.781.839q-.551.551-1.042,1.1t-.723.781a19.706,19.706,0,0,1-4.863,3.965A9.142,9.142,0,0,1,2558.113,802.093Zm-2.489-7.583a6.254,6.254,0,0,0,1.65-.724,17.5,17.5,0,0,0,2.113-1.418q.463-.4,1.273-1.216a5.852,5.852,0,0,0,1.1-1.389,2.775,2.775,0,0,0,.405-1.216q0-.695-.752-.695a2.481,2.481,0,0,0-.868.174,4.175,4.175,0,0,0-1.389,1.158q-.812.927-1.274,1.447a17.083,17.083,0,0,0-1.3,1.881A11.032,11.032,0,0,0,2555.624,794.509Z" transform="translate(-203.216 -76.379)" fill="#10221b"/>
      <path id="Path_132" data-name="Path 132" d="M2619.491,725.366a5.97,5.97,0,0,1-1.187-.174q-.781-.173-.781-.752a5.9,5.9,0,0,1,.608-2.142q.608-1.389,1.331-2.779t1.129-2.142q.984-1.794,2.547-4.428t3.618-5.673q2.054-3.039,4.37-6.02a57.948,57.948,0,0,1,4.776-5.441,26.852,26.852,0,0,1,4.862-3.936,8.742,8.742,0,0,1,4.544-1.476,5.546,5.546,0,0,1,2.46.55,2.177,2.177,0,0,1,1.129,2.171,6.9,6.9,0,0,1-1.273,3.7,23.341,23.341,0,0,1-3.358,3.994,49.381,49.381,0,0,1-4.6,3.936q-2.518,1.91-5.065,3.618t-4.747,3.068q-2.2,1.361-3.589,2.229-.464.753-1.158,2.113t-1.1,2.171q.984-.752,2.721-2.229t3.85-3.039a35.36,35.36,0,0,1,4.139-2.663,7.665,7.665,0,0,1,3.531-1.1,2.032,2.032,0,0,1,1.737.695,3.015,3.015,0,0,1,.521,1.852,3.577,3.577,0,0,1-1.071,2.518,10.231,10.231,0,0,1-2.75,2,16.72,16.72,0,0,1-3.444,1.332,12.574,12.574,0,0,1-3.155.463h-.463a1.879,1.879,0,0,1-.463-.058,8.919,8.919,0,0,0,2.431,3.647,5.614,5.614,0,0,0,3.936,1.621,10.185,10.185,0,0,0,4.428-.9,13.777,13.777,0,0,0,3.3-2.171q1.417-1.273,2.518-2.373a.793.793,0,0,1,.463-.289q.289,0,.29.463a1.276,1.276,0,0,1-.405.926q-.985.985-1.332,1.389a7.216,7.216,0,0,1-.636.666q-.29.261-1.216.955-1.274.926-2.229,1.592a11.008,11.008,0,0,1-2.286,1.187,13.275,13.275,0,0,1-2.142.665,10.51,10.51,0,0,1-2.315.261,8.206,8.206,0,0,1-2.055-.261,5.5,5.5,0,0,1-1.939-.955,8.6,8.6,0,0,1-2.373-2.6,9.461,9.461,0,0,1-1.273-3.184,9.344,9.344,0,0,0-1.766,1.273,11.011,11.011,0,0,0-1.968,2.287,6.68,6.68,0,0,0-1.071,3.039,7.334,7.334,0,0,1-.984.289A4.813,4.813,0,0,1,2619.491,725.366Zm7.467-13.661q1.331-.925,3.589-2.4t4.833-3.3q2.575-1.823,4.949-3.82a35.047,35.047,0,0,0,4.081-3.994,9.2,9.2,0,0,0,2.113-3.734.933.933,0,0,1,.029-.232.809.809,0,0,0,.029-.174.987.987,0,0,0-.926-1.042,1.114,1.114,0,0,0-.347-.058h-.347a6.74,6.74,0,0,0-3.907,1.563,30.656,30.656,0,0,0-4.312,3.965q-2.2,2.4-4.168,5.036t-3.444,4.833Q2627.653,710.548,2626.958,711.705Zm2.663,4.978a8.88,8.88,0,0,0,1.968-.289,12.216,12.216,0,0,0,2.431-.868,7.669,7.669,0,0,0,2.055-1.389,2.573,2.573,0,0,0,.839-1.91q0-.695-.81-.695a3.406,3.406,0,0,0-1.447.579q-.985.579-2.113,1.389t-2.055,1.563q-.927.753-1.389,1.158a.234.234,0,0,0-.058.174c0,.116.077.194.231.232A1.545,1.545,0,0,0,2629.621,716.683Z" transform="translate(-255.739)" fill="#10221b"/>
      <path id="Path_133" data-name="Path 133" d="M2756.024,802.093a8.121,8.121,0,0,1-4.457-1.216,4.432,4.432,0,0,1-1.91-4.052,7.99,7.99,0,0,1,.955-3.618,15.074,15.074,0,0,1,5.9-6.136,7.408,7.408,0,0,1,3.618-1.013,2.484,2.484,0,0,1,1.563.492,1.75,1.75,0,0,1,.637,1.476,3.751,3.751,0,0,1-1.013,2.373,13.636,13.636,0,0,1-2.489,2.286,23.577,23.577,0,0,1-2.981,1.853,20.522,20.522,0,0,1-2.489,1.129,5.952,5.952,0,0,0-.174,1.447,4.053,4.053,0,0,0,.724,2.373,2.848,2.848,0,0,0,2.518,1.042,7.322,7.322,0,0,0,3.271-.724,12.1,12.1,0,0,0,2.692-1.794q1.215-1.071,2.2-2.055.81-.81,1.331-1.36t.926-.955a.707.707,0,0,1,.521-.174.581.581,0,0,1,.463.2q.174.2-.116.492a11.364,11.364,0,0,1-.781.839q-.551.551-1.042,1.1t-.723.781a19.706,19.706,0,0,1-4.862,3.965A9.143,9.143,0,0,1,2756.024,802.093Zm-2.489-7.583a6.247,6.247,0,0,0,1.65-.724,17.483,17.483,0,0,0,2.113-1.418q.463-.4,1.274-1.216a5.858,5.858,0,0,0,1.1-1.389,2.775,2.775,0,0,0,.405-1.216q0-.695-.753-.695a2.48,2.48,0,0,0-.868.174,4.176,4.176,0,0,0-1.389,1.158q-.812.927-1.274,1.447a17.083,17.083,0,0,0-1.3,1.881A11.05,11.05,0,0,0,2753.534,794.509Z" transform="translate(-361.245 -76.379)" fill="#10221b"/>
      <path id="Path_134" data-name="Path 134" d="M2835.7,782.257a6.024,6.024,0,0,1-3.415-.926,3.475,3.475,0,0,1-1.389-3.126,9.313,9.313,0,0,1,1.1-3.7,20.629,20.629,0,0,1,2.72-4.284,5.614,5.614,0,0,1-.723.087q-.434.03-.955.029a6.015,6.015,0,0,1-1.737-.26,1.665,1.665,0,0,1-1.158-1.013l-1.158,1.447q-.927,1.159-2.113,2.518t-2.171,2.344q-.985.985-1.332.984a.555.555,0,0,1-.289-.116.34.34,0,0,1-.174-.29q0-.289.608-.868t.9-.868a39.117,39.117,0,0,0,3.271-3.907,26.441,26.441,0,0,0,1.476-2.287,2.972,2.972,0,0,1-.347-1.621,9.649,9.649,0,0,1,.376-2.576,7.917,7.917,0,0,1,1.042-2.344,1.735,1.735,0,0,1,3.155.058,3.733,3.733,0,0,1,.637,1.91,2.828,2.828,0,0,1-.521,1.5,12.851,12.851,0,0,1-1.187,1.563q-.666.753-1.129,1.216a1.985,1.985,0,0,0,2.026,1.389,2.62,2.62,0,0,0,1.737-.579q.694-.578,1.273-1.129a1.753,1.753,0,0,1,1.216-.55,2.156,2.156,0,0,1,1.447.55,1.571,1.571,0,0,1,.579,1.36,22.069,22.069,0,0,0-2.171,2.808,22.458,22.458,0,0,0-2,3.647,8.673,8.673,0,0,0-.81,3.386,1.615,1.615,0,0,0,.665,1.505,3.365,3.365,0,0,0,1.766.405,4.925,4.925,0,0,0,2.2-.579,18.278,18.278,0,0,0,2.315-1.389,22.161,22.161,0,0,0,2.229-1.91q1.476-1.389,3.444-3.531a.333.333,0,0,1,.231-.116q.462,0,.463.637,0,.173-.694.955t-1.65,1.766q-.955.985-1.823,1.823a13.282,13.282,0,0,1-1.273,1.129,26.661,26.661,0,0,1-3.1,2.026A7.161,7.161,0,0,1,2835.7,782.257Z" transform="translate(-419.731 -55.965)" fill="#10221b"/>
    </g>
    <path id="Path_135" data-name="Path 135" d="M329.213,90.577c-7.611,2.186,5.353,8.057,5.353,8.057C323.262,92.8,328.4,90.836,329.213,90.577Zm0,0,.1-.031Zm35.209-6.6c-7.345-2.26-16.3-14.038-19.031-17.837a1.063,1.063,0,0,0-1.711-.035c-3.013,3.858-11.073,15.154-23.741,17.211,0,0,10.485.809,22.547-12.137a1.453,1.453,0,0,1,2.523.822c.593,6.148,1.943,14.312,4.972,15.742,4.962,2.342,4.937-3.943,7.543-3.363S373.206,86.679,364.422,83.976ZM336.986,90.6c6.169-1.974,3.208-4.03-1.723-4.357-10.208-.678-15.5-2.207-17.573-2.959-.266-.121-.595-.259-1.067-.435-4.206-1.568-9.024-8.74-10.49-11.048a.621.621,0,0,0-1-.079c-1.888,2.147-8.755,9.039-12.706,8.824,0,0,4.361,1.231,11.828-5.9a.858.858,0,0,1,1.453.571c.137,3.6.647,8.4,2.363,9.334,2.814,1.534,3.013-2.131,4.512-1.7A79,79,0,0,0,324.4,86.489c7.551,1.374,3.866,1.892.164,2.3-3.124.347-7.672,4.484,8.007,11.511,0,0-15.058-8.959-7.606-10.2,6.133-1.022,7.139-2.956,4.985-3.446,5.92,1.059,3.051,1.756.793,3.827-2.232,2.047,2.214,3.206,2.214,3.206-4.115-2.222-1.673-2.818.52-4.753,1.739-1.535-1.169-2.184-2.869-2.367,1.076-.1,12.726.773,5.128,3.2-6.139,1.961,2.339,6.337,12.395,5.3C341.724,94.455,332.928,91.9,336.986,90.6Z" transform="translate(550.295 357.187)" fill="#1dc5ce"/>
  </g>
</svg>
