<svg xmlns="http://www.w3.org/2000/svg" width="831.782" height="787.745" viewBox="0 0 831.782 787.745">
  <g id="Group_309" data-name="Group 309" transform="translate(-779.266 -276.125)">
    <path id="Path_969" data-name="Path 969" d="M1931.59,461.151c-51.1-22.76-80.011-44.5-96.524-65.637-.706-.9-1.38-1.794-2.032-2.689-.121-.158-.238-.307-.339-.462-.255-.35-.505-.686-.74-1.024-.336-.482-.674-.967-1-1.435-.436-.623-.861-1.243-1.254-1.871-21.549-32.982-15.347-64.607-19.27-96.535-.554-4.531-1.3-9.5-2.322-14.736-7.461-38.271-29.828-90.592-103.5-89.226-27.518.508-62.207,8.515-105.965,27.55-16.125,7-33.458,15.517-52.132,25.69-84.824,46.234-136.686,98.082-168.394,144.635a321.617,321.617,0,0,0-28.023,49.982c-18.438,41.278-12.09,87.989,14.492,122.946a127.2,127.2,0,0,0,25.656,25.237q6.2,4.592,12.609,8.87,4.655,3.122,9.4,6.092c1.346.861,2.7,1.69,4.066,2.525a.036.036,0,0,1,.032.02c1.435.878,2.9,1.756,4.353,2.614q2.936,1.745,5.92,3.415,1.458.844,2.939,1.665c.984.545,1.977,1.09,2.973,1.624.425.238.861.479,1.3.709q1.386.755,2.769,1.475c.752.413,1.512.806,2.3,1.2.649.35,1.3.68,1.96,1.019.944.491,1.888.973,2.841,1.435.479.25.956.491,1.435.723q1.794.9,3.6,1.776c.3.152.609.287.916.439,1.3.637,2.611,1.263,3.923,1.88.344.166.689.33,1.036.485,1.036.494,2.083.979,3.131,1.435.875.408,1.75.815,2.626,1.191.488.233.984.453,1.475.663,1.088.5,2.175.984,3.274,1.435q2.06.913,4.153,1.782c.967.422,1.946.832,2.921,1.234q1.085.465,2.17.9c1.223.5,2.445.99,3.668,1.481.287.123.6.244.907.356,1.558.626,3.128,1.24,4.686,1.842q2.262.861,4.534,1.722c.255.1.5.189.755.287,1.6.594,3.211,1.188,4.824,1.762q7.633,2.746,15.356,5.252l3.412,1.091c1.246.4,2.491.786,3.748,1.174,1.062.33,2.124.651,3.185.973q2.583.789,5.2,1.547,3.2.93,6.428,1.831c3.068.861,6.144,1.676,9.223,2.491a1.305,1.305,0,0,1,.2.046c1.722.445,3.418.861,5.125,1.309q2.637.666,5.292,1.3,5.283,1.271,10.618,2.459,6.437,1.435,12.894,2.746,3.461.706,6.919,1.36,3.157.605,6.333,1.179,8.213,1.5,16.461,2.8c1.375.215,2.752.422,4.115.637l4.127.617c13.74,2.009,27.5,3.656,41.187,4.973q16.435,1.573,32.715,2.554c1.349.08,2.706.152,4.055.232s2.706.155,4.055.224c31.688,1.667,62.6,1.82,91.7,1.079,2.583-.069,5.137-.135,7.685-.215q5.851-.181,11.588-.4,10-.4,19.652-.887a243.848,243.848,0,0,0,57.782-9.861q8.394-2.5,16.309-5.564C2003.692,618.43,2044.965,511.7,1931.59,461.151Z" transform="translate(-430.112 88.616)" fill="#e6f4ff"/>
    <path id="Path_970" data-name="Path 970" d="M1822.247,650.32a51.062,51.062,0,0,1-25.8,14.136c-9.3,2.118-19.93,2.319-32.485.611-23.67-3.223-50.562-12.891-76.568-22.241-9.335-3.355-18.989-6.827-28.324-9.935-22.886-7.622-49.71-4.018-82,10.974-27.716,12.879-55.716,32.405-80.419,49.647-11.677,8.144-22.705,15.835-32.939,22.324-11.766,7.461-25.9,10.331-41.984,8.494-13.1-1.492-27.515-6.064-42.854-13.588a243.272,243.272,0,0,1-46.639-30.459,3.092,3.092,0,1,0-4.058,4.666,245.131,245.131,0,0,0,47.859,31.28c15.993,7.86,31.108,12.647,44.926,14.231a88.11,88.11,0,0,0,10.007.574c13.488,0,25.575-3.346,36.055-9.992,10.331-6.563,21.428-14.292,33.163-22.476,24.5-17.081,52.261-36.446,79.492-49.1,30.8-14.311,56.126-17.815,77.446-10.716,9.263,3.085,18.883,6.543,28.184,9.886,32.661,11.743,66,23.73,94.438,23.73,18.1,0,34.213-4.856,46.909-17.712a3.091,3.091,0,1,0-4.4-4.342Z" transform="translate(-421.23 -226.191)" fill="#fff"/>
    <path id="Path_971" data-name="Path 971" d="M1919.848,427.289a50.975,50.975,0,0,1-28.382,7.748c-9.542-.1-19.925-2.37-31.739-6.948-22.278-8.626-46.2-24.272-69.316-39.4-8.3-5.432-16.883-11.049-25.254-16.24-20.49-12.724-47.414-15.459-82.31-8.36-29.949,6.092-61.717,18.584-89.743,29.607-13.25,5.211-25.762,10.133-37.221,14.062-13.186,4.531-27.59,4.032-42.811-1.484-12.394-4.491-25.357-12.285-38.529-23.165a242.983,242.983,0,0,1-38.294-40.463,3.091,3.091,0,1,0-5.031,3.593,245.275,245.275,0,0,0,39.29,41.542c13.729,11.358,27.32,19.514,40.395,24.269,16.607,6.026,32.428,6.549,46.989,1.544,11.585-3.98,24.161-8.925,37.473-14.162,27.794-10.931,59.292-23.32,88.712-29.3,33.289-6.77,58.732-4.3,77.819,7.553,8.3,5.166,16.848,10.75,25.119,16.16,35.74,23.385,72.39,47.371,105.142,47.368a57.227,57.227,0,0,0,30.947-8.7,3.09,3.09,0,1,0-3.268-5.246Z" transform="translate(-495.055 -21.076)" fill="#fff"/>
    <path id="Path_972" data-name="Path 972" d="M3176.556,1136.065c5-7.008,5.579-16.116.712-22.788-6.25-8.575-19.084-9.86-28.663-2.87-.41.287-.789.62-1.173.938-1.619-3.817-4.537-6.658-8.323-7.516-5.214-1.182-10.589,1.722-13.915,6.919a19.6,19.6,0,0,0-21.078-3.518,33.094,33.094,0,0,0-65.189-5.518,19.276,19.276,0,0,0-11.063-3.57c-11.858,0-21.472,11.083-21.472,24.751a27.515,27.515,0,0,0,2.973,12.518c-14.536,1.794-23.245,4.078-23.245,6.566,0,5.762,46.728,10.437,104.367,10.437s104.37-4.689,104.37-10.429C3194.857,1139.779,3188.1,1137.747,3176.556,1136.065Z" transform="translate(-1604.15 -545.17)" fill="#c0e6ff"/>
    <path id="Path_973" data-name="Path 973" d="M1253.15,590.309a39.792,39.792,0,1,0-66.658-36.733,22.052,22.052,0,0,0-7.992-1.521c-10.389,0-19.184,7.2-22.275,17.158a27.417,27.417,0,0,0-14.722-4.144c-13.1,0-23.727,8.566-23.727,19.135a15.978,15.978,0,0,0,2.066,7.783c-17.388,2.749-28.092,6.477-28.092,10.587,0,8.454,45.236,15.31,101.038,15.31s101.035-6.856,101.035-15.31C1293.823,597.561,1277.836,593.1,1253.15,590.309Z" transform="translate(-253.415 -149.86)" fill="#c0e6ff"/>
    <path id="Path_974" data-name="Path 974" d="M2473.243,688.357c3.019-4.23,3.369-9.726.433-13.752-3.774-5.166-11.516-5.952-17.3-1.722-.247.181-.476.376-.709.574a7.365,7.365,0,0,0-5.016-4.537c-3.156-.715-6.388,1.045-8.4,4.175a11.835,11.835,0,0,0-12.719-2.124,19.971,19.971,0,0,0-39.339-3.329,11.633,11.633,0,0,0-6.675-2.155c-7.157,0-12.957,6.686-12.957,14.937a16.58,16.58,0,0,0,1.794,7.553c-8.773,1.082-14.031,2.459-14.031,3.963,0,3.478,28.2,6.3,62.979,6.3s62.979-2.818,62.979-6.3C2484.289,690.6,2480.2,689.37,2473.243,688.357Z" transform="translate(-1156.52 -242.831)" fill="#c0e6ff"/>
    <path id="Path_975" data-name="Path 975" d="M2919.888,328.668a7.917,7.917,0,0,0,.287-9.3c-2.551-3.5-7.785-4.018-11.691-1.174-.169.121-.321.253-.479.385a4.964,4.964,0,0,0-3.392-3.068c-2.126-.482-4.3.706-5.676,2.824a7.992,7.992,0,0,0-8.609-1.435,13.488,13.488,0,0,0-26.589-2.25,7.863,7.863,0,0,0-4.514-1.455c-4.835,0-8.756,4.52-8.756,10.1a11.215,11.215,0,0,0,1.211,5.105c-5.929.732-9.47,1.662-9.47,2.677,0,2.35,19.058,4.256,42.57,4.256s42.567-1.906,42.567-4.256C2927.353,330.184,2924.6,329.354,2919.888,328.668Z" transform="translate(-1501.538 5.365)" fill="#c0e6ff"/>
    <g id="Group_305" data-name="Group 305" transform="translate(814.329 465.124)" opacity="0.86">
      <path id="Path_976" data-name="Path 976" d="M1451.923,992.2c-15.416-36.015-31.929-68.441-49.047-93.534-29.223-42.837-60.193-64.34-90.509-45.971-20.088,12.185-41.984,31.381-64.506,54.913-11.267,11.766-22.7,24.64-34.15,38.248Q1202.855,958.77,1192,972.5c-94.7,119.772-183.9,276.4-183.9,276.4,91.634,18.8,462.471,97.178,543.581,110.158,10.245,1.641-28.436-185.208-86.3-333.82C1461.011,1013.967,1456.518,1002.93,1451.923,992.2Z" transform="translate(-1008.1 -846.102)" fill="#c0e6ff"/>
    </g>
    <g id="Group_306" data-name="Group 306" transform="translate(1147.696 673.344)" opacity="0.63">
      <path id="Path_977" data-name="Path 977" d="M2554.685,1700.974c-3.157-7.866-6.383-15.6-9.636-23.13-23.222-53.922-48.1-97.571-69.855-105-19.692-6.732-56.979,16.358-98.923,51.248-11.855,9.86-24.092,20.662-36.4,32.009-8.466,7.809-16.986,15.861-25.432,24.06-74.587,72.2-144.678,153.9-144.678,153.9,26.95,15.21,457.256,84.353,457.256,84.353s-28.663-104.441-64.951-198.678Q2558.429,1710.275,2554.685,1700.974Z" transform="translate(-2169.76 -1571.673)" fill="#c0e6ff"/>
    </g>
    <path id="Path_978" data-name="Path 978" d="M1060.019,2131.938s-10.389-18.614-15.933-20.677-16.271-17.792-23.532-24.814c-4.457-4.305-13.347-7.066-19.554-8.552-3.912-.947-6.758-1.375-6.758-1.375-25.974,10.75-47.1,55.418-47.1,55.418l.026.017c11.238,12.748,41.095,23.716,67.416,30.279,23.245,5.817,43.706,8.176,46.143,5.266,2.758-3.294,2.393-13.106,1.435-21.592C1061.316,2138.406,1060.019,2131.938,1060.019,2131.938Z" transform="translate(-150.305 -1258.297)" fill="#97daff"/>
    <path id="Path_979" data-name="Path 979" d="M1177.939,2114.687c-5.536-2.064-16.271-17.793-23.532-24.812-4.46-4.3-13.347-7.065-19.557-8.555,9.381,12.73,23.982,32.382,28.215,43.293,4.371,11.272-6.715,29.845-14.636,41.037,23.245,5.814,43.7,8.173,46.14,5.266,5.194-6.2-.691-35.565-.691-35.565S1183.475,2116.753,1177.939,2114.687Z" transform="translate(-284.147 -1261.72)" fill="#69d1ff"/>
    <path id="Path_980" data-name="Path 980" d="M1053.39,2098.978c-4.626-1.228-16.085,9.924-22.312,18.5-1.435,1.992,2.075,4.167,4.2,3.444,17.454-5.892,29.633,7.585,31.237-.628C1068.353,2110.891,1060.475,2100.861,1053.39,2098.978Z" transform="translate(-209.916 -1274.245)" fill="#d7f3ff"/>
    <path id="Path_981" data-name="Path 981" d="M1050.6,2289.828c-48.384,19.368-102.082-19.17-103.422-20.137,11.238,12.747,41.095,23.715,67.416,30.278,23.245,5.817,43.706,8.176,46.143,5.266,2.758-3.295,2.393-13.106,1.435-21.592Z" transform="translate(-150.334 -1396.033)" fill="#48c4ef"/>
    <path id="Path_982" data-name="Path 982" d="M2179.424,2122.716c-.287-.029-6.956-.551-18.653,12.113-6.779,7.341-13.9,17.658-21.173,30.664-9.071,16.228-18.4,36.733-27.739,60.922a.628.628,0,0,0,1.171.453c11.556-29.96,29.329-70.042,48.369-90.868,5.946-6.506,10.506-9.432,13.284-10.744a10.425,10.425,0,0,1,4.617-1.292.628.628,0,0,0,.123-1.248Z" transform="translate(-980.756 -1291.23)" fill="#0a5c60"/>
    <path id="Path_983" data-name="Path 983" d="M2066.341,2113.732a.628.628,0,0,0-.806.367,176.233,176.233,0,0,0-7.367,29.5c-2.669,16.071-4.54,40.257,1.722,64.084a.626.626,0,1,0,1.211-.318c-6.19-23.6-4.336-47.578-1.69-63.533a174.838,174.838,0,0,1,7.309-29.3.626.626,0,0,0-.379-.806Z" transform="translate(-940.722 -1284.803)" fill="#0a5c60"/>
    <path id="Path_984" data-name="Path 984" d="M2078.771,2099.078a5.791,5.791,0,0,0-.961,7.174,3.884,3.884,0,0,0,6.046,1.045,5.766,5.766,0,0,0,.961-7.157A3.9,3.9,0,0,0,2078.771,2099.078Z" transform="translate(-955.914 -1273.663)" fill="#feb84f"/>
    <ellipse id="Ellipse_1" data-name="Ellipse 1" cx="5.117" cy="4.328" rx="5.117" ry="4.328" transform="translate(1190.066 835.287) rotate(-87.83)" fill="#feb84f"/>
    <path id="Path_985" data-name="Path 985" d="M1985.827,2247.812c-1.383-2.236-2.744-4.3-3.828-5.814-1.639-2.281-1.9-2.319-2.146-2.353a.574.574,0,0,0-.31,1.085c.967.8,8.859,12.021,16.311,28.209,6.543,14.2,13.887,34.913,11.723,52.912a.574.574,0,0,0,.5.632h.066a.574.574,0,0,0,.574-.5c2.221-18.5-5.389-39.726-12.165-54.272A193.481,193.481,0,0,0,1985.827,2247.812Zm-6.139-7.042Z" transform="translate(-886.208 -1374.608)" fill="#0a5c60"/>
    <path id="Path_986" data-name="Path 986" d="M1971.241,2221.857c-2.385-1.578-5.424-.556-6.79,2.3s-.542,6.417,1.84,8,5.427.556,6.793-2.281S1973.625,2223.438,1971.241,2221.857Z" transform="translate(-875.203 -1361.398)" fill="#feb84f"/>
    <path id="Path_987" data-name="Path 987" d="M2082.263,2146.915a10.012,10.012,0,0,0-1.274-.947c.419-2.669-.358-4.215-1.409-5.111a3.944,3.944,0,0,0-5.166.12c-34.411,28.167-39.72,75.385-39.889,76.582-3.817,26.829,5.346,21.076,9.123,25.828a5.493,5.493,0,0,1,.663,1.073c3.188,6.712,5.332,8.816,11.737,9.218s7.134-21.018,10.331-31.415,20.117-63.725,19.7-68.621A10.35,10.35,0,0,0,2082.263,2146.915Z" transform="translate(-924.988 -1303.525)" fill="#b3d0d1"/>
    <path id="Path_988" data-name="Path 988" d="M2083.975,2266.3l-1.053,2.112-2.086,4.239c-.339.711-.706,1.409-1.019,2.132l-.95,2.164-1.9,4.33c-.158.362-.324.717-.468,1.085l-.427,1.1-.861,2.2-.861,2.207c-.287.74-.591,1.463-.832,2.218a125.543,125.543,0,0,0-5.048,18.254l-.4,2.339c-.061.39-.146.775-.187,1.171l-.135,1.179-.258,2.359c-.055.792-.092,1.584-.132,2.373-.014.4-.046.789-.043,1.185l.018,1.188v1.188c.014.393.06.789.092,1.182s.06.789.106,1.182l.18,1.174a13.331,13.331,0,0,0,.591,2.3,13.267,13.267,0,0,1-.358-2.321l-.081-1.171c-.014-.39,0-.781,0-1.171v-1.171l.063-1.171.063-1.168c.023-.39.086-.778.124-1.165.092-.775.164-1.552.258-2.328l.381-2.3c.218-1.544.594-3.065.9-4.592l.244-1.148c.092-.379.2-.755.287-1.148l.574-2.27.287-1.148c.092-.379.192-.755.313-1.128l.683-2.244c.846-3.011,1.92-5.952,2.924-8.914.235-.746.537-1.469.806-2.2l.832-2.2.833-2.2.416-1.1c.141-.367.287-.726.445-1.088l1.839-4.342c.6-1.435,1.174-2.91,1.825-4.336l1.9-4.3c.632-1.435,1.223-2.9,1.909-4.3,1.317-2.853,2.64-5.7,3.9-8.589-1.57,2.726-3.079,5.487-4.592,8.25C2084.689,2264.911,2084.319,2265.605,2083.975,2266.3Z" transform="translate(-949.015 -1386.243)" fill="#3ea399"/>
    <path id="Path_989" data-name="Path 989" d="M2080.989,2145.968c.419-2.669-.358-4.215-1.409-5.111a3.944,3.944,0,0,0-5.166.12c-34.411,28.167-39.72,75.385-39.889,76.582-3.817,26.829,5.346,21.076,9.123,25.828-1.667-37.33,28.41-81.527,38.624-96.472A9.977,9.977,0,0,0,2080.989,2145.968Z" transform="translate(-924.988 -1303.525)" fill="#8bc3c0"/>
    <path id="Path_990" data-name="Path 990" d="M2169.832,2252.288a6.043,6.043,0,0,0-3.473-.838c-12.962.554-25.81,11.686-32.256,19.227-6.529,7.616-5.88,21.337-5.846,21.937l-1.266-10.566c-9.539,13.574-10.084,31.745-10.084,31.745l-2.227-6.66c-2.089,6.167-2.161,25.653-2.161,25.653,11.542-1.885,19.228-11.953,19.466-12.263a4.485,4.485,0,0,1-5.488-.594c17.875-3.625,22.005-29.272,25.61-38.742s9.921-16.171,16.644-22.1c3.091-2.724,3.131-4.563,2.27-5.74A3.978,3.978,0,0,0,2169.832,2252.288Z" transform="translate(-981.251 -1383.018)" fill="#8bc3c0"/>
    <path id="Path_991" data-name="Path 991" d="M2138.58,2288.676c-8.1,12.417-26.06,48.829-26.06,48.829,11.542-1.886,19.228-11.953,19.466-12.263a4.486,4.486,0,0,1-5.488-.594c17.875-3.625,22.005-29.271,25.61-38.742s9.921-16.171,16.644-22.1c3.091-2.723,3.131-4.563,2.27-5.74C2155.213,2262.547,2146.062,2277.214,2138.58,2288.676Z" transform="translate(-981.251 -1387.748)" fill="#62b5ad"/>
    <path id="Path_992" data-name="Path 992" d="M2147.8,2305.082l-1.527,1.934-.76.973c-.253.324-.508.648-.743.984l-1.435,2.009c-.958,1.337-1.937,2.663-2.838,4.038-3.731,5.415-7.111,11.066-10.411,16.751s-6.345,11.51-9.281,17.39c-.735,1.467-1.467,2.939-2.17,4.422s-1.414,2.965-2.106,4.454c-1.372,2.982-2.727,5.978-3.972,9.017q4.552-8.738,9.183-17.4c1.558-2.87,3.117-5.769,4.706-8.632l2.382-4.3,2.436-4.268c.795-1.435,1.633-2.838,2.457-4.253s1.647-2.833,2.5-4.227l2.537-4.207q1.317-2.072,2.617-4.156c3.538-5.507,7.206-10.936,11.238-16.122q-1.636,1.837-3.257,3.7C2148.808,2303.767,2148.317,2304.427,2147.8,2305.082Z" transform="translate(-981.279 -1417.274)" fill="#3ea399"/>
    <path id="Path_993" data-name="Path 993" d="M1972.208,2323.742l-2.445,8.925s1.2-14.443.3-16.492-10.044-15.436-14.441-17.043c-3.779-1.383-11.993-2.5-14.242-2.786h0c-.365-.052-.574-.075-.574-.075l4.419,11.864,11.663,4.669-9.869-.574s7.527,19.569,8.629,20.476,11.861,8.125,11.861,8.125l-10.736-3.476s5.226,16.12,8.222,18.338c2.93,2.172,11.02,6.919,11.4,7.143h0s4.176-13.846,2.913-21.187S1972.208,2323.742,1972.208,2323.742Z" transform="translate(-858.817 -1414.985)" fill="#2c8790"/>
    <path id="Path_994" data-name="Path 994" d="M1941.384,2296.385h0c-.365-.052-.574-.074-.574-.074l4.419,11.863,11.663,4.669-9.869-.574s7.527,19.569,8.629,20.476,11.861,8.124,11.861,8.124l-10.736-3.475s5.226,16.12,8.222,18.338c2.93,2.172,11.02,6.919,11.4,7.143-2.124-11.427-9.6-35.163-18.323-49.968C1952.6,2303.607,1946.128,2298.818,1941.384,2296.385Z" transform="translate(-858.817 -1415.014)" fill="#38a8ad"/>
    <path id="Path_995" data-name="Path 995" d="M2023.656,2402.326q-.419-1.4-.861-2.792c-.287-.93-.609-1.851-.924-2.775-1.257-3.688-2.654-7.326-4.221-10.905q-.594-1.334-1.211-2.658t-1.3-2.62q-.669-1.3-1.406-2.562c-.247-.419-.5-.836-.775-1.24-.138-.2-.287-.4-.428-.594-.074-.1-.152-.19-.235-.287a.664.664,0,0,0-.287-.212.661.661,0,0,1,.267.236c.072.1.138.2.2.287.129.2.247.416.365.628.227.425.445.861.655,1.294.424.861.812,1.759,1.2,2.646s.755,1.782,1.114,2.683.72,1.8,1.064,2.7c1.378,3.616,2.637,7.277,3.814,10.965q.439,1.384.861,2.772t.832,2.781c.545,1.854,1.042,3.731,1.544,5.593q.373,1.4.766,2.8l.385,1.4.4,1.4c.534,1.865,1.073,3.731,1.7,5.584a65.049,65.049,0,0,0-1.937-11.525C2024.752,2406.065,2024.213,2404.183,2023.656,2402.326Z" transform="translate(-909.585 -1471.607)" fill="#0a5c60"/>
    <path id="Path_996" data-name="Path 996" d="M3223.9,2326.783s2.927-16.469-1.237-25.024S3210,2283.805,3210,2283.805l-5.352,7.51s-.68-13.026-3.69-17.15-42.286-20.57-48.6-19.623a1.672,1.672,0,0,0-.691.241c-4.988,2.617,2.628,24.654,7.806,28.772l24.926-2.241-19.856,8.323,1.9,4.353,26.2-4.878-18.825,11.479,14.983,21.273,19.971,1.478-14.55,5.82s4.052,20,7.946,24.172,14.793,13.749,14.793,13.749l-14.635-6.225s8.262,26.976,18.237,28.723a.6.6,0,0,0,.167.035s18.4-33.057,8.394-76.02Z" transform="translate(-1721.029 -1385.204)" fill="#2c8790"/>
    <path id="Path_997" data-name="Path 997" d="M3151.665,2255.48c-4.988,2.617,2.628,24.654,7.806,28.772l24.926-2.241-19.856,8.322,1.9,4.354,26.2-4.879-18.826,11.479,14.983,21.273,19.97,1.478-14.55,5.82s4.052,20,7.946,24.172,14.794,13.749,14.794,13.749l-14.636-6.225s8.262,26.976,18.237,28.723c4.787-34.3,0-58.434-12.007-83.822C3198.849,2285.931,3167.695,2265.183,3151.665,2255.48Z" transform="translate(-1721.029 -1385.901)" fill="#38a8ad"/>
    <path id="Path_998" data-name="Path 998" d="M3358.414,2470.64l-.049-1.466c-.017-.488-.037-.976-.078-1.464l-.2-2.924c-.054-.976-.18-1.949-.287-2.922s-.18-1.948-.327-2.916a106.745,106.745,0,0,0-2.115-11.553,85.833,85.833,0,0,0-3.5-11.224c-.732-1.82-1.484-3.633-2.359-5.387l-.657-1.317-.7-1.294c-.453-.861-.969-1.7-1.463-2.548a49.9,49.9,0,0,0-3.378-4.8l-.462-.574-.479-.554c-.315-.373-.654-.726-.987-1.085a14.066,14.066,0,0,0-1.053-1.016,6.323,6.323,0,0,0-1.148-.893,2.033,2.033,0,0,1,.287.23c.089.083.175.164.258.252.167.175.336.35.491.534.324.358.622.74.921,1.119s.588.764.861,1.148l.416.588.4.605a56.217,56.217,0,0,1,2.916,4.982c.422.861.881,1.722,1.268,2.583l.6,1.309.56,1.326c.189.442.373.887.545,1.334l.525,1.34c.35.892.652,1.808.979,2.709a100.873,100.873,0,0,1,3.062,11.1c.218.936.4,1.88.574,2.821s.379,1.883.52,2.836.324,1.894.465,2.843l.387,2.87c.471,3.817.838,7.651,1.031,11.5.261,3.845.267,7.7.307,11.565,0,7.725-.459,15.459-1.024,23.21a155.3,155.3,0,0,0,2.806-23.167l.106-2.924.04-1.461v-4.394C3358.491,2472.591,3358.437,2471.615,3358.414,2470.64Z" transform="translate(-1855.891 -1500.854)" fill="#0a5c60"/>
    <path id="Path_999" data-name="Path 999" d="M3095.111,2561.518l4.118,12.03s-9.924-17.218-12.587-18.779-23.973-9.126-30.419-7.335c-5.548,1.538-16.119,7-19,8.521h0c-.468.241-.732.384-.732.384l14.527,9.717,17.431-4.3-12.108,7.462s24.244,15.826,26.255,15.947,20.375-.574,20.375-.574l-15.4,4.879s18.822,13.838,24.105,13.878c5.165.043,18.438-1.24,19.063-1.3a.041.041,0,0,0,.02,0s-5.937-18.975-13.2-26.189S3095.111,2561.518,3095.111,2561.518Z" transform="translate(-1640.065 -1593.877)" fill="#2c8790"/>
    <path id="Path_1000" data-name="Path 1000" d="M3037.182,2576.38h0c-.468.241-.732.385-.732.385l14.527,9.717,17.431-4.3-12.1,7.461s24.244,15.827,26.255,15.947,20.375-.574,20.375-.574l-15.4,4.879s18.823,13.838,24.106,13.878c5.166.043,18.438-1.24,19.064-1.3-11.479-11.1-38.928-31.656-60.838-41.155C3056.1,2575.324,3044.7,2575.235,3037.182,2576.38Z" transform="translate(-1640.036 -1614.303)" fill="#38a8ad"/>
    <path id="Path_1001" data-name="Path 1001" d="M3223.707,2635.418c-2.06-1.721-4.17-3.395-6.3-5.039q-1.6-1.237-3.214-2.439c-1.082-.8-2.172-1.582-3.269-2.362-2.2-1.552-4.4-3.082-6.666-4.537s-4.534-2.893-6.859-4.239q-1.742-1.016-3.507-1.991t-3.57-1.874q-1.8-.913-3.65-1.722c-.617-.27-1.24-.525-1.874-.755-.319-.112-.635-.224-.961-.316-.161-.046-.325-.086-.491-.117a.947.947,0,0,0-.5,0,.92.92,0,0,1,.488.046c.158.052.316.106.47.167.31.12.614.261.916.4.6.287,1.194.6,1.785.91,1.177.628,2.33,1.306,3.484,1.983s2.3,1.383,3.415,2.1,2.256,1.435,3.372,2.161c4.465,2.933,8.83,6.012,13.117,9.183q1.605,1.2,3.192,2.416t3.171,2.445c2.1,1.641,4.164,3.34,6.228,5.031s4.132,3.378,6.227,5.039,4.2,3.317,6.4,4.9A87.418,87.418,0,0,0,3223.707,2635.418Z" transform="translate(-1744.424 -1638.678)" fill="#0a5c60"/>
    <path id="Path_1002" data-name="Path 1002" d="M3500.708,2316.843a11.972,11.972,0,0,0-6.006-.944c-22.117,1.788-43.161,18.863-53.558,30.242-10.529,11.507-8.279,31.28-8.17,32.155l-3.042-15.178c-15.184,20.349-14.607,46.659-14.607,46.659l-4.362-9.47c-3.059,9.071-1.567,37.247-1.567,37.247,19.578-3.6,31.886-18.742,32.265-19.21a8.729,8.729,0,0,1-9.43-.438c30.262-6.6,35.192-44,40.57-57.938s15.62-24.131,26.614-33.22c5.059-4.172,4.976-6.83,3.406-8.483A6.818,6.818,0,0,0,3500.708,2316.843Z" transform="translate(-1905.697 -1428.938)" fill="#8bc3c0"/>
    <path id="Path_1003" data-name="Path 1003" d="M3450.8,2371.042c-12.822,18.568-40.5,72.567-40.5,72.567,19.577-3.6,31.885-18.742,32.264-19.21a8.727,8.727,0,0,1-9.429-.439c30.261-6.6,35.191-44,40.569-57.937s15.62-24.132,26.614-33.22c5.059-4.172,4.976-6.83,3.406-8.483C3477.079,2332,3462.647,2353.9,3450.8,2371.042Z" transform="translate(-1906.601 -1434.985)" fill="#62b5ad"/>
    <path id="Path_1004" data-name="Path 1004" d="M3460.879,2402.965l-2.3,2.941c-.771.976-1.5,1.986-2.244,2.979l-1.117,1.495-1.093,1.512c-2.941,4.018-5.708,8.15-8.455,12.3s-5.346,8.388-7.929,12.627-5.054,8.563-7.482,12.914-4.8,8.7-7.08,13.12-4.52,8.85-6.68,13.324-4.248,8.983-6.185,13.56q7.078-13.112,14.349-26.086c2.445-4.3,4.878-8.632,7.372-12.914l3.731-6.422c1.265-2.129,2.525-4.261,3.817-6.374q3.814-6.377,7.8-12.644l.987-1.573,1-1.561c.671-1.039,1.334-2.086,2.009-3.119,1.369-2.063,2.724-4.135,4.11-6.184,5.544-8.208,11.373-16.217,17.72-23.856-3.524,3.5-6.813,7.24-10,11.063C3462.458,2401.03,3461.654,2401.992,3460.879,2402.965Z" transform="translate(-1906.615 -1481.104)" fill="#3ea399"/>
    <path id="Path_1005" data-name="Path 1005" d="M3497.889,2652.99a51.72,51.72,0,0,0-28.123-5.249c-14.249,1.354-16.728,9.5-16.857,9.955l.479-7.324c-11.766,8.322-14.736,17.675-15.072,21.607a3.132,3.132,0,0,0,.166,1.865c8.093,8.052,29.427-.775,29.427-.775l-3.4-5.94s7.438,4.494,20.063,5.266c11.812.717,22.984,15.85,26.5,8.52a9.122,9.122,0,0,0,.617-1.866C3514.247,2667.686,3500.556,2654.382,3497.889,2652.99Z" transform="translate(-1926.551 -1665.43)" fill="#89c2c1"/>
    <path id="Path_1006" data-name="Path 1006" d="M3478.248,2681.354c-19.334-2.238-33.544,8.391-40,14.538a3.138,3.138,0,0,0,.166,1.865c8.093,8.052,29.426-.775,29.426-.775l-3.4-5.941s7.438,4.494,20.063,5.266c11.812.718,22.983,15.85,26.5,8.52C3506.317,2696.457,3496.244,2683.443,3478.248,2681.354Z" transform="translate(-1926.501 -1689.342)" fill="#3ea399"/>
    <path id="Path_1007" data-name="Path 1007" d="M3470.973,2679c-.543,0-1.085,0-1.627.029l-1.63.083-1.624.161a43.515,43.515,0,0,0-6.411,1.234,46.492,46.492,0,0,0-6.144,2.21,42.679,42.679,0,0,0-5.719,3.125c-.457.287-.9.609-1.349.909s-.878.635-1.312.962c-.861.674-1.693,1.352-2.491,2.083s-1.57,1.484-2.3,2.3q-.275.3-.534.608c-.172.207-.35.411-.516.623s-.33.427-.491.643a3.865,3.865,0,0,0-.419.691,8.529,8.529,0,0,1,1.094-1.165c.2-.184.387-.368.589-.543s.4-.356.6-.525c.81-.692,1.633-1.363,2.491-1.986a50.854,50.854,0,0,1,5.312-3.473,50.077,50.077,0,0,1,11.629-4.833,45.1,45.1,0,0,1,6.167-1.277,51.761,51.761,0,0,1,6.3-.508,68.508,68.508,0,0,1,12.7,1.1,44.42,44.42,0,0,0-12.681-2.405C3472.061,2679,3471.518,2679,3470.973,2679Z" transform="translate(-1926.644 -1687.881)" fill="#199"/>
    <path id="Path_1008" data-name="Path 1008" d="M3161.6,2453.478a416.72,416.72,0,0,0-34.575-31.4.935.935,0,0,0-1.162,1.466,414.087,414.087,0,0,1,34.4,31.243c15.718,16.07,34.646,38.836,35.536,55.868a.936.936,0,0,0,.933.884h.052a.936.936,0,0,0,.884-.981c-.411-7.823-4.408-17.359-11.884-28.344A219.129,219.129,0,0,0,3161.6,2453.478Z" transform="translate(-1703.535 -1504.545)" fill="#0a5c60"/>
    <path id="Path_1009" data-name="Path 1009" d="M3111.354,2399.014a7.539,7.539,0,1,0,6.093,8.747A7.539,7.539,0,0,0,3111.354,2399.014Z" transform="translate(-1687.121 -1488.159)" fill="#feb84f"/>
    <path id="Path_1010" data-name="Path 1010" d="M3425.948,2356.951c-9.008,8.285-16.472,19.227-22.189,32.511a158.872,158.872,0,0,0-10.3,36.013,208.132,208.132,0,0,0-2.91,41.255.935.935,0,0,0,.932.884h.052a.932.932,0,0,0,.884-.984,206.781,206.781,0,0,1,2.887-40.837,157.354,157.354,0,0,1,10.17-35.584c5.611-13.046,12.914-23.77,21.736-31.877a.936.936,0,0,0-1.266-1.374Z" transform="translate(-1892.444 -1458.103)" fill="#0a5c60"/>
    <path id="Path_1011" data-name="Path 1011" d="M3508.794,2324.764a7.539,7.539,0,1,0,6.093,8.747A7.539,7.539,0,0,0,3508.794,2324.764Z" transform="translate(-1970.507 -1435.217)" fill="#feb84f"/>
    <path id="Path_1012" data-name="Path 1012" d="M3498.927,2540.742c-8.919.68-18.7,4.3-29.073,10.741a156.256,156.256,0,0,0-25.713,20.593,247.817,247.817,0,0,0-25.489,29,.936.936,0,0,0,1.518,1.094,245.372,245.372,0,0,1,25.271-28.755,154.736,154.736,0,0,1,25.4-20.349c10.116-6.288,19.612-9.806,28.23-10.463a.936.936,0,0,0-.144-1.866Z" transform="translate(-1912.43 -1589.292)" fill="#0a5c60"/>
    <path id="Path_1013" data-name="Path 1013" d="M3698.406,2515.7a7.539,7.539,0,1,0,6.093,8.75A7.539,7.539,0,0,0,3698.406,2515.7Z" transform="translate(-2105.704 -1571.362)" fill="#feb84f"/>
    <path id="Path_1014" data-name="Path 1014" d="M1364.415,1977.155s5.972-15.626,3.49-24.812-9.065-20.013-9.065-20.013l-6.669,6.371s1.782-12.914-.4-17.54-37.662-28.152-44.042-28.41a1.721,1.721,0,0,0-.723.106c-5.392,1.636-2.052,24.711,2.258,29.728l24.9,2.485-21.067,4.44,1.045,4.635,26.648.146-20.662,7.748,10.719,23.71,19.336,5.206-15.385,2.981s.221,20.4,3.26,25.234S1350,2015.455,1350,2015.455l-13.2-8.862s3.045,28.037,12.512,31.639a.706.706,0,0,0,.155.066s24.284-29.01,22.539-73.087Z" transform="translate(-404.905 -1127.262)" fill="#2c8790"/>
    <path id="Path_1015" data-name="Path 1015" d="M1307.063,1893.13c-5.392,1.636-2.052,24.711,2.259,29.728l24.9,2.485-21.067,4.439,1.044,4.635,26.649.146-20.662,7.749,10.718,23.71,19.336,5.206-15.385,2.981s.221,20.4,3.26,25.234,11.947,16.286,11.947,16.286l-13.2-8.862s3.045,28.037,12.512,31.639c11.149-32.784,10.982-57.395,3.966-84.586C1347.664,1931.912,1320.97,1905.677,1307.063,1893.13Z" transform="translate(-404.948 -1127.536)" fill="#38a8ad"/>
    <path id="Path_1016" data-name="Path 1016" d="M1471.039,2107.492c-.379-1.926-.775-3.848-1.306-5.74l-.4-1.415-.442-1.4c-.287-.938-.631-1.856-.958-2.778a50.327,50.327,0,0,0-2.414-5.355l-.347-.646-.367-.634c-.238-.425-.505-.838-.766-1.251s-.542-.812-.841-1.2a6.521,6.521,0,0,0-.97-1.093,1.921,1.921,0,0,1,.233.287c.072.1.143.192.207.287.132.2.264.4.382.614.25.414.471.844.694,1.271s.436.861.628,1.3l.287.66.287.666a55.927,55.927,0,0,1,1.926,5.452c.253.93.542,1.846.76,2.784l.344,1.4.287,1.409q.155.7.287,1.412l.267,1.415c.175.944.287,1.9.451,2.844a100.441,100.441,0,0,1,.921,11.479c.037.958.037,1.919.04,2.869s0,1.92-.026,2.87-.037,1.92-.075,2.87l-.161,2.87c-.252,3.836-.611,7.671-1.148,11.479-.465,3.826-1.185,7.616-1.874,11.419-1.461,7.585-3.358,15.095-5.369,22.6a154.877,154.877,0,0,0,7.111-22.229l.654-2.85.316-1.435.287-1.435.545-2.869c.187-.959.318-1.926.479-2.89l.227-1.435c.075-.482.146-.967.2-1.452l.356-2.913c.129-.967.187-1.946.287-2.919s.187-1.948.227-2.927a106.85,106.85,0,0,0,.094-11.743A86.25,86.25,0,0,0,1471.039,2107.492Z" transform="translate(-517.114 -1265.043)" fill="#0a5c60"/>
    <path id="Path_1017" data-name="Path 1017" d="M1218.712,2150.366l-.574,12.7s-2.927-19.649-4.833-22.1-18.963-17.273-25.621-17.97c-5.739-.6-17.566.615-20.8.973h0c-.528.052-.823.089-.823.089l9.958,14.349,17.792,2.385-13.982,2.488s16.762,23.606,18.593,24.453,19.173,6.927,19.173,6.927l-16.12-1.1s12.446,19.766,17.342,21.741c4.787,1.928,17.609,5.6,18.217,5.768a.035.035,0,0,0,.02,0s1.421-19.831-2.683-29.2S1218.712,2150.366,1218.712,2150.366Z" transform="translate(-306.401 -1291.324)" fill="#2c8790"/>
    <path id="Path_1018" data-name="Path 1018" d="M1166.874,2126.84h0c-.528.052-.823.089-.823.089l9.958,14.348,17.792,2.385-13.981,2.488s16.762,23.607,18.593,24.453,19.173,6.927,19.173,6.927l-16.119-1.1s12.446,19.767,17.342,21.742c4.787,1.928,17.609,5.6,18.217,5.768-6.6-14.532-24.631-43.715-41.545-60.581C1184.856,2132.781,1174.28,2128.522,1166.874,2126.84Z" transform="translate(-306.393 -1294.177)" fill="#38a8ad"/>
    <path id="Path_1019" data-name="Path 1019" d="M1315.609,2241.2q-1.03-1.721-2.095-3.444t-2.178-3.4c-1.472-2.25-2.97-4.485-4.54-6.666s-3.157-4.351-4.83-6.457q-1.248-1.584-2.534-3.137t-2.637-3.05q-1.34-1.512-2.766-2.936c-.476-.476-.961-.941-1.466-1.386-.255-.221-.511-.442-.778-.646-.135-.1-.287-.2-.416-.287a.91.91,0,0,0-.468-.178.917.917,0,0,1,.436.221c.132.106.255.216.379.327.244.227.476.467.706.712.453.488.892.99,1.326,1.5.861,1.019,1.69,2.069,2.517,3.119s1.621,2.126,2.411,3.2,1.575,2.155,2.344,3.249q4.623,6.547,8.842,13.356,1.056,1.7,2.083,3.421t2.055,3.444c1.357,2.3,2.652,4.632,3.952,6.962s2.609,4.654,3.949,6.97,2.695,4.626,4.161,6.888a86.6,86.6,0,0,0-6.437-14.791C1318.338,2245.836,1316.984,2243.512,1315.609,2241.2Z" transform="translate(-395.415 -1353.202)" fill="#0a5c60"/>
    <path id="Path_1020" data-name="Path 1020" d="M1676.581,2066.633a11.966,11.966,0,0,0-5.722-2.054c-22.057-2.4-45.939,10.409-58.287,19.629-12.506,9.324-14.016,29.177-14.062,30.046l-.132-15.476c-18.739,17.129-23.119,43.077-23.119,43.077l-2.505-10.107c-4.712,8.322-8.543,36.285-8.543,36.285,19.9.141,34.842-12.411,35.3-12.8a8.72,8.72,0,0,1-9.183-2.2c30.965-.795,42.839-36.6,50.743-49.273s19.876-20.765,32.385-27.624c5.739-3.157,6.17-5.774,4.939-7.694A6.834,6.834,0,0,0,1676.581,2066.633Z" transform="translate(-590.292 -1249.573)" fill="#8bc3c0"/>
    <path id="Path_1021" data-name="Path 1021" d="M1617.6,2114.708c-16.071,15.824-53.426,63.66-53.426,63.66,19.9.14,34.842-12.412,35.3-12.8a8.719,8.719,0,0,1-9.183-2.2c30.964-.795,42.839-36.6,50.743-49.274s19.876-20.765,32.385-27.624c5.74-3.157,6.17-5.774,4.939-7.694C1650.742,2081.3,1632.453,2100.092,1617.6,2114.708Z" transform="translate(-590.263 -1259.902)" fill="#62b5ad"/>
    <path id="Path_1022" data-name="Path 1022" d="M1630.181,2133.721l-2.812,2.454c-.941.812-1.843,1.667-2.766,2.5l-1.375,1.26-1.357,1.28c-3.647,3.389-7.14,6.933-10.618,10.489s-6.827,7.234-10.162,10.919-6.575,7.462-9.774,11.264-6.354,7.648-9.421,11.556-6.1,7.843-9.066,11.829-5.86,8.035-8.609,12.156q9.418-11.547,18.989-22.923c3.214-3.774,6.408-7.562,9.671-11.292l4.878-5.6c1.644-1.854,3.283-3.707,4.948-5.541q4.947-5.544,10.044-10.951l1.266-1.36,1.28-1.346c.861-.893,1.7-1.8,2.566-2.683,1.722-1.768,3.444-3.55,5.2-5.3,6.985-7.019,14.217-13.775,21.89-20.088-4.121,2.775-8.055,5.828-11.9,8.985C1632.081,2132.112,1631.125,2132.906,1630.181,2133.721Z" transform="translate(-590.299 -1290.969)" fill="#3ea399"/>
    <path id="Path_1023" data-name="Path 1023" d="M1654.508,2370.8a51.7,51.7,0,0,0-26.643-10.446c-14.248-1.349-18.214,6.19-18.424,6.6l1.845-7.1c-13.123,5.957-17.792,14.587-18.866,18.386a3.153,3.153,0,0,0-.187,1.863c6.434,9.43,29.047,4.772,29.047,4.772l-2.224-6.474s6.46,5.814,18.714,8.945c11.479,2.924,19.592,19.89,24.421,13.35a8.726,8.726,0,0,0,.956-1.722C1667.818,2388.3,1656.878,2372.675,1654.508,2370.8Z" transform="translate(-610.221 -1460.319)" fill="#89c2c1"/>
    <path id="Path_1024" data-name="Path 1024" d="M1634.443,2395.249c-18.567-5.837-34.523,1.934-42.021,6.755a3.153,3.153,0,0,0-.187,1.863c6.434,9.43,29.047,4.772,29.047,4.772l-2.224-6.474s6.46,5.814,18.714,8.945c11.479,2.924,19.592,19.89,24.422,13.35C1659.171,2415.357,1651.727,2400.681,1634.443,2395.249Z" transform="translate(-610.22 -1484.073)" fill="#3ea399"/>
    <path id="Path_1025" data-name="Path 1025" d="M1627.925,2390.555c-.531-.106-1.065-.212-1.6-.287l-1.616-.224-1.627-.149a43.552,43.552,0,0,0-6.528,0,45.669,45.669,0,0,0-6.448,1.016,42.454,42.454,0,0,0-6.2,1.992c-.505.2-1,.428-1.5.64s-.982.459-1.466.7c-.961.5-1.917,1.007-2.838,1.575a30.57,30.57,0,0,0-2.686,1.814c-.215.161-.43.324-.64.5s-.419.336-.623.513-.4.359-.6.54a3.812,3.812,0,0,0-.542.6,8.688,8.688,0,0,1,1.294-.938c.224-.144.448-.287.68-.422s.456-.287.689-.4c.924-.525,1.86-1.03,2.821-1.481a51.09,51.09,0,0,1,5.869-2.414,50.13,50.13,0,0,1,12.34-2.557,44.853,44.853,0,0,1,6.313-.094,51.958,51.958,0,0,1,6.279.683,68.681,68.681,0,0,1,12.263,3.467,44.346,44.346,0,0,0-12-4.747C1628.992,2390.759,1628.456,2390.667,1627.925,2390.555Z" transform="translate(-610.82 -1481.655)" fill="#199"/>
    <path id="Path_1026" data-name="Path 1026" d="M1600.416,2056.974c-10.4,6.442-19.8,15.783-27.905,27.762a159.324,159.324,0,0,0-16.883,33.433,209.353,209.353,0,0,0-10.618,39.972.936.936,0,0,0,.8,1.051h.126a.933.933,0,0,0,.927-.809,205.937,205.937,0,0,1,10.526-39.6,157.474,157.474,0,0,1,16.679-33.02c7.961-11.749,17.155-20.9,27.329-27.2a.935.935,0,1,0-.984-1.59Z" transform="translate(-576.595 -1244.244)" fill="#0a5c60"/>
    <path id="Path_1027" data-name="Path 1027" d="M1735.141,2027.445a7.536,7.536,0,1,0,4.339,9.737A7.536,7.536,0,0,0,1735.141,2027.445Z" transform="translate(-704.872 -1222.949)" fill="#feb84f"/>
    <path id="Path_1028" data-name="Path 1028" d="M1660.251,2271.438c-8.9-1.013-19.176.7-30.574,5.082a156.5,156.5,0,0,0-29.128,15.391,246.907,246.907,0,0,0-30.485,23.7.936.936,0,0,0,1.283,1.36,245.3,245.3,0,0,1,30.253-23.509,155.31,155.31,0,0,1,28.761-15.209c11.112-4.271,21.1-5.941,29.679-4.965a.935.935,0,1,0,.212-1.856Z" transform="translate(-594.274 -1397.078)" fill="#0a5c60"/>
    <path id="Path_1029" data-name="Path 1029" d="M1885.457,2250.6a7.539,7.539,0,1,0,4.339,9.74A7.539,7.539,0,0,0,1885.457,2250.6Z" transform="translate(-812.048 -1382.065)" fill="#feb84f"/>
    <path id="Path_1030" data-name="Path 1030" d="M1277.933,2096.568a159.551,159.551,0,0,0-16.883-33.433c-8.113-11.978-17.506-21.316-27.908-27.762a.935.935,0,0,0-.984,1.59c10.176,6.313,19.37,15.453,27.331,27.2a157.415,157.415,0,0,1,16.676,33.019,206.311,206.311,0,0,1,10.529,39.6.936.936,0,0,0,.924.81,1.036,1.036,0,0,0,.129,0,.939.939,0,0,0,.8-1.053A208.235,208.235,0,0,0,1277.933,2096.568Z" transform="translate(-353.234 -1228.871)" fill="#0a5c60"/>
    <circle id="Ellipse_2" data-name="Ellipse 2" cx="7.539" cy="7.539" r="7.539" transform="translate(866.117 808.924) rotate(-64.53)" fill="#feb84f"/>
    <path id="Path_1031" data-name="Path 1031" d="M3428.229,2598.273s-12.741-19.113-19.54-21.236-19.959-18.266-28.881-25.484c-5.452-4.425-16.357-7.258-23.985-8.784-4.8-.973-8.288-1.409-8.288-1.409-31.854,11.04-57.765,56.91-57.765,56.91a.071.071,0,0,0,.028.02c13.775,13.092,50.4,24.356,82.686,31.1,28.5,5.972,53.6,8.394,56.591,5.409,3.384-3.386,2.939-13.462,1.771-22.177C3429.817,2604.917,3428.229,2598.273,3428.229,2598.273Z" transform="translate(-1820.661 -1589.741)" fill="#97daff"/>
    <path id="Path_1032" data-name="Path 1032" d="M3572.824,2580.568c-6.79-2.121-19.959-18.269-28.878-25.486-5.467-4.425-16.373-7.255-23.985-8.781,11.5,13.071,29.412,33.254,34.606,44.461,5.361,11.574-8.239,30.657-17.944,42.156,28.5,5.972,53.6,8.394,56.588,5.407,6.371-6.371-.847-36.523-.847-36.523S3579.622,2582.688,3572.824,2580.568Z" transform="translate(-1984.792 -1593.263)" fill="#69d1ff"/>
    <path id="Path_1033" data-name="Path 1033" d="M3420.124,2564.433c-5.673-1.26-19.727,10.193-27.365,18.995-1.774,2.043,2.545,4.279,5.151,3.541,21.4-6.052,36.342,7.789,38.311-.642C3438.473,2576.666,3428.816,2566.364,3420.124,2564.433Z" transform="translate(-1893.797 -1606.124)" fill="#d7f3ff"/>
    <path id="Path_1034" data-name="Path 1034" d="M3416.723,2760.43c-59.344,19.89-125.2-19.687-126.843-20.679,13.775,13.092,50.4,24.355,82.686,31.1,28.5,5.972,53.6,8.394,56.591,5.409,3.384-3.386,2.939-13.462,1.771-22.177Z" transform="translate(-1820.738 -1731.198)" fill="#48c4ef"/>
    <path id="Path_1035" data-name="Path 1035" d="M1452.562,2286c-3.59-4.7-13.221-11.749-20.232-16.556a14.573,14.573,0,0,0-15.973-.321c-7.071,4.445-17.118,11.031-22.866,15.964a34.438,34.438,0,0,0-6.753,7.915,14.483,14.483,0,0,0,5.283,20.272c9.99,5.651,22.958,9.3,29.346,10.9a14.554,14.554,0,0,0,7.567-.146l.146-.037,18.82-5.452a14.5,14.5,0,0,0,10.262-16.518C1457.065,2296.063,1455.3,2289.566,1452.562,2286Z" transform="translate(-462.194 -1394.038)" fill="#97daff"/>
    <path id="Path_1036" data-name="Path 1036" d="M1556.288,2286.408c-3.59-4.7-13.221-11.749-20.232-16.556a14.549,14.549,0,0,0-6.026-2.382c4.494,9.542,9.611,21.612,10.825,29.384,1.148,7.4-3.335,18.472-8.035,27.549l18.82-5.453a14.5,14.5,0,0,0,10.262-16.518C1560.791,2296.475,1559.029,2289.978,1556.288,2286.408Z" transform="translate(-565.921 -1394.45)" fill="#69d1ff"/>
    <path id="Path_1037" data-name="Path 1037" d="M1468.343,2278.94c-3.045,1.395-12.34,5.031-15.743,11.938-1.455,2.953.861,6.13,3.805,4.669,4.879-2.411,13.809-3.229,15.916-5.536C1475.954,2286.034,1472.484,2277.052,1468.343,2278.94Z" transform="translate(-510.392 -1402.445)" fill="#d7f3ff"/>
    <path id="Path_1038" data-name="Path 1038" d="M1824.769,2738.264c-3.3-4.322-12.153-10.8-18.6-15.209a13.38,13.38,0,0,0-14.684-.287c-6.5,4.086-15.743,10.141-21.029,14.679a31.561,31.561,0,0,0-6.207,7.28,13.331,13.331,0,0,0,4.859,18.654c9.183,5.2,21.107,8.549,26.975,10.018a13.407,13.407,0,0,0,6.959-.135l.132-.038,17.308-5.008a13.33,13.33,0,0,0,9.435-15.187C1828.91,2747.519,1827.291,2741.544,1824.769,2738.264Z" transform="translate(-731.489 -1717.624)" fill="#97daff"/>
    <path id="Path_1039" data-name="Path 1039" d="M1920.118,2738.633c-3.3-4.322-12.153-10.8-18.6-15.21a13.354,13.354,0,0,0-5.553-2.192c4.132,8.775,8.836,19.875,9.955,27.021,1.065,6.807-3.068,16.986-7.39,25.32l17.307-5.008a13.33,13.33,0,0,0,9.436-15.187C1924.259,2747.888,1922.64,2741.913,1920.118,2738.633Z" transform="translate(-826.838 -1717.993)" fill="#69d1ff"/>
    <path id="Path_1040" data-name="Path 1040" d="M1839.283,2731.724c-2.8,1.283-11.35,4.626-14.475,10.977-1.337,2.715.786,5.639,3.5,4.3,4.48-2.215,12.7-2.967,14.636-5.088C1846.282,2738.247,1843.1,2729.973,1839.283,2731.724Z" transform="translate(-775.812 -1725.304)" fill="#d7f3ff"/>
    <path id="Path_1041" data-name="Path 1041" d="M2717.442,2816.43c-1.722-2.27-6.385-5.676-9.757-8a7.039,7.039,0,0,0-7.717-.155,108.44,108.44,0,0,0-11.045,7.711,16.608,16.608,0,0,0-3.26,3.822,6.994,6.994,0,0,0,2.552,9.792,61.086,61.086,0,0,0,14.176,5.263,7.048,7.048,0,0,0,3.653-.069l.072-.02,9.091-2.632a7,7,0,0,0,4.956-7.978C2719.615,2821.291,2718.765,2818.152,2717.442,2816.43Z" transform="translate(-1389.171 -1779.292)" fill="#97daff"/>
    <path id="Path_1042" data-name="Path 1042" d="M2767.506,2816.636c-1.721-2.27-6.385-5.676-9.757-8a7,7,0,0,0-2.919-1.148c2.169,4.608,4.643,10.44,5.229,14.194.574,3.575-1.61,8.922-3.88,13.3l9.091-2.631a7,7,0,0,0,4.956-7.978C2769.678,2821.5,2768.829,2818.358,2767.506,2816.636Z" transform="translate(-1439.235 -1779.498)" fill="#69d1ff"/>
    <path id="Path_1043" data-name="Path 1043" d="M2725,2813.016c-1.473.675-5.964,2.431-7.605,5.766-.7,1.435.413,2.961,1.84,2.256,2.35-1.165,6.669-1.558,7.688-2.675C2728.674,2816.443,2727,2812.094,2725,2813.016Z" transform="translate(-1412.386 -1783.348)" fill="#d7f3ff"/>
    <path id="Path_1044" data-name="Path 1044" d="M1983.047,2853.274c-17.529-.8-19.474,13.752-19.474,13.752s-2.921-6.767-13.382-12.7-21.236,7.969-21.236,7.969c-24.812-33.829-51.655,3.289-51.655,3.289l128.318,5.811S2000.576,2854.072,1983.047,2853.274Z" transform="translate(-813.533 -1808.428)" fill="#fff"/>
    <path id="Path_1045" data-name="Path 1045" d="M1999.383,2859.82a24.419,24.419,0,0,0-18.536-9.705c-9.45-.437-14.5,3.53-17.075,6.93a18.428,18.428,0,0,0-2.772,5.323c-1.676-2.528-5.389-7-12.6-11.091-4.592-2.612-9.958-1.989-15.5,1.8a33.826,33.826,0,0,0-6.144,5.5c-6.931-9.077-14.682-13.675-23.053-13.675h-.077c-16.214.054-28.769,17.164-29.3,17.89a.907.907,0,1,0,1.469,1.065,55.209,55.209,0,0,1,8.159-8.578c4.592-3.891,11.717-8.538,19.675-8.563h.072c8.035,0,15.537,4.663,22.281,13.858a.916.916,0,0,0,.72.37.939.939,0,0,0,.729-.353,32.412,32.412,0,0,1,6.523-6.041c4.988-3.4,9.545-3.966,13.548-1.693,10.044,5.693,12.971,12.211,13,12.274a.907.907,0,0,0,1.722-.238,16.217,16.217,0,0,1,3.036-6.813c3.364-4.4,8.578-6.471,15.5-6.153a22.293,22.293,0,0,1,17.15,8.959,28.626,28.626,0,0,1,4.591,8.5.9.9,0,1,0,1.733-.505,29.923,29.923,0,0,0-4.85-9.062Z" transform="translate(-811.293 -1806.172)" fill="#ffa42c"/>
    <path id="Path_1046" data-name="Path 1046" d="M1495.934,2561.1c-12.469-.574-13.849,9.78-13.849,9.78s-2.078-4.809-9.519-9.034-15.1,5.668-15.1,5.668c-17.649-24.06-36.733,2.339-36.733,2.339l91.258,4.133S1508.4,2561.678,1495.934,2561.1Z" transform="translate(-487.987 -1601.177)" fill="#fff"/>
    <path id="Path_1047" data-name="Path 1047" d="M1494.308,2558.858c-9.832-.454-13.1,5.717-14.1,8.733a25.806,25.806,0,0,0-8.974-7.906c-3.272-1.857-7.083-1.415-11.026,1.28a24.129,24.129,0,0,0-4.368,3.912c-4.93-6.454-10.443-9.726-16.4-9.726h-.054c-11.531.04-20.464,12.208-20.837,12.725a.646.646,0,1,0,1.045.758,39.353,39.353,0,0,1,5.828-6.124c3.254-2.758,8.322-6.05,13.973-6.067h.046c5.719,0,11.051,3.317,15.849,9.858a.641.641,0,0,0,.511.264.653.653,0,0,0,.517-.25,22.983,22.983,0,0,1,4.64-4.305c3.547-2.416,6.79-2.821,9.637-1.205,7.134,4.05,9.226,8.687,9.243,8.733a.646.646,0,0,0,1.231-.169c.054-.4,1.469-9.757,13.181-9.224a15.844,15.844,0,0,1,12.2,6.374,20.373,20.373,0,0,1,3.271,6.047.646.646,0,0,0,.62.465.646.646,0,0,0,.62-.823C1510.918,2572.078,1507.087,2559.443,1494.308,2558.858Z" transform="translate(-486.332 -1599.573)" fill="#ffa42c"/>
    <path id="Path_1048" data-name="Path 1048" d="M3179.4,2697.044c-20.226-4.228-24.809,15.427-24.809,15.427s-2.313-9.817-13.511-19.841-25.937,7.174-25.937,7.174c-23.406-50.9-60.509-4.683-60.509-4.683l148.079,30.847S3199.634,2701.274,3179.4,2697.044Z" transform="translate(-1653.007 -1685.67)" fill="#fff"/>
    <path id="Path_1049" data-name="Path 1049" d="M3196.855,2709.693c-4.482-9.1-11.416-14.86-20.045-16.665-11.008-2.3-17.557,2.273-21.112,6.517a26,26,0,0,0-3.943,6.517,48.805,48.805,0,0,0-12.733-17.178,12.71,12.71,0,0,0-9.594-3.4c-3.92.258-8.144,2.144-12.561,5.6a43.37,43.37,0,0,0-4.233,3.794c-6.744-13.93-15.236-21.612-25.254-22.852-7.794-.958-16.587,2.121-25.423,8.914a70.381,70.381,0,0,0-11.04,10.566,1.152,1.152,0,0,0,1.8,1.435,69.315,69.315,0,0,1,10.647-10.182c10.544-8.1,18.725-9.065,23.73-8.448,9.548,1.177,17.683,8.939,24.183,23.073a1.148,1.148,0,0,0,1.926.27c.08-.092,8.107-9.332,16.392-9.877a10.466,10.466,0,0,1,7.895,2.821c10.759,9.631,13.135,19.15,13.158,19.244a1.147,1.147,0,0,0,1.125.89h0a1.148,1.148,0,0,0,1.125-.89,23.987,23.987,0,0,1,4.632-8.9c4.577-5.421,10.905-7.332,18.817-5.679,8,1.673,14.2,6.844,18.416,15.365a44.455,44.455,0,0,1,3.995,12.564,1.148,1.148,0,0,0,1.148,1.013,1.333,1.333,0,0,0,.146,0,1.148,1.148,0,0,0,1-1.291,45.939,45.939,0,0,0-4.2-13.221Z" transform="translate(-1650.173 -1682.786)" fill="#ffa42c"/>
    <path id="Path_1050" data-name="Path 1050" d="M1859.812,1029.006c-42.906-.517-104.967.6-155.015,8.942-11.267,11.766-22.7,24.64-34.15,38.248q-10.856,12.914-21.707,26.643c14.664,11.316,36.446,21.386,66.914,20.229,66.986-2.551,84.451-25.231,121.313-3.444,25.621,15.138,59.312,29.527,85.145,35.949q-6.565-16.9-13.465-33.034C1893.442,1086.524,1876.93,1054.1,1859.812,1029.006Z" transform="translate(-650.706 -511.317)" fill="#69d1ff"/>
    <path id="Path_1051" data-name="Path 1051" d="M1823.265,852.694c-30.152,18.277-64.343,52.353-98.644,93.16,8.747,8.345,20.375,14.51,35.82,16.378,65.881,7.972,90.489-20.992,124.513,10.142,26.826,24.545,54.574,29.728,77.867,19.824C1921.094,894.742,1871.333,823.555,1823.265,852.694Z" transform="translate(-704.668 -380.976)" fill="#97daff"/>
    <path id="Path_1052" data-name="Path 1052" d="M2904.52,1808.076c-42.329-20.846-110.629-49.885-168.779-53.756-11.855,9.861-24.092,20.662-36.4,32.009-8.465,7.809-16.986,15.861-25.431,24.06,14.636,15.873,37.33,31.28,68.452,30.164,61.987-2.21,59.777-3.315,101.844,24.358,25.217,16.6,56.4.557,77.331-14.943q-3.639-9.47-7.381-18.762C2910.977,1823.34,2907.774,1815.606,2904.52,1808.076Z" transform="translate(-1381.536 -1028.561)" fill="#69d1ff"/>
    <path id="Path_1053" data-name="Path 1053" d="M2897.853,1572.842c-25.254-8.632-79.469,31.794-135.323,83.257,17.554,14.323,41.718,29.421,60.109,23.3,32.577-10.862,54.292,2.893,68.782,20.269,13.135,15.758,61.4,17.813,85.923,1.312C2951.494,1636.831,2922.648,1581.319,2897.853,1572.842Z" transform="translate(-1444.725 -898.33)" fill="#97daff"/>
    <path id="Path_1054" data-name="Path 1054" d="M2097.3,1732.746c-2.5,1.2-7.921,10.423-7.462,16.805s18.78,8.54,18.78,8.54,15.3-17.933,15.31-18C2124.637,1734.25,2099.806,1731.546,2097.3,1732.746Z" transform="translate(-965.061 -1012.979)" fill="#f98e70"/>
    <path id="Path_1055" data-name="Path 1055" d="M2044.678,1684.816a4.357,4.357,0,1,0-6.687,5.587l259.752,310.744a4.357,4.357,0,1,0,6.687-5.587Z" transform="translate(-927.387 -977.888)" fill="#ef523f"/>
    <path id="Path_1056" data-name="Path 1056" d="M2119.635,1704.211c-3.584-2.476-17.853-1.036-19.867.258,0,0-12.55,5-14.464,7.6s-3.1,7.966-3.2,10.991,2.918,3.332,5,1.148a10.268,10.268,0,0,0,2.56-6.061s4.176-3.6,5.613-3.84,7.969,3.185,10.982,3.977,10.36,2.213,12.176.7S2123.219,1706.685,2119.635,1704.211Z" transform="translate(-959.562 -991.868)" fill="#ffaf98"/>
    <path id="Path_1057" data-name="Path 1057" d="M2084.937,1766.363c-.778.465-5.283,3.444-7.611,5.295a2.489,2.489,0,0,0,.474,4.213,4.485,4.485,0,0,0,.522.184c2.3.634,7.6-4.477,8.2-6.738S2086.091,1765.68,2084.937,1766.363Z" transform="translate(-955.478 -1037.023)" fill="#ffaf98"/>
    <path id="Path_1058" data-name="Path 1058" d="M2090.8,1780.661c-3.914,3.828-7.4,4.075-7.4,4.075a7.107,7.107,0,0,0,1.539,3.444c1.176,1.113,4.158,2.391,5.2,1.891s7.037-8,7.223-9.657S2094.709,1776.835,2090.8,1780.661Z" transform="translate(-960.487 -1045.756)" fill="#ffaf98"/>
    <path id="Path_1059" data-name="Path 1059" d="M2109.986,1788.911c-3.08,4.523-6.446,5.453-6.446,5.453a7.137,7.137,0,0,0,2.187,3.079c1.374.867,4.548,1.524,5.472.827s5.318-9.229,5.166-10.905S2113.062,1784.388,2109.986,1788.911Z" transform="translate(-974.848 -1051.015)" fill="#ffaf98"/>
    <path id="Path_1060" data-name="Path 1060" d="M2133.88,1798c-1.148,4.408-3.51,6.084-3.51,6.084a5.926,5.926,0,0,0,2.582,1.793c1.324.29,3.989-.086,4.514-.892s1.564-8.721.984-9.978S2135.016,1793.6,2133.88,1798Z" transform="translate(-993.979 -1057.023)" fill="#ffaf98"/>
    <path id="Path_1061" data-name="Path 1061" d="M2187.981,2625.4c-7.869-5.1-8-15.422-8-15.422s-16.625,7.748-24.542,13.875-31.722,12.627-35.619,14.509a4.135,4.135,0,0,0-1.355,1.085c-2.387,2.844-1.928,8.865-1.928,8.865s72.782,6.333,94.529-1.4a24.326,24.326,0,0,0,2.067-10.168c0-4.812-3.2-11.232-7.906-17.485C2205.231,2619.258,2195.87,2630.493,2187.981,2625.4Z" transform="translate(-984.093 -1638.669)" fill="#ef523f"/>
    <path id="Path_1062" data-name="Path 1062" d="M2118.47,2705.947c-2.387,2.844-1.928,8.865-1.928,8.865s72.782,6.334,94.529-1.4a24.33,24.33,0,0,0,2.066-10.168c-16.334,1.257-45.778,4.018-50.642,4.092S2131.944,2706.472,2118.47,2705.947Z" transform="translate(-984.093 -1705.165)" fill="#fff"/>
    <path id="Path_1063" data-name="Path 1063" d="M2211.272,2700.653c-6.506.5-15.084,1.24-23.38,1.954-12.5,1.076-24.315,2.092-27.219,2.138-5.584.094-37.617-1.148-43.982-1.389h-.35l-.224.27c-2.546,3.033-2.115,9.12-2.1,9.378l.046.606.6.052c.184.017,18.456,1.593,39.152,2.2q8.385.247,15.66.247c19.313,0,32.744-1.3,40.018-3.892l.27-.094.129-.255a24.834,24.834,0,0,0,2.141-10.489v-.769Zm-2.528,10.305c-8.931,3.062-27.885,4.259-54.873,3.464-18.51-.546-35.077-1.866-38.454-2.144-.037-1.481.031-5.329,1.581-7.481,7.142.287,38.168,1.467,43.694,1.375,2.953-.046,14.788-1.065,27.32-2.144,7.963-.686,16.191-1.392,22.588-1.891a24.265,24.265,0,0,1-1.848,8.822Z" transform="translate(-982.294 -1703.29)" fill="#231f20"/>
    <path id="Path_1064" data-name="Path 1064" d="M2286.262,2628.153a1.455,1.455,0,1,0-2.359,1.7l5.1,7.074a1.454,1.454,0,1,0,2.359-1.7Z" transform="translate(-1103.237 -1651.17)" fill="#231f20"/>
    <path id="Path_1065" data-name="Path 1065" d="M2266.719,2637.121a1.455,1.455,0,0,0-2.029-.33h0a1.458,1.458,0,0,0-.33,2.032l5.105,7.073a1.452,1.452,0,0,0,2.356-1.7Z" transform="translate(-1089.321 -1657.59)" fill="#231f20"/>
    <path id="Path_1066" data-name="Path 1066" d="M2246.51,2648.008a1.452,1.452,0,0,0-2.029-.331h0a1.455,1.455,0,0,0-.33,2.029l5.105,7.076a1.453,1.453,0,1,0,2.356-1.7Z" transform="translate(-1074.911 -1665.352)" fill="#231f20"/>
    <path id="Path_1067" data-name="Path 1067" d="M2226.032,2657.653a1.455,1.455,0,1,0-2.359,1.7l5.1,7.074a1.455,1.455,0,1,0,2.359-1.7Z" transform="translate(-1060.291 -1672.204)" fill="#231f20"/>
    <path id="Path_1068" data-name="Path 1068" d="M2338.961,2538.382l-3.731,19.374c7.232,44.768,25.857,9.358,25.857,9.358l-1.92-30.994Z" transform="translate(-1140.049 -1586.004)"/>
    <path id="Path_1069" data-name="Path 1069" d="M2424.015,1625.806s49.073-156.728,1.271-183.951c-8.592-4.9-16.357-6.15-26.146-2.735-7.522,2.623-14.349,7.174-20.5,12.282a171.6,171.6,0,0,0-17.792,17.219,15.212,15.212,0,0,0-3.412,5.992c-1.09,3.679-.8,7.61-.605,12.007.387,8.859.964,17.709,1.644,26.545,1.879,24.465,4.52,48.918,8.675,73.075,3.475,20.192,7.174,42.926,17.792,60.64a33.007,33.007,0,0,0,5.234,6.888c27.906,27.2,139.642,78.246,139.642,78.246l14.991-24.41s-65.691-64.707-102.616-77.738Z" transform="translate(-1155.316 -802.441)" fill="#06306d"/>
    <path id="Path_1070" data-name="Path 1070" d="M2292.075,1401.691c-28.855,5.283-56.735,52.548-56.735,52.548l-.761,1.226c-7.685,12.34-70.994,114.586-70.458,128.7.574,15.023,50.12,160.209,50.12,160.209l23.649-7.625s-7.481-112.595-9.783-122.538-16.489-33.289-16.489-33.289c14.113-4.356,89.344-78.872,101.948-109.182S2320.933,1396.408,2292.075,1401.691Z" transform="translate(-1018.041 -776.824)" fill="#083b96"/>
    <path id="Path_1071" data-name="Path 1071" d="M2499.563,793.869c-9.966-9.651-19.761-25.612-23.394-31.823-.956-1.613-1.49-2.583-1.49-2.583-5.068-16.071-42.6-10.65-42.6-10.65-5.951,1.1-37.375,14.541-43.786,20.8-4.974,4.847-7.556,15.8-8.455,20.45-.267,1.346-.385,2.155-.385,2.155,13.827,56.172,96.975,187.77,96.975,187.77a18.087,18.087,0,0,0,12.606,6.092c21.03,1.621,51.139-25.128,57.556-34.595,7.86-11.666,4.482-35.688-2.683-64.6S2512.118,806.045,2499.563,793.869Z" transform="translate(-1171.578 -310.982)" fill="#feb84f"/>
    <path id="Path_1072" data-name="Path 1072" d="M2474.7,757.418c-6.069-10.767-29.142-9.757-38.1-8.934a33.952,33.952,0,0,0-8.279,1.831c-10.8,3.843-33.726,14.128-39.095,19.362-4.974,4.859-7.559,15.809-8.463,20.458,11.935,2.474,29.587,5.754,39.226,6.331a23.532,23.532,0,0,0,5.536-.141c7.614-1.616,33.94-22.384,51.578-34.219-.956-1.619-1.483-2.583-1.483-2.583A11.176,11.176,0,0,0,2474.7,757.418Z" transform="translate(-1172.513 -311.037)" fill="#db8f2c"/>
    <path id="Path_1073" data-name="Path 1073" d="M2379.812,888.739c-.255,1.34-.382,2.155-.382,2.155,13.832,56.167,96.974,187.765,96.974,187.765a18.079,18.079,0,0,0,12.607,6.09c-10.357-49.954-64.437-189.819-64.437-189.819C2416.786,880.256,2379.812,888.739,2379.812,888.739Z" transform="translate(-1171.565 -409.64)" fill="#ef523f"/>
    <path id="Path_1074" data-name="Path 1074" d="M2572.159,780.79c-40.438,2.606-51.98,29.949-54.708,39.049a23.534,23.534,0,0,0,5.536-.141c7.613-1.616,33.94-22.384,51.578-34.219-.956-1.619-1.484-2.583-1.484-2.583A11.2,11.2,0,0,0,2572.159,780.79Z" transform="translate(-1269.977 -334.409)" fill="#b77220"/>
    <path id="Path_1075" data-name="Path 1075" d="M3009.109,2412.262c-4.213-2.213-11.3-2.374-18.94-1.131,0,0,5.527,13.364-2.56,17.927s-17.178-.1-17.178-.1-.861,18.117.861,27.868-3.535,33.576-3.693,37.858a4.051,4.051,0,0,0,.327,1.682c1.389,3.4,6.873,5.768,6.873,5.768s39.029-60.793,42.274-83.386A23.99,23.99,0,0,0,3009.109,2412.262Z" transform="translate(-1590.943 -1496.331)" fill="#ef523f"/>
    <path id="Path_1076" data-name="Path 1076" d="M3009.888,2417c-6.417,14.871-17.554,41.916-19.724,46.2s-14.816,26.344-21.474,37.9c1.389,3.4,6.873,5.768,6.873,5.768s39.028-60.792,42.274-83.386A23.736,23.736,0,0,0,3009.888,2417Z" transform="translate(-1591.722 -1501.069)" fill="#fff"/>
    <path id="Path_1077" data-name="Path 1077" d="M3008.269,2413.913l-.675-.353-.3.7c-2.557,5.926-5.857,13.775-9.048,21.36-4.816,11.442-9.361,22.252-10.658,24.812-2.493,4.941-18.312,32.405-21.457,37.86l-.172.3.132.319c1.484,3.625,7.011,6.05,7.246,6.15l.551.238.324-.505c.1-.152,9.887-15.419,19.942-33.254,13.534-23.994,21.081-40.957,22.436-50.413l.04-.287-.164-.229A24.717,24.717,0,0,0,3008.269,2413.913Zm-34.913,89.6c-1.314-.649-4.646-2.477-5.823-4.827,3.53-6.124,18.848-32.732,21.314-37.617,1.317-2.606,5.874-13.436,10.7-24.9,3.065-7.283,6.23-14.808,8.738-20.636a24,24,0,0,1,6.864,5.69C3011.853,2442.51,2977.146,2497.546,2973.355,2503.51Z" transform="translate(-1589.776 -1498.616)" fill="#231f20"/>
    <path id="Path_1078" data-name="Path 1078" d="M2981.208,2520.467a1.435,1.435,0,0,0-1.624-1.223l-8.544,1.211a1.438,1.438,0,0,0,.405,2.847l8.543-1.211a1.435,1.435,0,0,0,1.22-1.624Z" transform="translate(-1592.517 -1573.961)" fill="#231f20"/>
    <path id="Path_1079" data-name="Path 1079" d="M2978.334,2540.495l-8.543,1.211a1.438,1.438,0,1,0,.4,2.846l8.541-1.211a1.438,1.438,0,0,0-.4-2.847Z" transform="translate(-1591.626 -1589.113)" fill="#231f20"/>
    <path id="Path_1080" data-name="Path 1080" d="M2978.56,2563.195l-8.543,1.211a1.435,1.435,0,0,0-1.223,1.624h0a1.434,1.434,0,0,0,1.627,1.222l8.541-1.211a1.437,1.437,0,0,0-.4-2.847Z" transform="translate(-1591.785 -1605.299)" fill="#231f20"/>
    <path id="Path_1081" data-name="Path 1081" d="M2977.708,2585.534l-8.54,1.211a1.438,1.438,0,1,0,.4,2.847l8.542-1.208a1.439,1.439,0,1,0-.4-2.85Z" transform="translate(-1591.18 -1621.228)" fill="#231f20"/>
    <path id="Path_1082" data-name="Path 1082" d="M2133.992,1027a25.556,25.556,0,0,0-13.129,10.388c-5.458,8.279-3.208,83.329,24.534,140.078,0,0-14.062,29.4-16.116,37.307s9.034,20.375,23.7,13.347c0,0,22.33-26.763,25.975-48.685S2157.82,1043.3,2133.992,1027Z" transform="translate(-985.499 -509.963)" fill="#06306d"/>
    <path id="Path_1083" data-name="Path 1083" d="M2984.789,2389.036l-9.734-9.646s-13.964,9.4-14.636,22.536l-.358,1.874,4.987,3.062s14.658,8.345,23.515-2.17S2984.789,2389.036,2984.789,2389.036Z" transform="translate(-1585.569 -1474.252)"/>
    <path id="Path_1084" data-name="Path 1084" d="M2142.09,939.181c2.686,3.561,8.216-2.482,8.216-2.482,22.341-23.469,61.986-33.332,61.986-33.332l-1.722-8.566C2150.992,906.285,2142.09,939.181,2142.09,939.181Z" transform="translate(-1002.335 -415.701)" fill="#feb84f"/>
    <path id="Path_1085" data-name="Path 1085" d="M2163.937,831.414c-7.588,5.524-25.478,20.834-19.187,38.546.4,1.148,12.415,26.993,12.415,26.993h.649c5.211-.161,40.1-2.135,42.329-27.093l-32.962-40.65S2165.9,829.985,2163.937,831.414Z" transform="translate(-1003.293 -368.934)" fill="#ffaf98"/>
    <path id="Path_1086" data-name="Path 1086" d="M2145.377,873.5c.4,1.148,12.414,26.993,12.414,26.993h.648c8.922-20.418,14.205-46.892,11.723-66.32C2162.6,839.683,2139.092,855.785,2145.377,873.5Z" transform="translate(-1003.925 -372.47)" fill="#ff6845"/>
    <path id="Path_1087" data-name="Path 1087" d="M2043,779.9c-13.453-15.916-66.811,6.259-66.811,6.259s3.8,7.157,9.387,16.383c9.729,16.056,25.145,37.419,35.057,39.092,15.591,2.64,29.053-21.747,25.271-54.58A13.256,13.256,0,0,0,2043,779.9Z" transform="translate(-884.044 -329.677)" fill="#ffaf98"/>
    <path id="Path_1088" data-name="Path 1088" d="M2043.688,915.866c.775,3.028,6,1.518,7.6-2.818L2042.6,902.53S2042.913,912.827,2043.688,915.866Z" transform="translate(-931.396 -421.213)" fill="#ffaf98"/>
    <path id="Path_1089" data-name="Path 1089" d="M2049.8,910.694a.691.691,0,0,0-.89.413c-.935,2.545-3.269,4.018-4.9,3.946a1.341,1.341,0,0,1-1.372-1.059c-.746-2.921-1.065-13.086-1.068-13.2a.695.695,0,0,0-1.386.04c0,.425.327,10.423,1.11,13.488a2.735,2.735,0,0,0,2.646,2.1h.192c2.141,0,4.942-1.771,6.078-4.859A.7.7,0,0,0,2049.8,910.694Z" transform="translate(-929.67 -419.522)" fill="#110300"/>
    <path id="Path_1090" data-name="Path 1090" d="M2057.821,841.405a12.932,12.932,0,0,0-7.7,1.406c-2.646,1.63-4.052,5.524-4.732,8.207a1.048,1.048,0,0,0,1.656,1.088l3.662-3.926a12.249,12.249,0,0,1,3.417-2.563l4.281-2.158a1.148,1.148,0,0,0-.585-2.055Z" transform="translate(-933.361 -377.579)" fill="#111"/>
    <path id="Path_1091" data-name="Path 1091" d="M2060.414,876.139c-.574.364-.066,2.23,1.148,4.161s2.677,3.2,3.26,2.835.066-2.233-1.147-4.164S2060.988,875.766,2060.414,876.139Z" transform="translate(-943.93 -402.349)" fill="#111"/>
    <path id="Path_1092" data-name="Path 1092" d="M2103.539,928.568a6.14,6.14,0,0,0-4.107,3.022,9.09,9.09,0,0,1-5.722,4.081,3.843,3.843,0,0,0-1.533.677,3.015,3.015,0,0,0-1.248,1.9c-.258,1.337.342,3.556,3.915,4.1,7.117,1.076,13.307-5.61,12.053-11C2106.437,929.337,2105.1,928.39,2103.539,928.568Z" transform="translate(-965.818 -439.763)" fill="#111"/>
    <path id="Path_1093" data-name="Path 1093" d="M2102.645,931.671a9.091,9.091,0,0,1-5.722,4.081,3.846,3.846,0,0,0-1.532.677c1.656,1.033,4.379,2.161,6.684.287,2.474-2.04,4.018-5.794,4.678-8.055A6.13,6.13,0,0,0,2102.645,931.671Z" transform="translate(-969.037 -439.844)" fill="#fff"/>
    <path id="Path_1094" data-name="Path 1094" d="M2125.939,958.844a.643.643,0,0,0-.878.232c-3.269,5.653-7.312,5.579-7.49,5.573a.643.643,0,0,0-.057,1.283h.094c.718,0,5.117-.253,8.564-6.216A.64.64,0,0,0,2125.939,958.844Z" transform="translate(-984.395 -461.304)" fill="#110300"/>
    <circle id="Ellipse_3" data-name="Ellipse 3" cx="8.078" cy="8.078" r="8.078" transform="translate(1132.976 484.116) rotate(-86.09)" fill="#f98e70"/>
    <path id="Path_1095" data-name="Path 1095" d="M1976.19,786.16s3.8,7.157,9.387,16.383c3.627-3.257,7.99-7.966,9.252-12.673,0,0,18.223,7.883,28.373-3.26,0,0-3.877-1.11-5.5-3.389,0,0,11.545-1.113,18.1,5.886a42.94,42.94,0,0,0,7.192-9.209C2029.547,763.985,1976.19,786.16,1976.19,786.16Z" transform="translate(-884.044 -329.675)" fill="#ff6845"/>
    <path id="Path_1096" data-name="Path 1096" d="M1935.97,875.12h0Z" transform="translate(-855.338 -401.669)" fill="#a53a2f"/>
    <path id="Path_1097" data-name="Path 1097" d="M1985.042,715.505c-7.777,2.643-16.315.646-23.982,3.444-8.873,3.249-14.266,12.4-16.627,21.1-.167.606-.35,1.6-.574,2.827-1.09,6.026-3.073,17.761-7.788,17.273,1.739.209,12.661.861,20.49-14.791,0,0-.4,11.169-2.924,12.547s8.279-3.062,11.192-15.609c0,0,14.716,7.72,25.678,1.5a21.687,21.687,0,0,1-8.164-4.749c4.035-.9,16.963-3,23.933,5.166,0,0,20.53-3.567,17.663-14.027S2001.345,709.958,1985.042,715.505Z" transform="translate(-855.438 -286.713)" fill="#a53a2f"/>
    <path id="Path_1098" data-name="Path 1098" d="M1935.438,875.029l-.2-.029Z" transform="translate(-854.846 -401.583)" fill="#a53a2f"/>
    <path id="Path_1099" data-name="Path 1099" d="M2000.669,556.576c-25.8,1.38-35.392,13.5-35.392,13.5s-10.248,10.7-13.844,20.852c-2.907,8.236-4.617,16.725-4.187,30.612.049,1.475.132,3.039.261,4.669a3.711,3.711,0,0,0,5.656,2.87c9.47-5.915,30.155-17.766,42.536-16.851,0,0,33.22,17.029,39.542,33.409,0,0-.367-1.538,1.851-4.1,4.046-4.675,7.691-12.168,10.234-17.769,3.938-8.652-.364-32.141-.364-32.141S2026.354,555.2,2000.669,556.576Z" transform="translate(-863.359 -174.511)" fill="#ef523f"/>
    <path id="Path_1100" data-name="Path 1100" d="M2094.8,561.4c-7.063,7.783-23.084,28.33-19.319,50.955l1.1-.184c-3.685-22.143,12.093-42.357,19.046-50.022.287-.319.393-.433.448-.511l-.9-.66C2095.137,561.023,2094.97,561.207,2094.8,561.4Z" transform="translate(-954.435 -177.679)" fill="#feb84f"/>
    <path id="Path_1101" data-name="Path 1101" d="M2163.181,573.709c-1.891-5.054-3.762-8.8-3.779-8.839l-1,.5c.075.146,7.361,14.828,7.749,25.621s-6.247,27.682-6.313,27.851l1.039.413c.017-.043,1.721-4.35,3.349-9.949,2.192-7.542,3.214-13.717,3.042-18.366C2167.064,585.171,2164.932,578.4,2163.181,573.709Z" transform="translate(-1013.964 -180.452)" fill="#feb84f"/>
    <path id="Path_1102" data-name="Path 1102" d="M2185.467,574.208a157.436,157.436,0,0,0-13.517-11.378l-.66.9c.261.189,26.232,19.319,28.287,32.4.861,5.418-.591,14.194-4.17,25.383-2.715,8.494-5.739,15.439-5.76,15.5l1.025.448c.5-1.148,12.128-28.043,10.01-41.514C2199.787,590.25,2194.667,582.933,2185.467,574.208Z" transform="translate(-1023.156 -178.998)" fill="#feb84f"/>
    <path id="Path_1103" data-name="Path 1103" d="M2123.738,592c-1.593,6.2-6.887,23.4-6.947,23.575l1.07.33c.052-.175,5.361-17.4,6.959-23.627s2.763-23.552,2.81-24.287l-1.117-.072C2126.49,568.1,2125.307,585.842,2123.738,592Z" transform="translate(-984.295 -182.627)" fill="#d6231a"/>
    <path id="Path_1104" data-name="Path 1104" d="M2170.666,571c-2.812-4.078-5.263-7.338-6.474-8.919-3.028-3.955-3.229-3.972-3.507-4l-.1,1.116a.475.475,0,0,1-.247-.092,152.3,152.3,0,0,1,9.7,12.963c5.805,8.466,9.346,14.951,9.967,18.257,1.532,8.15-4.184,35.252-4.244,35.525l1.1.232c.238-1.122,5.823-27.6,4.25-35.964C2180.262,585.607,2174.962,577.23,2170.666,571Z" transform="translate(-1015.348 -175.611)" fill="#d6231a"/>
    <g id="Group_307" data-name="Group 307" transform="translate(1090.192 388.972)" opacity="0.47">
      <path id="Path_1105" data-name="Path 1105" d="M1992.539,582.51c-20.995,14.349-23.159,35.355-23.159,35.355.474,6.4,5.674,3.777,9.611-6.491s18.914-11.68,20.949-23.512S1992.539,582.51,1992.539,582.51Z" transform="translate(-1969.38 -580.74)" fill="#fff"/>
    </g>
    <path id="Path_1106" data-name="Path 1106" d="M2008.675,560.036c-8.8,4.115-14.94,7.915-18.255,11.292-7.912,8.061-14.32,46.613-14.59,48.249l1.1.181c.066-.4,6.618-39.835,14.283-47.638s29.845-16.119,30.075-16.2l-.39-1.05C2020.845,554.882,2015.195,556.982,2008.675,560.036Z" transform="translate(-883.788 -173.322)" fill="#feb84f"/>
    <path id="Path_1107" data-name="Path 1107" d="M1997.9,722.316a15.993,15.993,0,0,0-6.678-.393c-2.674.4-7.157,1.148-13.095,2.3-6.847,1.334-21.035,9.737-29.406,14.969.049,1.472.132,3.036.261,4.666a3.711,3.711,0,0,0,5.656,2.87c9.47-5.914,29.584-17.17,41.967-16.254,0,0,30.861,17.046,39.669,32.681,0,0-.092-1.667,2.126-4.23C2024.146,732.2,2005.756,724.471,1997.9,722.316Z" transform="translate(-864.457 -292.304)" fill="#d6231a"/>
    <path id="Path_1108" data-name="Path 1108" d="M2055.982,560.95c-13.046,7.814-20.809,14.119-23.076,18.737-3.854,7.849-8.454,33.972-8.646,35.083l1.1.192c.046-.27,4.766-27.076,8.549-34.784,2.17-4.419,9.789-10.564,22.648-18.269.886-.531,1.148-.689,1.254-.778l-.709-.861C2057.021,560.327,2056.539,560.617,2055.982,560.95Z" transform="translate(-918.319 -177.172)" fill="#d6231a"/>
    <path id="Path_1109" data-name="Path 1109" d="M2183.7,758.388c-10.171.436-11.028,19.62-12.323,20.14l12.481,12.1C2202.6,773.81,2193.87,757.949,2183.7,758.388Z" transform="translate(-1023.219 -318.429)" fill="#ffaf98"/>
    <path id="Path_1110" data-name="Path 1110" d="M2181.942,755.976c-8.11.35-10.578,11.356-11.9,17.267a21.51,21.51,0,0,1-.795,3,.692.692,0,0,0,.66,1.205c.64-.258.861-1.082,1.487-3.906,1.246-5.55,3.561-15.884,10.618-16.185a9.927,9.927,0,0,1,9.471,6.572c2.927,7.174-.743,16.32-9.812,24.462a.692.692,0,1,0,.924,1.03c9.525-8.549,13.327-18.274,10.17-26.017C2190.838,758.691,2186.588,755.775,2181.942,755.976ZM2169.39,776.167Z" transform="translate(-1021.487 -316.709)" fill="#110300"/>
    <path id="Path_1111" data-name="Path 1111" d="M2203.123,797.718l3.125-18.008C2201.082,785.145,2203.123,797.718,2203.123,797.718Z" transform="translate(-1045.569 -333.639)" fill="#f98e70"/>
    <path id="Path_1112" data-name="Path 1112" d="M2204.021,777.467c-2.264,2.382-3.507,6.25-3.693,11.5a39.577,39.577,0,0,0,.384,7.1.692.692,0,0,0,.683.574h.112a.692.692,0,0,0,.574-.795c-.021-.123-1.926-12.3,2.944-17.419a.692.692,0,1,0-1-.956Z" transform="translate(-1043.842 -331.887)" fill="#330a02"/>
    <path id="Path_1113" data-name="Path 1113" d="M2203.62,798.645s11.625-2.009,2.548-12.435Z" transform="translate(-1046.208 -338.274)" fill="#f98e70"/>
    <path id="Path_1114" data-name="Path 1114" d="M2203.974,783.99a.692.692,0,0,0-.068.976c2.746,3.157,3.785,5.757,3.085,7.748-.981,2.775-5.166,3.55-5.229,3.561a.692.692,0,0,0,.117,1.375.536.536,0,0,0,.118,0c.206-.034,5.039-.91,6.3-4.457.884-2.488-.241-5.553-3.343-9.114a.692.692,0,0,0-.976-.089Z" transform="translate(-1044.466 -336.576)" fill="#330a02"/>
    <circle id="Ellipse_4" data-name="Ellipse 4" cx="7.829" cy="7.829" r="7.829" transform="translate(1134.864 385.958) rotate(-59.331)" fill="#feb84f"/>
    <path id="Path_1115" data-name="Path 1115" d="M2419.84,1137.371c3.8,4.833,28.468,6.773,36.965-32.109,7.358-33.674-.112-66.664-1.908-73.861C2459.181,1053.669,2419.84,1137.371,2419.84,1137.371Z" transform="translate(-1200.378 -513.1)" fill="#03244c"/>
    <path id="Path_1116" data-name="Path 1116" d="M2541.08,1027.8a11.664,11.664,0,0,0-.353-1.4C2540.657,1026.184,2540.792,1026.686,2541.08,1027.8Z" transform="translate(-1286.56 -509.5)" fill="#03244c"/>
    <path id="Path_1117" data-name="Path 1117" d="M2235.848,928.688a44.481,44.481,0,0,0-4.109-1.825,45.886,45.886,0,0,0-16.618-3.243,181.856,181.856,0,0,0-26.557,1.693c-16.782,44.036-24.881,35.547-32.793,33.054-2.893-.913-6.652-5.636-6.652-5.636-27.59,60.793,23.1,131.744,44.409,157.8,4.732,5.788,8.058,9.387,8.8,10.182.106.115.167.175.167.175a48.041,48.041,0,0,0,11.192,1.328c12.739,0,24.278-5.166,34.23-12.472A104.411,104.411,0,0,0,2262.4,1096.7c.385-.41.761-.829,1.148-1.24a162.423,162.423,0,0,0,18.163-24.594c3.444-5.714,5.3-9.513,5.3-9.513C2274.653,996.207,2260.373,941,2235.848,928.688Z" transform="translate(-1001.624 -436.244)" fill="#083b96"/>
    <path id="Path_1118" data-name="Path 1118" d="M2167.4,1029.31l-3.291-6.38c-2.583,6.532-2.522,41.8-2.522,41.8,3.127,60.239,53.325,114.474,53.325,114.474l6.856-5.986C2159.357,1110.538,2167.4,1029.31,2167.4,1029.31Z" transform="translate(-1016.239 -507.061)" fill="#03244c"/>
    <path id="Path_1119" data-name="Path 1119" d="M2188.363,1165.345c-8.052-9.441-13.774-21.8-18.94-33.077-22.252-48.645-21.6-86.666-19.093-99.867-2.936-.76-9.734,4.75-9.734,4.75-8.142,110.408,61.068,161.254,61.068,161.254,4.9-4.161,4.667-2.959,9.932-7.134C2203.042,1183.9,2195.1,1173.245,2188.363,1165.345Z" transform="translate(-1000.795 -513.763)" fill="#feb84f"/>
    <path id="Path_1120" data-name="Path 1120" d="M2183.06,1163.985l.984,6.253c.763.069,27.163,3.045,34.638,2.169l-.763-8.7Z" transform="translate(-1031.548 -607.441)" fill="#03244c"/>
    <path id="Path_1121" data-name="Path 1121" d="M2172.09,1135.13l.319,10.483c11.766,4.067,42.687,3.091,42.687,3.091l-2.5-11.539C2200.762,1139.558,2172.09,1135.13,2172.09,1135.13Z" transform="translate(-1023.726 -587.063)" fill="#feb84f"/>
    <path id="Path_1122" data-name="Path 1122" d="M2360.785,894.925l-3.332-4.517c-3.963-2.365-5.412-5.028-13.775-3.808-46.149,13.321-54.023,38.77-53.7,60.646.422,28.7,22.671,99.084,52.866,128.2l16.55-5.2s-19.425-14.811-28.359-42.9c-9.364-29.438-20.895-102.163-20.895-102.163l13.64-19.247C2329.536,902.785,2360.785,894.925,2360.785,894.925Z" transform="translate(-1107.775 -409.636)" fill="#feb84f"/>
    <path id="Path_1123" data-name="Path 1123" d="M2162.73,1025.34l3.86-1.171-1.819-3.389Z" transform="translate(-1017.052 -505.528)" fill="#feb84f"/>
    <path id="Path_1124" data-name="Path 1124" d="M2385.023,1435.563c-28.855,5.283-78.789,45.95-78.789,45.95s2.391,10.087,1.892,10.885c12.239-4.353,43-22.017,50.719-19.8,12.782,3.656,40.57-5.031,39.56,0-.5,2.462-14.923,42.647-38.581,57.82s-76.869,61.43-71.479,85.329,33.78,121.218,27.019,140.689l-12.822,12.019,23.65-7.625s-7.482-112.594-9.783-122.538-16.49-33.289-16.49-33.289c14.113-4.356,89.344-78.872,101.948-109.182S2413.887,1430.28,2385.023,1435.563Z" transform="translate(-1106.346 -800.901)" fill="#03244c"/>
    <path id="Path_1125" data-name="Path 1125" d="M2332.612,1486.587c18.117-14.122,40.782-21.483,61.231-25.254a162.408,162.408,0,0,0,18.163-24.594c-37.048,6.6-71.812,28.485-88.2,39.663C2328.542,1482.194,2331.869,1485.792,2332.612,1486.587Z" transform="translate(-1131.906 -802.118)" fill="#feb84f"/>
    <path id="Path_1126" data-name="Path 1126" d="M2579.969,1406.555a9.166,9.166,0,0,0-10.9-7.019l-29.639,6.408a9.165,9.165,0,0,0-7.019,10.9l4.129,19.1a9.163,9.163,0,0,0,10.9,7.019l29.636-6.425a9.166,9.166,0,0,0,7.022-10.905Z" transform="translate(-1280.49 -775.44)" fill="#feb84f"/>
    <path id="Path_1127" data-name="Path 1127" d="M6.621,0H28.531a6.623,6.623,0,0,1,6.623,6.623V20.74a6.62,6.62,0,0,1-6.621,6.621H6.621A6.62,6.62,0,0,1,0,20.74V6.623A6.621,6.621,0,0,1,6.621,0Z" transform="translate(1258.021 635.677) rotate(-12.2)" fill="#2c8790"/>
    <path id="Path_1128" data-name="Path 1128" d="M1948.039,1088.874a4.844,4.844,0,0,0-6.135-3.053h0a4.844,4.844,0,0,0-3.053,6.135l172.739,514.594a4.847,4.847,0,1,0,9.183-3.085Z" transform="translate(-857.239 -551.723)" fill="#ef523f"/>
    <path id="Path_1129" data-name="Path 1129" d="M2444.768,1026.52l-38.638,108.809c27.739,4.626,31.281-2.93,41.528-40.176S2445.853,1027.232,2444.768,1026.52Z" transform="translate(-1190.602 -509.621)" fill="#03244c"/>
    <path id="Path_1130" data-name="Path 1130" d="M1960.486,1182.182s-13.849-4.75-19.557-4.328-5.7,4.267-4.451,5.656,10.2,2.666,10.2,2.666l-8.948.359s-4.451.669-3.627,3.831,14.188,5.576,14.188,5.576-8.5-1.5-11.051-1.326-2.646,3.208-2.646,3.208c.485,2.758,12.455,6.707,12.455,6.707s-8.913-2.8-10.176-2.752-1,2.052-1,2.052c.706,1.957,6.569,6,10.179,8.339a13,13,0,0,0,6.026,2.058c5.487.456,17.623-.574,20.435-.832,3.808-.35,6.118-.706,6.118-.706,7.393-9.338.743-18.45.743-18.45Z" transform="translate(-853.965 -617.507)" fill="#ffaf98"/>
    <path id="Path_1131" data-name="Path 1131" d="M1978.279,1192.354l-18.9-12.053a.567.567,0,0,0-.121-.057c-.574-.2-14.022-4.781-19.781-4.354-3.751.287-4.979,1.977-5.375,2.964a3.582,3.582,0,0,0,.551,3.622c.68.76,3.062,1.435,5.418,1.943l-3.768.149h-.06c-.106.017-2.655.416-3.731,2.046a2.965,2.965,0,0,0-.353,2.479c.367,1.406,2.614,2.617,5.266,3.579a13.477,13.477,0,0,0-1.627-.029c-2.422.164-3.131,2.526-3.157,3.754a.743.743,0,0,0,0,.112c.2,1.128,1.834,2.342,3.886,3.444a5.86,5.86,0,0,0-1.073-.149,1.435,1.435,0,0,0-1.073.508,3.17,3.17,0,0,0-.462,2.178.555.555,0,0,0,.029.118c.574,1.618,4.084,4.517,10.4,8.609a13.667,13.667,0,0,0,6.285,2.149c.979.08,2.167.115,3.475.115,6.46,0,15.818-.838,17.058-.95,3.78-.347,6.13-.709,6.153-.712a.55.55,0,0,0,.353-.2c7.568-9.562.827-19.032.758-19.127A.546.546,0,0,0,1978.279,1192.354Zm-1.346,18.4c-.66.095-2.778.387-5.869.671-1.478.135-14.618,1.309-20.338.832a12.517,12.517,0,0,1-5.768-1.972c-5.768-3.731-9.378-6.649-9.938-8a2.216,2.216,0,0,1,.213-1.248.321.321,0,0,1,.258-.112c.861-.037,6.578,1.656,9.99,2.726a.574.574,0,0,0,.341-1.068c-4.787-1.578-11.637-4.531-12.053-6.216.029-.4.264-2.482,2.121-2.609,2.459-.167,10.833,1.306,10.9,1.32a.574.574,0,0,0,.2-1.1c-5.031-.907-13.2-3.114-13.746-5.166a1.875,1.875,0,0,1,.2-1.581,4.86,4.86,0,0,1,2.939-1.55l8.913-.359a.574.574,0,0,0,.057-1.114c-3.636-.517-9.1-1.63-9.869-2.485a2.472,2.472,0,0,1-.347-2.457c.52-1.288,2.089-2.095,4.422-2.267,5.338-.4,18.257,3.932,19.273,4.276l18.748,11.964C1978.251,1194.2,1983.471,1202.3,1976.933,1210.752Z" transform="translate(-852.56 -616.106)" fill="#ff5831"/>
    <path id="Path_1132" data-name="Path 1132" d="M2179.15,935.042c-2.115-.393-38.787,9.215-31.392,54.709,0,0,10.59,35.53,8.11,44.409,0,0-62.406-15.752-81.923-16.148,0,0-5.145,2.775-2.841,18.487s98.819,37.149,98.819,37.149,15.23-.663,21.888-18.607S2231.874,944.81,2179.15,935.042Z" transform="translate(-951.297 -444.386)" fill="#2e5abb"/>
    <path id="Path_1133" data-name="Path 1133" d="M2367.622,1251.661a29.282,29.282,0,0,1,15.833,25.458s3.444-15.422-15.984-37.048Z" transform="translate(-1163.037 -661.887)" fill="#083b96"/>
    <path id="Path_1134" data-name="Path 1134" d="M2315.86,1268.09s16.578,11.462,18.473,20.705c0,0,.175-7.536-6.732-17.792Z" transform="translate(-1126.238 -681.866)" fill="#083b96"/>
    <path id="Path_1135" data-name="Path 1135" d="M1914.382,1054.63l-27.148,9.536a4.526,4.526,0,0,0-2.772,5.774h0a4.531,4.531,0,0,0,5.774,2.772l27.151-9.536a4.529,4.529,0,0,0-3-8.546Z" transform="translate(-818.456 -529.48)" fill="#ef523f"/>
    <path id="Path_1136" data-name="Path 1136" d="M2017.713,1634.084a4.529,4.529,0,0,0-6.4-.253l-21.141,19.514a4.53,4.53,0,0,0,6.147,6.655l21.141-19.514A4.531,4.531,0,0,0,2017.713,1634.084Z" transform="translate(-892.975 -941.792)" fill="#ef523f"/>
    <g id="Group_308" data-name="Group 308" transform="translate(1304.548 451.064)" opacity="0.41">
      <path id="Path_1137" data-name="Path 1137" d="M2739.77,828.933c-9.967-9.651-19.761-25.612-23.394-31.823-2.376,1.317,96.659,147.823,12.862,224.047,21.029,1.622,51.139-25.127,57.556-34.595,7.86-11.666,4.483-35.688-2.683-64.6S2752.324,841.109,2739.77,828.933Z" transform="translate(-2716.333 -797.11)" fill="#fff"/>
    </g>
    <path id="Path_1138" data-name="Path 1138" d="M2692.844,993.278c-7.685-17.505-16.246-31.912-18.823-33.042-8.2-3.567-39.123,6.6-44.306,13.224a15.607,15.607,0,0,0-2.9,8.225c-.841,8.833,2.724,20.791,6.546,31.077,2.505,6.764,5.117,12.8,6.669,16.762,4.669,11.918,8.8,29.226,23.713,31.206,9.8,1.309,22.754.508,30.342-5.911,3.619-3.062,12.678-12.34,12.1-17.922C2704.834,1024.039,2699.126,1007.615,2692.844,993.278Z" transform="translate(-1347.865 -461.832)" fill="#2c8790"/>
    <circle id="Ellipse_5" data-name="Ellipse 5" cx="9.154" cy="9.154" r="9.154" transform="translate(1283.98 526.536) rotate(-39.89)" fill="#ef523f"/>
    <circle id="Ellipse_6" data-name="Ellipse 6" cx="9.154" cy="9.154" r="9.154" transform="translate(1309.461 511.445) rotate(-8.71)" fill="#ef523f"/>
    <path id="Path_1139" data-name="Path 1139" d="M2707.681,1073.985a1.122,1.122,0,0,0-1.435-.588c-18.415,7.438-45.1,15.376-59.375,19.446a1.122,1.122,0,0,0-.743,1.466c1.658,4.474,3.386,8.69,4.772,12.076.74,1.8,1.38,3.363,1.905,4.7.611,1.567,1.211,3.208,1.843,4.945,4.081,11.209,9.157,25.156,22.766,26.961a61.723,61.723,0,0,0,8.127.537,53.915,53.915,0,0,0,8.19-.6c6.239-.967,11.25-3.022,14.894-6.107h0a59.664,59.664,0,0,0,7.783-8.179c3.406-4.379,4.987-7.981,4.7-10.71C2720.426,1111.415,2717.786,1097.047,2707.681,1073.985Zm.212,61.986Zm-.72-.861h0c-7.22,6.11-19.959,6.927-29.475,5.656-12.262-1.627-16.88-14.314-20.949-25.506-.637-1.754-1.24-3.406-1.863-5-.534-1.357-1.173-2.924-1.917-4.738-1.263-3.082-2.81-6.856-4.325-10.874,14.294-4.092,39.462-11.625,57.424-18.783,7.148,16.484,11.691,31.47,12.816,42.289.5,4.85-7.834,13.677-11.717,16.96Z" transform="translate(-1361.678 -542.99)" fill="#fff"/>
    <path id="Path_1140" data-name="Path 1140" d="M2696.006,1147.939a1.119,1.119,0,1,0-2.106.749l13.7,38.6a1.119,1.119,0,0,0,2.109-.749Z" transform="translate(-1395.729 -595.627)" fill="#fff"/>
    <path id="Path_1141" data-name="Path 1141" d="M2759.938,1126.029a1.119,1.119,0,1,0-2.109.749l13.706,38.6a1.117,1.117,0,0,0,1.053.746,1.152,1.152,0,0,0,.374-.066,1.12,1.12,0,0,0,.68-1.435Z" transform="translate(-1441.327 -580.042)" fill="#fff"/>
    <path id="Path_1142" data-name="Path 1142" d="M2823.819,1103.979a1.119,1.119,0,0,0-2.11.749l13.706,38.6a1.112,1.112,0,0,0,1.053.743,1.145,1.145,0,0,0,.376-.063,1.116,1.116,0,0,0,.677-1.435Z" transform="translate(-1486.875 -564.32)" fill="#fff"/>
    <path id="Path_1143" data-name="Path 1143" d="M2759.706,1306.767c-8.638,3.025-20.295,7.174-29.406,3.777-.359-.135-.413.861-.186,2.583,1.081,8.385,8.681,34.325,20.18,36.363,3.461.614,7.935-.425,12.458-1.65,10.509-2.855,18.515-10.618,22.6-20.622.358-.878.717-1.868,1.073-2.959,2.838-8.609,5.258-23.119.416-29.538C2778.047,1298.614,2768.818,1303.585,2759.706,1306.767Z" transform="translate(-1421.514 -700.854)" fill="#ef523f"/>
    <path id="Path_1144" data-name="Path 1144" d="M2730.637,1349.86c-.077.878-.132,1.739-.187,2.583,1.082,8.385,8.681,34.325,20.18,36.363,3.461.614,7.935-.425,12.458-1.65,10.509-2.855,18.516-10.618,22.6-20.622.359-.878.717-1.868,1.073-2.959-5.739,5.114-13.5,10.742-22.128,13.353C2746.831,1382.328,2730.637,1349.86,2730.637,1349.86Z" transform="translate(-1421.851 -740.171)" fill="#d6231a"/>
    <circle id="Ellipse_7" data-name="Ellipse 7" cx="23.52" cy="23.52" r="23.52" transform="translate(830.583 638.107) rotate(-45)" fill="#c0e6ff"/>
    <circle id="Ellipse_8" data-name="Ellipse 8" cx="9.088" cy="9.088" r="9.088" transform="translate(807.066 516.115) rotate(-22.5)" fill="#69d1ff"/>
    <circle id="Ellipse_9" data-name="Ellipse 9" cx="9.088" cy="9.088" r="9.088" transform="translate(779.266 756.889) rotate(-67.5)" fill="#69d1ff"/>
    <circle id="Ellipse_10" data-name="Ellipse 10" cx="20.048" cy="20.048" r="20.048" transform="matrix(0.515, -0.857, 0.857, 0.515, 1431.076, 434.618)" fill="#c0e6ff"/>
    <circle id="Ellipse_11" data-name="Ellipse 11" cx="13.987" cy="13.987" r="13.987" transform="translate(1541.054 465.969) rotate(-0.29)" fill="#69d1ff"/>
    <circle id="Ellipse_12" data-name="Ellipse 12" cx="13.987" cy="13.987" r="13.987" transform="matrix(0.853, -0.522, 0.522, 0.853, 1556.677, 761.703)" fill="#c0e6ff"/>
    <circle id="Ellipse_13" data-name="Ellipse 13" cx="11.732" cy="11.732" r="11.732" transform="matrix(0.543, -0.84, 0.84, 0.543, 999.472, 320.869)" fill="#c0e6ff"/>
    <circle id="Ellipse_14" data-name="Ellipse 14" cx="7.45" cy="7.45" r="7.45" transform="matrix(1, -0.04, 0.04, 1, 1485.083, 321.923)" fill="#69d1ff"/>
  </g>
</svg>
