<svg xmlns="http://www.w3.org/2000/svg" width="204.748" height="162.255" viewBox="0 0 204.748 162.255">
  <g id="Group_5110" data-name="Group 5110" transform="translate(-36.919 -3921)">
    <g id="Group_5071" data-name="Group 5071" transform="translate(-1665 2269.213)" opacity="0.43">
      <path id="Path_1005" data-name="Path 1005" d="M3497.889,2652.99a51.72,51.72,0,0,0-28.123-5.249c-14.249,1.354-16.728,9.5-16.857,9.955l.479-7.324c-11.766,8.322-14.736,17.675-15.072,21.607a3.132,3.132,0,0,0,.166,1.865c8.093,8.052,29.427-.775,29.427-.775l-3.4-5.94s7.438,4.494,20.063,5.266c11.812.717,22.984,15.85,26.5,8.52a9.122,9.122,0,0,0,.617-1.866C3514.247,2667.686,3500.556,2654.382,3497.889,2652.99Z" transform="translate(-1693.741 -897.729)" fill="#89c2c1"/>
      <path id="Path_1006" data-name="Path 1006" d="M3478.248,2681.354c-19.334-2.238-33.544,8.391-40,14.538a3.138,3.138,0,0,0,.166,1.865c8.093,8.052,29.426-.775,29.426-.775l-3.4-5.941s7.438,4.494,20.063,5.266c11.812.718,22.983,15.85,26.5,8.52C3506.317,2696.457,3496.244,2683.443,3478.248,2681.354Z" transform="translate(-1693.692 -921.641)" fill="#3ea399"/>
      <path id="Path_1007" data-name="Path 1007" d="M3470.973,2679c-.543,0-1.085,0-1.627.029l-1.63.083-1.624.161a43.515,43.515,0,0,0-6.411,1.234,46.492,46.492,0,0,0-6.144,2.21,42.679,42.679,0,0,0-5.719,3.125c-.457.287-.9.609-1.349.909s-.878.635-1.312.962c-.861.674-1.693,1.352-2.491,2.083s-1.57,1.484-2.3,2.3q-.275.3-.534.608c-.172.207-.35.411-.516.623s-.33.427-.491.643a3.865,3.865,0,0,0-.419.691,8.529,8.529,0,0,1,1.094-1.165c.2-.184.387-.368.589-.543s.4-.356.6-.525c.81-.692,1.633-1.363,2.491-1.986a50.854,50.854,0,0,1,5.312-3.473,50.077,50.077,0,0,1,11.629-4.833,45.1,45.1,0,0,1,6.167-1.277,51.761,51.761,0,0,1,6.3-.508,68.508,68.508,0,0,1,12.7,1.1,44.42,44.42,0,0,0-12.681-2.405C3472.061,2679,3471.518,2679,3470.973,2679Z" transform="translate(-1693.834 -920.18)" fill="#199"/>
      <path id="Path_1031" data-name="Path 1031" d="M3428.229,2598.273s-12.741-19.113-19.54-21.236-19.959-18.266-28.881-25.484c-5.452-4.425-16.357-7.258-23.985-8.784-4.8-.973-8.288-1.409-8.288-1.409-31.854,11.04-57.765,56.91-57.765,56.91a.071.071,0,0,0,.028.02c13.775,13.092,50.4,24.356,82.686,31.1,28.5,5.972,53.6,8.394,56.591,5.409,3.384-3.386,2.939-13.462,1.771-22.177C3429.817,2604.917,3428.229,2598.273,3428.229,2598.273Z" transform="translate(-1587.851 -822.039)" fill="#97daff"/>
      <path id="Path_1032" data-name="Path 1032" d="M3572.824,2580.568c-6.79-2.121-19.959-18.269-28.878-25.486-5.467-4.425-16.373-7.255-23.985-8.781,11.5,13.071,29.412,33.254,34.606,44.461,5.361,11.574-8.239,30.657-17.944,42.156,28.5,5.972,53.6,8.394,56.588,5.407,6.371-6.371-.847-36.523-.847-36.523S3579.622,2582.688,3572.824,2580.568Z" transform="translate(-1751.982 -825.562)" fill="#69d1ff"/>
      <path id="Path_1033" data-name="Path 1033" d="M3420.124,2564.433c-5.673-1.26-19.727,10.193-27.365,18.995-1.774,2.043,2.545,4.279,5.151,3.541,21.4-6.052,36.342,7.789,38.311-.642C3438.473,2576.666,3428.816,2566.364,3420.124,2564.433Z" transform="translate(-1660.987 -838.422)" fill="#d7f3ff"/>
      <path id="Path_1034" data-name="Path 1034" d="M3416.723,2760.43c-59.344,19.89-125.2-19.687-126.843-20.679,13.775,13.092,50.4,24.355,82.686,31.1,28.5,5.972,53.6,8.394,56.591,5.409,3.384-3.386,2.939-13.462,1.771-22.177Z" transform="translate(-1587.929 -963.497)" fill="#48c4ef"/>
    </g>
    <g id="Group_5073" data-name="Group 5073" transform="translate(-1544.145 2239.837)" opacity="0.2">
      <path id="Path_1005-2" data-name="Path 1005" d="M3473.511,2650.75a30.566,30.566,0,0,0-16.622-3.1c-8.421.8-9.887,5.618-9.963,5.884l.283-4.329c-6.954,4.919-8.71,10.447-8.908,12.77a1.852,1.852,0,0,0,.1,1.1c4.783,4.76,17.393-.458,17.393-.458l-2.012-3.511a27.953,27.953,0,0,0,11.858,3.112c6.981.424,13.585,9.368,15.662,5.036a5.419,5.419,0,0,0,.365-1.1C3483.18,2659.436,3475.087,2651.572,3473.511,2650.75Z" transform="translate(-1711.17 -910.186)" fill="#89c2c1"/>
      <path id="Path_1006-2" data-name="Path 1006" d="M3461.874,2681.229c-11.427-1.323-19.827,4.96-23.643,8.593a1.854,1.854,0,0,0,.1,1.1c4.783,4.759,17.392-.458,17.392-.458l-2.011-3.511a27.948,27.948,0,0,0,11.858,3.113c6.981.424,13.584,9.368,15.662,5.036C3478.464,2690.156,3472.511,2682.464,3461.874,2681.229Z" transform="translate(-1711.113 -938.035)" fill="#3ea399"/>
      <path id="Path_1007-2" data-name="Path 1007" d="M3457.656,2679c-.321,0-.641,0-.962.017l-.964.049-.96.1a25.734,25.734,0,0,0-3.789.729,27.541,27.541,0,0,0-3.631,1.306,25.275,25.275,0,0,0-3.381,1.847c-.27.17-.531.36-.8.538s-.519.375-.775.568c-.509.4-1,.8-1.472,1.232s-.928.877-1.357,1.356q-.163.176-.316.36c-.1.122-.207.243-.305.368s-.2.253-.29.38a2.277,2.277,0,0,0-.248.409,5.033,5.033,0,0,1,.646-.689c.115-.108.229-.217.348-.321s.234-.21.356-.311c.479-.408.965-.805,1.473-1.173a30.1,30.1,0,0,1,3.139-2.052,29.6,29.6,0,0,1,6.873-2.857,26.634,26.634,0,0,1,3.645-.754,30.577,30.577,0,0,1,3.721-.3,40.483,40.483,0,0,1,7.5.648,26.241,26.241,0,0,0-7.5-1.422C3458.3,2679,3457.979,2679,3457.656,2679Z" transform="translate(-1711.279 -936.333)" fill="#199"/>
      <path id="Path_1031-2" data-name="Path 1031" d="M3371.606,2575s-7.531-11.3-11.549-12.552-11.8-10.8-17.07-15.062c-3.223-2.615-9.668-4.29-14.177-5.192-2.834-.575-4.9-.833-4.9-.833-18.827,6.525-34.142,33.636-34.142,33.636a.04.04,0,0,0,.017.012c8.142,7.738,29.792,14.4,48.872,18.379,16.844,3.53,31.682,4.961,33.448,3.2,2-2,1.737-7.957,1.046-13.108C3372.545,2578.925,3371.606,2575,3371.606,2575Z" transform="translate(-1587.851 -822.039)" fill="#97daff"/>
      <path id="Path_1032-2" data-name="Path 1032" d="M3551.205,2566.554c-4.013-1.253-11.8-10.8-17.068-15.064-3.231-2.615-9.677-4.288-14.177-5.19,6.8,7.726,17.384,19.655,20.454,26.279,3.169,6.841-4.869,18.12-10.606,24.917,16.844,3.53,31.682,4.961,33.447,3.2,3.765-3.766-.5-21.587-.5-21.587S3555.223,2567.807,3551.205,2566.554Z" transform="translate(-1778.997 -826.141)" fill="#69d1ff"/>
      <path id="Path_1033-2" data-name="Path 1033" d="M3408.762,2564.394c-3.353-.745-11.659,6.024-16.175,11.227-1.048,1.208,1.5,2.529,3.045,2.093,12.649-3.577,21.48,4.6,22.643-.38C3419.608,2571.624,3413.9,2565.535,3408.762,2564.394Z" transform="translate(-1673.025 -841.119)" fill="#d7f3ff"/>
      <path id="Path_1034-2" data-name="Path 1034" d="M3364.85,2751.973c-35.075,11.756-74-11.636-74.97-12.222,8.142,7.738,29.791,14.4,48.872,18.38,16.844,3.53,31.683,4.961,33.448,3.2,2-2,1.737-7.957,1.047-13.108Z" transform="translate(-1587.942 -986.78)" fill="#48c4ef"/>
    </g>
    <g id="Group_5076" data-name="Group 5076" transform="translate(-1640.2 2201.679)" opacity="0.43">
      <path id="Path_1005-3" data-name="Path 1005" d="M3462.292,2649.718a20.842,20.842,0,0,0-11.329-2.114c-5.74.545-6.738,3.829-6.791,4.01l.193-2.95c-4.74,3.353-5.936,7.12-6.071,8.7a1.258,1.258,0,0,0,.067.751c3.26,3.244,11.854-.312,11.854-.312l-1.371-2.393a19.049,19.049,0,0,0,8.082,2.121c4.758.289,9.259,6.385,10.675,3.433a3.71,3.71,0,0,0,.249-.752C3468.881,2655.639,3463.366,2650.279,3462.292,2649.718Z" transform="translate(-1719.191 -915.919)" fill="#89c2c1"/>
      <path id="Path_1006-3" data-name="Path 1006" d="M3454.338,2681.171c-7.788-.9-13.513,3.38-16.114,5.856a1.26,1.26,0,0,0,.067.752c3.26,3.244,11.854-.312,11.854-.312l-1.371-2.393a19.05,19.05,0,0,0,8.082,2.122c4.758.289,9.258,6.385,10.675,3.432C3465.646,2687.256,3461.588,2682.013,3454.338,2681.171Z" transform="translate(-1719.129 -945.579)" fill="#3ea399"/>
      <path id="Path_1007-3" data-name="Path 1007" d="M3451.527,2679c-.219,0-.437,0-.656.011l-.657.034-.654.065a17.531,17.531,0,0,0-2.583.5,18.71,18.71,0,0,0-2.475.89,17.245,17.245,0,0,0-2.3,1.259c-.184.116-.362.245-.543.367s-.354.256-.529.387c-.347.271-.682.544-1,.839s-.632.6-.925.925q-.111.12-.215.245c-.07.083-.141.166-.208.251s-.133.172-.2.259a1.569,1.569,0,0,0-.169.278,3.411,3.411,0,0,1,.441-.469c.078-.074.156-.148.237-.219s.159-.143.243-.211c.326-.279.658-.549,1-.8a20.536,20.536,0,0,1,2.14-1.4,20.185,20.185,0,0,1,4.684-1.947,18.232,18.232,0,0,1,2.484-.515,20.86,20.86,0,0,1,2.537-.2,27.584,27.584,0,0,1,5.114.442,17.887,17.887,0,0,0-5.108-.969C3451.965,2679,3451.747,2679,3451.527,2679Z" transform="translate(-1719.306 -943.767)" fill="#199"/>
      <path id="Path_1031-3" data-name="Path 1031" d="M3345.547,2564.287s-5.133-7.7-7.872-8.555-8.04-7.358-11.635-10.266c-2.2-1.783-6.589-2.924-9.662-3.539-1.932-.392-3.339-.568-3.339-.568-12.832,4.448-23.27,22.926-23.27,22.926a.029.029,0,0,0,.011.008c5.549,5.274,20.3,9.812,33.31,12.527,11.48,2.405,21.594,3.381,22.8,2.179,1.363-1.364,1.184-5.423.714-8.934C3346.187,2566.963,3345.547,2564.287,3345.547,2564.287Z" transform="translate(-1587.851 -822.039)" fill="#97daff"/>
      <path id="Path_1032-3" data-name="Path 1032" d="M3541.256,2560.1c-2.735-.854-8.041-7.36-11.633-10.267-2.2-1.783-6.6-2.923-9.662-3.538,4.635,5.266,11.848,13.4,13.94,17.911,2.16,4.662-3.319,12.35-7.229,16.982,11.48,2.406,21.594,3.381,22.8,2.178,2.567-2.567-.341-14.713-.341-14.713S3543.994,2560.959,3541.256,2560.1Z" transform="translate(-1791.43 -826.408)" fill="#69d1ff"/>
      <path id="Path_1033-3" data-name="Path 1033" d="M3403.533,2564.375c-2.285-.507-7.947,4.106-11.024,7.652-.715.823,1.025,1.724,2.075,1.427,8.622-2.438,14.64,3.138,15.433-.259C3410.926,2569.3,3407.035,2565.153,3403.533,2564.375Z" transform="translate(-1678.565 -842.36)" fill="#d7f3ff"/>
      <path id="Path_1034-3" data-name="Path 1034" d="M3340.978,2748.081c-23.906,8.012-50.437-7.93-51.1-8.33,5.549,5.274,20.3,9.811,33.309,12.527,11.481,2.406,21.594,3.381,22.8,2.179,1.363-1.364,1.184-5.423.713-8.934Z" transform="translate(-1587.948 -997.495)" fill="#48c4ef"/>
    </g>
  </g>
</svg>
