<svg xmlns="http://www.w3.org/2000/svg" width="1114.912" height="318.692" viewBox="0 0 1114.912 318.692">
  <g id="Group_15" data-name="Group 15" transform="translate(-2297.242 -690.403)">
    <path id="Path_129" data-name="Path 129" d="M2463,1000.646q-15.3,0-26.393-6.414t-11.1-21.705q0-18.744,9.867-47.359t31.572-67.587q15.287-27.624,31.078-52.293t35.521-50.32l-89.293,21.215a392.953,392.953,0,0,1-48.348,8.385,418.707,418.707,0,0,1-44.4,2.468q-28.116,0-41.193-7.646t-13.072-18.994q0-6.9,6.414-14.8,8.88-10.846,23.678-19.24t37.986-14.306a288.72,288.72,0,0,1,39.961-7.4,355.217,355.217,0,0,1,40.947-2.466q18.744,0,31.078,1.231a104.838,104.838,0,0,1,20.227,3.7q6.9,2.476,6.908,5.92t-5.428,2.468q-.5,0-13.811-2.468t-39.469-1.479Q2359.4,715.01,2329.8,743.126q-6.917,6.42-6.906,10.854,0,6.417,11.836,8.388a177.178,177.178,0,0,0,28.617,1.971q17.262,0,45.633-4.685t59.445-11.1q16.767-3.448,29.105-5.922T2522.2,737.7q12.325-2.463,28.613-5.918,1.479-1.968,5.672-6.906t6.168-6.907q3.445-3.448,14.8-5.427a135.5,135.5,0,0,1,23.188-1.975c5.256,0,7.893.826,7.893,2.467q0,1-10.359,12.335,18.741-2.462,34.039-3.947t31.574-1.482a208.806,208.806,0,0,1,35.025,3.208,177.155,177.155,0,0,1,35.521,9.867q16.764,6.659,27.377,17.267t10.607,24.911q0,7.9-5.918,7.9-3.46,0-4.441-4.441a49.722,49.722,0,0,0-2.467-7.4q-1.482-3.444-2.467-5.427-8.4-12.821-24.664-18.747a147.056,147.056,0,0,0-34.535-7.892,310.99,310.99,0,0,0-33.053-1.975,365.788,365.788,0,0,0-39.957,2.221q-20.238,2.218-45.883,6.66-22.7,26.153-41.687,52.292-19,26.158-36.26,53.774-44.895,73.017-44.893,119.386,0,19.239,7.893,19.24a26.028,26.028,0,0,0,6.66-1.48,49.527,49.527,0,0,0,9.125-3.947q10.362-5.919,10.855-5.92,5.426,0,5.426,4.439,0,5.92-12.334,10.854Q2470.4,1000.643,2463,1000.646Z" transform="translate(0 8.45)" fill="#f2f2f2"/>
    <path id="Path_130" data-name="Path 130" d="M2550.467,945.984q-17.273,0-29.105-7.893t-11.842-26.639q0-11.84,9.375-31.573a175.822,175.822,0,0,1,23.186-36.507,47.929,47.929,0,0,1-6.168.74c-2.465.168-5.178.246-8.139.246a51.263,51.263,0,0,1-14.8-2.219q-7.4-2.221-9.865-8.634-1.98,2.476-9.867,12.334-7.9,9.875-18.006,21.459t-18.5,19.979q-8.394,8.4-11.346,8.386a4.718,4.718,0,0,1-2.465-.986,2.9,2.9,0,0,1-1.482-2.467q0-2.462,5.182-7.4t7.645-7.4q18.747-20.22,27.877-33.3a225.792,225.792,0,0,0,12.576-19.487q-2.962-4.438-2.957-13.813a82.328,82.328,0,0,1,3.2-21.952,67.611,67.611,0,0,1,8.881-19.98q5.666-8.383,13.074-8.388,8.385,0,13.814,8.88t5.426,16.281q0,5.917-4.439,12.826a109.273,109.273,0,0,1-10.115,13.32q-5.678,6.415-9.619,10.359,4.438,11.84,17.266,11.84,8.883,0,14.8-4.932t10.854-9.621q4.925-4.684,10.361-4.687a18.38,18.38,0,0,1,12.334,4.687,13.388,13.388,0,0,1,4.93,11.592,188.1,188.1,0,0,0-18.5,23.927,191.271,191.271,0,0,0-17.02,31.082q-6.914,16.034-6.906,28.858,0,9.376,5.672,12.827t15.047,3.454q8.88,0,18.744-4.935a155.653,155.653,0,0,0,19.734-11.84q6.407-4.438,18.994-16.279t29.355-30.094a2.832,2.832,0,0,1,1.971-.986q3.943,0,3.947,5.427,0,1.478-5.918,8.139t-14.062,15.046q-8.136,8.4-15.539,15.541a113.773,113.773,0,0,1-10.852,9.621,227.5,227.5,0,0,1-26.395,17.265A61.021,61.021,0,0,1,2550.467,945.984Z" transform="translate(103.452 50.283)" fill="#f2f2f2"/>
    <path id="Path_131" data-name="Path 131" d="M2606.012,922.711q-21.712,0-37.984-10.36t-16.281-34.534q0-14.8,8.137-30.834a128.509,128.509,0,0,1,50.32-52.292q15.542-8.627,30.834-8.633a21.177,21.177,0,0,1,13.32,4.193q5.426,4.2,5.428,12.579,0,9.875-8.633,20.228a116.269,116.269,0,0,1-21.215,19.486,200.738,200.738,0,0,1-25.406,15.788,174.694,174.694,0,0,1-21.213,9.619,50.724,50.724,0,0,0-1.479,12.333,34.547,34.547,0,0,0,6.166,20.226q6.161,8.879,21.459,8.88a62.415,62.415,0,0,0,27.873-6.167,103.107,103.107,0,0,0,22.939-15.292q10.362-9.125,18.746-17.514,6.905-6.9,11.35-11.593t7.893-8.14a6.027,6.027,0,0,1,4.441-1.48,4.945,4.945,0,0,1,3.943,1.728q1.479,1.734-.988,4.192a95.863,95.863,0,0,1-6.66,7.153q-4.693,4.7-8.877,9.374-4.2,4.7-6.166,6.66Q2662.244,901.5,2642.52,912.1T2606.012,922.711ZM2584.8,858.084q4.925-.984,14.061-6.167a149.216,149.216,0,0,0,18.006-12.087q3.94-3.444,10.852-10.359t9.373-11.84q3.445-6.4,3.455-10.359,0-5.92-6.414-5.92a21.154,21.154,0,0,0-7.4,1.479q-4.934,1.979-11.836,9.867-6.92,7.9-10.857,12.334a145.479,145.479,0,0,0-11.1,16.034A93.962,93.962,0,0,0,2584.8,858.084Z" transform="translate(182.584 68.624)" fill="#f2f2f2"/>
    <path id="Path_132" data-name="Path 132" d="M2634.3,988.375a50.875,50.875,0,0,1-10.115-1.48q-6.659-1.479-6.658-6.411,0-6.409,5.178-18.254t11.346-23.68q6.164-11.84,9.621-18.253,8.385-15.286,21.709-37.74t30.832-48.347q17.5-25.9,37.244-51.306a493.851,493.851,0,0,1,40.7-46.372q20.959-20.964,41.438-33.546t38.729-12.582a47.274,47.274,0,0,1,20.967,4.687q9.618,4.694,9.621,18.5,0,14.8-10.854,31.573t-28.617,34.04a421.009,421.009,0,0,1-39.219,33.547q-21.46,16.28-43.166,30.833T2722.6,869.729q-18.756,11.6-30.588,18.993-3.955,6.417-9.867,18.007t-9.373,18.5q8.382-6.407,23.186-18.993t32.809-25.9a301.459,301.459,0,0,1,35.271-22.694q17.262-9.364,30.094-9.372,10.359,0,14.8,5.92t4.439,15.787q0,11.84-9.127,21.459a87.188,87.188,0,0,1-23.432,17.02,142.518,142.518,0,0,1-29.355,11.348,107.155,107.155,0,0,1-26.887,3.945h-3.945a16.02,16.02,0,0,1-3.945-.493q5.918,17.272,20.717,31.08t33.547,13.813q21.7,0,37.74-7.646a117.4,117.4,0,0,0,28.121-18.5q12.079-10.846,21.459-20.226,2.464-2.463,3.945-2.466,2.467,0,2.469,3.947a10.879,10.879,0,0,1-3.455,7.893q-8.394,8.4-11.348,11.84a61.581,61.581,0,0,1-5.424,5.672q-2.476,2.224-10.359,8.143-10.857,7.9-18.994,13.565a93.855,93.855,0,0,1-19.486,10.114,113.144,113.144,0,0,1-18.254,5.671,89.562,89.562,0,0,1-19.732,2.221,69.942,69.942,0,0,1-17.514-2.221,46.907,46.907,0,0,1-16.529-8.139,73.284,73.284,0,0,1-20.223-22.2,80.634,80.634,0,0,1-10.854-27.132q-5.921,2.96-15.047,10.853a93.849,93.849,0,0,0-16.775,19.487,56.93,56.93,0,0,0-9.125,25.9,62.539,62.539,0,0,1-8.387,2.466A41.028,41.028,0,0,1,2634.3,988.375Zm63.639-116.425q11.344-7.886,30.586-20.475t41.193-28.12q21.943-15.539,42.18-32.559a298.79,298.79,0,0,0,34.781-34.039q14.543-17.021,18.006-31.82a7.984,7.984,0,0,1,.244-1.974,6.908,6.908,0,0,0,.25-1.48q0-7.4-7.895-8.881a9.479,9.479,0,0,0-2.959-.493h-2.961q-15.3,0-33.3,13.32-18.015,13.321-36.754,33.793t-35.521,42.92q-16.775,22.453-29.354,41.192T2697.936,871.949Zm22.693,42.425a75.658,75.658,0,0,0,16.771-2.466,104.037,104.037,0,0,0,20.721-7.4,65.35,65.35,0,0,0,17.516-11.838,21.927,21.927,0,0,0,7.15-16.281q0-5.92-6.9-5.92-3.958,0-12.334,4.934-8.4,4.937-18.006,11.84t-17.514,13.318q-7.9,6.42-11.842,9.869a2,2,0,0,0-.49,1.479c0,.987.652,1.651,1.971,1.973A13.157,13.157,0,0,0,2720.629,914.375Z" transform="translate(229.774 0)" fill="#f2f2f2"/>
    <path id="Path_133" data-name="Path 133" d="M2803.924,922.711q-21.715,0-37.986-10.36t-16.281-34.534q0-14.8,8.141-30.834a128.476,128.476,0,0,1,50.32-52.292q15.542-8.627,30.83-8.633a21.17,21.17,0,0,1,13.32,4.193q5.426,4.2,5.428,12.579,0,9.875-8.633,20.228a116.254,116.254,0,0,1-21.213,19.486,201,201,0,0,1-25.4,15.788,174.97,174.97,0,0,1-21.215,9.619,50.724,50.724,0,0,0-1.48,12.333,34.548,34.548,0,0,0,6.168,20.226q6.158,8.879,21.457,8.88a62.4,62.4,0,0,0,27.873-6.167,103.119,103.119,0,0,0,22.941-15.292q10.359-9.125,18.746-17.514,6.9-6.9,11.348-11.593t7.893-8.14a6.03,6.03,0,0,1,4.441-1.48,4.953,4.953,0,0,1,3.947,1.728c.986,1.156.652,2.55-.988,4.192a97.166,97.166,0,0,1-6.66,7.153q-4.7,4.7-8.881,9.374-4.2,4.7-6.166,6.66-21.712,23.193-41.437,33.793T2803.924,922.711Zm-21.215-64.626q4.928-.984,14.063-6.167a149.2,149.2,0,0,0,18-12.087q3.943-3.444,10.854-10.359t9.373-11.84q3.448-6.4,3.455-10.359,0-5.92-6.416-5.92a21.144,21.144,0,0,0-7.4,1.479q-4.937,1.979-11.838,9.867-6.917,7.9-10.855,12.334a145.479,145.479,0,0,0-11.1,16.034A94.107,94.107,0,0,0,2782.709,858.084Z" transform="translate(324.569 68.624)" fill="#f2f2f2"/>
    <path id="Path_134" data-name="Path 134" d="M2931.93,945.984q-17.273,0-29.105-7.893t-11.84-26.639q0-11.84,9.373-31.573a175.822,175.822,0,0,1,23.186-36.507,47.9,47.9,0,0,1-6.164.74c-2.467.168-5.182.246-8.141.246a51.24,51.24,0,0,1-14.8-2.219q-7.4-2.221-9.867-8.634-1.978,2.476-9.869,12.334-7.9,9.875-18.006,21.459t-18.5,19.979q-8.394,8.4-11.348,8.386a4.73,4.73,0,0,1-2.465-.986,2.9,2.9,0,0,1-1.482-2.467q0-2.462,5.182-7.4t7.646-7.4q18.741-20.22,27.875-33.3a225.589,225.589,0,0,0,12.58-19.487q-2.962-4.438-2.961-13.813a82.255,82.255,0,0,1,3.205-21.952,67.461,67.461,0,0,1,8.881-19.98q5.666-8.383,13.074-8.388,8.382,0,13.813,8.88t5.428,16.281q0,5.917-4.441,12.826a109.635,109.635,0,0,1-10.111,13.32q-5.678,6.415-9.621,10.359,4.436,11.84,17.266,11.84,8.877,0,14.8-4.932t10.854-9.621q4.925-4.684,10.359-4.687a18.376,18.376,0,0,1,12.334,4.687A13.392,13.392,0,0,1,2964,831.038a187.909,187.909,0,0,0-18.5,23.927,191.271,191.271,0,0,0-17.02,31.082q-6.917,16.034-6.9,28.858,0,9.376,5.67,12.827t15.047,3.454q8.88,0,18.748-4.935a155.909,155.909,0,0,0,19.732-11.84q6.407-4.438,18.994-16.279t29.354-30.094a2.84,2.84,0,0,1,1.973-.986q3.94,0,3.945,5.427,0,1.478-5.918,8.139t-14.061,15.046q-8.139,8.4-15.541,15.541a113.041,113.041,0,0,1-10.852,9.621,227,227,0,0,1-26.395,17.265A61.021,61.021,0,0,1,2931.93,945.984Z" transform="translate(377.119 50.283)" fill="#f2f2f2"/>
  </g>
</svg>
